<svg id="Layer_1" data-name="Layer 1" xmlns="http://www.w3.org/2000/svg" viewBox="0 0 211 82"><defs><style>.cls-1{isolation:isolate;}.cls-2{fill:#231f20;}.cls-3{fill:#ffc729;}.cls-4{fill:#fff;}.cls-5{fill:none;}</style></defs><g id="T" class="cls-1"><g class="cls-1"><path class="cls-2" d="M63,6H59.09v13a2.42,2.42,0,0,1-.49,1.66,1.7,1.7,0,0,1-1.29.54A1.72,1.72,0,0,1,56,20.56a2.34,2.34,0,0,1-.5-1.65V6H51.56a2,2,0,0,1-1.38-.41,1.37,1.37,0,0,1-.45-1.07,1.39,1.39,0,0,1,.47-1.1A2.08,2.08,0,0,1,51.56,3H63a2,2,0,0,1,1.39.42,1.36,1.36,0,0,1,.46,1.08,1.35,1.35,0,0,1-.46,1.07A2.06,2.06,0,0,1,63,6Z"/></g></g><g id="r" class="cls-1"><g class="cls-1"><path class="cls-2" d="M70.11,16.32v2.77a2.11,2.11,0,0,1-.48,1.51,1.55,1.55,0,0,1-1.2.51,1.52,1.52,0,0,1-1.18-.51,2.18,2.18,0,0,1-.46-1.51V9.85c0-1.49.54-2.24,1.62-2.24a1.36,1.36,0,0,1,1.19.53A3,3,0,0,1,70,9.68a5.82,5.82,0,0,1,1.22-1.54,2.51,2.51,0,0,1,1.67-.53,4.24,4.24,0,0,1,2,.53,1.56,1.56,0,0,1,1,1.38,1.34,1.34,0,0,1-.42,1,1.31,1.31,0,0,1-.91.39,4.1,4.1,0,0,1-.88-.22,4.15,4.15,0,0,0-1.23-.23,1.85,1.85,0,0,0-1.2.38A2.57,2.57,0,0,0,70.56,12a8.19,8.19,0,0,0-.36,1.79C70.14,14.48,70.11,15.32,70.11,16.32Z"/></g></g><g id="a" class="cls-1"><g class="cls-1"><path class="cls-2" d="M86.48,19.23a10,10,0,0,1-2.33,1.41,6.54,6.54,0,0,1-2.52.47,4.72,4.72,0,0,1-2.24-.51,3.65,3.65,0,0,1-2-3.24A3.33,3.33,0,0,1,78.24,15a4.29,4.29,0,0,1,2.37-1.29l1.57-.33c.83-.17,1.54-.32,2.14-.46s1.24-.32,1.94-.52a3.47,3.47,0,0,0-.53-1.93,2.36,2.36,0,0,0-1.94-.61,4.12,4.12,0,0,0-1.9.35,3.06,3.06,0,0,0-1.09,1.06,11.3,11.3,0,0,1-.65.93c-.12.15-.39.22-.81.22a1.44,1.44,0,0,1-1-.35,1.19,1.19,0,0,1-.41-.92,2.81,2.81,0,0,1,.62-1.7,4.48,4.48,0,0,1,1.93-1.37,8.88,8.88,0,0,1,3.27-.53,9.11,9.11,0,0,1,3.44.52A3.17,3.17,0,0,1,89,9.74a7.1,7.1,0,0,1,.52,3c0,.78,0,1.44,0,2s0,1.14,0,1.81a6.94,6.94,0,0,0,.31,1.95,5.93,5.93,0,0,1,.31,1.31,1.22,1.22,0,0,1-.48.93,1.6,1.6,0,0,1-1.09.42,1.45,1.45,0,0,1-1-.48A6.75,6.75,0,0,1,86.48,19.23Zm-.22-4.8a16.58,16.58,0,0,1-2.12.57c-.93.2-1.57.34-1.93.44a2.66,2.66,0,0,0-1,.54,1.42,1.42,0,0,0-.49,1.14,1.66,1.66,0,0,0,.58,1.28,2.12,2.12,0,0,0,1.49.53,3.88,3.88,0,0,0,1.82-.43,2.94,2.94,0,0,0,1.22-1.11,5.1,5.1,0,0,0,.45-2.48Z"/></g></g><g id="n" class="cls-1"><g class="cls-1"><path class="cls-2" d="M96.84,9.45v.4a5.91,5.91,0,0,1,1.91-1.7,5.13,5.13,0,0,1,2.39-.54,4.68,4.68,0,0,1,2.35.58A3.63,3.63,0,0,1,105,9.8a4,4,0,0,1,.43,1.31,14.42,14.42,0,0,1,.1,1.8v6.18a2.23,2.23,0,0,1-.46,1.51,1.51,1.51,0,0,1-1.19.51,1.53,1.53,0,0,1-1.2-.53,2.14,2.14,0,0,1-.46-1.49V13.56a5.42,5.42,0,0,0-.46-2.51,1.85,1.85,0,0,0-1.81-.87,2.71,2.71,0,0,0-1.62.53,3,3,0,0,0-1.07,1.45,10.51,10.51,0,0,0-.24,2.77v4.16a2.15,2.15,0,0,1-.47,1.51,1.57,1.57,0,0,1-1.21.51,1.51,1.51,0,0,1-1.18-.53,2.14,2.14,0,0,1-.46-1.49V9.5a2.13,2.13,0,0,1,.41-1.42,1.44,1.44,0,0,1,1.13-.47,1.51,1.51,0,0,1,.79.21,1.43,1.43,0,0,1,.57.62A2.22,2.22,0,0,1,96.84,9.45Z"/></g></g><g id="s" class="cls-1"><g class="cls-1"><path class="cls-2" d="M120.54,16.77a3.85,3.85,0,0,1-2.64,3.83,8.76,8.76,0,0,1-3.18.51,7.82,7.82,0,0,1-3.06-.55,4.46,4.46,0,0,1-1.89-1.37,2.76,2.76,0,0,1-.61-1.65,1.27,1.27,0,0,1,.39-.93,1.34,1.34,0,0,1,1-.39,1.15,1.15,0,0,1,.8.26,2.62,2.62,0,0,1,.53.71,3.62,3.62,0,0,0,1.23,1.33A3.7,3.7,0,0,0,115,19a2.77,2.77,0,0,0,1.63-.44,1.23,1.23,0,0,0,.64-1,1.38,1.38,0,0,0-.66-1.28,8.43,8.43,0,0,0-2.19-.77,18.15,18.15,0,0,1-2.79-.89A4.63,4.63,0,0,1,110,13.33a2.83,2.83,0,0,1-.64-1.89,3.3,3.3,0,0,1,.6-1.88,4,4,0,0,1,1.75-1.42,6.79,6.79,0,0,1,2.8-.53,9.18,9.18,0,0,1,2.32.27,5.75,5.75,0,0,1,1.71.72,3.49,3.49,0,0,1,1.05,1,1.93,1.93,0,0,1,.36,1.06,1.21,1.21,0,0,1-.39.94,1.5,1.5,0,0,1-1.08.37,1.31,1.31,0,0,1-.87-.3,5,5,0,0,1-.82-.87,3,3,0,0,0-.89-.78,2.85,2.85,0,0,0-1.39-.29,2.75,2.75,0,0,0-1.49.38,1.13,1.13,0,0,0-.6,1,1,1,0,0,0,.44.85,3.6,3.6,0,0,0,1.18.56c.49.14,1.17.32,2,.53a10.71,10.71,0,0,1,2.52.9A4.24,4.24,0,0,1,120,15.14,2.81,2.81,0,0,1,120.54,16.77Z"/></g></g><g id="l" class="cls-1"><g class="cls-1"><path class="cls-2" d="M124.34,19.09V4.7a2.21,2.21,0,0,1,.45-1.51,1.49,1.49,0,0,1,1.2-.51,1.58,1.58,0,0,1,1.21.5,2.18,2.18,0,0,1,.46,1.52V19.09a2.15,2.15,0,0,1-.46,1.51,1.59,1.59,0,0,1-1.21.51,1.5,1.5,0,0,1-1.19-.53A2.19,2.19,0,0,1,124.34,19.09Z"/></g></g><g id="a-2" class="cls-1"><g class="cls-1"><path class="cls-2" d="M140.45,19.23a10,10,0,0,1-2.33,1.41,6.54,6.54,0,0,1-2.52.47,4.72,4.72,0,0,1-2.24-.51,3.6,3.6,0,0,1-1.49-1.37,3.53,3.53,0,0,1-.53-1.87,3.33,3.33,0,0,1,.87-2.32,4.29,4.29,0,0,1,2.37-1.29l1.57-.33c.83-.17,1.55-.32,2.14-.46s1.24-.32,1.94-.52a3.47,3.47,0,0,0-.53-1.93,2.36,2.36,0,0,0-1.94-.61,4.12,4.12,0,0,0-1.9.35,3.14,3.14,0,0,0-1.09,1.06,11.3,11.3,0,0,1-.65.93c-.12.15-.39.22-.81.22a1.44,1.44,0,0,1-1-.35,1.19,1.19,0,0,1-.41-.92,2.81,2.81,0,0,1,.62-1.7,4.48,4.48,0,0,1,1.93-1.37,8.88,8.88,0,0,1,3.27-.53,9.11,9.11,0,0,1,3.44.52A3.17,3.17,0,0,1,143,9.74a7.1,7.1,0,0,1,.52,3c0,.78,0,1.44,0,2s0,1.14,0,1.81a6.94,6.94,0,0,0,.31,1.95,5.93,5.93,0,0,1,.31,1.31,1.22,1.22,0,0,1-.48.93,1.6,1.6,0,0,1-1.08.42,1.47,1.47,0,0,1-1-.48A6.75,6.75,0,0,1,140.45,19.23Zm-.22-4.8a16.58,16.58,0,0,1-2.12.57c-.93.2-1.57.34-1.93.44a2.66,2.66,0,0,0-1,.54,1.41,1.41,0,0,0-.48,1.14,1.68,1.68,0,0,0,.57,1.28,2.12,2.12,0,0,0,1.49.53,3.88,3.88,0,0,0,1.82-.43,2.94,2.94,0,0,0,1.22-1.11,5.1,5.1,0,0,0,.45-2.48Z"/></g></g><g id="t-2" class="cls-1"><g class="cls-1"><path class="cls-2" d="M147.41,7.91h.36v-2c0-.53,0-1,0-1.26a1.88,1.88,0,0,1,.24-.78,1.48,1.48,0,0,1,.56-.55,1.58,1.58,0,0,1,.81-.22,1.65,1.65,0,0,1,1.15.48,1.45,1.45,0,0,1,.43.77,7.13,7.13,0,0,1,.09,1.3V7.91h1.21a1.59,1.59,0,0,1,1.08.33,1.09,1.09,0,0,1,.37.86,1,1,0,0,1-.53.93,3.4,3.4,0,0,1-1.51.27h-.62v6.1a11.77,11.77,0,0,0,0,1.2,1.28,1.28,0,0,0,.29.68,1,1,0,0,0,.78.26,4.09,4.09,0,0,0,.79-.1,4.11,4.11,0,0,1,.77-.11,1,1,0,0,1,.73.33,1.09,1.09,0,0,1,.32.79,1.32,1.32,0,0,1-.88,1.23,5.93,5.93,0,0,1-2.51.43,4.34,4.34,0,0,1-2.36-.53,2.44,2.44,0,0,1-1-1.44,9.67,9.67,0,0,1-.25-2.47V10.3h-.44a1.55,1.55,0,0,1-1.09-.34,1.12,1.12,0,0,1-.38-.86,1.06,1.06,0,0,1,.4-.86A1.73,1.73,0,0,1,147.41,7.91Z"/></g></g><g id="e" class="cls-1"><g class="cls-1"><path class="cls-2" d="M166.27,15.17h-6.49a4.53,4.53,0,0,0,.45,2,3.18,3.18,0,0,0,1.18,1.3,3.14,3.14,0,0,0,1.63.44,4.09,4.09,0,0,0,1.08-.14,3.76,3.76,0,0,0,1-.44,7.87,7.87,0,0,0,.85-.64l1-.92a1.06,1.06,0,0,1,.73-.22,1.17,1.17,0,0,1,.82.28,1,1,0,0,1,.32.79,2.2,2.2,0,0,1-.35,1.05,4.07,4.07,0,0,1-1.07,1.15,6,6,0,0,1-1.78.92,7.56,7.56,0,0,1-2.48.37,6.6,6.6,0,0,1-5-1.83,6.78,6.78,0,0,1-1.77-4.94,8.31,8.31,0,0,1,.43-2.73,6.13,6.13,0,0,1,1.28-2.16,5.54,5.54,0,0,1,2.07-1.38,7.4,7.4,0,0,1,2.72-.48,6.44,6.44,0,0,1,3.34.82,5.42,5.42,0,0,1,2.08,2.12,5.6,5.6,0,0,1,.69,2.65c0,.84-.24,1.38-.71,1.62A4.44,4.44,0,0,1,166.27,15.17Zm-6.49-1.88h6a4.07,4.07,0,0,0-.91-2.55,2.76,2.76,0,0,0-2.1-.84,2.67,2.67,0,0,0-2,.86A4.22,4.22,0,0,0,159.78,13.29Z"/></g></g><g id="B" class="cls-1"><g class="cls-1"><path class="cls-2" d="M187.75,20.8H182.3a2.23,2.23,0,0,1-1.68-.53,2.34,2.34,0,0,1-.5-1.68V5.2a2.35,2.35,0,0,1,.51-1.7A2.27,2.27,0,0,1,182.3,3h5.78a14,14,0,0,1,2.21.16,4.89,4.89,0,0,1,1.68.61,4.6,4.6,0,0,1,1.12,1,4.2,4.2,0,0,1,1,2.76,4.1,4.1,0,0,1-2.67,3.91q3.51,1.13,3.51,4.35a4.86,4.86,0,0,1-.76,2.69,4.57,4.57,0,0,1-2.07,1.77,7.1,7.1,0,0,1-1.87.48A18,18,0,0,1,187.75,20.8Zm-4-15.11V10.3H187a6.37,6.37,0,0,0,2.09-.26,2,2,0,0,0,1.12-1,2.21,2.21,0,0,0,.31-1.14,1.76,1.76,0,0,0-1-1.79,7.25,7.25,0,0,0-2.93-.45Zm3.75,7.2h-3.75v5.2h3.87q3.66,0,3.66-2.64a2.12,2.12,0,0,0-.95-1.95A5.24,5.24,0,0,0,187.48,12.89Z"/></g></g><g id="y" class="cls-1"><g class="cls-1"><path class="cls-2" d="M201.89,21.52l.31-.74-4.09-10.29a3.83,3.83,0,0,1-.37-1.28,1.53,1.53,0,0,1,.21-.79,1.65,1.65,0,0,1,.61-.59,1.62,1.62,0,0,1,.79-.22,1.31,1.31,0,0,1,1.08.46,4.09,4.09,0,0,1,.65,1.31l2.81,8.16L206.55,10a12.94,12.94,0,0,1,.57-1.45,1.66,1.66,0,0,1,.54-.7,1.43,1.43,0,0,1,.81-.19,1.45,1.45,0,0,1,.72.2,1.5,1.5,0,0,1,.54.55,1.47,1.47,0,0,1,.18.71q0,.24-.15.66c-.08.28-.17.57-.27.86l-4.33,11.33a13.59,13.59,0,0,1-1.09,2.35,3.62,3.62,0,0,1-1.42,1.3,5.12,5.12,0,0,1-2.37.46,5.74,5.74,0,0,1-2.19-.32,1.14,1.14,0,0,1-.73-1.15,1.11,1.11,0,0,1,.34-.88,1.51,1.51,0,0,1,1-.31,1.81,1.81,0,0,1,.52.07,2.5,2.5,0,0,0,.55.07,1.9,1.9,0,0,0,.9-.17,1.51,1.51,0,0,0,.59-.59A10.19,10.19,0,0,0,201.89,21.52Z"/></g></g><g id="UMANS" class="cls-1"><g class="cls-1"><path class="cls-3" d="M49.4,46.86V31.71a4.21,4.21,0,0,1,.87-2.9,2.91,2.91,0,0,1,2.29-1,3,3,0,0,1,2.35,1,4.21,4.21,0,0,1,.87,2.9V47.2a14.28,14.28,0,0,0,.59,4.42,5.05,5.05,0,0,0,2.1,2.75,7.69,7.69,0,0,0,4.21,1c2.49,0,4.25-.67,5.28-2s1.55-3.34,1.55-6V31.71a4.23,4.23,0,0,1,.86-2.91,2.93,2.93,0,0,1,2.3-1,3,3,0,0,1,2.33,1,4.09,4.09,0,0,1,.89,2.91V46.86A22.46,22.46,0,0,1,75.17,53a9.52,9.52,0,0,1-2.72,4.34,10.51,10.51,0,0,1-4,2.32,17.75,17.75,0,0,1-5.33.73,21.65,21.65,0,0,1-6.25-.79A9.92,9.92,0,0,1,52.6,57.2,9.78,9.78,0,0,1,50.17,53,21.58,21.58,0,0,1,49.4,46.86Z"/><path class="cls-3" d="M93.43,55.13,88.38,35.06V56.81a3.93,3.93,0,0,1-.81,2.7,2.95,2.95,0,0,1-4.24,0,3.92,3.92,0,0,1-.82-2.72V31.88a3.12,3.12,0,0,1,1.08-2.78,5.12,5.12,0,0,1,2.9-.72h2a7.65,7.65,0,0,1,2.59.32,2.2,2.2,0,0,1,1.2,1.16,19.17,19.17,0,0,1,.88,2.73L97.7,49.84l4.58-17.25a17.94,17.94,0,0,1,.88-2.73,2.21,2.21,0,0,1,1.19-1.16,7.69,7.69,0,0,1,2.59-.32h2a5.12,5.12,0,0,1,2.9.72,3.12,3.12,0,0,1,1.08,2.78V56.81a3.93,3.93,0,0,1-.81,2.7,2.74,2.74,0,0,1-2.16.91,2.66,2.66,0,0,1-2.08-.91,3.88,3.88,0,0,1-.82-2.7V35.06l-5,20.07c-.33,1.3-.6,2.26-.81,2.87A4,4,0,0,1,100,59.67a3.38,3.38,0,0,1-2.33.75,3.45,3.45,0,0,1-1.89-.49,3.53,3.53,0,0,1-1.2-1.23A7.13,7.13,0,0,1,93.93,57C93.77,56.42,93.6,55.79,93.43,55.13Z"/><path class="cls-3" d="M139.61,56.31l-1.51-4H125.3l-1.51,4a14.64,14.64,0,0,1-1.5,3.19,2.41,2.41,0,0,1-2,.83,3,3,0,0,1-2.13-.88,2.71,2.71,0,0,1-.93-2,4.51,4.51,0,0,1,.22-1.33c.14-.46.38-1.1.71-1.92l8.06-20.45.82-2.12a10.82,10.82,0,0,1,1-2,4,4,0,0,1,1.44-1.32,4.34,4.34,0,0,1,2.2-.51,4.39,4.39,0,0,1,2.22.51,4.11,4.11,0,0,1,1.44,1.3,9.64,9.64,0,0,1,.93,1.7c.25.61.56,1.43.95,2.44l8.23,20.33a10.1,10.1,0,0,1,1,3.38,2.79,2.79,0,0,1-.91,2,3,3,0,0,1-2.21.92,2.86,2.86,0,0,1-1.29-.27,2.66,2.66,0,0,1-.9-.73,7,7,0,0,1-.78-1.42C140.05,57.36,139.81,56.8,139.61,56.31ZM127,47.57h9.41l-4.75-13Z"/><path class="cls-3" d="M159.42,31.67l12.27,18.56V31.49a4.15,4.15,0,0,1,.78-2.74,2.69,2.69,0,0,1,2.12-.91,2.75,2.75,0,0,1,2.17.91,4.09,4.09,0,0,1,.8,2.74V56.27q0,4.15-3.44,4.15a4.42,4.42,0,0,1-1.55-.25,4,4,0,0,1-1.29-.78,8.11,8.11,0,0,1-1.12-1.26l-1-1.47-12-18.35V56.76a4,4,0,0,1-.83,2.73,2.77,2.77,0,0,1-2.15.93,2.7,2.7,0,0,1-2.17-.94,4,4,0,0,1-.82-2.72V32.46a6.9,6.9,0,0,1,.34-2.43,3.56,3.56,0,0,1,1.36-1.58,3.66,3.66,0,0,1,2-.61,3.47,3.47,0,0,1,1.47.28,3.73,3.73,0,0,1,1.08.75,8.52,8.52,0,0,1,.94,1.23C158.74,30.6,159.08,31.12,159.42,31.67Z"/><path class="cls-3" d="M208.48,50.42A9.27,9.27,0,0,1,207,55.56a9.78,9.78,0,0,1-4.31,3.57A16.13,16.13,0,0,1,196,60.42a15.17,15.17,0,0,1-7.69-1.76,10.29,10.29,0,0,1-3.49-3.39,7.64,7.64,0,0,1-1.35-4.11,2.8,2.8,0,0,1,2.86-2.82A2.43,2.43,0,0,1,188,49a5,5,0,0,1,1.19,1.91,13,13,0,0,0,1.3,2.51,5.26,5.26,0,0,0,2,1.67,7.39,7.39,0,0,0,3.33.65,7.52,7.52,0,0,0,4.61-1.32,4,4,0,0,0,1.77-3.3,3.5,3.5,0,0,0-1-2.54,6.14,6.14,0,0,0-2.48-1.5A41.88,41.88,0,0,0,194.7,46,29.78,29.78,0,0,1,189,44.12a9.16,9.16,0,0,1-3.63-2.9,7.52,7.52,0,0,1-1.34-4.57A7.89,7.89,0,0,1,185.46,32a8.93,8.93,0,0,1,4.11-3.1,16.69,16.69,0,0,1,6.32-1.09,15.59,15.59,0,0,1,5,.72,10.63,10.63,0,0,1,3.52,1.91,8,8,0,0,1,2,2.51,5.72,5.72,0,0,1,.64,2.55,3.07,3.07,0,0,1-.8,2.06,2.57,2.57,0,0,1-2,.91,2.3,2.3,0,0,1-1.67-.55,7.14,7.14,0,0,1-1.23-1.79,8.31,8.31,0,0,0-2.06-2.79,6.1,6.1,0,0,0-3.87-1,6.73,6.73,0,0,0-4,1.09A3.14,3.14,0,0,0,190,36.07a2.64,2.64,0,0,0,.51,1.63,4.44,4.44,0,0,0,1.42,1.19,9.63,9.63,0,0,0,1.83.77c.61.19,1.63.46,3.05.82a47.28,47.28,0,0,1,4.82,1.37,14.53,14.53,0,0,1,3.68,1.83,7.46,7.46,0,0,1,2.36,2.72A8.63,8.63,0,0,1,208.48,50.42Z"/></g></g><g id="W" class="cls-1"><g class="cls-1"><path class="cls-2" d="M16.18,67.4l-2.57,9.91h-2l-1.57-5.69c0-.19-.1-.43-.17-.72s-.13-.57-.19-.85a4.77,4.77,0,0,1-.11-.61c0,.14,0,.34-.11.61s-.11.56-.18.85-.12.54-.18.74L7.61,77.31h-2L3.09,67.4H4.86l1.36,5.65c.07.24.13.51.19.82l.18.9c0,.31.09.57.12.79,0-.24.07-.51.13-.81s.11-.6.17-.89a6,6,0,0,1,.19-.74L8.75,67.4h1.72l1.59,5.73c.06.21.13.47.19.76s.13.6.18.89.1.56.13.78c0-.22.07-.48.12-.79l.18-.9c.07-.3.13-.57.18-.82L14.4,67.4Z"/></g></g><g id="e_a" data-name="e a" class="cls-1"><g class="cls-1"><path class="cls-2" d="M20.14,69.64a3.2,3.2,0,0,1,2.39.91,3.43,3.43,0,0,1,.88,2.51V74h-5A2.32,2.32,0,0,0,19,75.54a2,2,0,0,0,1.5.56A5.85,5.85,0,0,0,21.82,76,6.86,6.86,0,0,0,23,75.53v1.4a4.73,4.73,0,0,1-1.15.39,6.64,6.64,0,0,1-1.43.13,4.25,4.25,0,0,1-2-.43,3,3,0,0,1-1.32-1.27,4.36,4.36,0,0,1-.48-2.15,4.11,4.11,0,0,1,.95-2.94A3.27,3.27,0,0,1,20.14,69.64Zm0,1.3a1.54,1.54,0,0,0-1.15.45,2.05,2.05,0,0,0-.5,1.34h3.23a2.13,2.13,0,0,0-.4-1.29A1.37,1.37,0,0,0,20.14,70.94Z"/><path class="cls-2" d="M31.79,69.64a3.37,3.37,0,0,1,2.21.64,2.48,2.48,0,0,1,.76,2v5H33.52l-.35-1h-.05a3.48,3.48,0,0,1-1,.89,3.17,3.17,0,0,1-1.47.29,2.48,2.48,0,0,1-1.68-.57,2.21,2.21,0,0,1-.67-1.76,2,2,0,0,1,.86-1.75,5,5,0,0,1,2.59-.66l1.3,0V72.3a1.28,1.28,0,0,0-.35-1,1.43,1.43,0,0,0-1-.31,3.94,3.94,0,0,0-1.09.16,8.74,8.74,0,0,0-1,.4L29,70.3a5.58,5.58,0,0,1,1.27-.47A6.16,6.16,0,0,1,31.79,69.64ZM33,73.75l-.91,0a2.82,2.82,0,0,0-1.6.4,1.14,1.14,0,0,0-.45.95.89.89,0,0,0,.32.77,1.35,1.35,0,0,0,.82.23,2,2,0,0,0,1.29-.44,1.56,1.56,0,0,0,.53-1.3Z"/></g></g><g id="r-2" class="cls-1"><g class="cls-1"><path class="cls-2" d="M40.89,69.64l.41,0,.36,0-.15,1.63-.34,0-.34,0a2.48,2.48,0,0,0-1,.23,1.81,1.81,0,0,0-.78.7,2.21,2.21,0,0,0-.3,1.21v3.9H37V69.78H38.3l.25,1.31h.08a3.08,3.08,0,0,1,.92-1A2.26,2.26,0,0,1,40.89,69.64Z"/></g></g><g id="e_making_the_world_talk_" data-name="e making the world talk " class="cls-1"><g class="cls-1"><path class="cls-2" d="M45.81,69.64a3.18,3.18,0,0,1,2.39.91,3.43,3.43,0,0,1,.89,2.51V74h-5a2.27,2.27,0,0,0,.56,1.59,2,2,0,0,0,1.5.56A5.78,5.78,0,0,0,47.49,76a6.58,6.58,0,0,0,1.19-.43v1.4a4.73,4.73,0,0,1-1.15.39,6.58,6.58,0,0,1-1.43.13,4.25,4.25,0,0,1-2-.43,3,3,0,0,1-1.32-1.27,4.36,4.36,0,0,1-.48-2.15,4.16,4.16,0,0,1,.95-2.94A3.27,3.27,0,0,1,45.81,69.64Zm0,1.3a1.55,1.55,0,0,0-1.15.45,2.05,2.05,0,0,0-.5,1.34h3.23A2.19,2.19,0,0,0,47,71.44,1.39,1.39,0,0,0,45.81,70.94Z"/><path class="cls-2" d="M63.08,69.64A2.57,2.57,0,0,1,65,70.3a2.91,2.91,0,0,1,.65,2.11v4.9H63.9V72.74c0-1.12-.43-1.68-1.28-1.68a1.43,1.43,0,0,0-1.3.6,3.17,3.17,0,0,0-.39,1.73v3.92H59.18V72.74q0-1.68-1.29-1.68a1.36,1.36,0,0,0-1.32.67,4.06,4.06,0,0,0-.36,1.9v3.68H54.46V69.78h1.35l.25,1h.09a2.06,2.06,0,0,1,1-.85,3,3,0,0,1,1.25-.28,3.32,3.32,0,0,1,1.42.28,1.9,1.9,0,0,1,.88.89h.14a2.09,2.09,0,0,1,1-.89A3.33,3.33,0,0,1,63.08,69.64Z"/><path class="cls-2" d="M70.84,69.64a3.42,3.42,0,0,1,2.22.64,2.47,2.47,0,0,1,.75,2v5H72.58l-.35-1h-.06a3.33,3.33,0,0,1-1,.89,3.17,3.17,0,0,1-1.47.29A2.48,2.48,0,0,1,68,76.88a2.18,2.18,0,0,1-.67-1.76,2,2,0,0,1,.85-1.75,5,5,0,0,1,2.59-.66l1.31,0V72.3a1.32,1.32,0,0,0-.35-1,1.45,1.45,0,0,0-1-.31,3.94,3.94,0,0,0-1.09.16,8.88,8.88,0,0,0-1,.4l-.55-1.22a5.41,5.41,0,0,1,1.27-.47A6.08,6.08,0,0,1,70.84,69.64Zm1.24,4.11-.92,0a2.82,2.82,0,0,0-1.6.4,1.15,1.15,0,0,0-.44.95.88.88,0,0,0,.31.77,1.41,1.41,0,0,0,.83.23,2,2,0,0,0,1.29-.44,1.59,1.59,0,0,0,.53-1.3Z"/><path class="cls-2" d="M77.74,66.76v5c0,.23,0,.48,0,.76s0,.53,0,.77h0l.42-.57a4,4,0,0,1,.47-.57l2.22-2.38h2l-3,3.25L83,77.31H81l-2.33-3.22-.88.72v2.5H76V66.76Z"/><path class="cls-2" d="M85.05,66.88a1.23,1.23,0,0,1,.68.2,1,1,0,0,1,0,1.44,1.16,1.16,0,0,1-.68.21,1.13,1.13,0,0,1-.69-.21,1,1,0,0,1,0-1.44A1.19,1.19,0,0,1,85.05,66.88Zm.87,2.9v7.53H84.17V69.78Z"/><path class="cls-2" d="M92.18,69.64a2.82,2.82,0,0,1,2,.66,2.72,2.72,0,0,1,.71,2.11v4.9H93.13V72.76a2.08,2.08,0,0,0-.34-1.28,1.25,1.25,0,0,0-1.05-.42,1.52,1.52,0,0,0-1.45.67,3.79,3.79,0,0,0-.39,1.9v3.68H88.16V69.78H89.5l.25,1h.1a2.1,2.1,0,0,1,1-.85A3.39,3.39,0,0,1,92.18,69.64Z"/><path class="cls-2" d="M99.6,69.64a2.54,2.54,0,0,1,2.23,1.12h.07l.17-1h1.45v7.58a3.18,3.18,0,0,1-.9,2.45,3.92,3.92,0,0,1-2.72.83,9.89,9.89,0,0,1-1.49-.1,5.6,5.6,0,0,1-1.29-.36V78.74a7.21,7.21,0,0,0,2.89.58,1.73,1.73,0,0,0,1.31-.48,2,2,0,0,0,.45-1.39v-.2c0-.14,0-.3,0-.48a3.93,3.93,0,0,1,0-.45h-.06a2.3,2.3,0,0,1-1,.86,2.86,2.86,0,0,1-1.27.27,2.54,2.54,0,0,1-2.15-1,4.63,4.63,0,0,1-.78-2.86,4.68,4.68,0,0,1,.79-2.87A2.57,2.57,0,0,1,99.6,69.64Zm.45,1.43c-1.09,0-1.64.84-1.64,2.52s.56,2.47,1.67,2.47a1.68,1.68,0,0,0,1.35-.51,2.56,2.56,0,0,0,.44-1.71v-.27a3.18,3.18,0,0,0-.44-1.91A1.61,1.61,0,0,0,100.05,71.07Z"/><path class="cls-2" d="M112.29,76.05a3.38,3.38,0,0,0,.63-.07c.21,0,.4-.09.57-.14v1.3a2.56,2.56,0,0,1-.72.22,4.73,4.73,0,0,1-.93.09,3.13,3.13,0,0,1-1.17-.21,1.65,1.65,0,0,1-.83-.74,3,3,0,0,1-.3-1.48V71.1h-1v-.76l1.11-.61.56-1.6h1.1v1.65h2.13V71.1h-2.13V75a1,1,0,0,0,.28.79A1,1,0,0,0,112.29,76.05Z"/><path class="cls-2" d="M116.76,66.76v2.51c0,.3,0,.59,0,.87s0,.49-.06.63h.11a2.32,2.32,0,0,1,.94-.85,3,3,0,0,1,1.29-.28,2.84,2.84,0,0,1,2,.66,2.71,2.71,0,0,1,.73,2.11v4.9H120V72.76a2,2,0,0,0-.34-1.28,1.25,1.25,0,0,0-1-.42,1.52,1.52,0,0,0-1.45.67,3.92,3.92,0,0,0-.38,1.9v3.68H115V66.76Z"/><path class="cls-2" d="M127,69.64a3.2,3.2,0,0,1,2.39.91,3.43,3.43,0,0,1,.88,2.51V74h-5a2.32,2.32,0,0,0,.57,1.59,2,2,0,0,0,1.5.56,5.85,5.85,0,0,0,1.31-.14,6.86,6.86,0,0,0,1.19-.43v1.4a4.73,4.73,0,0,1-1.15.39,6.64,6.64,0,0,1-1.43.13,4.25,4.25,0,0,1-2-.43A3.07,3.07,0,0,1,124,75.75a4.47,4.47,0,0,1-.47-2.15,4.11,4.11,0,0,1,1-2.94A3.27,3.27,0,0,1,127,69.64Zm0,1.3a1.52,1.52,0,0,0-1.15.45,2.11,2.11,0,0,0-.51,1.34h3.24a2.13,2.13,0,0,0-.4-1.29A1.37,1.37,0,0,0,127,70.94Z"/><path class="cls-2" d="M141.76,77.31l-.83-3.24c-.05-.16-.1-.38-.17-.65s-.13-.54-.2-.83l-.19-.8c-.05-.24-.09-.43-.12-.55h-.06c0,.12-.07.31-.12.55l-.19.8c-.07.29-.14.56-.2.83s-.12.49-.17.67l-.87,3.22h-1.92l-2.11-7.54h1.76l.93,3.6c.07.25.13.52.19.83s.11.6.16.87.08.51.1.68h.05c0-.16.06-.39.11-.68s.1-.56.16-.84a5.89,5.89,0,0,1,.14-.61l1.08-3.85h1.92l1,3.85c0,.16.08.38.14.65s.12.53.16.8a5.45,5.45,0,0,1,.09.67h.05c0-.16.05-.37.1-.65s.1-.56.16-.87.14-.59.21-.85l1-3.6h1.73l-2.14,7.54Z"/><path class="cls-2" d="M153.84,73.53a4,4,0,0,1-1,2.9,3.48,3.48,0,0,1-2.64,1A3.55,3.55,0,0,1,148.4,77a3.26,3.26,0,0,1-1.27-1.33,4.62,4.62,0,0,1-.45-2.13,4,4,0,0,1,1-2.88,3.47,3.47,0,0,1,2.63-1,3.73,3.73,0,0,1,1.85.46,3.09,3.09,0,0,1,1.26,1.32A4.39,4.39,0,0,1,153.84,73.53Zm-5.37,0a3.42,3.42,0,0,0,.42,1.85,1.76,1.76,0,0,0,2.73,0,3.33,3.33,0,0,0,.43-1.85,3.26,3.26,0,0,0-.43-1.83,1.54,1.54,0,0,0-1.38-.64,1.5,1.5,0,0,0-1.36.64A3.45,3.45,0,0,0,148.47,73.53Z"/><path class="cls-2" d="M159.59,69.64l.4,0,.36,0-.15,1.63-.34,0-.34,0a2.43,2.43,0,0,0-1,.23,1.78,1.78,0,0,0-.79.7,2.21,2.21,0,0,0-.3,1.21v3.9h-1.75V69.78H157l.25,1.31h.09a3.05,3.05,0,0,1,.91-1A2.26,2.26,0,0,1,159.59,69.64Z"/><path class="cls-2" d="M163.49,77.31h-1.75V66.76h1.75Z"/><path class="cls-2" d="M168.21,77.45a2.63,2.63,0,0,1-2.12-1,5.64,5.64,0,0,1,0-5.84,2.92,2.92,0,0,1,3.52-.67,2.79,2.79,0,0,1,.85.78h.09a5.46,5.46,0,0,1-.09-.59c0-.26,0-.51,0-.76V66.76h1.75V77.31h-1.36l-.32-1h-.07a2.62,2.62,0,0,1-.85.8A2.55,2.55,0,0,1,168.21,77.45Zm.53-1.42a1.55,1.55,0,0,0,1.36-.55,2.92,2.92,0,0,0,.41-1.68v-.23a3.62,3.62,0,0,0-.38-1.85,1.51,1.51,0,0,0-1.42-.65,1.39,1.39,0,0,0-1.23.66,3.46,3.46,0,0,0-.42,1.86,3.2,3.2,0,0,0,.43,1.82A1.42,1.42,0,0,0,168.74,76Z"/><path class="cls-2" d="M180.94,76.05a3.38,3.38,0,0,0,.63-.07c.21,0,.4-.09.58-.14v1.3a2.79,2.79,0,0,1-.72.22,4.73,4.73,0,0,1-.93.09,3.14,3.14,0,0,1-1.18-.21,1.63,1.63,0,0,1-.82-.74,2.89,2.89,0,0,1-.31-1.48V71.1h-1v-.76l1.11-.61.55-1.6h1.1v1.65h2.14V71.1h-2.14V75a1,1,0,0,0,1,1Z"/><path class="cls-2" d="M186.66,69.64a3.37,3.37,0,0,1,2.21.64,2.44,2.44,0,0,1,.76,2v5H188.4l-.35-1H188a3.33,3.33,0,0,1-1,.89,3.21,3.21,0,0,1-1.48.29,2.51,2.51,0,0,1-1.68-.57,2.21,2.21,0,0,1-.66-1.76,2,2,0,0,1,.85-1.75,5,5,0,0,1,2.59-.66l1.31,0V72.3a1.32,1.32,0,0,0-.35-1,1.45,1.45,0,0,0-1-.31,3.88,3.88,0,0,0-1.09.16,8.88,8.88,0,0,0-1,.4l-.55-1.22a5.41,5.41,0,0,1,1.27-.47A6,6,0,0,1,186.66,69.64Zm1.24,4.11-.92,0a2.82,2.82,0,0,0-1.6.4,1.15,1.15,0,0,0-.44.95.88.88,0,0,0,.31.77,1.41,1.41,0,0,0,.83.23,2,2,0,0,0,1.29-.44,1.59,1.59,0,0,0,.53-1.3Z"/><path class="cls-2" d="M193.58,77.31h-1.75V66.76h1.75Z"/><path class="cls-2" d="M197.55,66.76v5c0,.23,0,.48,0,.76s0,.53-.06.77h0l.42-.57a6,6,0,0,1,.47-.57l2.22-2.38h2l-3,3.25,3.2,4.28h-2l-2.33-3.22-.87.72v2.5h-1.74V66.76Z"/><path class="cls-2" d="M203.72,76.42a1,1,0,0,1,.32-.83,1.18,1.18,0,0,1,.75-.24,1.2,1.2,0,0,1,.75.24,1.25,1.25,0,0,1,0,1.65,1.15,1.15,0,0,1-.75.25,1.13,1.13,0,0,1-.75-.25A1,1,0,0,1,203.72,76.42Zm1.74-2.21h-1.33l-.35-6.81h2Z"/></g></g><g id="Group_492" data-name="Group 492"><path id="Path_5" data-name="Path 5" class="cls-3" d="M31.87,19.5c-2.75,13.69-20.1,13.73-22.57.14a2.87,2.87,0,0,0-2.91-2.41H6c-.3,0-.59,0-.88,0a2.9,2.9,0,0,0-3.21,2.57c0,.1,0,.2,0,.3V56.82a2.89,2.89,0,0,0,2.89,2.89H6.23A2.87,2.87,0,0,0,9.11,57c.82-26,19.92-29.27,23,0A2.93,2.93,0,0,0,35,59.7h1.47a2.89,2.89,0,0,0,2.89-2.89h0V20.07a2.88,2.88,0,0,0-2.85-2.89h-.26c-.3,0-.61,0-.92,0h-.48a2.89,2.89,0,0,0-3,2.27"/><path id="Path_6" data-name="Path 6" class="cls-2" d="M34.23,9.81a9.71,9.71,0,0,1-5,.94,7.16,7.16,0,0,1-.2-1.2,6.11,6.11,0,1,1,1.47,3.6,7.89,7.89,0,0,0,3.74-3.34"/><path id="Path_7" data-name="Path 7" class="cls-4" d="M30.44,7.12a1.15,1.15,0,0,1,1.39-.8,1.13,1.13,0,0,1-.57,2.19,1.14,1.14,0,0,1-.82-1.39h0"/><path id="Path_8" data-name="Path 8" class="cls-2" d="M7.62,9.27a9.64,9.64,0,0,0,4.47-2.44,5.55,5.55,0,0,0-.6-1.06,6.11,6.11,0,1,0,1.14,3.72,7.89,7.89,0,0,1-5-.22"/><path id="Path_9" data-name="Path 9" class="cls-4" d="M8.63,5.12A1.13,1.13,0,1,1,7,4.85a1.16,1.16,0,0,1,1.6.27"/></g><rect id="Rectangle_9" data-name="Rectangle 9" class="cls-5" x="0.49" y="-0.71" width="210.12" height="83.42"/></svg>