<svg xmlns="http://www.w3.org/2000/svg" id="Layer_1" data-name="Layer 1" viewBox="0 0 250 250"><defs><style>      .cls-1 {        fill-rule: evenodd;        stroke: #000;        stroke-linecap: round;        stroke-linejoin: round;        stroke-width: 1.8px;      }      .cls-2 {        fill: #fff;      }      .cls-3 {        fill: #ffc729;      }      .cls-4 {        fill: #0d0e0f;      }    </style></defs><rect id="Rectangle_25" data-name="Rectangle 25" class="cls-2" x="49.72" y="50.9" width="151.46" height="151.46" rx="8.76" ry="8.76"></rect><path id="noun-memory-3497279" class="cls-1" d="m60.56,46.32h17.61v-27.19c0-1.06.86-1.92,1.92-1.92s1.92.86,1.92,1.92v27.19h41.62v-27.19c0-1.06.86-1.92,1.92-1.92,1.06,0,1.92.86,1.92,1.92h0v27.2h41.61v-27.19c0-1.06.86-1.92,1.92-1.92,1.06,0,1.92.86,1.92,1.92h0v27.2h17.61c3.9,0,7.63,1.55,10.38,4.31l.11.13c2.69,2.74,4.2,6.42,4.2,10.26v17.6h27.19c1.06.03,1.9.91,1.87,1.97-.03,1.02-.85,1.84-1.87,1.87h-27.19v41.62h27.19c1.06,0,1.92.86,1.92,1.92s-.86,1.92-1.92,1.92h-27.19v41.62h27.19c1.06,0,1.92.86,1.92,1.92,0,1.06-.86,1.92-1.92,1.92h-27.19v17.61c-.02,8.11-6.59,14.68-14.69,14.69h-17.61v27.19c0,1.06-.86,1.92-1.92,1.92-1.06,0-1.92-.86-1.92-1.92h0v-27.19h-41.61v27.19c0,1.06-.86,1.92-1.92,1.92-1.06,0-1.92-.86-1.92-1.92h0v-27.19h-41.62v27.19c0,1.06-.86,1.92-1.92,1.92s-1.92-.86-1.92-1.92v-27.19h-17.61c-8.11-.03-14.67-6.59-14.69-14.7v-17.61h-27.19c-1.06,0-1.92-.86-1.92-1.92,0-1.06.86-1.92,1.92-1.92h27.2v-41.62h-27.19c-1.06,0-1.92-.86-1.92-1.92s.86-1.92,1.92-1.92h27.19v-41.61h-27.19c-1.06,0-1.92-.86-1.92-1.92,0-1.06.86-1.92,1.92-1.92h27.19v-17.61c0-3.89,1.55-7.62,4.31-10.37h.04c2.74-2.73,6.46-4.27,10.33-4.27v-.06Zm129.97,3.84H60.58c-2.86,0-5.61,1.13-7.64,3.16h-.04c-2.04,2.03-3.18,4.79-3.18,7.66v129.67c.02,5.98,4.87,10.83,10.85,10.85h129.96c5.99-.02,10.83-4.87,10.85-10.86V60.97c0-2.83-1.11-5.54-3.08-7.56l-.11-.13c-2.03-2.04-4.79-3.19-7.67-3.19v.08Zm-19.48,0h-.1m-45.35,0h-.1m-45.36,0h-.1m121.34,121.35v-.13m0-45.36v-.13m0-45.35v-.13m-121.34,121.35h.1m45.36,0h.1m45.35,0h.1M49.71,80.4v.13m0,45.35v.13m0,45.36h0Z"></path><g id="Path_179" data-name="Path 179"><rect class="cls-3" x="65.75" y="71.93" width="120.67" height="109.4" rx="36.55" ry="36.55"></rect><path class="cls-4" d="m149.87,73.43c19.36,0,35.05,15.69,35.05,35.05v36.3c0,19.36-15.69,35.05-35.05,35.05h-47.57c-19.36,0-35.05-15.69-35.05-35.05v-36.3c0-19.36,15.69-35.05,35.05-35.05h47.57m0-3h-47.57c-20.98,0-38.05,17.07-38.05,38.05v36.3c0,20.98,17.07,38.05,38.05,38.05h47.57c20.98,0,38.05-17.07,38.05-38.05v-36.3c0-20.98-17.07-38.05-38.05-38.05h0Z"></path></g><path id="Path_171" data-name="Path 171" d="m149.34,165.29c-1.16.04-2.21-.69-2.57-1.79-.61-1.68.13-3.08,1.98-3.82,4.7-1.7,8.78-4.79,11.67-8.86,2.71-3.99,2.07-7.91-1.76-10.75-.53-.46-1.2-.73-1.9-.78-1.01,0-1.77.66-2.25,1.96-2.13,5.83-5.98,10.91-12.11,15.97-3.85,3.21-8.56,5.21-13.55,5.76-.5.06-1,.09-1.5.09-2.93.08-5.72-1.24-7.51-3.55-1.78-2.57-2.22-5.83-1.2-8.78,1.66-5.43,5.79-8.78,9.61-11.33.08-.06.17-.11.26-.16.24-.14.48-.29.7-.47.39-.27.82-.5,1.26-.68,1.38-.41,2.5-1.44,3.04-2.78.56-2.27.72-4.62.49-6.95l-.06-1.4c-.03-.85-.44-2.29-2.85-2.3h-3.89c-.06,0-.12,0-.18.01-.32,0-1.74.02-2.13.02-.44,0-.86,0-1.29-.03-1.57.12-2.93-1.05-3.06-2.61,0-.08,0-.15,0-.23-.01-2.2,1.63-2.74,3-2.82,2.22-.13,4.84-.25,7.47-.26.97.08,1.93-.25,2.65-.9.6-.68.89-1.58.8-2.49,0-.91.12-1.81.34-2.69.22-1.33,1.35-2.32,2.7-2.36.13,0,.26,0,.39.03,1.58.19,2.72,1.6,2.58,3.18-.09,2.24-.14,3.45.7,4.32.65.58,1.51.86,2.38.78.5,0,1.15-.04,1.96-.1l.38-.02c4.73-.32,9.42-.46,14.61-.59h.13c2.02,0,3.35,1.05,3.48,2.76.06.71-.16,1.41-.63,1.94-.69.71-1.63,1.11-2.62,1.11-4.57.25-9.25.38-13.77.49l-3.32.09c-3.47.1-4.06.7-4.07,4.03,0,2.04-.01,3.16.77,3.95.49.45,1.14.69,1.81.66.78-.04,1.56-.13,2.33-.28l.18-.03c2.06-.36,4.15-.55,6.24-.58,3.58-.11,7.11.86,10.13,2.79,3.25,1.92,5.59,5.07,6.49,8.73.63,3.65-.24,7.4-2.43,10.4-3.48,5.16-8.56,9.05-14.46,11.06-.45.17-.93.27-1.42.27h-.02Zm-17.18-21.09c-.44,0-.87.15-1.22.4-2.88,1.86-5.98,4.34-7,8.63-.51,1.42.22,2.98,1.63,3.5.84.28,1.73.43,2.62.42,1.41-.02,2.81-.33,4.1-.9,1.35-.58,2.08-2.06,1.72-3.49-.03-.22-.04-.44-.03-.66.05-.49.07-.98.04-1.48,0-.17-.01-.35-.01-.53v-3.69c-.02-2.18-1.64-2.24-1.82-2.24h-.02Zm13.81-6.06c-.83.06-1.64.26-2.4.62-.36.15-.73.28-1.11.38-1.84.41-2.76,1.44-2.75,3.02.02,1.4.01,2.78,0,4.33v2.13c0,.52.3.99.76,1.22.19.09.39.14.6.14.3,0,.6-.1.84-.28,1.88-1.44,3.45-3.24,4.61-5.3.19-.31.4-.6.63-.88.81-1.04,2.16-2.78.81-4.46-.48-.6-1.22-.94-1.99-.92h.01Z"></path><path id="Path_178" data-name="Path 178" d="m80.7,112.11c.03-8.5,4.91-16.19,12.24-19.16,4.49-2.05,9.75-1.48,13.7,1.47.7.51,1.24,1.09,1.57-.41.34-1.56,1.86-2.56,3.43-2.25,1.68.27,2.84,1.82,2.62,3.5-.38,3.49-.83,6.97-1.26,10.45-.44,3.58-.92,7.16-1.34,10.74-.11,1.51.17,3.02.81,4.39.43,1.1,1.48,1.83,2.66,1.85,1.71.05,3.05,1.48,3,3.19-.02.55-.18,1.09-.47,1.55-.57.98-1.66,1.55-2.79,1.46-2.88.06-5.58-1.37-7.14-3.79-.79-1.21-1.25-1.03-2.24-.3-6.7,5.19-16.33,3.97-21.53-2.72-.43-.56-.82-1.14-1.18-1.75-1.39-2.51-2.11-5.35-2.07-8.22h0Zm15.11,9.61c.47-.07,1.22-.16,1.96-.29,4.03-.73,7.53-4.22,7.92-7.85.25-2.24.43-4.5.88-6.7.48-1.99-.11-4.09-1.56-5.54-3.34-3.76-7.08-4.43-11.39-1.79-4.99,3.29-7.5,9.28-6.35,15.15,1.02,3.94,4.47,6.78,8.53,7.01h.01Z"></path></svg>