<?xml version="1.0" encoding="UTF-8"?>
<svg id="Layer_1" data-name="Layer 1" xmlns="http://www.w3.org/2000/svg" viewBox="0 0 164 74">
  <defs>
    <style>
      .cls-1, .cls-2 {
        fill: #fc6600;
      }

      .cls-3 {
        fill: #059bd2;
      }

      .cls-2 {
        fill-rule: evenodd;
      }
    </style>
  </defs>
  <path class="cls-3" d="m20.64,45.46s-1.63-1.99-2.59-3.07l-1.35,3.18c1.95,2.89,3.23,5.38,3.94,6.57,1.37-2.34,4.74-9.25,11.68-15.73l-.78-1.81c-4.51,3.34-8.36,7.6-10.9,10.85"/>
  <path class="cls-2" d="m90.16,46.13c0,1.85,1.08,2.82,2.79,3.09v4.51c-5.13-.07-7.85-2.54-7.85-7.24v-26.22h5.06v25.85Z"/>
  <path class="cls-2" d="m106.06,30.03c-6.34,0-11.36,5.2-11.36,11.77s4.85,11.77,10.92,11.77c3.09,0,5.56-1.17,7.03-2.86l.27.09v2.31h5.08v-22.63h-5.08v1.58l-.23.09c-1.53-1.26-3.62-2.13-6.64-2.13m.62,19.31c-3.8,0-6.94-3.3-6.94-7.51s3.14-7.51,6.94-7.51c2.5,0,4.67.73,6.21,1.9v9.69c-1.31,2.47-3.66,3.44-6.21,3.44"/>
  <path class="cls-2" d="m122.2,53.18h5.06v-15.85c1.58-1.63,3.8-2.68,6.39-2.68h1.08v-4.63h-.64c-2.77,0-5.08,1.31-6.57,3.11l-.27-.09v-2.56h-5.06v22.69h.02Z"/>
  <path class="cls-2" d="m69.03,30.03c-6.34,0-11.38,5.22-11.38,11.77s4.85,11.77,10.92,11.77c3.07,0,5.56-1.17,7.03-2.86l.27.09v2.31h5.08v-22.63h-5.08v1.58l-.23.09c-1.51-1.26-3.6-2.13-6.62-2.13m.62,19.31c-3.8,0-6.94-3.3-6.94-7.51s3.11-7.51,6.94-7.51c2.5,0,4.67.73,6.21,1.9v9.69c-1.31,2.47-3.66,3.44-6.21,3.44"/>
  <path class="cls-2" d="m147.07,30.03c-6.34,0-11.36,5.2-11.36,11.77s4.85,11.77,10.92,11.77c3.07,0,5.56-1.17,7.03-2.86l.27.09v2.31h5.08v-22.63h-5.08v1.58l-.23.09c-1.53-1.26-3.62-2.13-6.64-2.13m.62,19.31c-3.8,0-6.92-3.3-6.92-7.51s3.11-7.51,6.92-7.51c2.5,0,4.67.73,6.21,1.9v9.69c-1.31,2.47-3.66,3.44-6.21,3.44"/>
  <path class="cls-1" d="m30.76,53.09h5.52l-4.85-11.63c-1.42,1.51-2.63,3-3.71,4.42l3.05,7.21Z"/>
  <polygon class="cls-1" points="52.7 30.51 45.62 47.06 45.55 47.06 45.51 47.06 45.48 47.06 45.46 47.06 45.44 47.06 45.39 47.06 45.35 47.06 38.27 30.51 32.8 30.51 42.9 53.09 42.9 53.09 42.97 53.09 48 53.09 48.05 53.09 48.05 53.09 58.15 30.51 52.7 30.51"/>
  <path class="cls-1" d="m23.04,21.48h-4.85l-13.21,31.6h5.52l9.55-22.53.46-1.21h.25l.46,1.21,2.84,6.69c1.26-1.26,2.63-2.5,4.08-3.66l-5.08-12.09Z"/>
</svg>