<?xml version="1.0" encoding="UTF-8"?>
<svg id="Layer_1" data-name="Layer 1" xmlns="http://www.w3.org/2000/svg" viewBox="0 0 164 74">
  <defs>
    <style>
      .cls-1 {
        fill: #231f20;
      }
    </style>
  </defs>
  <g>
    <g>
      <polygon class="cls-1" points="24.89 47.62 12.25 37.39 32.65 20.84 32.65 14.6 4.55 37.4 21.04 50.73 24.89 47.62"/>
      <polygon class="cls-1" points="29.15 51.07 25.29 54.18 32.17 59.74 32.17 53.5 29.15 51.07"/>
    </g>
    <g>
      <polygon class="cls-1" points="20.99 23.64 24.85 20.51 17.64 14.67 17.64 20.91 20.99 23.64"/>
      <polygon class="cls-1" points="45.64 37.4 29.2 24.06 25.35 27.17 34.7 34.75 18.8 34.75 18.8 39.61 35.21 39.61 18 53.52 18 59.76 45.64 37.4"/>
    </g>
  </g>
  <g>
    <path d="m58,52.53h.71s.04.01.05.02c.01.01.02.04.02.05v4.11s-.01.04-.02.05-.04.02-.05.02h-.71s-.04-.01-.05-.02-.02-.04-.02-.05v-2.68s0-.02-.01-.02-.01.01-.02.02l-.65,1.01s-.05.05-.08.05h-.36s-.06-.01-.08-.05l-.65-1.01s-.01-.01-.02-.01-.01.01-.01.02v2.67s-.01.04-.02.05-.04.02-.05.02h-.71s-.04-.01-.05-.02-.02-.04-.02-.05v-4.11s.01-.04.02-.05c.01-.01.04-.02.05-.02h.71s.06.01.08.05l.91,1.41s.02.02.04,0l.92-1.41s.05-.05.08-.05Z"/>
    <path d="m63.07,53.24s-.04.02-.05.02h-2s-.04.01-.04.04v.95s.01.04.04.04h1.31s.04.01.05.02.02.04.02.05v.59s-.01.04-.02.05-.04.02-.05.02h-1.31s-.04.01-.04.04v.98s.01.04.04.04h2s.04.01.05.02.02.04.02.05v.59s-.01.04-.02.05-.04.02-.05.02h-2.81s-.04-.01-.05-.02-.02-.04-.02-.05v-4.11s.01-.04.02-.05c.01-.01.04-.02.05-.02h2.81s.04.01.05.02c.01.01.02.04.02.05v.59s0,.02-.02.04Z"/>
    <path d="m64.32,56.76s-.02-.04-.02-.05v-4.11s.01-.04.02-.05c.01-.01.04-.02.05-.02h1.52c.3,0,.57.05.8.16s.41.26.53.46.19.42.19.67v1.68c0,.25-.06.48-.19.67-.12.19-.3.35-.53.46s-.49.16-.8.16h-1.52s-.02,0-.05-.01Zm.87-.71h.73c.19,0,.34-.06.46-.19.12-.12.18-.3.18-.5v-1.4c0-.22-.06-.38-.17-.5-.12-.13-.28-.19-.47-.19h-.73s-.04.01-.04.04v2.72s.01.04.04.04Z"/>
    <path d="m68.69,56.76s-.02-.04-.02-.05v-4.11s.01-.04.02-.05c.01-.01.04-.02.05-.02h.71s.04.01.05.02c.01.01.02.04.02.05v4.11s-.01.04-.02.05-.04.02-.05.02h-.71s-.04-.01-.05-.02Z"/>
    <path d="m73.5,56.72l-.18-.6s-.02-.02-.04-.02h-1.5s-.02.01-.04.02l-.18.6s-.04.06-.08.06h-.77s-.05-.01-.06-.02c-.01-.01-.01-.04-.01-.06l1.32-4.11s.04-.06.08-.06h.96s.07.02.08.06l1.32,4.11v.04s-.02.06-.07.06h-.77s-.06-.04-.07-.07Zm-1.5-1.28h1.07s.04-.01.02-.04l-.55-1.81s-.01-.02-.02-.02-.01.01-.02.02l-.54,1.81s.02.04.05.04Z"/>
    <path d="m77.16,56.7l1.56-4.12s.04-.06.08-.06h.71c.06,0,.08.02.06.08l-1.56,4.12s-.04.06-.08.06h-.71c-.06,0-.07-.02-.06-.08Z"/>
    <path d="m83.36,56.65c-.24-.12-.42-.3-.55-.52-.13-.23-.19-.48-.19-.77v-1.4c0-.29.06-.55.19-.77.13-.23.31-.4.55-.52s.52-.18.84-.18.59.06.83.17c.24.12.42.28.55.49s.2.46.2.74c0,.04-.02.06-.07.07l-.71.05h-.01s-.06-.02-.06-.07c0-.22-.07-.38-.2-.52s-.3-.19-.52-.19-.4.06-.53.19-.2.3-.2.52v1.46c0,.22.06.38.2.52s.31.19.53.19.38-.06.52-.19.2-.3.2-.52c0-.05.02-.07.07-.07l.71.04s.04,0,.05.02c.01.01.02.02.02.05,0,.28-.06.53-.2.74-.13.22-.31.38-.55.5s-.52.18-.83.18c-.32-.05-.6-.11-.84-.23Z"/>
    <path d="m89.25,56.73l-.75-1.69s-.02-.02-.04-.02h-.56s-.04.01-.04.04v1.66s-.01.04-.02.05c-.01.01-.04.02-.05.02h-.72s-.04-.01-.05-.02c-.01-.01-.02-.04-.02-.05v-4.11s.01-.04.02-.05c.01-.01.04-.02.05-.02h1.74c.26,0,.49.05.68.16.19.11.35.25.46.46.11.19.16.42.16.67,0,.28-.07.52-.2.71-.14.19-.34.34-.57.42-.02.01-.02.02-.02.05l.83,1.72s.01.02.01.04c0,.04-.02.05-.07.05h-.74s-.06-.04-.07-.07Zm-1.4-3.44v1.04s.01.04.04.04h.8c.17,0,.31-.05.42-.16.11-.1.16-.23.16-.4s-.05-.3-.16-.4c-.11-.11-.25-.16-.42-.16h-.8s-.04,0-.04.02Z"/>
    <path d="m94.27,53.24s-.04.02-.05.02h-2s-.04.01-.04.04v.95s.01.04.04.04h1.31s.04.01.05.02c.01.01.02.04.02.05v.59s-.01.04-.02.05c-.01.01-.04.02-.05.02h-1.31s-.04.01-.04.04v.98s.01.04.04.04h2s.04.01.05.02c.01.01.02.04.02.05v.59s-.01.04-.02.05c-.01.01-.04.02-.05.02h-2.81s-.04-.01-.05-.02c-.01-.01-.02-.04-.02-.05v-4.11s.01-.04.02-.05c.01-.01.04-.02.05-.02h2.81s.04.01.05.02c.01.01.02.04.02.05v.59s-.01.02-.02.04Z"/>
    <path d="m98.13,56.72l-.18-.6s-.02-.02-.04-.02h-1.5s-.02.01-.04.02l-.18.6s-.04.06-.08.06h-.77s-.05-.01-.06-.02c-.01-.01-.01-.04-.01-.06l1.32-4.11s.04-.06.08-.06h.96s.07.02.08.06l1.32,4.11v.04s-.02.06-.07.06h-.77s-.06-.04-.07-.07Zm-1.5-1.28h1.07s.04-.01.02-.04l-.55-1.81s-.01-.02-.02-.02-.01.01-.02.02l-.54,1.81s.02.04.05.04Z"/>
    <path d="m102.66,52.54s.02.04.02.05v.6s-.01.04-.02.05c-.01.01-.04.02-.05.02h-1.09s-.04.01-.04.04v3.41s-.01.04-.02.05c-.01.01-.04.02-.05.02h-.71s-.04-.01-.05-.02c-.01-.01-.02-.04-.02-.05v-3.41s-.01-.04-.04-.04h-1.05s-.04-.01-.05-.02c-.01-.01-.02-.04-.02-.05v-.6s.01-.04.02-.05c.01-.01.04-.02.05-.02h3.07s.04.01.05.02Z"/>
    <path d="m103.85,56.76s-.02-.04-.02-.05v-4.11s.01-.04.02-.05c.01-.01.04-.02.05-.02h.71s.04.01.05.02.02.04.02.05v4.11s-.01.04-.02.05c-.01.01-.04.02-.05.02h-.71s-.04-.01-.05-.02Z"/>
    <path d="m107.09,56.72l-1.26-4.11v-.02s.02-.06.07-.06h.77s.07.02.08.06l.8,2.97s.01.02.02.02.01,0,.02-.02l.8-2.97s.04-.06.08-.06h.74s.05.01.06.02c.01.01.01.04,0,.06l-1.27,4.11s-.04.06-.08.06h-.77s-.07-.02-.08-.06Z"/>
    <path d="m113.33,53.24s-.04.02-.05.02h-2s-.04.01-.04.04v.95s.01.04.04.04h1.31s.04.01.05.02c.01.01.02.04.02.05v.59s-.01.04-.02.05c-.01.01-.04.02-.05.02h-1.31s-.04.01-.04.04v.98s.01.04.04.04h2s.04.01.05.02c.01.01.02.04.02.05v.59s-.01.04-.02.05c-.01.01-.04.02-.05.02h-2.81s-.04-.01-.05-.02c-.01-.01-.02-.04-.02-.05v-4.11s.01-.04.02-.05c.01-.01.04-.02.05-.02h2.81s.04.01.05.02c.01.01.02.04.02.05v.59s-.01.02-.02.04Z"/>
    <path d="m116.14,56.7l1.56-4.12s.04-.06.08-.06h.71c.06,0,.08.02.06.08l-1.56,4.12s-.04.06-.08.06h-.71c-.06,0-.07-.02-.06-.08Z"/>
    <path d="m122.35,56.65c-.24-.12-.42-.3-.55-.52-.13-.23-.19-.48-.19-.77v-1.4c0-.29.06-.55.19-.77.13-.23.31-.4.55-.52s.52-.18.84-.18.59.06.83.17c.24.12.42.28.55.49s.2.46.2.74c0,.04-.02.06-.07.07l-.71.05h-.01s-.06-.02-.06-.07c0-.22-.07-.38-.2-.52s-.3-.19-.52-.19-.4.06-.53.19-.2.3-.2.52v1.46c0,.22.06.38.2.52s.31.19.53.19.38-.06.52-.19.2-.3.2-.52c0-.05.02-.07.07-.07l.71.04s.04,0,.05.02c.01.01.02.02.02.05,0,.28-.06.53-.2.74-.13.22-.31.38-.55.5s-.52.18-.83.18c-.32-.05-.6-.11-.84-.23Z"/>
    <path d="m126.66,56.65c-.24-.13-.43-.31-.56-.54-.13-.23-.2-.5-.2-.8v-1.31c0-.3.07-.56.2-.8.13-.23.32-.41.56-.54.24-.13.52-.19.84-.19s.6.06.84.19.43.31.56.54c.13.23.2.49.2.8v1.31c0,.3-.07.57-.2.81s-.32.42-.56.54c-.24.13-.53.19-.84.19s-.59-.07-.84-.2Zm1.38-.75c.14-.14.2-.34.2-.56v-1.33c0-.24-.07-.42-.2-.56-.13-.14-.31-.22-.54-.22s-.41.07-.54.22-.2.34-.2.56v1.34c0,.24.07.42.2.56.13.14.31.22.54.22.23-.01.41-.08.54-.23Z"/>
    <path d="m133.19,52.53h.72s.04.01.05.02.02.04.02.05v4.11s-.01.04-.02.05c-.01.01-.04.02-.05.02h-.71s-.04-.01-.05-.02c-.01-.01-.02-.04-.02-.05v-2.68s0-.02-.01-.02-.01.01-.02.02l-.65,1.01s-.05.05-.08.05h-.36s-.06-.01-.08-.05l-.65-1.01s-.01-.01-.02-.01-.01.01-.01.02v2.67s-.01.04-.02.05c-.01.01-.04.02-.05.02h-.71s-.04-.01-.05-.02c-.01-.01-.02-.04-.02-.05v-4.11s.01-.04.02-.05c.01-.01.04-.02.05-.02h.71s.06.01.08.05l.91,1.41s.02.02.04,0l.92-1.41s.04-.05.07-.05Z"/>
    <path d="m138.14,52.53h.71s.04.01.05.02.02.04.02.05v4.11s-.01.04-.02.05c-.01.01-.04.02-.05.02h-.71s-.04-.01-.05-.02c-.01-.01-.02-.04-.02-.05v-2.68s0-.02-.01-.02-.01.01-.02.02l-.65,1.01s-.05.05-.08.05h-.36s-.06-.01-.08-.05l-.65-1.01s-.01-.01-.02-.01-.01.01-.01.02v2.67s-.01.04-.02.05c-.01.01-.04.02-.05.02h-.71s-.04-.01-.05-.02c-.01-.01-.02-.04-.02-.05v-4.11s.01-.04.02-.05c.01-.01.04-.02.05-.02h.71s.06.01.08.05l.91,1.41s.02.02.04,0l.92-1.41s.05-.05.08-.05Z"/>
    <path d="m143.21,53.24s-.04.02-.05.02h-2s-.04.01-.04.04v.95s.01.04.04.04h1.31s.04.01.05.02c.01.01.02.04.02.05v.59s-.01.04-.02.05c-.01.01-.04.02-.05.02h-1.31s-.04.01-.04.04v.98s.01.04.04.04h2s.04.01.05.02c.01.01.02.04.02.05v.59s-.01.04-.02.05c-.01.01-.04.02-.05.02h-2.81s-.04-.01-.05-.02c-.01-.01-.02-.04-.02-.05v-4.11s.01-.04.02-.05c.01-.01.04-.02.05-.02h2.81s.04.01.05.02c.01.01.02.04.02.05v.59s-.01.02-.02.04Z"/>
    <path d="m146.68,56.73l-.75-1.69s-.02-.02-.04-.02h-.56s-.04.01-.04.04v1.66s-.01.04-.02.05c-.01.01-.04.02-.05.02h-.71s-.04-.01-.05-.02c-.01-.01-.02-.04-.02-.05v-4.11s.01-.04.02-.05c.01-.01.04-.02.05-.02h1.74c.26,0,.49.05.68.16.19.11.35.25.46.46.11.19.16.42.16.67,0,.28-.07.52-.2.71-.14.19-.34.34-.57.42-.02.01-.02.02-.02.05l.83,1.72s.01.02.01.04c0,.04-.02.05-.07.05h-.74s-.06-.04-.08-.07Zm-1.39-3.44v1.04s.01.04.04.04h.8c.17,0,.31-.05.42-.16.11-.1.16-.23.16-.4s-.05-.3-.16-.4c-.11-.11-.25-.16-.42-.16h-.8s-.04,0-.04.02Z"/>
    <path d="m149.44,56.65c-.24-.12-.42-.3-.55-.52-.13-.23-.19-.48-.19-.77v-1.4c0-.29.06-.55.19-.77.13-.23.31-.4.55-.52s.52-.18.84-.18.59.06.83.17c.24.12.42.28.55.49s.2.46.2.74c0,.04-.02.06-.07.07l-.71.05h-.01s-.06-.02-.06-.07c0-.22-.07-.38-.2-.52s-.3-.19-.52-.19-.4.06-.53.19-.2.3-.2.52v1.46c0,.22.06.38.2.52.13.13.31.19.53.19s.38-.06.52-.19.2-.3.2-.52c0-.05.02-.07.07-.07l.71.04s.04,0,.05.02c.01.01.02.02.02.05,0,.28-.06.53-.2.74-.13.22-.31.38-.55.5s-.52.18-.83.18c-.31-.05-.6-.11-.84-.23Z"/>
    <path d="m156.01,53.24s-.04.02-.05.02h-2s-.04.01-.04.04v.95s.01.04.04.04h1.31s.04.01.05.02c.01.01.02.04.02.05v.59s-.01.04-.02.05c-.01.01-.04.02-.05.02h-1.31s-.04.01-.04.04v.98s.01.04.04.04h2s.04.01.05.02c.01.01.02.04.02.05v.59s-.01.04-.02.05c-.01.01-.04.02-.05.02h-2.81s-.04-.01-.05-.02c-.01-.01-.02-.04-.02-.05v-4.11s.01-.04.02-.05c.01-.01.04-.02.05-.02h2.81s.04.01.05.02c.01.01.02.04.02.05v.59s0,.02-.02.04Z"/>
  </g>
  <g>
    <path d="m56.55,45.08c-1.5-.79-2.65-1.9-3.46-3.33-.83-1.44-1.23-3.09-1.23-4.97v-13.15c0-1.88.41-3.52,1.23-4.95.81-1.41,1.98-2.52,3.46-3.29,1.5-.77,3.21-1.15,5.15-1.15s3.65.38,5.15,1.14c1.49.75,2.65,1.83,3.46,3.22s1.23,3.01,1.23,4.85v.26c0,.14-.05.29-.16.41-.11.12-.23.18-.38.18l-4.16.18c-.36,0-.54-.18-.54-.54v-.53c0-1.4-.42-2.54-1.27-3.4-.85-.86-1.96-1.29-3.33-1.29s-2.53.43-3.38,1.29c-.85.86-1.27,2-1.27,3.4v13.74c0,1.4.42,2.53,1.27,3.38.85.85,1.98,1.27,3.38,1.27s2.48-.42,3.33-1.27,1.27-1.98,1.27-3.38v-.59c0-.32.18-.49.54-.49l4.16.18c.14,0,.28.05.38.16.11.11.16.23.16.38v.18c0,1.84-.41,3.49-1.23,4.9s-1.98,2.5-3.46,3.27c-1.5.77-3.21,1.14-5.15,1.14-1.94-.01-3.65-.41-5.15-1.2Z"/>
    <path d="m78.86,45.1c-1.51-.8-2.67-1.94-3.49-3.43-.83-1.47-1.23-3.19-1.23-5.13v-12.61c0-1.9.41-3.61,1.23-5.08.81-1.47,1.99-2.61,3.49-3.43,1.51-.79,3.25-1.2,5.21-1.2s3.75.41,5.26,1.21c1.51.8,2.67,1.94,3.51,3.43.84,1.47,1.26,3.17,1.26,5.08v12.61c0,1.94-.42,3.64-1.26,5.13-.84,1.47-2,2.61-3.51,3.43-1.51.8-3.26,1.21-5.26,1.21-1.96-.01-3.7-.42-5.21-1.22Zm8.72-4.67c.87-.93,1.32-2.16,1.32-3.64v-12.98c0-1.52-.44-2.75-1.32-3.69-.87-.93-2.05-1.41-3.51-1.41s-2.58.47-3.45,1.41c-.86.93-1.29,2.17-1.29,3.69v12.97c0,1.5.43,2.71,1.29,3.64.86.93,2.01,1.41,3.45,1.41s2.64-.47,3.51-1.4Z"/>
    <path d="m97.73,45.75c-.11-.11-.16-.23-.16-.38V15.14c0-.14.05-.28.16-.38.11-.11.23-.16.38-.16h9.26c2.89,0,5.21.8,6.96,2.42,1.75,1.6,2.62,3.76,2.62,6.44v13.59c0,2.68-.87,4.83-2.62,6.44-1.75,1.6-4.06,2.42-6.96,2.42h-9.26c-.16-.01-.28-.06-.38-.17Zm5.26-4.31l4.43-.05c1.28,0,2.31-.44,3.09-1.32s1.2-2.08,1.26-3.61v-12.43c0-1.52-.4-2.73-1.19-3.63-.79-.9-1.84-1.34-3.15-1.34h-4.43c-.16,0-.24.08-.24.23v21.92c0,.16.08.23.23.23Z"/>
    <path d="m138.62,18.91c-.11.11-.23.16-.38.16h-12.43c-.14,0-.23.07-.23.23v8.41c0,.14.07.23.23.23h7.96c.14,0,.28.05.38.16s.16.23.16.38v3.4c0,.14-.05.28-.16.38s-.23.16-.38.16h-7.96c-.14,0-.23.07-.23.23v8.59c0,.14.07.23.23.23h12.43c.14,0,.28.05.38.16.11.11.16.23.16.38v3.39c0,.14-.05.28-.16.38s-.23.16-.38.16h-17.31c-.16,0-.28-.05-.38-.16-.11-.11-.16-.23-.16-.38V15.14c0-.14.05-.28.16-.38.11-.11.23-.16.38-.16h17.31c.14,0,.28.05.38.16.11.11.16.23.16.38v3.4c0,.14-.05.28-.16.37Z"/>
    <path d="m159.45,36.07c0,1.9-.31,3.58-.93,5.01-.62,1.66-1.6,2.96-2.93,3.84-1.33.9-3.01,1.34-5.03,1.34-2.3,0-4.22-.6-5.77-1.81s-2.52-2.83-2.91-4.85c-.14-.86-.25-1.88-.31-3.04,0-.36.18-.54.54-.54h4.12c.36,0,.54.18.54.54.06.84.14,1.56.26,2.14.18.96.59,1.71,1.21,2.26.62.55,1.4.83,2.32.83.86,0,1.59-.24,2.19-.72s1.02-1.15,1.26-2.01c.24-1.04.36-2.18.36-3.4,0-1.49-.14-2.69-.44-3.63-.6-1.72-1.71-2.6-3.35-2.6-.48,0-.98.14-1.52.44-.12.08-.24.13-.36.13-.14,0-.29-.06-.41-.18l-2.06-2.32c-.12-.12-.18-.25-.18-.41,0-.14.05-.26.13-.36l6.58-7.43c.14-.18.11-.26-.13-.26h-10.06c-.14,0-.28-.05-.38-.16-.11-.11-.16-.23-.16-.38v-3.38c0-.14.05-.28.16-.38.11-.11.23-.16.38-.16h16.19c.14,0,.28.05.38.16.11.11.16.23.16.38v3.58c0,.26-.07.48-.23.62l-5.9,7.02c-.08.16-.06.24.08.26,1.26.18,2.34.65,3.25,1.41.91.75,1.6,1.75,2.08,2.97.59,1.47.89,3.15.89,5.07Z"/>
  </g>
</svg>