<?xml version="1.0" encoding="UTF-8"?>
<svg id="Layer_1" data-name="Layer 1" xmlns="http://www.w3.org/2000/svg" viewBox="0 0 164 74">
  <defs>
    <style>
      .cls-1 {
        fill: #005487;
      }

      .cls-2 {
        fill: #7fa9c3;
      }

      .cls-3 {
        fill: #00a1df;
      }
    </style>
  </defs>
  <g id="g58">
    <g id="g18">
      <path id="path4" class="cls-3" d="m69.79,23.88c-6.67.36-11.83,6.06-11.47,12.76.36,6.67,6.06,11.83,12.76,11.47.97-.04,1.9-.22,2.8-.47h0l.9,1.72c.36.72,1.22.97,1.94.61s.97-1.22.61-1.94l-.82-1.54c3.8-2.22,6.27-6.45,6.02-11.15-.29-6.67-6.02-11.83-12.73-11.47Zm5.41,20.08l-1.04-1.97c-.36-.72-1.22-.97-1.94-.61s-.97,1.22-.61,1.94l.9,1.72h0c-.5.11-1.04.18-1.58.22-5.09.25-9.47-3.66-9.75-8.78-.25-5.09,3.66-9.47,8.78-9.75,5.09-.25,9.47,3.66,9.75,8.78.18,3.55-1.69,6.74-4.52,8.46h0Z"/>
      <path id="path6" class="cls-3" d="m51.15,48.08c-.79,0-1.43-.65-1.43-1.43v-21.3c0-.79.65-1.43,1.43-1.43s1.43.65,1.43,1.43v21.3c0,.79-.65,1.43-1.43,1.43Z"/>
      <path id="path8" class="cls-1" d="m119.27,48.08c-.79,0-1.43-.65-1.43-1.43v-21.3c0-.79.65-1.43,1.43-1.43s1.43.65,1.43,1.43v21.3c0,.79-.65,1.43-1.43,1.43Z"/>
      <path id="path10" class="cls-1" d="m98.83,48.08h0c-.54,0-1.04-.29-1.25-.75l-11.15-21.3c-.36-.72-.11-1.58.61-1.94s1.58-.11,1.94.61l9.9,18.89,10.07-18.89c.36-.68,1.25-.97,1.94-.57.68.36.97,1.25.57,1.94l-11.37,21.3c-.25.43-.75.72-1.25.72Z"/>
      <g id="g16">
        <path id="path12" class="cls-1" d="m144.3,43.24h-6.88c-.79,0-1.43-.65-1.43-1.43s.65-1.43,1.43-1.43h6.92c.79,0,1.43.65,1.43,1.43s-.65,1.43-1.47,1.43h0Z"/>
        <path id="path14" class="cls-1" d="m152.08,48.08c-.5,0-1-.29-1.25-.75l-9.9-18.89-10.07,18.89c-.36.68-1.25.97-1.94.57-.68-.36-.97-1.25-.57-1.94l11.37-21.3c.25-.47.75-.79,1.25-.75.54,0,1,.29,1.25.75l11.15,21.3c.36.72.11,1.58-.61,1.94-.22.11-.47.18-.68.18Z"/>
      </g>
    </g>
    <g id="g24">
      <path id="path20" class="cls-1" d="m152.29,27.46h-.5v-3.08h-1.11v-.47h2.76v.43h-1.15v3.12Z"/>
      <path id="path22" class="cls-1" d="m155.77,26.64h0l1.04-2.72h.75v3.51h-.5v-2.94h0l-1.18,2.94h-.32l-1.18-2.94h0v2.94h-.47v-3.51h.75l1.11,2.72Z"/>
    </g>
    <g id="g56">
      <path id="path26" class="cls-1" d="m41.4,44.1h-7.03c-.5.9-1.08,1.72-1.69,2.44h8.75c.68,0,1.22-.54,1.22-1.22h0c-.04-.68-.57-1.22-1.25-1.22h0Z"/>
      <path id="path28" class="cls-1" d="m41.4,39.44h-5.38c-.18.86-.39,1.65-.68,2.44h6.02c.68,0,1.22-.54,1.22-1.22s-.5-1.22-1.18-1.22Z"/>
      <path id="path30" class="cls-1" d="m41.4,34.78h-5.06c.04.39.04.75.04,1.15,0,.43,0,.86-.04,1.29h5.06c.68,0,1.22-.54,1.22-1.22s-.54-1.22-1.22-1.22Z"/>
      <path id="path32" class="cls-1" d="m41.4,30.12h-5.99c.29.79.5,1.61.65,2.44h5.34c.68,0,1.22-.54,1.22-1.22h0c0-.65-.54-1.22-1.22-1.22Z"/>
      <path id="path34" class="cls-1" d="m41.4,25.45h-8.6c.61.72,1.18,1.54,1.65,2.44h6.96c.68,0,1.22-.54,1.22-1.22s-.54-1.22-1.22-1.22Z"/>
      <path id="path36" class="cls-3" d="m18.13,45.32h0c0-.68.54-1.22,1.22-1.22h-4.8c-.68,0-1.22.54-1.22,1.22h0c0,.68.54,1.22,1.22,1.22h4.8c-.65,0-1.22-.57-1.22-1.22Z"/>
      <path id="path38" class="cls-2" d="m34.37,44.1h-15.02c-.68,0-1.22.54-1.22,1.22h0c0,.68.54,1.22,1.22,1.22h13.3c.65-.75,1.22-1.54,1.72-2.44h0Z"/>
      <path id="path40" class="cls-3" d="m14.72,40.91c-.18-.79.43-1.47,1.18-1.47h-4.8c-.68,0-1.22.54-1.22,1.22s.54,1.22,1.22,1.22h4.84c-.57,0-1.11-.39-1.22-.97Z"/>
      <path id="path42" class="cls-2" d="m36.05,39.44H15.9c-.75,0-1.36.68-1.18,1.47.11.57.65.97,1.22.97h19.4c.32-.79.54-1.61.72-2.44h0Z"/>
      <path id="path44" class="cls-3" d="m11.28,36.25c-.18-.79.43-1.47,1.18-1.47h-4.8c-.68,0-1.22.54-1.22,1.22s.54,1.22,1.22,1.22h4.84c-.57,0-1.08-.39-1.22-.97Z"/>
      <path id="path46" class="cls-2" d="m11.28,36.25c.11.57.65.97,1.22.97h23.81c.04-.43.04-.86.04-1.29,0-.39,0-.79-.04-1.15H12.5c-.75,0-1.36.68-1.22,1.47Z"/>
      <path id="path48" class="cls-3" d="m12.96,31.33c0-.68.54-1.22,1.22-1.22h-4.8c-.68,0-1.22.54-1.22,1.22h0c0,.68.54,1.22,1.22,1.22h4.8c-.68,0-1.22-.54-1.22-1.22Z"/>
      <path id="path50" class="cls-2" d="m35.41,30.12H14.18c-.68,0-1.22.54-1.22,1.22s.54,1.22,1.22,1.22h21.87c-.14-.82-.36-1.65-.65-2.44Z"/>
      <path id="path52" class="cls-3" d="m21.82,26.96c-.18-.79.43-1.47,1.18-1.47h-4.8c-.68,0-1.22.54-1.22,1.22s.54,1.22,1.22,1.22h4.84c-.54,0-1.08-.39-1.22-.97Z"/>
      <path id="path54" class="cls-2" d="m32.79,25.45h-9.75c-.75,0-1.36.68-1.18,1.47.11.57.65.97,1.22.97h11.37c-.47-.86-1.04-1.69-1.65-2.44Z"/>
    </g>
  </g>
</svg>