<?xml version="1.0" encoding="UTF-8"?>
<svg id="Layer_1" data-name="Layer 1" xmlns="http://www.w3.org/2000/svg" viewBox="0 0 164 74">
  <defs>
    <style>
      .cls-1 {
        fill: #231f20;
      }
    </style>
  </defs>
  <path class="cls-1" d="m125.42,48.97h34.68v.34h-34.68v-.34Zm-119.89,0h37.31v.34H5.53v-.34Z"/>
  <path class="cls-1" d="m53.36,48.95c1.06.23,1.55.62,1.55,1.35,0,.82-.68,1.35-1.62,1.35-.75,0-1.37-.25-1.94-.76l.33-.39c.5.45.97.67,1.63.67s1.06-.33,1.06-.82c0-.45-.24-.7-1.24-.91-1.09-.24-1.6-.59-1.6-1.38s.66-1.3,1.56-1.3c.69,0,1.19.2,1.67.58l-.31.41c-.44-.36-.88-.52-1.37-.52-.62,0-1.01.34-1.01.77s.24.71,1.29.93m11.5-2.13h.44l1.31,3.97,1.36-3.96h.56l-1.7,4.79h-.46l-1.3-3.86-1.31,3.86h-.45l-1.7-4.79h.58l1.36,3.96,1.3-3.97Zm14.31.48h-2.9v1.63h2.6v.49h-2.6v1.66h2.93v.49h-3.47v-4.76h3.44v.49Zm10.08,4.27h-1.65v-4.76h1.65c1.5,0,2.53,1.03,2.53,2.37s-1.03,2.38-2.53,2.38m0-4.26h-1.11v3.76h1.11c1.2,0,1.97-.81,1.97-1.87s-.77-1.89-1.97-1.89m14.22,0h-2.9v1.63h2.6v.49h-2.6v1.66h2.94v.49h-3.47v-4.76h3.44v.49Zm12.32-.49h.52v4.76h-.43l-3.07-3.9v3.9h-.52v-4.76h.5l3,3.81v-3.81Z"/>
  <path class="cls-1" d="m54.38,40.87h-2.45v-16.44h2.45v16.44Zm11.87,0h-2.46v-16.44h12.01v2.32h-9.55v4.95h8.54v2.3h-8.54v6.87Zm28.63,0h-11.33v-16.44h2.46v14.12h8.87v2.32Zm35.89-4.32l-5.23-7.83v12.15h-2.41v-16.44h2.32l5.56,8.33,5.56-8.33h2.32v16.44h-2.46v-12.17l-5.23,7.85-.22.33-.22-.33Zm29.35,4.32h-12.18v-16.44h12.07v2.3h-9.62v4.7h8.6v2.3h-8.6v4.84h9.73v2.3Zm-115.87-.02h-3.12l-4.48-6.13h-4v6.13h-2.45v-16.44h7.12c3.67,0,6.08,1.98,6.08,5.05,0,2.42-1.54,4.19-4.07,4.83l4.93,6.56Zm-11.6-8.4h4.5c2.26,0,3.72-1.15,3.72-2.93s-1.35-2.79-3.69-2.79h-4.53v5.72Zm11.6,8.4h-3.12l-4.48-6.13h-4v6.13h-2.45v-16.44h7.12c3.67,0,6.08,1.98,6.08,5.05,0,2.42-1.54,4.19-4.07,4.84l4.93,6.56Zm-11.6-8.4h4.5c2.26,0,3.72-1.15,3.72-2.93s-1.35-2.79-3.69-2.79h-4.53v5.72Zm11.6,8.4h-3.12l-4.48-6.13h-4v6.13h-2.45v-16.44h7.12c3.67,0,6.08,1.98,6.08,5.05,0,2.42-1.54,4.19-4.07,4.83l4.93,6.56Zm-11.6-8.4h4.5c2.26,0,3.72-1.15,3.72-2.93s-1.35-2.79-3.69-2.79h-4.53v5.72Zm11.6,8.4h-3.12l-4.48-6.13h-4v6.13h-2.45v-16.44h7.12c3.67,0,6.08,1.98,6.08,5.05,0,2.42-1.54,4.19-4.07,4.84l4.93,6.56Zm-11.6-8.4h4.5c2.26,0,3.72-1.15,3.72-2.93s-1.35-2.79-3.69-2.79h-4.53v5.72Zm81.47,8.42h2.7l-7.49-16.55h-2.1l-7.49,16.55h2.61l1.87-4.26h8.05l1.85,4.26Zm-8.95-6.44l3.09-7.04,3.06,7.04h-6.15Zm-82.36-2.76c0,5.23-4.24,9.46-9.46,9.46s-9.46-4.24-9.46-9.46c0-4.69,3.41-8.58,7.89-9.33l.02.07c-3.49,1.36-5.59,4.65-5.59,8.49,0,4.91,3.47,7.73,7.14,7.73s6.96-3.11,6.96-6.96c0-3.3-2.61-6.04-6.01-6.04-3.93,0-5.79,3.57-5.79,3.57l-.06-.02s1.77-5.13,6.89-5.13c3.16,0,7.47,2.58,7.47,7.62"/>
</svg>