<svg xmlns="http://www.w3.org/2000/svg" xmlns:xlink="http://www.w3.org/1999/xlink" width="303" height="303" viewBox="0 0 303 303"><defs><clipPath id="clip-path"><rect id="Rectangle_7678" data-name="Rectangle 7678" width="267.861" height="257.396" fill="none"></rect></clipPath><clipPath id="clip-quality"><rect width="303" height="303"></rect></clipPath></defs><g id="quality" clip-path="url(#clip-quality)"><rect width="303" height="303" fill="rgba(255,255,255,0)"></rect><g id="Group_26684" data-name="Group 26684" transform="translate(17.569 22.802)"><g id="Group_26683" data-name="Group 26683" clip-path="url(#clip-path)"><path id="Path_48514" data-name="Path 48514" d="M264.861,128.7c0,13.58-11.984,25.1-15.963,37.356-4.124,12.7-1.343,29.038-9.036,39.61-7.771,10.677-24.22,13.044-34.9,20.815-10.572,7.693-17.864,22.65-30.565,26.774-12.254,3.979-26.889-3.705-40.469-3.705s-28.216,7.684-40.47,3.705c-12.7-4.124-19.993-19.08-30.565-26.774C52.219,218.708,35.77,216.341,28,205.664c-7.693-10.572-4.912-26.909-9.036-39.609C14.984,153.8,3,142.279,3,128.7s11.984-25.1,15.963-37.356C23.087,78.641,20.306,62.3,28,51.732c7.771-10.677,24.22-13.044,34.9-20.815C73.468,23.224,80.76,8.267,93.461,4.143c12.254-3.979,26.889,3.7,40.47,3.7S162.146.164,174.4,4.143c12.7,4.124,19.993,19.08,30.565,26.774,10.677,7.771,27.126,10.138,34.9,20.815,7.693,10.572,4.912,26.909,9.036,39.609,3.979,12.254,15.963,23.776,15.963,37.357" fill="#ffc729"></path><path id="Path_48515" data-name="Path 48515" d="M264.861,128.7c0,13.58-11.984,25.1-15.963,37.356-4.124,12.7-1.343,29.038-9.036,39.61-7.771,10.677-24.22,13.044-34.9,20.815-10.572,7.693-17.864,22.65-30.565,26.774-12.254,3.979-26.889-3.705-40.469-3.705s-28.216,7.684-40.47,3.705c-12.7-4.124-19.993-19.08-30.565-26.774C52.219,218.708,35.77,216.341,28,205.664c-7.693-10.572-4.912-26.909-9.036-39.609C14.984,153.8,3,142.279,3,128.7s11.984-25.1,15.963-37.356C23.087,78.641,20.306,62.3,28,51.732c7.771-10.677,24.22-13.044,34.9-20.815C73.468,23.224,80.76,8.267,93.461,4.143c12.254-3.979,26.889,3.7,40.47,3.7S162.146.164,174.4,4.143c12.7,4.124,19.993,19.08,30.565,26.774,10.677,7.771,27.126,10.138,34.9,20.815,7.693,10.572,4.912,26.909,9.036,39.609C252.877,103.6,264.861,115.117,264.861,128.7Z" fill="none" stroke="#000" stroke-miterlimit="10" stroke-width="6"></path><path id="Path_48516" data-name="Path 48516" d="M243.846,128.7c0,11.314-11.625,20.653-14.94,30.861-3.435,10.581.362,24.946-6.048,33.752-6.473,8.895-21.352,9.692-30.246,16.165-8.807,6.41-14.128,20.35-24.708,23.785-10.208,3.315-22.66-4.727-33.974-4.727s-23.765,8.042-33.974,4.727c-10.58-3.435-15.9-17.376-24.708-23.785C66.354,203,51.475,202.205,45,193.311c-6.409-8.807-2.612-23.172-6.048-33.752C35.64,149.35,24.015,140.012,24.015,128.7s11.625-20.653,14.94-30.861C42.39,87.256,38.593,72.891,45,64.085c6.474-8.9,21.352-9.692,30.247-16.165,8.807-6.41,14.127-20.35,24.708-23.785,10.208-3.315,22.66,4.727,33.973,4.727S157.7,20.82,167.9,24.135c10.58,3.435,15.9,17.376,24.707,23.785,8.9,6.474,23.774,7.271,30.247,16.165,6.409,8.807,2.612,23.172,6.047,33.752,3.315,10.209,14.94,19.547,14.94,30.861" fill="#fff"></path><path id="Path_48517" data-name="Path 48517" d="M243.846,128.7c0,11.314-11.625,20.653-14.94,30.861-3.435,10.581.362,24.946-6.048,33.752-6.473,8.895-21.352,9.692-30.246,16.165-8.807,6.41-14.128,20.35-24.708,23.785-10.208,3.315-22.66-4.727-33.974-4.727s-23.765,8.042-33.974,4.727c-10.58-3.435-15.9-17.376-24.708-23.785C66.354,203,51.475,202.205,45,193.311c-6.409-8.807-2.612-23.172-6.048-33.752C35.64,149.35,24.015,140.012,24.015,128.7s11.625-20.653,14.94-30.861C42.39,87.256,38.593,72.891,45,64.085c6.474-8.9,21.352-9.692,30.247-16.165,8.807-6.41,14.127-20.35,24.708-23.785,10.208-3.315,22.66,4.727,33.973,4.727S157.7,20.82,167.9,24.135c10.58,3.435,15.9,17.376,24.707,23.785,8.9,6.474,23.774,7.271,30.247,16.165,6.409,8.807,2.612,23.172,6.047,33.752C232.221,108.046,243.846,117.384,243.846,128.7Z" fill="none" stroke="#000" stroke-miterlimit="10" stroke-width="6"></path><path id="Path_48518" data-name="Path 48518" d="M181.358,115.457c-3.1-4.1-8.7-4.9-12.593-5.1a94.259,94.259,0,0,0-13.992.3,12.874,12.874,0,0,1-.2-4.6c.7-8,1.6-13.893,2.3-18.59l.1-.4a9.183,9.183,0,0,0-6.8-10.695c-4.5-1.2-10.394.4-12.593,5.7-.3.7-.6,1.6-1,2.7-2.8,7.4-9.1,24.287-19.29,30.383v-.9a2.261,2.261,0,0,0-2.3-2.3H91.008a2.261,2.261,0,0,0-2.3,2.3v49.973a2.262,2.262,0,0,0,2.3,2.3H115a2.261,2.261,0,0,0,2.3-2.3v-.5c8,2.2,27.185,6.9,40.878,6.9,7.2,0,16.191,0,18.69-11.294,2-8.895,4.6-22.088,6.3-31.183C184.356,122.652,183.757,118.455,181.358,115.457Z" fill="#fff"></path><path id="Path_48519" data-name="Path 48519" d="M181.358,115.457c-3.1-4.1-8.7-4.9-12.593-5.1a94.259,94.259,0,0,0-13.992.3,12.874,12.874,0,0,1-.2-4.6c.7-8,1.6-13.893,2.3-18.59l.1-.4a9.183,9.183,0,0,0-6.8-10.695c-4.5-1.2-10.394.4-12.593,5.7-.3.7-.6,1.6-1,2.7-2.8,7.4-9.1,24.287-19.29,30.383v-.9a2.261,2.261,0,0,0-2.3-2.3H91.008a2.261,2.261,0,0,0-2.3,2.3v49.973a2.262,2.262,0,0,0,2.3,2.3H115a2.261,2.261,0,0,0,2.3-2.3v-.5c8,2.2,27.185,6.9,40.878,6.9,7.2,0,16.191,0,18.69-11.294,2-8.895,4.6-22.088,6.3-31.183C184.356,122.652,183.757,118.455,181.358,115.457Z" fill="none" stroke="#000" stroke-miterlimit="10" stroke-width="6"></path><path id="Path_48520" data-name="Path 48520" d="M114.491,167.846H89.681a2.972,2.972,0,0,1-2.972-2.971V113.614a2.972,2.972,0,0,1,2.972-2.971h24.81a2.971,2.971,0,0,1,2.971,2.971v51.261a2.971,2.971,0,0,1-2.971,2.971" fill="#e526d6"></path><path id="Rectangle_7677" data-name="Rectangle 7677" d="M2.971,0h24.81a2.972,2.972,0,0,1,2.972,2.972v51.26A2.971,2.971,0,0,1,27.782,57.2H2.971A2.971,2.971,0,0,1,0,54.232V2.971A2.971,2.971,0,0,1,2.971,0Z" transform="translate(86.709 110.643)" fill="none" stroke="#000" stroke-miterlimit="10" stroke-width="6"></path></g></g></g></svg>