<svg xmlns="http://www.w3.org/2000/svg" id="Layer_1" data-name="Layer 1" viewBox="0 0 250 250"><defs><style>      .cls-1, .cls-2, .cls-3 {        stroke-miterlimit: 10;      }      .cls-1, .cls-2, .cls-3, .cls-4, .cls-5 {        stroke-width: 3px;      }      .cls-1, .cls-3, .cls-5 {        stroke: #000;      }      .cls-1, .cls-5 {        fill: none;      }      .cls-2 {        fill: #04c4d9;      }      .cls-2, .cls-4 {        stroke: #0e0f10;      }      .cls-3 {        fill: #fff;      }      .cls-4 {        fill: #ffc729;      }      .cls-4, .cls-5 {        stroke-linecap: round;        stroke-linejoin: round;      }    </style></defs><path class="cls-3" d="m224.02,226.87H28.91s-6.2-29.16,9.39-44.22c33.5-32.37,142.83-30.61,173.59,0,16.81,16.73,12.13,44.22,12.13,44.22Z"></path><polygon class="cls-2" points="71.8 165.93 71.8 199.38 127.89 184.61 71.8 165.93"></polygon><polygon class="cls-2" points="178.91 165.93 178.91 199.38 122.82 184.61 178.91 165.93"></polygon><path class="cls-3" d="m198.26,141.21c-22.96,41.26-58.77,42.38-73.17,43.4-14.4-1.02-50.21-2.14-73.17-43.4-23.6-49.49,15.42-83.58,15.42-83.58h115.51s39.02,34.09,15.42,83.58Z"></path><path class="cls-4" d="m45.14,99.24s40.47-9.48,52.67-41.61c0,0,18.59,40.01,107.22,41.61,0,0-6.75-63.69-79.95-63.69s-79.95,63.69-79.95,63.69Z"></path><g><path d="m49.76,137.57h-7.18c-7.56,0-13.68-6.89-13.68-15.38v-24.49c0-8.49,6.13-15.38,13.68-15.38h7.18c-2.16,5.86-4.69,14.79-4.93,25.9-.28,12.85,2.62,23.1,4.93,29.35Z"></path><path d="m200.64,137.57h6.95c7.56,0,13.68-6.89,13.68-15.38v-24.49c0-8.49-6.12-15.38-13.68-15.38h-7.81c2.04,3.39,5.85,10.81,5.8,20.77-.03,5.81-.57,16.52-.54,18.17.1,5.98-3.49,11.65-4.4,16.31Z"></path><path class="cls-1" d="m38.29,94.25c0-40.46,38.86-73.25,86.79-73.25s86.79,32.8,86.79,73.25"></path><circle cx="124.6" cy="170.93" r="9.29"></circle><path class="cls-1" d="m205.03,123.16s-4.61,46.4-79.95,47.58"></path></g><g id="Ellipse_879" data-name="Ellipse 879"><ellipse cx="94.94" cy="112.64" rx="4.92" ry="8.61"></ellipse><ellipse cx="94.94" cy="112.64" rx="4.37" ry="8.06"></ellipse></g><g id="Ellipse_880" data-name="Ellipse 880"><ellipse cx="155.23" cy="112.64" rx="4.92" ry="8.61"></ellipse><ellipse cx="155.23" cy="112.64" rx="4.37" ry="8.06"></ellipse></g><path class="cls-5" d="m126.11,113.18c-2.64,4.19-2.84,9.8-.51,14.16.42.78.91,1.54,1.17,2.39s.23,1.85-.32,2.54c-.44.55-1.13.82-1.7,1.24-1.35,1.02-1.81,3.06-1.03,4.56"></path><path class="cls-5" d="m107.35,150.28c4.92,4.06,11.21,6.41,17.59,6.58,6.37.16,12.78-1.87,17.9-5.67"></path></svg>