<svg xmlns="http://www.w3.org/2000/svg" xmlns:xlink="http://www.w3.org/1999/xlink" width="119" height="119.001" viewBox="0 0 119 119.001">
  <defs>
    <filter id="Path_913" x="0" y="0" width="119" height="119.001" filterUnits="userSpaceOnUse">
      <feOffset dx="2" dy="2" input="SourceAlpha"/>
      <feGaussianBlur stdDeviation="1.5" result="blur"/>
      <feFlood flood-color="#7a7a7a" flood-opacity="0.502"/>
      <feComposite operator="in" in2="blur"/>
      <feComposite in="SourceGraphic"/>
    </filter>
  </defs>
  <g id="Group_969" data-name="Group 969" transform="translate(-239.5 -3742.5)">
    <g id="Group_615" data-name="Group 615" transform="translate(-772 -9)">
      <g id="Group_608" data-name="Group 608" transform="translate(-1808.851 1382.8)">
        <g transform="matrix(1, 0, 0, 1, 2820.35, 2368.7)" filter="url(#Path_913)">
          <path id="Path_913-2" data-name="Path 913" d="M2932.851,2426.2a55,55,0,1,1-55-55,55,55,0,0,1,55,55" transform="translate(-2820.35 -2368.7)" fill="#fff"/>
        </g>
        <path id="Path_914" data-name="Path 914" d="M2927.657,2427.879a49.806,49.806,0,1,1-49.8-49.8,49.807,49.807,0,0,1,49.8,49.8" fill="#ff3800"/>
        <path id="Path_915" data-name="Path 915" d="M2871,2435.357c-.427-2.451-1.574-4.944-4.1-5.822-3.471-1.2-6.021.27-9,1.327a1,1,0,0,0-.214.051c-.137.051-.272.106-.407.159a15.254,15.254,0,0,1-1.825.479.728.728,0,0,0-.637.7c-5.257,3.05-7.737,8.359-4.482,14.51s12.745,10.173,18.817,5.839c2.437-1.74,1.813-4.876,1.766-7.449C2870.85,2441.9,2871.562,2438.6,2871,2435.357Z"/>
        <path id="Path_916" data-name="Path 916" d="M2869.23,2447.7c.4,8.513-11.936,4.119-15.368.821a10.955,10.955,0,0,1-3.379-7.837c0-4.155,4.271-6.808,7.665-8.059a.972.972,0,0,0,.129-.062c1.445-.549,2.836-1.237,4.333-1.694,3.275-1,5.856,1.349,6.562,4.277C2870.128,2439.108,2869.039,2443.639,2869.23,2447.7Z" fill="#fff"/>
        <path id="Path_917" data-name="Path 917" d="M2885.8,2430.117a.814.814,0,0,0-1.326.459c-.82,4.175-.31,8.535-.291,12.768.012,2.745.109,5.533,1.876,7.762,3.706,4.676,13.734.92,17.273-2.1C2914.726,2439.261,2895.619,2422.4,2885.8,2430.117Z"/>
        <path id="Path_918" data-name="Path 918" d="M2900.936,2448.549c-3.557,2.374-12.6,5.2-14.518-.4-.684-1.993-.466-4.386-.472-6.46-.01-3.221-.375-6.5.078-9.7a.864.864,0,0,0,.565-.232c4.37-3.909,10.881-.591,14.622,2.592C2906.214,2438.6,2906.644,2444.738,2900.936,2448.549Z" fill="#fff"/>
        <g id="Group_603" data-name="Group 603">
          <g id="Group_602" data-name="Group 602">
            <path id="Path_919" data-name="Path 919" d="M2856.884,2431.766c0-6.722-.307-13.884,3.438-19.78,4.043-6.366,12.484-8.67,19.581-8.672,6.445,0,13.257,2.368,17.156,7.712,4.335,5.943,3.317,15.26,3.319,22.208a.886.886,0,0,0,1.77,0c0-7.77.82-17.1-4.012-23.72-4.131-5.662-11.541-7.792-18.233-7.97-7.334-.2-15.057,2.425-19.961,8.021-5.237,5.974-4.832,14.789-4.828,22.2a.885.885,0,0,0,1.77,0Z"/>
          </g>
        </g>
        <g id="Group_605" data-name="Group 605">
          <g id="Group_604" data-name="Group 604">
            <path id="Path_920" data-name="Path 920" d="M2864.09,2430.174c-.253,7.553.584,15.08.637,22.63a.885.885,0,0,0,1.77,0c-.053-7.55-.891-15.077-.637-22.63.038-1.142-1.732-1.139-1.77,0Z"/>
          </g>
        </g>
        <g id="Group_607" data-name="Group 607">
          <g id="Group_606" data-name="Group 606">
            <path id="Path_921" data-name="Path 921" d="M2888.215,2429.893c.031,7.277.133,15.331,2.582,22.237.393,1.109,2.1.63,1.706-.491-2.4-6.776-2.487-14.6-2.518-21.746a.885.885,0,1,0-1.77,0Z"/>
          </g>
        </g>
        <path id="Path_922" data-name="Path 922" d="M2877.487,2421.651c-.824.005-1.651.056-2.474.056,2.015-1.985,3.6-4.49,2.575-7.332-1.318-3.638-6.214-3.154-7.954-.238-.625,1.045.957,1.788,1.51,1.063,1.453-.98,4.125-1.855,4.122.85-.005,2.3-2.575,4.192-4.2,5.417a1.412,1.412,0,0,0,.333,2.548c1.981.673,4.04.4,6.09.348A1.357,1.357,0,0,0,2877.487,2421.651Z"/>
        <path id="Path_923" data-name="Path 923" d="M2887.241,2418.918c-.433-.031-.872-.038-1.31-.04-.022-.412-.045-.825-.053-1.238a27.469,27.469,0,0,0-.494-6.636.736.736,0,0,0-.73-.6.632.632,0,0,0-.618-.152c-1.155.342-1.989,1.647-2.667,2.589a9.507,9.507,0,0,0-1.47,2.743c-.013.02-.025.041-.037.061-.668,1.062-1.859,2.68-1.322,4.028.559,1.4,1.724,1.846,3.185,1.977.542.048,1.094.08,1.649.1.056.879.1,1.748.127,2.6.043,1.787,2.819,1.791,2.774,0-.021-.864-.081-1.725-.146-2.586.373-.012.747-.028,1.112-.053A1.4,1.4,0,0,0,2887.241,2418.918Zm-6,.081c-.068-.523.689-1.548.936-2,.33-.6.63-1.246.962-1.86-.049,1.239-.01,2.494.057,3.746C2882.523,2418.84,2881.207,2418.751,2881.24,2419Z"/>
      </g>
    </g>
  </g>
</svg>
