<svg xmlns="http://www.w3.org/2000/svg" width="474.59" height="398.036" viewBox="0 0 474.59 398.036"><g id="Group_27" data-name="Group 27" transform="translate(-3624.116 -2866.704)"><path id="Path_333" data-name="Path 333" d="M1161.2,1369.425c65.408.346,121.33-1.587,177.245.348a283.766,283.766,0,0,1,39.72,3.689c20.093,3.556,27.149,10.51,31.109,30.815,1.98,10.148,2.324,20.482,2.969,30.763,4.9,78.121,4.789,156.343,4.637,234.565a141.915,141.915,0,0,0,.746,18.926,37.516,37.516,0,0,1-.658,12.881c-2.14,9.914-7.685,15.979-17.963,17.279-10.892,1.379-21.764,2.817-32.792,2.817q-66.408,0-132.816.21c-3.329.006-6.661.187-9.985.08-3.2-.1-4.65.93-4.99,4.456-1.72,17.824-1.689,18.013,16.421,18.254,12.647.168,25.3.077,37.945.3,9.826.173,14.191,8.612,9.123,17.275a5.9,5.9,0,0,1-4.835,3.051c-1.986.168-3.987.208-5.982.223-49.593.367-99.191,1.147-148.746-1.709a68.974,68.974,0,0,1-7.956-.6c-7.564-1.332-11.164-7.271-9.29-14.666.714-2.814,2.838-3.285,5.074-4.054,4.888-1.682,9.9-.818,14.861-.981,3.99-.131,8,.2,11.979-.067,4.168-.277,9.936,2.225,12.141-1.506,2.794-4.728,1.292-11.052.735-16.6-.361-3.6-4.1-2.564-6.591-2.6-20.967-.293-41.935-.686-62.9-.7-22.963-.021-45.924.539-68.888-.3a195.308,195.308,0,0,1-36.6-4.3,46.636,46.636,0,0,1-13.026-4.868c-6.825-3.937-10.809-9.684-11.3-17.668-.081-1.329-.226-2.661-.192-3.988,1.232-48.629-1.625-97.148-4-145.677-.8-16.285-2.19-32.544-2.77-48.835a587.393,587.393,0,0,1,2.353-72.795c.242-2.722-.548-5.224-.647-7.754-.975-24.9,5.123-41.726,32.746-45.8a220.155,220.155,0,0,1,34.848-2.156c52.589.626,105.178,1.211,148.277,1.7" transform="translate(2680.789 1499.001)"></path><path id="Path_334" data-name="Path 334" d="M1202.087,1712.915c-63.749,0-114.019.279-164.284-.147-18.265-.155-36.622-.217-54.767-3.2-5.61-.923-11.125-2.172-16.181-4.794-5.128-2.659-7.5-6.676-7.439-12.879.488-46.6-.341-93.158-3.562-139.691-2.551-36.851-4.293-73.8-2.259-110.755.876-15.921,3.193-31.758,4.57-47.658.471-5.433,3.8-8.226,7.906-10.666,6.8-4.045,14.48-4.839,22.093-5.29,10.295-.61,20.629-.991,30.939-.866q140.817,1.709,281.642.914a555.774,555.774,0,0,1,70.756,3.708c1.651.2,3.324.287,4.953.6,16.513,3.2,21.771,8.975,24.221,25.747,2.17,14.856,2.528,29.849,3.314,44.779,4.111,78.154,3.993,156.393,3.932,234.624-.016,20.508-.074,21.017-20.65,23.206-14.2,1.511-28.573,1.793-42.873,1.892-51.93.356-103.867-1.109-142.311.474" transform="translate(2680.789 1499.001)" fill="#04c4d9"></path><path id="Path_335" data-name="Path 335" d="M1184.449,1722.409c6.961,0,13.924.1,20.882-.042,3.369-.068,4.492,1.3,4.846,4.623,1.768,16.606,1.457,17.035-15.392,16.837-10.275-.12-20.551-.315-30.827-.281-3.539.012-5.206-.759-5.462-4.875-1.005-16.14-1.174-16.129,15.013-16.132h10.94v-.13" transform="translate(2680.789 1499.001)" fill="#fefefe"></path><path id="Path_336" data-name="Path 336" d="M1168.4,1657.419c-.412-2.382.893-4.563,2.314-6.926,35.668-59.319,69.293-119.793,101.474-181.062a179.012,179.012,0,0,1,18.051-28.587c4.709-5.919,10.874-8.809,18.513-6.726,8.108,2.21,12.844,10.2,11.464,19.668-.813,5.584-2.1,11.3-5.1,16.085-15.921,25.44-27.651,53.089-42.158,79.275-18.861,34.043-37.316,68.313-55.771,102.58-4.1,7.609-7.689,15.4-14.379,21.283-6.516,5.733-13.482,8.471-21.915,4.8-8.679-3.782-11.915-11.018-12.492-20.386" transform="translate(2680.789 1499.001)" fill="#010101"></path><path id="Path_337" data-name="Path 337" d="M1242.985,1463.867a43.707,43.707,0,0,1-5.662,18.014c-18.977,33.155-38.41,66.053-57.927,98.9-11.375,19.142-23.585,37.8-34.627,57.126-4.307,7.539-8.51,14.885-14.734,20.968-4.215,4.12-8.694,7.33-15.049,5.118-6.771-2.355-8.306-8.116-9.048-14.226-.756-6.218,1.674-11.671,4.45-17.068,29.808-57.961,63.815-113.559,95.725-170.337a65.3,65.3,0,0,1,8.913-11.959c5.249-5.746,11.736-7.29,19.049-4.66,6.308,2.268,9.031,7.39,8.91,18.128" transform="translate(2680.789 1499.001)" fill="#010101"></path><path id="Path_338" data-name="Path 338" d="M1075.213,1494.988c-.124-12.927,9.1-23.03,21-23,10.9.025,20.437,10.054,20.41,21.47-.026,11.009-9.178,20.842-19.686,21.149-12.206.356-21.614-8.138-21.722-19.616" transform="translate(2680.789 1499.001)" fill="#020404"></path><path id="Path_339" data-name="Path 339" d="M1119.344,1580.067c-.046,12.023-8.891,21.693-19.827,21.675-11.985-.02-19.924-8.855-20.005-22.265-.068-11.162,7.768-18.291,19.949-18.148,11.919.14,19.925,7.686,19.883,18.738" transform="translate(2680.789 1499.001)" fill="#020303"></path><path id="Path_340" data-name="Path 340" d="M1310.9,1451.409c-.048,4.086-1.481,7.725-3.35,11.316-32.8,63.023-65.934,125.871-99.994,188.225-3.372,6.172-6.986,12.173-12.409,16.7-6.009,5.011-13.253,3.277-16.586-3.546-1.062-2.176-1.617-4.259-.318-6.616,2.078-3.768,3.749-7.771,5.96-11.453,36.439-60.66,70.569-122.609,103.49-185.231a70.76,70.76,0,0,1,9.985-14.817c2.362-2.609,5.246-3.963,8.916-2.639,3.921,1.415,4.387,4.565,4.306,8.066" transform="translate(2680.789 1499.001)" fill="#fff"></path><path id="Path_341" data-name="Path 341" d="M1114.813,1649.86a17.334,17.334,0,0,1,2.373-10.7c29.746-57.142,63.382-112.082,95.159-168.073,2.607-4.593,4.39-9.671,8.137-13.632,3.014-3.185,6.5-5.255,10.544-2.927,3.64,2.093,3.787,6.174,2.69,9.809a95.26,95.26,0,0,1-8.147,18.116c-24.755,45.131-51.41,89.145-78.12,133.128-5.168,8.511-9.907,17.285-15.124,25.765a81.242,81.242,0,0,1-7.895,10.229c-1.671,1.936-3.473,4.759-6.49,3.69-3.388-1.2-3.042-4.719-3.127-5.4" transform="translate(2680.789 1499.001)" fill="#fefefe"></path><path id="Path_342" data-name="Path 342" d="M1107.1,1493.7c-.149,6.26-5.342,11.73-11.065,11.654-6.888-.092-12-5.245-11.839-11.924.167-6.8,5.315-12.159,11.72-12.2,6.277-.037,11.347,5.615,11.184,12.466" transform="translate(2680.789 1499.001)" fill="#fafbfb"></path><path id="Path_343" data-name="Path 343" d="M1089.058,1581.892c-.18-7.506,3.233-11.849,9.486-12.068,6.62-.233,12.048,4.579,11.945,10.589s-5.559,12.263-10.78,12.362c-5.622.1-10.507-4.885-10.651-10.883" transform="translate(2680.789 1499.001)" fill="#f5f7f7"></path></g></svg>