<svg xmlns="http://www.w3.org/2000/svg" viewBox="0 0 218 236" width="218" height="236"><title>Film-and-tele-svg</title><defs><clipPath clipPathUnits="userSpaceOnUse" id="cp1"><path d="m-27-18h272v272h-272z"></path></clipPath></defs><style>		.s0 { fill: #000000 } 		.s1 { fill: #04c4d9 } 		.s2 { fill: #f1f5f5 } 		.s3 { fill: #000101 } 		.s4 { fill: #000405 } 		.s5 { fill: #000708 } 		.s6 { fill: #ffffff } 		.s7 { fill: #9ea2a2 } 		.s8 { fill: #c0b3b3 } 		.s9 { fill: #060505 } 		.s10 { fill: #d5d8d8 } 	</style><g id="Clip-Path: Film_and_tele" clip-path="url(#cp1)"><g id="Film_and_tele"><g id="Group_81"><g id="Group_78"><path id="Path_645" class="s0" d="m97.8 49.3c-1.1-4.1-2.1-7.3-2.8-10.5-0.8-3.6-1.4-7.2-4.8-9.3q-0.3-0.2-0.5-0.4-0.2-0.3-0.4-0.5-0.2-0.3-0.4-0.5-0.1-0.3-0.3-0.6c-1.3-2.9-1.6-6 0.6-8.6q0.6-0.9 1.5-1.5 0.9-0.6 1.9-0.8 1.1-0.3 2.1-0.2 1.1 0.1 2 0.6c3 1.4 5.6 4.1 4.7 7.2-2.5 8.8 2.6 16 3.6 23.9 3.1-0.2 2.7-2.2 3-3.7q1.6-7.7 3.1-15.5c0.8-3.8 1.3-7.1-1.6-10.8-3.5-4.5-1.7-10.7 2.9-13.8 1.1-0.8 2.3-1.3 3.6-1.6 1.3-0.3 2.7-0.3 4-0.1 1.3 0.2 2.5 0.6 3.7 1.3 1.1 0.7 2.1 1.5 2.9 2.6 3.2 4.3 2.9 11.3-1.9 14.1-5.1 2.9-6.5 7.1-7 12.2 0 0.3-0.1 0.5-0.2 0.8-0.8 4.6-3.1 9.6-2.1 13.9 1.1 4.9 8 3.2 11.6 5.8q0.4 0.2 0.8 0.4 0.3 0.2 0.7 0.4 0.4 0.2 0.7 0.4 0.4 0.2 0.8 0.3c4.7 1.9 7.4 7.3 12.2 8.3 4.8 1 9.9 0 14.9 1.1 2.4 0.5 4.9 0.8 7.4 1.4 31.7 7.9 46.8 24.9 50.1 60.3 2.2 24.2-1.1 48.3-7.1 71.9-0.4 1.6-1 3.2-1.5 4.8-5 15.7-14.3 25.6-31.9 27.1-32.5 2.7-64.9 5.4-97.5 2.8-13.9-1.1-27.7-2.1-41.3-5.5q-1.4-0.3-2.8-0.7-1.4-0.4-2.8-0.9-1.4-0.4-2.7-0.9-1.4-0.5-2.8-1.1c-8.5-3.5-13.9-9.8-16.3-18.7-3.2-12-3.9-24.2-4.5-36.4-0.9-17.5-1.2-35.1 0.9-52.6q0.2-1.6 0.4-3.3 0.2-1.6 0.5-3.3 0.3-1.6 0.6-3.3 0.4-1.6 0.8-3.2c4.3-16.3 14-27.4 31-31.4 9.3-2.3 18.7-3.2 28.1-4 3.8-0.3 6.6-1 9-4.6 5.1-7.9 13.5-11.1 23-13.3"></path><path id="Path_646" class="s1" d="m102.9 225.6c-17.4-0.1-39.4-0.9-61-5.2-21.9-4.4-26.7-10.1-29.1-32.1-2.1-20-2.1-40-1.7-60q0.1-3.1 0.3-6.2 0.2-3.2 0.6-6.3 0.5-3.1 1.1-6.1 0.6-3.1 1.3-6.1c3.7-13.6 12.2-22.2 26.1-25.2q2.8-0.7 5.7-1.2 2.9-0.5 5.8-1 2.8-0.4 5.7-0.7 3-0.3 5.9-0.4c27.4-1.5 54.9-3 82.4-3.9q5.3-0.2 10.5 0.5 5.1 0.6 10.2 2.1 5 1.5 9.7 3.7 4.8 2.2 9.1 5.1c11.2 7.4 16.4 18.6 19.4 31.1 3.4 14 2.6 28.2 1.6 42.4q-0.3 4.2-0.8 8.5-0.4 4.2-1 8.5-0.7 4.2-1.5 8.4-0.8 4.2-1.7 8.3c-0.8 3.3-1.9 6.4-2.8 9.7-3.8 14.3-12.7 21.6-27.9 22.7-21.1 1.5-42.2 3.2-67.9 3.4z"></path><path id="Path_647" class="s2" d="m128.4 64.4l-45.7 2.1c9.8-12.2 33.5-13.3 45.7-2.1z"></path><path id="Path_648" class="s3" d="m26.6 143.3c0.3-10.2-1.3-22.5 0.8-34.6 2.2-12.2 6-16.4 17.9-18.9 22.5-4.8 45.3-5.4 68.1-3.8 6.4 0.5 12.8 0.4 19.1 2 11 2.8 18 9.3 20.7 20.4 3.5 14 3.8 28.2 2.9 42.3-0.7 12-0.9 23.9-2.5 35.8-1.8 14-5.2 18.4-18.8 21.8q-8.2 2-16.5 3.4-8.4 1.4-16.8 2.1-8.4 0.8-16.9 0.9-8.4 0.1-16.9-0.5c-6.6-0.3-13.3-0.3-19.8-2.1-7.9-2.2-13.2-6.7-15.6-14.7q-0.8-2.6-1.5-5.2-0.7-2.6-1.2-5.3-0.5-2.6-0.8-5.3-0.4-2.7-0.6-5.4c-0.7-10.3-1-20.6-1.6-32.9z"></path><path id="Path_649" class="s4" d="m175.1 116.7c2.5 0 5-0.1 7.4 0 2.2 0.1 3.7 1.3 3.6 3.6q0 0.7-0.3 1.2-0.2 0.6-0.7 1-0.5 0.5-1 0.7-0.6 0.2-1.3 0.2c-5.5 0.1-10.9 0.1-16.4 0q-0.7 0-1.2-0.2-0.6-0.3-1.1-0.7-0.4-0.5-0.7-1-0.2-0.6-0.2-1.3c-0.1-2.4 1.6-3.4 3.7-3.5 2.7-0.1 5.5 0 8.2 0q0 0 0 0z"></path><path id="Path_650" class="s5" d="m172.5 161.9c2.2 0 4.4-0.2 6.6 0 2.2 0.2 3.7 1.6 3.6 3.8q-0.1 0.7-0.3 1.3-0.3 0.5-0.8 1-0.4 0.4-1 0.6-0.6 0.2-1.3 0.2c-5 0.1-10-0.1-14.9-0.3q-0.6 0-1.1-0.2-0.5-0.2-0.8-0.6-0.4-0.3-0.6-0.8-0.3-0.5-0.3-1c-0.2-1.9 0.8-3.4 2.6-3.7 2.7-0.5 5.5-0.5 8.3-0.6q0 0.1 0 0.3z"></path><path id="Path_651" class="s4" d="m175.3 139.8c1.1-0.1 2.2-0.3 3.3-0.3 2.5-0.1 5.4-0.1 5.4 3.4 0.1 2.6-2.2 3.7-4.5 3.8-4.2 0.1-8.3 0.1-12.5 0q-0.6-0.1-1.2-0.3-0.5-0.3-1-0.7-0.4-0.5-0.6-1.1-0.3-0.6-0.2-1.2-0.1-0.6 0.1-1.2 0.2-0.6 0.7-1.1 0.4-0.4 1-0.7 0.6-0.3 1.2-0.3c2.7-0.1 5.5 0 8.3 0q0-0.2 0-0.3z"></path><path id="Path_652" class="s6" d="m148.1 157.7c-1.2 10.8-1.3 21.3-2.7 31.7-0.8 5.9-3.8 9.1-9.1 10.4-7.3 1.8-14.6 3.5-22 4.7q-7.4 1.1-14.9 1.7-7.5 0.7-15 0.8-7.5 0.1-15-0.2-7.5-0.4-14.9-1.2c-9-1-14.1-5.4-16-14.2-2.1-9-2.5-18.2-3.3-27.3q-0.1-0.5 0-1 0-0.5 0-1.1 0.1-0.5 0.3-1 0.1-0.5 0.3-0.9c4.2-12 22-24.5 35-25.1 5.2-0.2 10 0.8 14.2 3.9 6.7 4.9 13.5 9.8 19.9 15 12.5 10.2 25.7 12.6 40.1 4.5q0.4-0.1 0.8-0.2 0.4-0.1 0.8-0.2 0.4-0.1 0.7-0.2 0.4 0 0.8-0.1z"></path><path id="Path_653" class="s6" d="m109.7 147.2l-1.4-0.9q-0.3-0.1-0.5-0.2-0.2-0.1-0.4-0.3-0.3-0.1-0.4-0.4-0.2-0.2-0.3-0.4c-4.5-3.3-8.8-6.8-13.4-10-15.5-10.9-32.7-10.3-47.5 1.9-3.5 2.9-6.7 6.3-11.3 10.6 0.1-13.6-1-25.8 0.6-37.8 1-7.2 4.6-11.7 12.8-13.1 26.6-4.5 53.2-4.1 79.9-1.4 9.8 1 16.1 6.7 18.3 16.7 2.3 10.4 2.4 20.9 2.4 31.5-0.1 2.2-1 3.5-2.6 4.8-9.7 7.7-19.8 9.8-30.9 3.2q-0.2-0.2-0.3-0.5-0.1-0.2 0-0.5 0-0.3 0.1-0.6 0.2-0.2 0.4-0.4c2.4-1.6 5.4-1 7.8-2.4 4.2-2.4 6.8-5.8 5.4-10.8-1.1-3.9-3.7-7-8.2-6.9-5.3 0.2-7.6 3.8-8.1 8.7-0.3 2.5-0.1 5-0.9 7.4q-0.1 0.2-0.3 0.5-0.1 0.2-0.3 0.5-0.2 0.2-0.4 0.4-0.2 0.2-0.5 0.4z"></path><path id="Path_654" class="s7" d="m114.9 149.7q0.1 0.9 0.1 1.7-0.6 0-1.1-0.2-0.6-0.2-1-0.6-0.5-0.3-0.9-0.7-0.4-0.5-0.6-1-0.2-0.3-0.3-0.6-0.1-0.2-0.1-0.5 0-0.3 0-0.6 0.1-0.3 0.2-0.6c2.6-0.6 3.7 0.6 3.7 3.1z"></path><path id="Path_655" class="s8" d="m111.7 146.4q-0.2 1.2-0.3 2.5c-0.9-0.3-1.6-0.6-1.7-1.7l0.5-2.5q0.3 0.1 0.6 0.3 0.2 0.1 0.4 0.3 0.2 0.3 0.3 0.5 0.1 0.3 0.2 0.6z"></path><path id="Path_656" class="s8" d="m106.7 145c1-0.1 1.6 0.3 1.6 1.3q-0.3 0.1-0.6 0-0.3-0.1-0.5-0.3-0.2-0.2-0.4-0.4-0.1-0.3-0.1-0.6z"></path><path id="Path_657" class="s9" d="m111.7 146.4c-0.2-0.8-0.5-1.6-1.5-1.7q-0.2-0.9-0.4-1.8-0.2-0.9-0.3-1.8-0.1-1-0.1-1.9 0-0.9 0-1.9c0.7-6.1 5.1-10.5 10.7-10.7 5.3-0.1 10.5 4.7 11.2 10.3 0.7 6-3.5 12.1-9 13.3q-0.9 0.1-1.8 0.2-1 0-1.9 0-0.9-0.1-1.9-0.2-0.9-0.2-1.8-0.5c-0.4-1.7-2-2.4-3.2-3.3z"></path><path id="Path_658" class="s10" d="m123.4 137.9c0 2.1-0.7 4-2.9 4.3-2.4 0.4-3.5-1.3-3.5-3.5 0.1-2 1.1-3.7 3.4-3.9 2.2-0.2 2.8 1.3 3 3.1z"></path></g></g></g></g></svg>