<svg xmlns="http://www.w3.org/2000/svg" xmlns:xlink="http://www.w3.org/1999/xlink" width="303" height="303" viewBox="0 0 303 303"><defs><clipPath id="clip-path"><rect id="Rectangle_7675" data-name="Rectangle 7675" width="184.032" height="259.982" fill="none"></rect></clipPath><clipPath id="clip-path-2"><rect id="Rectangle_7676" data-name="Rectangle 7676" width="52.882" height="50.732" transform="translate(0 0)" fill="none"></rect></clipPath><clipPath id="clip-expert"><rect width="303" height="303"></rect></clipPath></defs><g id="expert" clip-path="url(#clip-expert)"><rect width="303" height="303" fill="rgba(255,255,255,0)"></rect><g id="Group_26680" data-name="Group 26680" transform="translate(5.366 0.105)"><g id="Group_26679" data-name="Group 26679" transform="translate(60.117 22.404)"><g id="Group_26678" data-name="Group 26678" clip-path="url(#clip-path)"><path id="Path_48506" data-name="Path 48506" d="M145.736,165.255a15.266,15.266,0,0,0,6.146-3.339,14.933,14.933,0,0,0,4.907-11.344l-.06-2.658v-1.921a8.693,8.693,0,0,1,.561-3.487,9.476,9.476,0,0,1,5.4-5.468l6.235-2.424a14.955,14.955,0,0,0,7.651-21.274l-2.01-3.576a9.465,9.465,0,0,1,1.213-10.932l4.4-4.874a14.969,14.969,0,0,0-2.926-22.547l-4.225-2.747a9.433,9.433,0,0,1-4.019-10.046l1.566-6.737a15.025,15.025,0,0,0-2.3-12,.538.538,0,0,0-.118-.148A14.867,14.867,0,0,0,162.1,34.8a15.3,15.3,0,0,0-4.314-1.181l-5.91-.709a9.479,9.479,0,0,1-8.067-7.21l-1.3-5.494A14.937,14.937,0,0,0,124.558,9.079a14.739,14.739,0,0,0-1.9.582l-5.466,2.069A9.446,9.446,0,0,1,106.7,9.071L103.363,5.2a14.978,14.978,0,0,0-22.692,0L77.331,9.071A9.444,9.444,0,0,1,66.843,11.73L61.377,9.661A14.935,14.935,0,0,0,41.521,20.209L40.22,25.7a9.474,9.474,0,0,1-8.067,7.21l-5.909.71a14.932,14.932,0,0,0-13.09,16.57,15.176,15.176,0,0,0,.3,1.686l1.567,6.737A9.432,9.432,0,0,1,11,68.662L6.775,71.411A14.972,14.972,0,0,0,3.847,93.956l4.4,4.875a9.418,9.418,0,0,1,1.214,10.932l-2.01,3.576A14.952,14.952,0,0,0,15.1,134.612l6.234,2.425a9.5,9.5,0,0,1,6.03,8.981l-.089,4.609A14.914,14.914,0,0,0,38.3,165.311L3.7,224.347a2.713,2.713,0,0,0,3.014,3.988l39.12-9.779L55.916,257.97a2.683,2.683,0,0,0,2.246,2.009h.384a2.673,2.673,0,0,0,2.335-1.357l31.17-53.773,31.172,53.775a2.7,2.7,0,0,0,2.335,1.358h.384a2.688,2.688,0,0,0,2.246-2.01l10.077-39.413,39.121,9.779a2.693,2.693,0,0,0,2.836-1,2.742,2.742,0,0,0,.177-2.984l-34.6-59.036Z" transform="translate(0 0)"></path><path id="Path_48507" data-name="Path 48507" d="M35.783,157.86a9.539,9.539,0,0,1-3.133-7.239l.089-4.608a14.9,14.9,0,0,0-9.485-14.125l-6.235-2.423A9.562,9.562,0,0,1,12.143,115.9l2.01-3.576a14.867,14.867,0,0,0-1.921-17.2l-4.4-4.875a9.557,9.557,0,0,1,1.89-14.39l4.226-2.75a14.863,14.863,0,0,0,6.323-15.837L18.7,50.54A9.524,9.524,0,0,1,26.886,38.9l5.91-.709A14.891,14.891,0,0,0,45.5,26.842l1.3-5.495A9.566,9.566,0,0,1,59.473,14.61l5.466,2.069a14.852,14.852,0,0,0,16.515-4.2l3.339-3.871a9.57,9.57,0,0,1,14.477,0l3.339,3.871a14.864,14.864,0,0,0,16.515,4.2l5.466-2.069a9.562,9.562,0,0,1,12.32,5.573,9.767,9.767,0,0,1,.356,1.164l1.306,5.495a14.889,14.889,0,0,0,12.7,11.344l5.91.709a9.53,9.53,0,0,1,8.341,10.585,9.384,9.384,0,0,1-.186,1.056l-1.566,6.738a14.946,14.946,0,0,0,6.324,15.84l4.226,2.748a9.558,9.558,0,0,1,1.889,14.39l-4.4,4.875a14.873,14.873,0,0,0-1.921,17.2l2.01,3.576a9.473,9.473,0,0,1,.649,7.889,9.61,9.61,0,0,1-5.526,5.676l-6.235,2.424a14.9,14.9,0,0,0-9.484,14.125l.089,4.608a9.563,9.563,0,0,1-10.637,9.663l-6.589-.768a14.839,14.839,0,0,0-15.128,8.421l-1.152,2.425a9.576,9.576,0,0,1-14.388,3.576l-2.512-1.892a14.829,14.829,0,0,0-17.845,0l-2.512,1.892a9.578,9.578,0,0,1-14.388-3.576l-1.152-2.425a14.839,14.839,0,0,0-15.128-8.421l-6.589.768a9.445,9.445,0,0,1-7.5-2.424Z" transform="translate(0.037 0.037)" fill="#04c4d9"></path><path id="Path_48508" data-name="Path 48508" d="M59.408,249.036l-9.1-35.6a2.7,2.7,0,0,0-3.278-1.952h0l-35.487,8.864L44.28,164.5l6.206-.709a9.389,9.389,0,0,1,9.6,5.349l1.153,2.424a14.847,14.847,0,0,0,9.927,8.125,14.557,14.557,0,0,0,6.855.06l10.755,18.555-29.4,50.735Z" transform="translate(0.08 1.135)" fill="#ffc729"></path><path id="Path_48509" data-name="Path 48509" d="M136.329,211.454a2.7,2.7,0,0,0-3.279,1.95v0l-9.1,35.6L82.554,177.6c.238-.148.472-.325.71-.5l2.512-1.892a9.482,9.482,0,0,1,11.344,0l2.512,1.892a14.957,14.957,0,0,0,22.515-5.554l1.152-2.425a9.391,9.391,0,0,1,9.6-5.348l6.173.709,32.738,55.844-35.487-8.864Z" transform="translate(0.572 1.135)" fill="#ffc729"></path><path id="Path_48511" data-name="Path 48511" d="M103.17,164.919h0A64.434,64.434,0,1,1,167.6,100.484a64.586,64.586,0,0,1-64.437,64.435m0-121.775a57.34,57.34,0,1,0,57.339,57.34,57.4,57.4,0,0,0-57.339-57.34" transform="translate(-9.289 -9.308)"></path><path id="Path_48510" data-name="Path 48510" d="M100.81,157.2A59.074,59.074,0,1,0,41.737,98.125,59.073,59.073,0,0,0,100.81,157.2" transform="translate(-6.928 -6.948)" fill="#fff"></path><g id="Group_26682" data-name="Group 26682" transform="translate(75.615 73.49)"><g id="Group_26681" data-name="Group 26681" transform="translate(-8.175 -7.843)" clip-path="url(#clip-path-2)"><path id="Path_48512" data-name="Path 48512" d="M27.886,2.938c.151.226.288.46.417.69a78.975,78.975,0,0,1,3.845,7.865,8.785,8.785,0,0,0,1.763,3.041c1.478,1.427,3.733,1.563,5.782,1.727a57.313,57.313,0,0,1,7.634,1.129,3.49,3.49,0,0,1,2.49,1.384c.73,1.345-.465,2.9-1.566,3.958l-6.8,6.549a5.859,5.859,0,0,0-1.676,2.239,5.869,5.869,0,0,0,.041,2.863q.849,4.675,1.7,9.347c.232,1.272.379,2.8-.593,3.654-1.142,1-2.91.32-4.249-.4L28.09,42.394a4.939,4.939,0,0,0-2.315-.777,4.924,4.924,0,0,0-2.168.738q-4.128,2.171-8.253,4.344c-3.564,1.876-5.97.148-5.152-3.782q.578-2.766,1.152-5.534a11.483,11.483,0,0,0,.2-5.779c-.725-2.283-2.762-3.845-4.586-5.4a50.513,50.513,0,0,1-4.1-3.892,3.756,3.756,0,0,1-1.362-2.753,2.6,2.6,0,0,1,1.555-1.948,7.674,7.674,0,0,1,2.53-.562l6.041-.634c2.151-.226,4.473-.53,6.025-2.035A9.809,9.809,0,0,0,19.523,11.4l3.3-7.077c.647-1.39,1.714-3.021,3.229-2.8a2.847,2.847,0,0,1,1.834,1.414" transform="translate(0.671 0.672)" fill="#ffc729"></path><path id="Path_48513" data-name="Path 48513" d="M40.2,50.732a8.421,8.421,0,0,1-3.882-1.159l-8.581-4.592a4,4,0,0,0-1.256-.521h-.006a3.921,3.921,0,0,0-1.184.488l-8.251,4.344c-2.5,1.313-4.89,1.342-6.568.078-1.657-1.251-2.286-3.519-1.723-6.224L9.9,37.612a9.986,9.986,0,0,0,.258-4.68c-.475-1.491-1.924-2.71-3.455-4l-.468-.4a52.433,52.433,0,0,1-4.273-4.06c-.647-.689-2.167-2.3-1.94-4.466A4.766,4.766,0,0,1,2.8,16.326a9.563,9.563,0,0,1,3.238-.759l6.041-.635c2-.21,3.738-.463,4.736-1.435a8.2,8.2,0,0,0,1.408-2.346l3.3-7.077C23.271.329,25.5-.19,27.045.049A4.885,4.885,0,0,1,30.362,2.4c.185.275.356.562.511.844a80.652,80.652,0,0,1,3.946,8.074,7.331,7.331,0,0,0,1.272,2.322c.867.84,2.584.976,4.243,1.107l.2.016a59.951,59.951,0,0,1,7.922,1.173A5.551,5.551,0,0,1,52.4,18.409c.621,1.144,1.193,3.518-1.97,6.56l-6.8,6.547a4.518,4.518,0,0,0-1.122,1.353,4.591,4.591,0,0,0,.113,1.8l1.7,9.347c.2,1.07.712,3.913-1.3,5.674a4.141,4.141,0,0,1-2.82,1.044M26.477,40.118a6.91,6.91,0,0,1,3.309,1.035l8.578,4.592c1.284.686,1.783.653,1.854.64-.059,0,.049-.366-.174-1.592l-1.7-9.348a7.8,7.8,0,0,1,.035-3.933,7.8,7.8,0,0,1,2.232-3.122l6.8-6.547A4.515,4.515,0,0,0,48.5,20.455a6.2,6.2,0,0,0-.958-.272A55.48,55.48,0,0,0,40.191,19.1l-.2-.016c-2.2-.175-4.929-.391-6.918-2.315a10.3,10.3,0,0,1-2.2-3.636,77.614,77.614,0,0,0-3.79-7.77c-.1-.185-.21-.368-.327-.541l0,0a2.69,2.69,0,0,0-.314-.4,4.549,4.549,0,0,0-.974,1.5l-3.3,7.077a11.713,11.713,0,0,1-2.319,3.628c-2.157,2.1-5.258,2.423-7.309,2.637L6.5,19.885a6.2,6.2,0,0,0-1.822.36.813.813,0,0,0-.345.276h0a8.037,8.037,0,0,0,.795.979,48.9,48.9,0,0,0,3.92,3.727l.453.384c1.85,1.555,3.943,3.318,4.8,6.007.777,2.451.266,4.906-.145,6.879L13,44.032c-.266,1.283,0,1.809.085,1.87s.7.191,1.93-.452L23.265,41.1a6.9,6.9,0,0,1,3.154-.987Z" transform="translate(0 0)"></path></g></g></g></g></g></g></svg>