<svg xmlns="http://www.w3.org/2000/svg" xmlns:xlink="http://www.w3.org/1999/xlink" width="119" height="119.001" viewBox="0 0 119 119.001">
  <defs>
    <clipPath id="clip-path">
      <rect width="119" height="119.001" fill="none"/>
    </clipPath>
    <filter id="Path_835" x="1" y="1" width="119" height="119" filterUnits="userSpaceOnUse">
      <feOffset dx="2" dy="2" input="SourceAlpha"/>
      <feGaussianBlur stdDeviation="1.5" result="blur"/>
      <feFlood flood-opacity="0.188"/>
      <feComposite operator="in" in2="blur"/>
      <feComposite in="SourceGraphic"/>
    </filter>
  </defs>
  <g id="Group_609" data-name="Group 609" transform="translate(-235.5 -3474.5)">
    <g id="Group_562" data-name="Group 562" transform="translate(-4361.362 789.19)">
      <g id="Repeat_Grid_1" data-name="Repeat Grid 1" transform="translate(4596.862 2685.31)" clip-path="url(#clip-path)">
        <g transform="translate(-4596.862 -2685.31)">
          <g transform="matrix(1, 0, 0, 1, 4596.86, 2685.31)" filter="url(#Path_835)">
            <path id="Path_835-2" data-name="Path 835" d="M4710.362,2743.811a55,55,0,1,1-55-55,55,55,0,0,1,55,55" transform="translate(-4596.86 -2685.31)" fill="#fff"/>
          </g>
        </g>
      </g>
      <path id="Path_836" data-name="Path 836" d="M4705.168,2745.033a49.805,49.805,0,1,1-49.806-49.806,49.806,49.806,0,0,1,49.806,49.806" fill="#ffc714"/>
      <path id="Path_837" data-name="Path 837" d="M4685.933,2724.187a1.665,1.665,0,0,0-3.152,1.074,2.278,2.278,0,0,1,.017,2.007,1.584,1.584,0,0,1-.474.428,4.37,4.37,0,0,0-2.927-3.867,4.475,4.475,0,0,0-1.488-.255,4.185,4.185,0,0,0-3.977,2.747,4.056,4.056,0,0,0,.223,3.2,4.393,4.393,0,0,0,2.48,2.166,4.264,4.264,0,0,0,.435.126,13.5,13.5,0,0,1-1.755,1.213,24.679,24.679,0,0,0-18.411-7.706,31,31,0,0,0-6.446.4,13.487,13.487,0,0,0-10.654-5.034c-5.235,0-6.414,1.291-6.481,2.373a3.018,3.018,0,0,0,1.451,2.5,11.545,11.545,0,0,0,1.266.746,11.476,11.476,0,0,1,1.191.7,4.451,4.451,0,0,1,2.141,2.812c.207,1.354-.62,2.76-1.92,4.446-.032.037-.063.075-.091.115l-.195.261c-.757.981-3.84,3.83-6.549,3.83h0a3.46,3.46,0,0,0-3.457,3.455v7.17a3.461,3.461,0,0,0,3.458,3.457c3.32,0,6.853,2.831,7.232,3.142a20.906,20.906,0,0,1,1.971,2.259,69.6,69.6,0,0,1,2.2,9.34l.1.6a1.658,1.658,0,0,0,1.642,1.392h5.376a1.666,1.666,0,0,0,1.654-1.47c.162-1.358.4-2.881.617-3.866a27.537,27.537,0,0,0,10.994,0c.211.984.455,2.506.618,3.866a1.666,1.666,0,0,0,1.652,1.47h5.378a1.659,1.659,0,0,0,1.642-1.392c.487-2.919,1.814-8.084,2.231-9.68a17.971,17.971,0,0,0,6.156-13.3,17.23,17.23,0,0,0-2.723-9.208,11.856,11.856,0,0,0,4.324-4.242,6.106,6.106,0,0,0,3.844-2.275A5.326,5.326,0,0,0,4685.933,2724.187Z"/>
      <path id="Path_838" data-name="Path 838" d="M4676.881,2740.345c-2.82-7.55-11.6-13.464-19.98-13.464a25.776,25.776,0,0,0-7.083.588.351.351,0,0,1-.384-.156,11.328,11.328,0,0,0-9.63-5.07,12.242,12.242,0,0,0-1.606.1l-2.679.354,2.123,1.673c2.062,1.625,4.444,4.258,4.078,7.569a.358.358,0,0,1-.1.211c-.177.182-1.747,1.8-2.612,2.935l-.054.069-.162.214c-.711.923-4.4,4.652-8.175,4.652a1.442,1.442,0,0,0-1.44,1.44v7.169a1.442,1.442,0,0,0,1.44,1.44c4.263,0,8.55,3.633,8.613,3.689a19.45,19.45,0,0,1,2.468,2.924.305.305,0,0,1,.043.131l.033.176a75.58,75.58,0,0,1,2.127,8.857l.16.952h4.756l.136-.985c.479-3.455.93-4.29,1.082-4.5a.35.35,0,0,1,.375-.143,25.49,25.49,0,0,0,12.986,0,.355.355,0,0,1,.4.171l.033.056c.2.325.6,1.331,1.025,4.415l.137.984h4.751l.181-.921c.655-3.334,1.882-8.022,2.121-8.928l.029-.147a.331.331,0,0,1,.112-.213h0C4677.428,2752.042,4679.1,2746.271,4676.881,2740.345Z" fill="#fff"/>
      <path id="Path_839" data-name="Path 839" d="M4676.912,2727.367a1.028,1.028,0,0,1,1-.635,1.314,1.314,0,0,1,.439.077,1.1,1.1,0,0,1,.773,1.339,1.119,1.119,0,0,1-1.437.559A1.1,1.1,0,0,1,4676.912,2727.367Z" fill="#fff" stroke="#fff" stroke-miterlimit="10" stroke-width="4"/>
      <circle id="Ellipse_2" data-name="Ellipse 2" cx="2.39" cy="2.39" r="2.39" transform="translate(4640.174 2737.141)" stroke="#fff" stroke-miterlimit="10" stroke-width="0.75"/>
      <path id="Path_840" data-name="Path 840" d="M4657.877,2748.856a3.859,3.859,0,0,0,.644-.023c.12.645.235,1.288.344,1.939l-.589.092a18.351,18.351,0,0,0-3.386.9c-1.19.416-2.183-.109-2.984,1.508a1.817,1.817,0,0,0,0,1.69c.758,1.5,1.785,1.337,2.927,1.07,1.561-.365,3.1-.775,4.662-1.15.036.286.084.571.119.854.267,2.078,2.36,2.078,2.628,0a11.394,11.394,0,0,0,.071-1.727,8.616,8.616,0,0,0,4.98-5.076,3.19,3.19,0,0,0-.207-2.55c-1.278-2.559-4.161-2.277-6.532-1.9-.414-1.744-.869-3.44-1.349-5.122,1.3-.506,2.5.391,3.832.009.46-.131.577-1.343.135-1.65-1.292-.9-2.228-1.935-3.659-1.831a4.828,4.828,0,0,0-1.2.262c-.192-.71-.388-1.415-.57-2.143-.247-1.011-1.309-1.3-1.475,0a15.591,15.591,0,0,0-.053,3.216c-.418.266-.824.551-1.215.825-1.809,1.275-4.418,4.1-3.152,7.734C4652.846,2748.639,4656.144,2748.724,4657.877,2748.856Zm6.111-.413a6.221,6.221,0,0,1-2.232,1.538c-.112-.53-.231-1.055-.347-1.578A7.027,7.027,0,0,1,4663.988,2748.443Zm-9.378-5.713a7.266,7.266,0,0,1,2.152-2.045c.265,1.192.573,2.383.847,3.619.036.162.068.335.1.5C4656.257,2744.8,4653.428,2744.555,4654.61,2742.73Z"/>
    </g>
  </g>
</svg>
