<svg xmlns="http://www.w3.org/2000/svg" width="146.505" height="104.029" viewBox="0 0 146.505 104.029">
  <g id="Group_20776" data-name="Group 20776" transform="translate(-2139.124 -3613.832)">
    <g id="Group_20773" data-name="Group 20773" transform="translate(-3041.593 6389.431)">
      <path id="Path_17370" data-name="Path 17370" d="M5302.931-2740.456c2.966,1.717,5.431,3.218,7.963,4.6,9.771,5.331,14.3,14.025,15.9,24.622,2.359,15.653-4.857,32.894-24.468,37.463a92.816,92.816,0,0,1-16.133,2.17c-9.139.478-16.016-4.386-21.5-10.987-2.853-3.437-5.775-4.14-9.86-3.736-9.024.892-18.084,1.414-27.13,2.075a156.5,156.5,0,0,1-32.6-.719c-6.717-.913-10.968-4.456-12.443-11.1-.705-3.178-1.637-6.4-1.685-9.613-.243-16.5-.28-33.015-.26-49.523a32.023,32.023,0,0,1,1.082-7.51c2.124-8.64,6.209-11.821,15.043-11.818,9.257,0,18.516.255,27.769.1,17.78-.294,35.556-.864,53.336-1.161a77.377,77.377,0,0,1,11.357.9c5.575.736,9.311,4.139,11.141,9.24a44.479,44.479,0,0,1,2.386,11.093C5303.235-2749.689,5302.931-2744.954,5302.931-2740.456Zm-11.321-27.536a36.241,36.241,0,0,0-12.452-2q-41.114.468-82.227.965a32.026,32.026,0,0,0-4.622.807c1.281,1.694,2.043,2.9,2.993,3.927a465.057,465.057,0,0,0,40.039,38.447,31.394,31.394,0,0,0,3.939,2.905c5.091,3.12,7.511,2.781,12.217-1.015C5266.888-2736.372,5277.955-2752.686,5291.61-2767.992Zm-28.444,65.276c-.289,6.4,1.257,11.859,5.923,16.812,7.237,7.683,15.61,10.03,25.627,7.809,2.474-.549,5-.906,7.435-1.584,23.37-6.508,23.345-34.419,12-46.294-10.489-10.982-23.384-11.933-37.141-3.662C5267.163-2723.714,5263.852-2713.72,5263.166-2702.716Zm-36.415-22.049-39.127-39.113c-.529,3.189-1.287,5.648-1.29,8.109-.024,16.153.007,32.308.275,48.458.07,4.248.6,8.6,2.942,12.463C5202.079-2702.92,5223.319-2720.054,5226.751-2724.765Zm-31.341,33.48c10.4,2.51,54.634.972,62.782-2.047-.373-7.879-.966-15.875,1.977-23.6-.655-.77-1.189-1.5-1.83-2.121a13.726,13.726,0,0,0-1.67-1.218c-11.122,7.439-12.161,7.415-24.753-.413Zm74.35-41.147c8.02-6.44,17.475-7.777,26.987-8.528,1.423-7.278.761-15.65-1.782-21.282C5284.844-2753.657,5278.982-2741.618,5269.76-2732.432Zm-8.207,8.6,1.232.772,3.091-4.8C5263.651-2727.081,5261.628-2726.208,5261.553-2723.829Z"/>
      <path id="Path_17371" data-name="Path 17371" d="M5291.61-2767.992c-13.655,15.306-24.722,31.62-40.113,44.035-4.706,3.8-7.126,4.135-12.217,1.015a31.394,31.394,0,0,1-3.939-2.905,465.057,465.057,0,0,1-40.039-38.447c-.95-1.029-1.712-2.233-2.993-3.927a32.026,32.026,0,0,1,4.622-.807q41.113-.526,82.227-.965A36.241,36.241,0,0,1,5291.61-2767.992Z" fill="#fff"/>
      <path id="Path_17372" data-name="Path 17372" d="M5263.168-2702.717c.684-11,4-21,13.845-26.918,13.757-8.271,26.652-7.32,37.141,3.662,11.342,11.875,11.367,39.786-12,46.294-2.437.678-4.961,1.035-7.435,1.584-10.017,2.221-18.39-.126-25.627-7.809C5264.423-2690.857,5262.877-2696.317,5263.168-2702.717Zm32.053-5.787h.027c0-3.627.218-7.273-.079-10.875a17.872,17.872,0,0,0-1.878-6.727,5.065,5.065,0,0,0-3.806-2.356,5.381,5.381,0,0,0-3.651,2.589,11.493,11.493,0,0,0-1.23,5.224,57.889,57.889,0,0,0,3.011,20.347,10.622,10.622,0,0,0,2.537,4.082,3.89,3.89,0,0,0,3.285,1,3.877,3.877,0,0,0,1.705-2.944C5295.355-2701.6,5295.221-2705.057,5295.221-2708.5Zm1.454,20.727c-.178-2.241-1.566-3.125-3.636-3.142-2.243-.018-4.034,1.594-3.86,3.609.17,1.963,1.08,3.462,3.322,3.574A4.02,4.02,0,0,0,5296.675-2687.777Z" fill="#fff"/>
      <path id="Path_17373" data-name="Path 17373" d="M5226.751-2724.765c-3.432,4.711-24.672,21.845-37.2,29.917-2.339-3.865-2.872-8.215-2.942-12.463-.268-16.15-.3-32.3-.275-48.458,0-2.461.761-4.92,1.29-8.109Z" fill="#fff"/>
      <path id="Path_17374" data-name="Path 17374" d="M5195.41-2691.285l36.506-29.4c12.592,7.828,13.631,7.852,24.753.413a13.726,13.726,0,0,1,1.67,1.218c.641.621,1.175,1.351,1.83,2.121-2.943,7.723-2.35,15.719-1.977,23.6C5250.044-2690.313,5205.808-2688.775,5195.41-2691.285Z" fill="#fff"/>
      <path id="Path_17375" data-name="Path 17375" d="M5269.76-2732.432c9.222-9.186,15.084-21.225,25.205-29.81,2.543,5.632,3.205,14,1.782,21.282C5287.235-2740.209,5277.78-2738.872,5269.76-2732.432Z" fill="#fff"/>
      <path id="Path_17376" data-name="Path 17376" d="M5261.553-2723.829c.075-2.379,2.1-3.252,4.323-4.024l-3.091,4.8Z" fill="#fff"/>
      <path id="Path_17377" data-name="Path 17377" d="M5295.221-2708.5c0,3.447.134,6.9-.079,10.336a3.877,3.877,0,0,1-1.705,2.944,3.89,3.89,0,0,1-3.285-1,10.622,10.622,0,0,1-2.537-4.082,57.889,57.889,0,0,1-3.011-20.347,11.493,11.493,0,0,1,1.23-5.224,5.381,5.381,0,0,1,3.651-2.589,5.065,5.065,0,0,1,3.806,2.356,17.872,17.872,0,0,1,1.878,6.727c.3,3.6.079,7.248.079,10.875Z"/>
      <path id="Path_17378" data-name="Path 17378" d="M5296.673-2687.775a4.017,4.017,0,0,1-4.172,4.039c-2.242-.112-3.152-1.611-3.322-3.574-.174-2.015,1.617-3.627,3.86-3.609C5295.109-2690.9,5296.5-2690.018,5296.673-2687.775Z"/>
    </g>
  </g>
</svg>
