<svg xmlns="http://www.w3.org/2000/svg" xmlns:xlink="http://www.w3.org/1999/xlink" width="119" height="119.001" viewBox="0 0 119 119.001">
  <defs>
    <filter id="Path_899" x="0" y="0" width="119" height="119.001" filterUnits="userSpaceOnUse">
      <feOffset dx="2" dy="2" input="SourceAlpha"/>
      <feGaussianBlur stdDeviation="1.5" result="blur"/>
      <feFlood flood-color="#7a7a7a" flood-opacity="0.502"/>
      <feComposite operator="in" in2="blur"/>
      <feComposite in="SourceGraphic"/>
    </filter>
  </defs>
  <g id="Group_971" data-name="Group 971" transform="translate(-754.5 -3742.5)">
    <g id="Group_614" data-name="Group 614" transform="translate(3 -9)">
      <g transform="matrix(1, 0, 0, 1, 751.5, 3751.5)" filter="url(#Path_899)">
        <path id="Path_899-2" data-name="Path 899" d="M3464.022,2375.172a55,55,0,1,1-55-55,55,55,0,0,1,55,55" transform="translate(-3351.52 -2317.67)" fill="#fff"/>
      </g>
      <path id="Path_900" data-name="Path 900" d="M3458.828,2376.4a49.805,49.805,0,1,1-49.8-49.806,49.806,49.806,0,0,1,49.8,49.806" transform="translate(-2600.022 1433.828)" fill="#ef167e"/>
      <path id="Path_901" data-name="Path 901" d="M3438.029,2375.126a71.657,71.657,0,0,0-1.45-9.34,14.827,14.827,0,0,0-2.213-5.244,9.266,9.266,0,0,0-2.913-2.559,9.161,9.161,0,0,0-7.639-.685,5.744,5.744,0,0,0-2.672,2.15.547.547,0,0,0-.206-.039l-20.517.167a.617.617,0,0,0-.1.012,5.725,5.725,0,0,0-2.764-2.29,9.165,9.165,0,0,0-7.639.685,9.279,9.279,0,0,0-2.913,2.559,14.827,14.827,0,0,0-2.213,5.244,71.824,71.824,0,0,0-1.45,9.34,64.6,64.6,0,0,0-.561,12.285,9.024,9.024,0,0,0,1.05,3.98,6.594,6.594,0,0,0,3.944,2.838,7.367,7.367,0,0,0,1.943.264,6.2,6.2,0,0,0,3.548-1.051,8.617,8.617,0,0,0,2.674-3.521,35.8,35.8,0,0,0,2.354-7.488c.358-1.63.676-3.28.97-4.928q1.8.009,3.615.009c5.251,0,10.732.259,15.833-.169,5.433-.455,4.542,10.5,7.858,14.405,4.058,4.776,10.768,2.083,12-3.638C3439.462,2383.908,3438.492,2379.331,3438.029,2375.126Z" transform="translate(-2600.022 1433.828)" stroke="#000" stroke-miterlimit="10" stroke-width="1"/>
      <path id="Path_902" data-name="Path 902" d="M3416.175,2360.89a8.483,8.483,0,0,1,.147,3.093,3.854,3.854,0,0,1-.494,1.753,2.6,2.6,0,0,1-1.258.924,6.148,6.148,0,0,1-1.715.312,21.232,21.232,0,0,1-3.531-.108,12.305,12.305,0,0,1-2.51-.46,2.271,2.271,0,0,1-1.5-1.081,2.967,2.967,0,0,1-.172-.829,17.512,17.512,0,0,1-.165-3.482c0-.013,0-.026,0-.039l11.2-.092Z" transform="translate(-2600.022 1433.828)" fill="#fff"/>
      <path id="Path_903" data-name="Path 903" d="M3397.213,2382.2a34.7,34.7,0,0,1-2.275,7.257,7.342,7.342,0,0,1-2.308,3.087,5.869,5.869,0,0,1-7.863-1.714,8.032,8.032,0,0,1-.9-3.5,63.644,63.644,0,0,1,.558-12.075,70.672,70.672,0,0,1,1.424-9.2,13.793,13.793,0,0,1,2.033-4.857,8.251,8.251,0,0,1,9.251-2.876,4.689,4.689,0,0,1,2.81,3.128,9.715,9.715,0,0,1,.113,3.749c-.232,2.125-.58,4.275-.917,6.355C3398.575,2375.053,3397.988,2378.678,3397.213,2382.2Z" transform="translate(-2600.022 1433.828)" fill="#fff"/>
      <path id="Path_904" data-name="Path 904" d="M3399.451,2376.406c.272-1.572.526-3.138.776-4.682.339-2.094.69-4.259.924-6.412a10.606,10.606,0,0,0-.15-4.177c-.047-.159-.1-.312-.157-.463l2.4-.02a20.622,20.622,0,0,0,.191,4.027,4.164,4.164,0,0,0,.276,1.238,3.532,3.532,0,0,0,2.339,1.806,14.579,14.579,0,0,0,3.015.559,28.628,28.628,0,0,0,2.873.162c.425,0,.834-.014,1.231-.039a7.865,7.865,0,0,0,2.218-.413,3.924,3.924,0,0,0,1.926-1.444,5.226,5.226,0,0,0,.731-2.449,10.894,10.894,0,0,0-.129-3.567l2.666-.022a6.547,6.547,0,0,0-.218.625,10.629,10.629,0,0,0-.151,4.177c.235,2.153.586,4.318.925,6.412.237,1.467.479,2.954.736,4.448C3414.432,2376.362,3406.892,2376.441,3399.451,2376.406Z" transform="translate(-2600.022 1433.828)" fill="#fff"/>
      <path id="Path_905" data-name="Path 905" d="M3437.5,2387.322a6.9,6.9,0,0,1-1.354,3.048,4.537,4.537,0,0,1-2.835,2.343,5.519,5.519,0,0,1-4.572-.629,5.7,5.7,0,0,1-2.308-2.631,34.637,34.637,0,0,1-2.275-7.257c-.775-3.518-1.362-7.143-1.929-10.647-.337-2.08-.685-4.231-.917-6.356a9.715,9.715,0,0,1,.113-3.749,4.692,4.692,0,0,1,2.81-3.128,6.729,6.729,0,0,1,2.517-.455,8.655,8.655,0,0,1,4.169,1.079,8.15,8.15,0,0,1,2.565,2.252,13.815,13.815,0,0,1,2.034,4.857,70.878,70.878,0,0,1,1.423,9.2A63.752,63.752,0,0,1,3437.5,2387.322Z" transform="translate(-2600.022 1433.828)" fill="#fff"/>
      <path id="Path_906" data-name="Path 906" d="M3395.2,2360.935a5.2,5.2,0,0,0-5.325.825,6.465,6.465,0,0,0-2.257,2.858,5.485,5.485,0,0,0,.727,5.289,6.024,6.024,0,0,0,4.781,2.1,7.76,7.76,0,0,0,1.157-.088,6.026,6.026,0,0,0,3.558-1.743,5.405,5.405,0,0,0,1.186-4.642A6.417,6.417,0,0,0,3395.2,2360.935Zm1.831,8.5a4.95,4.95,0,0,1-2.913,1.4,6.477,6.477,0,0,1-.918.071c-.034-.636-.046-1.277-.033-1.911a.55.55,0,0,0-1.1-.021c-.012.611,0,1.228.027,1.841a4.672,4.672,0,0,1-2.888-1.592,4.069,4.069,0,0,1-.822-1.989.543.543,0,0,0,.062-.012,4.449,4.449,0,0,1,1.6-.078.549.549,0,1,0,.145-1.089,5.539,5.539,0,0,0-1.82.06,4.511,4.511,0,0,1,.271-1.1,5.369,5.369,0,0,1,1.879-2.365,4.872,4.872,0,0,1,2.231-.987,15.493,15.493,0,0,1-.16,2.388.549.549,0,0,0,.464.623.532.532,0,0,0,.08.006.55.55,0,0,0,.543-.47,16.49,16.49,0,0,0,.172-2.522,4.62,4.62,0,0,1,.938.27,5.3,5.3,0,0,1,3.157,3.8,4.7,4.7,0,0,1,.087.823l-1.053-.126a.55.55,0,0,0-.132,1.091l1.074.129A3.87,3.87,0,0,1,3397.029,2369.438Z" transform="translate(-2600.022 1433.828)" stroke="#000" stroke-miterlimit="10" stroke-width="1"/>
      <path id="Path_907" data-name="Path 907" d="M3425.165,2366.156a2.605,2.605,0,0,0,2.311-1.439,2.423,2.423,0,0,0-.526-2.766,2.586,2.586,0,0,0-2.672-.371,2.722,2.722,0,0,0-1.467,2.132,1.986,1.986,0,0,0,.086,1.056,1.908,1.908,0,0,0,.489.687,2.672,2.672,0,0,0,1.7.7Zm-1.246-1.793a.929.929,0,0,1-.022-.479h0a1.717,1.717,0,0,1,.776-1.278,2.01,2.01,0,0,1,.7-.133,1.213,1.213,0,0,1,.833.288,1.32,1.32,0,0,1,.273,1.487,1.492,1.492,0,0,1-1.361.808,1.562,1.562,0,0,1-.988-.407A.832.832,0,0,1,3423.919,2364.363Z" transform="translate(-2600.022 1433.828)" stroke="#000" stroke-miterlimit="10" stroke-width="1"/>
      <path id="Path_908" data-name="Path 908" d="M3431.026,2368.23a2.6,2.6,0,0,0,2.31-1.438,2.424,2.424,0,0,0-.525-2.767,2.587,2.587,0,0,0-2.672-.37,2.716,2.716,0,0,0-1.467,2.132,1.973,1.973,0,0,0,.085,1.056,1.906,1.906,0,0,0,.49.686,2.667,2.667,0,0,0,1.695.7Zm-1.247-1.792a.939.939,0,0,1-.021-.479,1.722,1.722,0,0,1,.775-1.279,1.531,1.531,0,0,1,1.536.156,1.32,1.32,0,0,1,.273,1.487,1.49,1.49,0,0,1-1.361.807,1.547,1.547,0,0,1-.987-.407A.809.809,0,0,1,3429.779,2366.438Z" transform="translate(-2600.022 1433.828)" stroke="#000" stroke-miterlimit="10" stroke-width="1"/>
      <path id="Path_909" data-name="Path 909" d="M3427.806,2368.175a2.584,2.584,0,0,0-2.672-.371,2.719,2.719,0,0,0-1.467,2.132,1.994,1.994,0,0,0,.086,1.055,1.887,1.887,0,0,0,.489.688,2.67,2.67,0,0,0,1.7.7h.084a2.6,2.6,0,0,0,2.311-1.438A2.422,2.422,0,0,0,3427.806,2368.175Zm-.468,2.3a1.5,1.5,0,0,1-1.362.808,1.554,1.554,0,0,1-.987-.408.823.823,0,0,1-.214-.285.929.929,0,0,1-.022-.479,1.721,1.721,0,0,1,.776-1.279,2.022,2.022,0,0,1,.7-.133,1.214,1.214,0,0,1,.833.289A1.321,1.321,0,0,1,3427.338,2370.472Z" transform="translate(-2600.022 1433.828)" stroke="#000" stroke-miterlimit="10" stroke-width="1"/>
      <path id="Path_910" data-name="Path 910" d="M3433.433,2370.9a2.586,2.586,0,0,0-2.672-.37,2.715,2.715,0,0,0-1.466,2.132,1.957,1.957,0,0,0,.085,1.055,1.9,1.9,0,0,0,.489.687,2.667,2.667,0,0,0,1.7.7h.084a2.6,2.6,0,0,0,2.31-1.438A2.425,2.425,0,0,0,3433.433,2370.9Zm-.468,2.3a1.5,1.5,0,0,1-1.362.807,1.547,1.547,0,0,1-.987-.407.812.812,0,0,1-.214-.286.921.921,0,0,1-.022-.478,1.721,1.721,0,0,1,.776-1.279,2.005,2.005,0,0,1,.7-.133,1.211,1.211,0,0,1,.833.289A1.321,1.321,0,0,1,3432.965,2373.2Z" transform="translate(-2600.022 1433.828)" stroke="#000" stroke-miterlimit="10" stroke-width="1"/>
      <path id="Path_911" data-name="Path 911" d="M3404.506,2369.705a2.249,2.249,0,0,0-1.617,1.684,2.113,2.113,0,0,0,.61,1.95,3.237,3.237,0,0,0,1.669.836,3.726,3.726,0,0,0,.744.076,2.429,2.429,0,0,0,2.006-.879,2.3,2.3,0,0,0-.362-2.952A3.266,3.266,0,0,0,3404.506,2369.705Zm2.532,3.009a1.691,1.691,0,0,1-1.647.385,2.163,2.163,0,0,1-1.115-.537,1.024,1.024,0,0,1-.318-.918,1.161,1.161,0,0,1,.86-.885,2.177,2.177,0,0,1,1.98.457A1.211,1.211,0,0,1,3407.038,2372.714Z" transform="translate(-2600.022 1433.828)" stroke="#000" stroke-miterlimit="10" stroke-width="1"/>
      <path id="Path_912" data-name="Path 912" d="M3417.98,2371.389a2.249,2.249,0,0,0-1.616-1.684,3.266,3.266,0,0,0-3.05.715,2.3,2.3,0,0,0-.362,2.952,2.426,2.426,0,0,0,2.005.879,3.716,3.716,0,0,0,.744-.076,3.246,3.246,0,0,0,1.67-.836A2.112,2.112,0,0,0,3417.98,2371.389Zm-1.387,1.173a2.164,2.164,0,0,1-1.114.537,1.69,1.69,0,0,1-1.648-.386,1.212,1.212,0,0,1,.24-1.5,2.162,2.162,0,0,1,1.443-.531,1.9,1.9,0,0,1,.537.074,1.159,1.159,0,0,1,.86.885A1.026,1.026,0,0,1,3416.593,2372.562Z" transform="translate(-2600.022 1433.828)" stroke="#000" stroke-miterlimit="10" stroke-width="1"/>
    </g>
  </g>
</svg>
