<svg xmlns="http://www.w3.org/2000/svg" width="460.629" height="328.272" viewBox="0 0 460.629 328.272"><g id="Group_29" data-name="Group 29" transform="translate(-3977.667 -2093.488)"><g id="Group_23" data-name="Group 23"><path id="Path_273" data-name="Path 273" d="M1599.128,893.46q.022,1.926.044,3.85c-1.524,1.837-1.992.591-2.035-.82a3.593,3.593,0,0,1,1.991-3.03" transform="translate(2680.789 1499.001)" fill="#8d6715"></path><path id="Path_274" data-name="Path 274" d="M1641.734,878.314c-.5,10.488,1.442,19.877,2.237,29.322.2,2.314.713,4.6.943,6.912.309,3.116.035,6.1-3.275,7.646-3.458,1.622-5.752-.535-7.734-2.814a90.119,90.119,0,0,1-10.972-16.616c-1.4-2.6-2.045-5.684-4.607-7.7-3.568,1.237-5.605,4.483-8.488,6.629-5.4,4.017-11.042,7.555-17.875,8.3-7.09.768-9.987-3.259-6.95-9.7,2.834-6.007,6.235-11.747,9.086-17.747,5.149-10.836,9.313-22.037,11.408-33.911.269-1.521,1.6-3.928-.283-4.466-6.95-1.987-6-7.7-6.86-12.776-.524-3.087-2.973-4.974-5.375-6.9-6.333-5.094-6.59-5.652-2.1-12,3.971-5.613,5.076-10.662-.055-16.046-1.159-1.216-2.2-3.262-1.172-4.549,4.327-5.434-.17-8.505-3-11.809-19.361-22.6-44.062-30.843-72.62-23.9-17.836,4.336-32.69,14.469-41.013,32.094-2.965,6.278-8.826,10.606-11.8,17.069-6.392,13.883-13.326,27.515-19.907,41.312a148.632,148.632,0,0,1-14.554,24.947c-4.821,6.487-10.6,11.979-17.886,15.62-17.312,8.646-34.861,5.364-49.022-9.524a154.89,154.89,0,0,1-26.844-39.452c-17.918-36.844-28.366-75.84-33.761-116.318-2.251-16.888-4.065-33.858.233-50.594,8.158-31.769,26.141-55.8,57.088-68.564,22.581-9.314,44.953-6.909,66.65,3.34a97.239,97.239,0,0,1,17.07,10.254c10.231,7.719,22.415,9.924,34.7,11.049a557.208,557.208,0,0,0,117.566-1.878,46.2,46.2,0,0,0,21.111-7.791c17.2-11.78,35.637-20.418,56.766-22.706,35.728-3.867,63.253,12.4,76.581,45.813,6.355,15.936,9.224,32.657,10.006,49.647,2.287,49.709-3.27,98.3-22.148,144.8a134.514,134.514,0,0,1-28.465,44.163,48.66,48.66,0,0,1-19.007,12.406c-12.983,4.507-24.774,3-35.505-5.961-2.934-2.448-5.433-5.643-10.164-7.6" transform="translate(2680.789 1499.001)"></path><path id="Path_275" data-name="Path 275" d="M1479.632,730.763c.616,16.1-4.99,34.254-14.963,50.609-11.466,18.8-21.186,38.4-30.381,58.316-3.488,7.559-7.141,15.034-11.885,21.88a72.937,72.937,0,0,1-8.786,10.807c-14.131,13.769-32.239,13.816-46.1-.152-12.065-12.161-20.911-26.6-28.108-42.108-18.4-39.627-28.374-81.375-32.656-124.752-2.595-26.288,4.174-49.423,20.566-69.769,12.8-15.888,29.309-25.864,49.742-28.662,13.883-1.9,27.185.709,39.792,6.464,25.856,11.8,43.366,31.356,52.627,58.189a182.3,182.3,0,0,1,10.148,59.178" transform="translate(2680.789 1499.001)" fill="#e645ff"></path><path id="Path_276" data-name="Path 276" d="M1600.961,781.484c-4.145-2.049-4.482-5.933-5.552-9.3-6.405-20.147-5.334-40.83-3.659-61.409a234.356,234.356,0,0,1,13.29-60.246c5.634-15.7,15.647-27.587,30.589-35.113,17.291-8.709,35.578-13.674,54.951-10.977,24.6,3.425,39.441,19.145,48.243,41.354,4.693,11.84,6.781,24.319,8.222,36.914,3.669,32.076.212,63.776-5.1,95.368-3.267,19.451-9.292,38.1-16.854,56.262a121.954,121.954,0,0,1-24.972,38.224,37.066,37.066,0,0,1-9.257,7.528c-16.326,8.526-24.57,5.864-34.808-2.892a52.957,52.957,0,0,1-6.487-6.2c-1.976-2.382-5.879-4.132-4.256-8.19,1.89-4.727,8.046-7.757,12.942-6.8,9.637,1.877,9.665,1.895,15.162-6.846,1.863-2.963,4.183-5.107,7.813-5.566,5.092-.643,7.245-3.853,5.551-8.421-2.2-5.933-.446-10.344,3.676-14.373,3.386-3.308,4.026-7,.892-10.615-4.059-4.676-3.535-9.5-1.891-14.918,1.989-6.547,1.4-7.849-5.107-10.591-4.41-1.859-7.362-4.074-7.524-9.266-.158-5.058-3.314-7.193-8.081-6.2-6.363,1.323-10.085-.527-11.613-7.21-1.061-4.64-4.715-5.074-8.69-3.358a32.219,32.219,0,0,0-4.435,2.262c-4.052,2.555-7.42,3.6-11.061-1.266-3.218-4.3-7.175-1.306-8.988,1.679-3.415,5.623-7.323,9.2-14.339,8.641-2.918-.231-4.825,1.873-5.835,4.623-.776,2.112-.067,4.732-2.827,6.907" transform="translate(2680.789 1499.001)" fill="#e645ff"></path><path id="Path_277" data-name="Path 277" d="M1582.336,762.288c-14.291-11.452-30.365-15.615-47.585-16.766-17.651-1.18-33.458,3.742-49.41,13.9,9-45.245.6-86.2-24.81-124.628,11.029,1.084,20.8,2.184,30.6,2.934,3.486.267,4.517,1.918,4.621,5.028.279,8.311.742,16.615,1,24.925.383,12.208,2.82,15.192,15.405,15.662,14.956.558,29.946.518,44.915.316,8.249-.11,11.375-3.294,11.509-11.75.1-6.621-.977-13.254-1.365-19.891-.8-13.713-.737-13.591,12.508-15.509,5.186-.751,10.488-.507,15.473-3.267,3.5-1.937,6.467,1.022,5.763,5.063a17.644,17.644,0,0,1-1.451,3.685c-15.882,37.221-21.113,75.983-16.853,116.129a30.387,30.387,0,0,1-.32,4.17" transform="translate(2680.789 1499.001)" fill="#e645ff"></path><path id="Path_278" data-name="Path 278" d="M1678.68,800.475c-1.6,5.557,3.824,10.205,2.8,15.047-.971,4.59-5.384,8.437-5.033,13.724.249,3.746-.813,6.344-4.33,7.876a5.231,5.231,0,0,0-2.355,1.787c-3.914,6.457-8.965,10.064-16.828,7.149-7.795,5.81-16.011,1.181-24.064,1.068-3.964-.056-7.2-.864-9.23-4.529-.481-.868-.847-2.033-1.607-2.477-7.073-4.136-10.3-10.994-14.158-17.811-2.294-4.052-4.14-6.855-1.825-11.252a18.958,18.958,0,0,0,1.421-5.767c.547-3.381,6.9-20.675,8.4-23.17.918-1.529,1.937-2.613,3.759-2.82.656-.074,1.294-.292,1.946-.411,5.532-1.007,8.573-7.429,13.243-7.892,4.992-.494,10.289,1.776,15.352-1.085,2.043-1.154,3.783-.631,4.869,1.6,1.042,2.138,2.484,4.659,4.6,5,8.644,1.385,13.527,7.055,18.88,13.335,3.022,3.545,5.991,5.7,4.158,10.63" transform="translate(2680.789 1499.001)" fill="#ffc729"></path><path id="Path_279" data-name="Path 279" d="M1533.541,674.277c-6.639,0-13.294.282-19.914-.073-7.768-.418-7.888-.653-8.209-7.9-.338-7.63-.275-15.278-.616-22.907-.148-3.323.65-4.759,4.356-4.569,13.949.716,27.894-.073,41.82-.824,4.546-.246,6.623.707,6.555,5.819-.085,6.28.9,12.567,1.237,18.862.666,12.48,1.972,11.411-10.287,11.894-4.973.2-9.96.033-14.941.033,0-.111,0-.221,0-.331" transform="translate(2680.789 1499.001)" fill="#fefefe"></path><path id="Path_280" data-name="Path 280" d="M1629.121,893.4c-.516-.839-1.073-1.655-1.543-2.518-5.553-10.2-8.1-10.569-16.8-2.524-3.6,3.327-6.972,6.965-11.61,8.951a2.569,2.569,0,0,1-.044-3.849c2.724-6.354,5.681-12.621,8.109-19.087s4.326-13.127,6.657-20.32c2.77,3.351,5.43,7.1,10.321,3.885,1.731-1.138,3.193-.3,4.221,1.143,3.043,4.277,6.725,8.4,4.434,14.338-1.688,5.039-.322,10.239-.829,15.335-.193,1.952.958,4.937-2.92,4.646" transform="translate(2680.789 1499.001)" fill="#fbc428"></path><path id="Path_281" data-name="Path 281" d="M1629.121,893.4c3.123-2.454,1.549-5.909,1.907-8.951.437-3.706-1.178-7.755,1.842-11.03v26.663c-2.449-1.989-3.609-4-3.749-6.682" transform="translate(2680.789 1499.001)" fill="#c6921e"></path><path id="Path_282" data-name="Path 282" d="M1391.826,669.885c-9.488-.172-16.623-7.4-16.217-16.423.421-9.375,8.423-17.647,17.012-17.587,7.6.052,15.359,9.688,15.294,19-.063,9.117-6.565,15.183-16.089,15.01" transform="translate(2680.789 1499.001)" fill="#070306"></path><path id="Path_283" data-name="Path 283" d="M1390.857,737.119c-6.242-.157-11.915-4-13.339-9.4-1.693-6.418-1.227-12.675,4.239-17.37,2.23-1.916,5.147-3.019,7.445-4.872,3.137-2.531,5.477-1.325,7.779,1.04,1.854,1.9,3.709,3.811,5.477,5.794,5.214,5.849,6.04,9.679,3.142,15.25a17.02,17.02,0,0,1-14.743,9.558" transform="translate(2680.789 1499.001)" fill="#060306"></path><path id="Path_284" data-name="Path 284" d="M1363.749,701.82c-7.659-.066-14.151-6.382-14.09-13.705.066-7.807,6.233-14.619,13.195-14.574,8.423.055,14.641,6.685,14.511,15.476a13.288,13.288,0,0,1-13.616,12.8" transform="translate(2680.789 1499.001)" fill="#080407"></path><path id="Path_285" data-name="Path 285" d="M1426.543,699.893a13.931,13.931,0,0,1-14.235-13.585,15.687,15.687,0,0,1,15.236-16.4c5.836-.149,11.983,7.1,12.319,14.526.388,8.585-5.406,15.308-13.32,15.455" transform="translate(2680.789 1499.001)" fill="#050205"></path><path id="Path_286" data-name="Path 286" d="M1639.908,707.767c-9.921-.148-18.932-8.937-18.652-18.192.277-9.145,9.19-17.142,18.623-16.709,8.681.4,15.158,8.495,15.114,18.9-.041,9.661-6.146,16.139-15.085,16.005" transform="translate(2680.789 1499.001)" fill="#060306"></path><path id="Path_287" data-name="Path 287" d="M1687.061,721.188a14.35,14.35,0,0,1-14.032,15.026,15.781,15.781,0,0,1-16.455-15.152,15.165,15.165,0,0,1,15.336-16.085c8.566-.159,14.937,6.66,15.151,16.211" transform="translate(2680.789 1499.001)" fill="#050205"></path><path id="Path_288" data-name="Path 288" d="M1689.833,657.206c.039,9.436-5.846,15.335-14.659,14.7a14.779,14.779,0,0,1-13.757-17.133c.892-5.989,4.747-10.043,8.972-13.839,1.619-1.455,3.64-1.366,5.64-.949a17.66,17.66,0,0,1,13.8,17.226" transform="translate(2680.789 1499.001)" fill="#070407"></path><path id="Path_289" data-name="Path 289" d="M1721.372,692.964c.174,7.87-4.007,12.6-11.583,13.1-8.424.559-16.006-5.247-17.133-13.118-1.149-8.021,5.889-17.752,13.819-19.133a7.1,7.1,0,0,1,6.375,1.919c4.987,4.672,8.356,10.164,8.522,17.231" transform="translate(2680.789 1499.001)" fill="#040203"></path><path id="Path_290" data-name="Path 290" d="M1556.987,729.363c-.068,3.839-3.106,6.77-6.3,6.38-3.143-.384-4.456-2.629-4.775-5.374-.383-3.306,2.766-6.808,5.825-6.586,3.557.259,4.926,2.7,5.251,5.58" transform="translate(2680.789 1499.001)" fill="#210922"></path><path id="Path_291" data-name="Path 291" d="M1517.454,728.4c-.523,3.579-2.363,5.55-5.963,5.272-3.2-.248-4.594-2.418-4.584-5.358.009-3.035,1.676-5.02,4.812-5.13,3.548-.123,5.394,1.873,5.735,5.216" transform="translate(2680.789 1499.001)" fill="#0e030d"></path><path id="Path_292" data-name="Path 292" d="M1628.961,813.143a131.3,131.3,0,0,1,23.984-13.621c2.1-.957,4.122-2.145,6.57-2.128a4.386,4.386,0,0,1,4.536,3.168,3.8,3.8,0,0,1-1.614,4.369,62.89,62.89,0,0,1-6.2,3.133c-7.719,3.836-15.523,7.419-22.374,12.889-6.158,4.917-9.343,3.864-13.147-3.34-1.858-3.52-3.651-7.081-5.292-10.706-.843-1.863-1.173-4.048,1.02-5.254a4.308,4.308,0,0,1,5.51.842c2.418,3.1,4.366,6.566,7.005,10.648" transform="translate(2680.789 1499.001)" fill="#060401"></path><path id="Path_293" data-name="Path 293" d="M1398.864,654.62c-.188,3.781-2.458,5.8-6.27,6.114-4.544.375-7.814-2.63-7.815-6.992,0-3.958,3-8.253,5.76-8.252,3.128,0,8.147,5.382,8.325,9.13" transform="translate(2680.789 1499.001)" fill="#f1f5f5"></path><path id="Path_294" data-name="Path 294" d="M1390.324,727.772c-3.028-.066-4.786-2.067-5.015-5.468-.239-3.557,2.6-7.171,5.506-6.738a7.658,7.658,0,0,1,6.563,6.343c.594,2.774-3.015,5.8-7.054,5.863" transform="translate(2680.789 1499.001)" fill="#eaeded"></path><path id="Path_295" data-name="Path 295" d="M1367.88,689.253c-.916,2.82-2.779,3.723-5.338,3.073-3.016-.767-4.322-2.782-3.5-5.84.589-2.2,1.473-4.861,4.376-3.841a6.359,6.359,0,0,1,4.465,6.608" transform="translate(2680.789 1499.001)" fill="#eef4f4"></path><path id="Path_296" data-name="Path 296" d="M1425.428,679.3c3.552-.03,4.877,2.45,5.351,5.029.611,3.315-1,6.182-4.47,6.5a4.654,4.654,0,0,1-5.206-4.782c-.135-3.229,1.018-5.816,4.325-6.745" transform="translate(2680.789 1499.001)" fill="#dee1e1"></path><path id="Path_297" data-name="Path 297" d="M1640.547,698.369c-4.519.277-9.374-3.791-9.649-8.085a8.25,8.25,0,0,1,7.661-8.646c3.959-.139,7.06,3.557,7.425,8.851.318,4.595-1.8,7.657-5.437,7.88" transform="translate(2680.789 1499.001)" fill="#f4f7f7"></path><path id="Path_298" data-name="Path 298" d="M1677.725,721.415a5.543,5.543,0,0,1-5.029,5.892c-3.161.507-7.234-3.21-7.507-6.543-.26-3.165,2.737-6.834,5.711-6.993,3-.16,6.6,3.685,6.825,7.644" transform="translate(2680.789 1499.001)" fill="#ebeded"></path><path id="Path_299" data-name="Path 299" d="M1674.838,649.873c3.592.6,5.559,3.136,6.018,6.7.423,3.28-.843,6.323-4.4,6.646-3.267.3-5.579-1.878-6.233-5.267-.636-3.3,1.824-7.722,4.617-8.075" transform="translate(2680.789 1499.001)" fill="#e8e9e9"></path><path id="Path_300" data-name="Path 300" d="M1706.37,683.7c2.724.254,6.283,6.058,6.141,9.5-.111,2.707-1.614,4.247-4.292,4.261-3.656.018-7.828-4.514-7.07-7.823a7.458,7.458,0,0,1,5.221-5.935" transform="translate(2680.789 1499.001)" fill="#e4e6e6"></path></g></g></svg>