<svg xmlns="http://www.w3.org/2000/svg" width="50.175" height="55.311" viewBox="0 0 50.175 55.311"><defs><style>.a{fill:#fff;}.b{fill:none;stroke:#000;stroke-miterlimit:10;}</style></defs><g transform="translate(-5161.415 -596.509)"><g transform="translate(4907.713 -1418.275)"><path class="a" d="M222.915,6242.667c-2.026,2.154-5.273,2.962-9.537,2.927-8.636-.071-15.505-.142-24.141-.213a20.061,20.061,0,0,1-7.492-1.017c-5.182-2.121-5.565-7.468-5.295-12.359.621-11.288-.572-22.55-.055-33.8.2-3.6,1.513-5.355,5.268-5.729a240.435,240.435,0,0,1,34.869-.943c7.169.326,7.7,4.084,8.208,10.377a319.574,319.574,0,0,1,.587,33.326c-.044,3.392-.878,5.795-2.412,7.427" transform="translate(77.921 -4176)"/><path class="b" d="M222.915,6242.667c-2.026,2.154-5.273,2.962-9.537,2.927-8.636-.071-15.505-.142-24.141-.213a20.061,20.061,0,0,1-7.492-1.017c-5.182-2.121-5.565-7.468-5.295-12.359.621-11.288-.572-22.55-.055-33.8.2-3.6,1.513-5.355,5.268-5.729a240.435,240.435,0,0,1,34.869-.943c7.169.326,7.7,4.084,8.208,10.377a319.574,319.574,0,0,1,.587,33.326C225.283,6238.632,224.449,6241.035,222.915,6242.667Z" transform="translate(77.921 -4176)"/><path d="M3.827-4.251h3V-.326A8.467,8.467,0,0,1,5.455.008,8.955,8.955,0,0,1,4.137.1,3.335,3.335,0,0,1,1.52-.9,4.19,4.19,0,0,1,.616-3.8,3.814,3.814,0,0,1,1.665-6.654,3.982,3.982,0,0,1,4.572-7.679a5.626,5.626,0,0,1,2.247.466L6.286-5.929a3.809,3.809,0,0,0-1.724-.414,2.13,2.13,0,0,0-1.667.7,2.712,2.712,0,0,0-.627,1.88,3.019,3.019,0,0,0,.5,1.882,1.747,1.747,0,0,0,1.468.65,5.193,5.193,0,0,0,1.02-.1V-2.915H3.827Zm11.087.394A3.728,3.728,0,0,1,13.849-.994,4.339,4.339,0,0,1,10.776,0H8.632V-7.571h2.377a4,4,0,0,1,2.879.979A3.6,3.6,0,0,1,14.913-3.858Zm-1.667.041q0-2.439-2.154-2.439h-.854v4.93h.689Q13.246-1.326,13.246-3.816Zm4.842-.192h.528A1.759,1.759,0,0,0,19.724-4.3a1.024,1.024,0,0,0,.368-.852,1.05,1.05,0,0,0-.308-.834,1.444,1.444,0,0,0-.966-.269h-.73Zm3.625-1.2a2.314,2.314,0,0,1-.764,1.869,3.267,3.267,0,0,1-2.172.647h-.689V0H16.482V-7.571H18.9A3.217,3.217,0,0,1,21-6.978,2.162,2.162,0,0,1,21.712-5.209Zm3.034,1h.518a1.981,1.981,0,0,0,1.124-.254.906.906,0,0,0,.362-.8.828.828,0,0,0-.37-.766,2.247,2.247,0,0,0-1.147-.228h-.487Zm0,1.3V0H23.142V-7.571h2.206a3.775,3.775,0,0,1,2.284.562,2.005,2.005,0,0,1,.74,1.706A2.009,2.009,0,0,1,28-4.114a2.433,2.433,0,0,1-1.041.816Q28.672-.746,29.19,0H27.409L25.6-2.905Z" transform="translate(263.389 2046.888)"/><path d="M185.664,6198.386l1.143,2.318,2.557.372-1.851,1.8.437,2.548-2.287-1.2-2.288,1.2.437-2.548-1.851-1.8,2.557-.372Z" transform="translate(77.921 -4176)"/><path d="M200.709,6198.386l1.144,2.318,2.557.372-1.851,1.8.437,2.548-2.288-1.2-2.287,1.2.437-2.548-1.851-1.8,2.557-.372Z" transform="translate(77.921 -4176)"/><path d="M215.3,6198.386l1.144,2.318,2.557.372-1.851,1.8.437,2.548-2.288-1.2-2.287,1.2.437-2.548-1.851-1.8,2.557-.372Z" transform="translate(77.921 -4176)"/><path d="M185.664,6231.987l1.143,2.318,2.557.372-1.851,1.8.437,2.548-2.287-1.2-2.288,1.2.437-2.548-1.851-1.8,2.557-.372Z" transform="translate(77.921 -4176)"/><path d="M200.709,6231.987l1.144,2.318,2.557.372-1.851,1.8.437,2.548-2.288-1.2-2.287,1.2.437-2.548-1.851-1.8,2.557-.372Z" transform="translate(77.921 -4176)"/><path d="M215.3,6231.987l1.144,2.318,2.557.372-1.851,1.8.437,2.548-2.288-1.2-2.287,1.2.437-2.548-1.851-1.8,2.557-.372Z" transform="translate(77.921 -4176)"/></g></g></svg>