<svg xmlns="http://www.w3.org/2000/svg" id="Layer_1" data-name="Layer 1" viewBox="0 0 250 250"><defs><style>      .cls-1 {        fill: none;      }      .cls-1, .cls-2, .cls-3, .cls-4 {        stroke-miterlimit: 10;      }      .cls-1, .cls-2, .cls-4 {        stroke: #000;      }      .cls-1, .cls-3, .cls-4 {        stroke-width: 3px;      }      .cls-5 {        fill: #ffc729;      }      .cls-2 {        stroke-width: 2px;      }      .cls-3 {        fill: #e645ff;        stroke: #0e0f10;      }      .cls-4 {        fill: #fff;      }    </style></defs><path id="Path_48514" data-name="Path 48514" class="cls-3" d="m233.7,125c0,11.3-9.97,20.89-13.28,31.09-3.43,10.57-1.12,24.17-7.52,32.96-6.47,8.89-20.16,10.86-29.04,17.32-8.8,6.4-14.87,18.85-25.44,22.28-10.2,3.31-22.38-3.08-33.68-3.08s-23.48,6.39-33.68,3.08c-10.57-3.43-16.64-15.88-25.44-22.28-8.88-6.47-22.57-8.44-29.04-17.32-6.4-8.8-4.09-22.39-7.52-32.96-3.31-10.2-13.29-19.79-13.29-31.09s9.97-20.89,13.28-31.09c3.43-10.57,1.12-24.17,7.52-32.97,6.47-8.89,20.16-10.86,29.04-17.32,8.79-6.4,14.86-18.85,25.43-22.28,10.2-3.31,22.38,3.08,33.68,3.08s23.48-6.39,33.68-3.08c10.57,3.43,16.64,15.88,25.44,22.28,8.89,6.47,22.57,8.44,29.04,17.32,6.4,8.8,4.09,22.39,7.52,32.96,3.31,10.2,13.28,19.79,13.28,31.09"></path><path id="Path_48516" data-name="Path 48516" class="cls-4" d="m217.45,125c0,9.54-9.81,17.42-12.6,26.03-2.9,8.93.31,21.04-5.1,28.47-5.46,7.5-18.01,8.18-25.51,13.64-7.43,5.41-11.92,17.17-20.84,20.06-8.61,2.8-19.11-3.99-28.66-3.99s-20.05,6.78-28.66,3.99c-8.92-2.9-13.41-14.66-20.84-20.06-7.5-5.46-20.05-6.14-25.52-13.64-5.41-7.43-2.2-19.55-5.1-28.47-2.79-8.61-12.6-16.49-12.6-26.03s9.81-17.42,12.6-26.03c2.9-8.93-.31-21.04,5.1-28.47,5.46-7.51,18.01-8.18,25.51-13.64,7.43-5.41,11.92-17.17,20.84-20.06,8.61-2.8,19.11,3.99,28.66,3.99s20.05-6.78,28.66-3.99c8.92,2.9,13.41,14.66,20.84,20.06,7.51,5.46,20.05,6.13,25.51,13.64,5.41,7.43,2.2,19.55,5.1,28.47,2.8,8.61,12.6,16.49,12.6,26.03"></path><path class="cls-5" d="m97.67,100.35s14.36,20.83,25.8,21.58c7.95.52,26.04-22.17,26.04-22.17l-51.84.59Z"></path><path class="cls-5" d="m93.17,170.6s18-23.5,30.23-23.5c11.58,0,31.46,23.5,31.46,23.5h-61.69Z"></path><g><path class="cls-2" d="m87.18,172.47c-.61,0-.83-.49-.83-.94,0-.43.22-.93.83-.93h1.41c.55,0,1.08-.23,1.46-.63.38-.41.57-.95.53-1.5-1.79-26.64,21.29-38.05,22.27-38.52.14-.07.27-.15.39-.25,2.37-1.91,3.57-3.85,3.57-5.75,0-2.76-2.32-5.21-3.78-6.1-17.41-10.01-21.15-27.23-21.84-36.6-.08-1.04-.95-1.85-2-1.85h-1.42c-.6,0-.82-.48-.82-.93s.21-.94.82-.94h71.22c.61,0,.83.49.83.94s-.22.93-.83.93h-1.81c-1.05,0-1.92.81-1.99,1.85-.7,9.38-4.49,26.6-22,36.57-.08.05-.16.1-.24.16-.84.66-3.6,3.03-3.6,5.98,0,1.98,1.28,3.92,3.81,5.77.15.11.3.2.52.32,5.57,3.04,23.6,14.8,21.91,38.42-.04.55.15,1.1.53,1.51.38.41.91.64,1.46.64h1.01s.28.01.71.25c.07.18.11.39.11.67,0,.42-.06.53-.25.72-.07.06-.36.22-.57.22h-71.42Zm26.5-40.33c-2.27.96-7.11,3.89-11.37,8.5-4.92,5.32-10.55,14.52-9.46,28.11.08,1.04.95,1.84,1.99,1.84h57.1c1.04,0,1.91-.8,1.99-1.83,2.01-23.8-16.96-34.94-20.79-36.93-.07-.04-.15-.07-.23-.1-.13-.09-.28-.17-.43-.23-3.18-2.41-4.72-4.99-4.57-7.66.17-4.15,4-7.41,4.7-7.84,17.42-10.13,20.44-27.49,20.93-34.49.04-.55-.15-1.1-.53-1.5-.38-.41-.91-.64-1.46-.64h-56.49c-.55,0-1.08.23-1.46.63-.38.41-.57.95-.53,1.5.47,6.96,3.47,24.19,20.92,34.37l.2.21c.12.13.25.24.4.33.7.43,4.5,3.68,4.5,7.73,0,2.83-1.44,5.3-4.41,7.51-.3.07-.64.21-.98.47Z"></path><path class="cls-1" d="m93.17,169.7s19.72-23.43,29.92-22.59,30.69,22.26,30.69,22.26"></path><line class="cls-4" x1="98.59" y1="100.34" x2="148.86" y2="99.77"></line><path class="cls-1" d="m116.98,119.64s5.37,5.45,13.5,0"></path></g></svg>