<svg xmlns="http://www.w3.org/2000/svg" xmlns:xlink="http://www.w3.org/1999/xlink" id="Layer_1" data-name="Layer 1" viewBox="0 0 1080 1080"><defs><style>      .cls-1 {        clip-path: url(#clippath);      }      .cls-2, .cls-3 {        fill: #e9e7f8;      }      .cls-4, .cls-5, .cls-6 {        fill: #fff;      }      .cls-7 {        fill: #ffc729;      }      .cls-5, .cls-3, .cls-8, .cls-6, .cls-9, .cls-10, .cls-11, .cls-12 {        stroke-width: 4px;      }      .cls-5, .cls-3, .cls-8, .cls-10 {        stroke-miterlimit: 10;      }      .cls-5, .cls-3, .cls-6, .cls-9, .cls-10, .cls-12, .cls-13 {        stroke: #000;      }      .cls-8 {        fill: #04c4d9;      }      .cls-8, .cls-14, .cls-15, .cls-16, .cls-11 {        stroke: #0e0f10;      }      .cls-6, .cls-14, .cls-9, .cls-15, .cls-16, .cls-11, .cls-12, .cls-13 {        stroke-linecap: round;        stroke-linejoin: round;      }      .cls-17 {        clip-path: url(#clippath-1);      }      .cls-18 {        clip-path: url(#clippath-3);      }      .cls-19 {        clip-path: url(#clippath-2);      }      .cls-14, .cls-15, .cls-16, .cls-13 {        stroke-width: 3px;      }      .cls-9, .cls-10, .cls-13 {        fill: none;      }      .cls-15 {        fill: #4330bf;      }      .cls-16 {        fill: #e645ff;      }    </style><clipPath id="clippath"><path class="cls-3" d="m914.99,438.27c86.17,227.61-21.36,415.43-226.13,501.02-204.77,85.59-435.52.04-515.4-191.08-79.88-191.12,41.54-423.86,226.13-501.02,204.77-85.59,442.07-2.64,515.41,191.08Z"></path></clipPath><clipPath id="clippath-1"><path class="cls-5" d="m742.86,94.78c-12.13-15.03-387.85-18.95-391.34,4.29-6.4,42.61-11.88,289.56,4.44,308.47,16.85,19.52,376.44,13.07,388.3-2.3,19.12-24.78,13.98-291.39-1.41-310.46Z"></path></clipPath><clipPath id="clippath-2"><path class="cls-5" d="m479.04,489.52c-12.13-15.03-387.85-18.95-391.34,4.29-6.4,42.61-11.88,289.56,4.44,308.47,16.85,19.52,376.44,13.07,388.3-2.3,19.12-24.78,13.98-291.39-1.41-310.46Z"></path></clipPath><clipPath id="clippath-3"><path class="cls-5" d="m997.62,699.56c-12.13-15.03-387.85-18.95-391.34,4.29-6.4,42.61-11.88,289.56,4.44,308.47,16.85,19.52,376.44,13.07,388.3-2.3,19.12-24.78,13.98-291.39-1.41-310.46Z"></path></clipPath></defs><path class="cls-7" d="m89.71,473.24S265.37,159.89,678.85,107.48c219.98-27.89,274.07,224.66,256.13,393.09-16.31,153.11-83.22,324.77-227.17,399.75-135.39,70.52-303.69,22.55-431.52-43.74-130.75-67.8-250.22-192.49-200.56-350.59,3.57-11.36,8.16-22.36,13.98-32.75Z"></path><g><g><path class="cls-2" d="m914.99,438.27c86.17,227.61-21.36,415.43-226.13,501.02-204.77,85.59-435.52.04-515.4-191.08-79.88-191.12,41.54-423.86,226.13-501.02,204.77-85.59,442.07-2.64,515.41,191.08Z"></path><g class="cls-1"><path class="cls-4" d="m202.49,345.17c25.2-6.41,84.3.49,103.58,17.93,14.12,12.77,16.97,35.86,7.29,52.26-7.02,11.9-20.14,22.35-18.22,36.04,1.14,8.13,7.51,14.44,10.75,21.98,5.03,11.68,1.55,26.46-8.16,34.67-11.44,9.67-30.75,11.8-35.21,26.1-2.38,7.63.78,15.73,2.26,23.59,4.66,24.82-8.37,50.31-27.16,67.17-18.79,16.87-42.67,26.74-66.1,36.16s-76.48,6.76-95.65,23.2l126.61-339.09Z"></path><path class="cls-4" d="m391.69,929.86c-21.47-20.02-34.63-47.52-47.86-73.73-3.79-7.51-7.44-15.27-13.22-21.37-6.63-7.01-15.55-11.31-24.25-15.48-19.13-9.18-38.72-18.85-52.88-34.66-14.16-15.81-21.73-39.41-12.98-58.74,10.26-22.66,38.43-31.4,63.29-30.67,24.86.73,49.34,8.27,74.18,7.08,20.71-.99,40.88-8.04,61.61-7.85,25.03.23,49.75,11.62,66.18,30.5,8.2,9.43,14.56,21.29,14.08,33.78-.34,8.89-4.1,17.33-8.95,24.79-13.18,20.26-34.76,35.19-42.95,57.93-6.26,17.4-3.56,36.89,2.6,54.33,3.76,10.63,8.81,22.11,4.96,32.71-4.64,12.77-19.68,17.8-32.83,21.19-2.5.64-5.09,1.29-7.62.8-3.26-.63-5.84-3.01-8.36-5.18-11.75-10.15-12.82-4.25-27.07-10.42-2.15-.93-6.21-3.41-7.93-5Z"></path><path class="cls-4" d="m682.07,193.27c-69.91,50.68-155.26,77.47-223.17,130.81-10.25,8.05-20.42,17.18-25.07,29.36-6.55,17.15-.84,36.52-3.69,54.65-2.78,17.7-13.47,33.03-19.89,49.76-6.42,16.73-7.43,38.26,6.04,50.08,4.74,4.16,10.88,6.7,14.99,11.49,11.54,13.44.99,34.02,2.83,51.64,2.15,20.59,21.95,35.44,42.11,40.12,20.16,4.68,41.19,1.83,61.89,1.76,8.23-.03,17.26.72,23.18,6.44,3.28,3.18,5.16,7.51,6.78,11.79,11.68,30.85,14.12,64.62,26.18,95.32,12.06,30.7,38.54,59.86,71.52,59.29,24.22-.42,44.98-16.49,63.76-31.79,3.29-2.68,6.64-5.43,8.84-9.05,3.77-6.21,3.59-13.97,3.04-21.21-3.46-44.74-17.08-88.48-17.59-133.35-.09-7.94.48-16.56,5.67-22.57,6.64-7.7,19.01-8.21,28.07-3.58,9.06,4.63,15.39,13.21,20.64,21.92,9.33,15.5,16.36,32.41,27.01,47.03,10.65,14.62,26.08,27.19,44.11,28.63,21.39,1.7,41.57-12.37,62.99-11.22,17.62.95,32.85,11.91,47.65,21.53,18.55,12.05,38.68,22.76,60.62,25.57,21.94,2.8,46.11-3.61,60.01-20.81,12.82-15.87,14.97-38.28,10.6-58.21-4.37-19.93-14.46-38.06-24.22-55.98-36.42-66.89-69.88-135.39-100.27-205.22-16.15-37.11-31.9-75.37-58.88-105.54-20.01-22.38-45.34-39.3-71.14-54.63-23.38-13.9-48.47-27.03-75.65-28.27-31.53-1.44-61.29,13.22-89.42,27.52l10.47-3.26Z"></path></g><path class="cls-10" d="m914.99,438.27c86.17,227.61-21.36,415.43-226.13,501.02-204.77,85.59-435.52.04-515.4-191.08-79.88-191.12,41.54-423.86,226.13-501.02,204.77-85.59,442.07-2.64,515.41,191.08Z"></path></g><g><path class="cls-4" d="m742.86,94.78c-12.13-15.03-387.85-18.95-391.34,4.29-6.4,42.61-11.88,289.56,4.44,308.47,16.85,19.52,376.44,13.07,388.3-2.3,19.12-24.78,13.98-291.39-1.41-310.46Z"></path><g class="cls-17"><g><path class="cls-6" d="m588.59,241.12s-11.96,44.12,0,100.17h-73.26s14.95-57.11,0-100.17h73.26Z"></path><g><path class="cls-6" d="m408.09,415.94c5.26-43.27,14.49-77.6,30.2-94.71,32.56-22.61,79.34-29.86,83.47-29.27.62.9,13.16,18.31,34.41,16.86,18.05-1.23,26.99-17.23,29.12-16.86,40.55,7.14,69.4,18.68,82.96,31.6,27.39,26.08,27.05,92.38,27.05,92.38-87.4,19-287.21,0-287.21,0Z"></path><line class="cls-6" x1="472.36" y1="389.51" x2="467.93" y2="422.51"></line><line class="cls-6" x1="633.09" y1="391.2" x2="637.53" y2="424.21"></line></g><path class="cls-6" d="m486.89,202.33s-11.27-16.1-12.59-4.22c-1.32,11.88,2.42,34.09,16.85,21.35"></path><path class="cls-6" d="m618.13,205.42s10.24-16.77,12.3-4.99c2.06,11.78-.28,34.17-15.48,22.36"></path><path class="cls-6" d="m488.75,161.9s-22.47,116.34,64.06,119.85c86.53,3.51,65.76-123.91,65.76-123.91l-62.04-28.52-67.77,32.58Z"></path><ellipse cx="524.12" cy="208.51" rx="4.41" ry="7.18" transform="translate(-6.26 16.49) rotate(-1.79)"></ellipse><ellipse cx="578.92" cy="206.8" rx="4.41" ry="7.18" transform="translate(-6.18 18.2) rotate(-1.79)"></ellipse><path class="cls-13" d="m569.42,244.15c.26,2.21.03,4.31-.63,5.96-.54,1.32-1.38,2.3-2.26,3.16-5.46,5.34-13.97,3.43-17.47-3.04l20.36-6.07Z"></path><path d="m550.04,207.07c1.2,5.54.66,11.42-1.58,16.63-.89,2.08-3.24,4.82-1.09,6.89.89.86,2.1,1.04,3.28,1.11,1.01.06,2.38.36,2.16,1.73-.3,1.89,2.59,2.7,2.89.8.42-2.62-1.13-5.05-3.83-5.43-.63-.09-1.33,0-1.94-.17-.67-.18-.39-.37-.12-.91.68-1.33,1.34-2.64,1.88-4.04,2.13-5.53,2.5-11.64,1.25-17.42-.41-1.89-3.3-1.09-2.89.8h0Z"></path><path class="cls-14" d="m503.22,159.09s1.94,29.01-17.96,35.86c0,0-16.43-18.16,4.07-40.74l13.9,4.88Z"></path><path class="cls-11" d="m478.02,150.74s-3,40.13,46.1,21.37c49.1-18.76,62.65-5.73,62.65-5.73,0,0,12.2,26.89,33.98,37.16,0,0,21.74-65.95-12.65-78.98,0,0-119.33-33.35-130.08,26.19Z"></path><polygon class="cls-8" points="565.95 335.43 559.93 345.89 546.64 345.89 540.94 335.43 534.88 311.98 572.44 306.71 565.95 335.43"></polygon><path class="cls-6" d="m511.58,288.53l41.27,15.63,44.19-15.63s-2.95,27.79-31.09,46.9l-13.1-27.1s-3.58,14.59-11.92,27.1c0,0-26.06-12.85-29.36-46.9Z"></path><polygon class="cls-8" points="546.64 345.89 530.9 424.21 573.08 422.2 559.93 345.89 546.64 345.89"></polygon></g></g><path class="cls-10" d="m742.86,94.78c-12.13-15.03-387.85-18.95-391.34,4.29-6.4,42.61-11.88,289.56,4.44,308.47,16.85,19.52,376.44,13.07,388.3-2.3,19.12-24.78,13.98-291.39-1.41-310.46Z"></path></g><g><path class="cls-4" d="m479.04,489.52c-12.13-15.03-387.85-18.95-391.34,4.29-6.4,42.61-11.88,289.56,4.44,308.47,16.85,19.52,376.44,13.07,388.3-2.3,19.12-24.78,13.98-291.39-1.41-310.46Z"></path><g class="cls-19"><g><path class="cls-12" d="m414.4,770.22s25.43-33.7-15.9-68.04c-41.33-34.34-40.72-132.2-40.72-132.2l-71.22-33.77-55.93,19.08s-4.45,86.48-57.23,152.61c-27.98,39.42-6.36,66.13,22.26,62.32,0,0,47.69-13.35,76.3,5.09,28.61,18.44,78.21,35.61,142.43-5.09Z"></path><path class="cls-6" d="m323.15,665.69s-11.73,43.28,0,98.25h-71.85s14.66-56.02,0-98.25h71.85Z"></path><path class="cls-6" d="m352.84,617.07s11.63-17.77,13.46-4.98c1.83,12.79-1.46,36.91-17.48,23.63"></path><path class="cls-6" d="m224.7,617.07s-11.63-17.77-13.46-4.98c-1.83,12.79,1.46,36.91,17.48,23.63"></path><path class="cls-6" d="m353.99,567.37s26.71,118.27-61.68,124.63c-88.39,6.36-71.22-124.63-71.22-124.63l62.54-31.16,70.36,31.16Z"></path><path class="cls-12" d="m213.47,607.43s-1.6-91.24,65.49-96.02c84.05-5.98,83.3,75.03,82.03,96.02,0,0-59.3-23.19-73.19-51.66,0,0,2.08,30.55,11.8,34.02,0,0-23.61-9.92-29.86-31,0,0-11.88,40.58-56.28,48.63Z"></path><g><path class="cls-6" d="m152.15,835.91c-5.52,0,8.18-74.87,23.58-91.65,32.41-35.29,77.82-29.29,81.87-28.7.61.88,12.9,17.95,33.75,16.53,17.7-1.21,26.44-16.52,28.57-16.53,45.93-.35,70.44,8.23,84.72,30.93,21.95,34.88,18.15,89.42,18.15,89.42H152.15Z"></path><path class="cls-6" d="m196.44,727.59s16.27,34.18,13.98,108.32"></path><path class="cls-9" d="m232.42,715.67s9.02,51.52,52.18,51.52c29.35,0,48.38-13.6,58.08-51.14"></path></g><path class="cls-16" d="m256.93,716.45c-3.93-3.83-8.55,8.18-5.39,12.67,3.16,4.48,11.13,4.02,13.74-.8-1.63,2.68-2.79,5.75-2.64,8.89.15,3.13,1.8,6.3,4.62,7.69,2.92,1.44,6.63.7,9.12-1.4,2.49-2.09,3.84-5.33,4.13-8.58-1.49,5.77,4.03,12.16,9.96,11.52,5.93-.64,9.96-8.06,7.27-13.38,1.55,6.18,8.51,10.71,14.61,8.88,1.44-.43,2.87-1.25,3.57-2.58.83-1.58.5-3.49.04-5.22-.72-2.72-1.71-5.37-2.93-7.9,1.01,2.28,2.21,4.58,4.19,6.08s4.96,1.96,6.94.45c1.11-.85,1.76-2.19,2.12-3.55,1.37-5.11-1.15-11-5.79-13.54,0,0-27.92,35.56-63.58.77Z"></path><ellipse cx="319.31" cy="616.18" rx="4.51" ry="7.35"></ellipse><ellipse cx="263.21" cy="616.18" rx="4.51" ry="7.35"></ellipse><path class="cls-13" d="m274.13,654.06c-.18,2.25.12,4.37.86,6.02.59,1.33,1.46,2.34,2.42,3.14,4.66,3.87,12,2.38,17.73-3.58l-21.01-5.58Z"></path><path d="m289.82,614.78c-1.1,5.95-.53,12.11,1.79,17.71.56,1.35,1.2,2.66,1.94,3.93.34.59.77.9.07,1.2-.57.24-1.37.13-1.98.23-2.71.44-4.31,2.95-3.79,5.6.37,1.89,3.26,1.09,2.89-.8-.23-1.14.71-1.77,1.71-1.89,1.31-.16,2.58-.19,3.61-1.13,2.35-2.16-.19-4.98-1.2-7.13-2.46-5.22-3.19-11.25-2.15-16.91.35-1.89-2.54-2.7-2.89-.8h0Z"></path><path class="cls-6" d="m380.38,724.97c-.19,1.75-19.1,56.78-13.63,110.94"></path></g></g><path class="cls-10" d="m479.04,489.52c-12.13-15.03-387.85-18.95-391.34,4.29-6.4,42.61-11.88,289.56,4.44,308.47,16.85,19.52,376.44,13.07,388.3-2.3,19.12-24.78,13.98-291.39-1.41-310.46Z"></path></g><g><path class="cls-4" d="m997.62,699.56c-12.13-15.03-387.85-18.95-391.34,4.29-6.4,42.61-11.88,289.56,4.44,308.47,16.85,19.52,376.44,13.07,388.3-2.3,19.12-24.78,13.98-291.39-1.41-310.46Z"></path><g class="cls-18"><g><path class="cls-6" d="m766.86,850.77s12.32,45.47,0,103.22h75.49s-15.41-58.85,0-103.22h-75.49Z"></path><g><path class="cls-6" d="m656.89,1022.07s-.35-59.47,27.87-86.35c13.98-13.31,43.7-25.2,85.49-32.56,2.2-.39,11.42,16.1,30.01,17.37,21.9,1.49,34.82-16.45,35.46-17.37,4.26-.61,52.47,6.86,86.02,30.16,16.19,17.63,27.31,44.16,32.73,88.75"></path><line class="cls-6" x1="880.13" y1="988.06" x2="884.69" y2="1024.45"></line><line class="cls-6" x1="730.14" y1="988.06" x2="725.56" y2="1024.45"></line></g><g><path class="cls-6" d="m867.63,823.58s11.09-16.94,12.83-4.75c1.74,12.2-1.39,35.19-16.67,22.53"></path><path class="cls-6" d="m735.61,807.72s-11.09-16.94-12.83-4.75c-1.74,12.2,1.39,35.19,16.67,22.53"></path><path class="cls-6" d="m734.72,767.03s-26.89,119.1,62.11,125.51c89.01,6.4,71.72-125.51,71.72-125.51l-62.98-31.38-70.85,31.38Z"></path><path d="m774.18,816.18c0,4.09-2.03,7.4-4.54,7.4-2.51,0-4.54-3.31-4.54-7.4,0-4.09,2.03-7.4,4.54-7.4s4.54,3.31,4.54,7.4Z"></path><ellipse cx="826.14" cy="816.18" rx="4.54" ry="7.4"></ellipse><path class="cls-13" d="m792.84,859.45c3.91,6.9,9.66,9.05,17.24,5.05,1.11-.59,2.04-1.56,2.79-2.78.94-1.51,1.49-3.51,1.58-5.67l-21.62,3.4Z"></path><path d="m796.44,819.6c1.05,5.71.3,11.78-2.17,17.04-.97,2.07-3.53,4.93-1.33,7.07.97.95,2.24,1.1,3.53,1.22,1.07.1,2.19.65,1.94,1.93-.37,1.89,2.52,2.69,2.89.8.5-2.54-.97-5.1-3.6-5.59-.71-.13-1.51-.05-2.2-.27s-.35-.51-.05-1.04c.76-1.35,1.47-2.7,2.06-4.13,2.34-5.64,2.9-11.84,1.8-17.83-.35-1.9-3.24-1.09-2.89.8h0Z"></path><circle class="cls-13" cx="827.01" cy="815.61" r="19.92"></circle><circle class="cls-13" cx="771.51" cy="815.61" r="19.92"></circle><line class="cls-13" x1="869.9" y1="819.2" x2="846.94" y2="815.61"></line><path class="cls-15" d="m867.99,821.07s-29.93-22.86-32.83-40.86c0,0-55.75,26.13-52.85,0,0,0-63.88,35.43-58.07,2.32,5.81-33.1,20.73-68.53,72.5-60.4,0,0,69.2-6.97,79.07,30.78,0,0,9.91,38.17-7.82,68.16Z"></path><line class="cls-13" x1="751.58" y1="809.51" x2="731.43" y2="799.96"></line><line class="cls-13" x1="807.54" y1="811.4" x2="791.43" y2="811.4"></line></g></g></g><path class="cls-10" d="m997.62,699.56c-12.13-15.03-387.85-18.95-391.34,4.29-6.4,42.61-11.88,289.56,4.44,308.47,16.85,19.52,376.44,13.07,388.3-2.3,19.12-24.78,13.98-291.39-1.41-310.46Z"></path></g><g><path class="cls-6" d="m602.85,512.06c9.04,7.11,5.63,96.1,0,98.21-24.05,9.01-130.8,3.25-130.8,3.25-9.25,18.37-26.74,14.59-26.74,14.59,5.68-1.48,7.42-14.1,7.42-25.91,0-5.09-5.43-85.97.56-90.13,12.01-8.35,144.94-3.63,149.56,0Z"></path><path class="cls-9" d="m474.9,551.16c1.83-4.11,10.74-6.33,16.75-4.17,3.33,1.2,6.55,3.53,10.17,2.71,1.87-.42,2.96-1.56,4.3-2.47,3.92-2.64,11-3.26,15.96-1.39,4.53,1.7,8.14,5.29,13.37,4.71,3.22-.36,5.3-2.22,7.98-3.38,3.7-1.6,8.9-1.78,12.87-.45,4.26,1.43,7.97,4.51,12.66,3.75,2-.32,3.51-1.31,5.33-1.92,2.48-.84,5.59-.93,8.19-.25"></path><path class="cls-9" d="m477.74,572.32c1.87-1.65,5.34-2.44,8.62-2.36,3.28.08,6.4.93,9.17,2,2.4.94,4.63,2.06,7.24,2.76s5.79.91,8.21,0c3.08-1.16,4.62-3.93,8.22-4.09,4.06-.18,6.1,3.08,9.82,4.1,4.18,1.15,8.8-.85,12.01-2.85,3.21-2,7.02-4.33,11.56-3.92,3.85.35,6.8,2.64,10.69,2.68"></path></g><g><path class="cls-6" d="m876.55,328.9c9.04-7.11,5.63-96.1,0-98.21-24.05-9.01-130.8-3.25-130.8-3.25-9.25-18.37-26.74-14.59-26.74-14.59,5.68,1.48,7.42,14.1,7.42,25.91,0,5.09-5.43,85.97.56,90.13,12.01,8.35,144.94,3.63,149.56,0Z"></path><path class="cls-9" d="m856.17,272.02c-1.83-4.11-10.74-6.33-16.75-4.17-3.33,1.2-6.55,3.53-10.17,2.71-1.87-.42-2.96-1.56-4.3-2.47-3.92-2.64-11-3.26-15.96-1.39-4.53,1.7-8.14,5.29-13.37,4.71-3.22-.36-5.3-2.22-7.98-3.38-3.7-1.6-8.9-1.78-12.87-.45-4.26,1.43-7.97,4.51-12.66,3.75-2-.32-3.51-1.31-5.33-1.92-2.48-.84-5.59-.93-8.19-.25"></path><path class="cls-9" d="m834.14,293.18c-1.87-1.65-5.34-2.44-8.62-2.36-3.28.08-6.4.93-9.17,2-2.4.94-4.63,2.06-7.24,2.76s-5.79.91-8.21,0c-3.08-1.16-4.62-3.93-8.22-4.09-4.06-.18-6.1,3.08-9.82,4.1-4.18,1.15-8.8-.85-12.01-2.85-3.21-2-7.02-4.33-11.56-3.92-3.85.35-6.8,2.64-10.69,2.68"></path></g><g><path class="cls-6" d="m472.05,990.91c-9.04-7.11-5.63-96.1,0-98.21,24.05-9.01,130.8-3.25,130.8-3.25,9.25-18.37,26.74-14.59,26.74-14.59-5.68,1.48-7.42,14.1-7.42,25.91,0,5.09,5.43,85.97-.56,90.13-12.01,8.35-144.94,3.63-149.56,0Z"></path><path class="cls-9" d="m600.01,935.05c-1.83-4.11-10.74-6.33-16.75-4.17-3.33,1.2-6.55,3.53-10.17,2.71-1.87-.42-2.96-1.56-4.3-2.47-3.92-2.64-11-3.26-15.96-1.39-4.53,1.7-8.14,5.29-13.37,4.71-3.22-.36-5.3-2.22-7.98-3.38-3.7-1.6-8.9-1.78-12.87-.45-4.26,1.43-7.97,4.51-12.66,3.75-2-.32-3.51-1.31-5.33-1.92-2.48-.84-5.59-.93-8.19-.25"></path><path class="cls-9" d="m577.98,956.21c-1.87-1.65-5.34-2.44-8.62-2.36-3.28.08-6.4.93-9.17,2-2.4.94-4.63,2.06-7.24,2.76s-5.79.91-8.21,0c-3.08-1.16-4.62-3.93-8.22-4.09-4.06-.18-6.1,3.08-9.82,4.1-4.18,1.15-8.8-.85-12.01-2.85-3.21-2-7.02-4.33-11.56-3.92-3.85.35-6.8,2.64-10.69,2.68"></path></g></g></svg>