<svg xmlns="http://www.w3.org/2000/svg" xmlns:xlink="http://www.w3.org/1999/xlink" width="141.029" height="141.029" viewBox="0 0 141.029 141.029">
  <defs>
    <filter id="Path_233" x="0.49" y="0.315" width="139.748" height="139.75" filterUnits="userSpaceOnUse">
      <feOffset dx="2" dy="2" input="SourceAlpha"/>
      <feGaussianBlur stdDeviation="1.5" result="blur"/>
      <feFlood flood-opacity="0.161"/>
      <feComposite operator="in" in2="blur"/>
      <feComposite in="SourceGraphic"/>
    </filter>
  </defs>
  <g id="Group_1181" data-name="Group 1181" transform="translate(-328 -2301.971)">
    <g id="Group_1180" data-name="Group 1180" transform="translate(96 403.968)">
      <g id="Group_975" data-name="Group 975" transform="translate(232 1898)">
        <path id="Path_227" data-name="Path 227" d="M669.748,2885.057c-.438.094-.269-.1,0,0" transform="translate(-623.061 -2831.823)" fill="#0c0c0c"/>
        <rect id="Rectangle_105" data-name="Rectangle 105" width="141.029" height="141.029" transform="translate(0 0.003)" fill="none"/>
        <g transform="matrix(1, 0, 0, 1, 0, 0)" filter="url(#Path_233)">
          <path id="Path_233-2" data-name="Path 233" d="M756.8,2900.016a65.374,65.374,0,1,1-65.374-65.375,65.374,65.374,0,0,1,65.374,65.375" transform="translate(-623.06 -2831.83)" fill="#fff"/>
        </g>
        <path id="Path_234" data-name="Path 234" d="M750.626,2902.011a59.2,59.2,0,1,1-59.2-59.2,59.2,59.2,0,0,1,59.2,59.2" transform="translate(-623.061 -2831.823)" fill="#ff3800"/>
      </g>
      <g id="Group_1020" data-name="Group 1020" transform="translate(-285.403 40.713)">
        <g id="Group_1019" data-name="Group 1019" transform="translate(556 1889)">
          <path id="Path_1485" data-name="Path 1485" d="M240.826,267.208,254.44,264.6l-3.605-5.023s19.113-13.023,17.023-27.021c0,0,5.054,3.7,8.218-4.307s-11.121-5.65-8.188-4.513,4.837-24.124-4.326-22.651a18.952,18.952,0,0,1-2.379-5.816c-.889-3.658-18.542-12.5-25.925-5.972s-15.6,14.841-15.6,14.841l-3.908,16.021.322,9.559s-3.3-3.081-1.642,4.248,1.067,6.075,5.151,3.755c0,0,2.746,19.639,21.941,21.5Z" transform="translate(-211.73 -185.788)" fill="#fff"/>
          <g id="Group_1018" data-name="Group 1018" transform="translate(0 0)">
            <path id="Path_1486" data-name="Path 1486" d="M264.56,219.033c-5.115,1.028-5.163,1.006-8.2-3.886a8.423,8.423,0,0,1-4.641,3.144c-.368.1-.726.246-1.1.307-2.122.346-2.9-.611-2.081-2.618a17.873,17.873,0,0,1,1.377-2.634,14.456,14.456,0,0,0,1.838-7.562,8.781,8.781,0,0,0-3.184,1.934,62.058,62.058,0,0,1-31.49,12.553c-1.319.139-1.687.915-1.89,1.887a12.19,12.19,0,0,0-.161,3.874c.195,1.745-.228,2.191-2.025,2.072-.735-.048-1.253.016-1.381.741-.429,2.445-.53,4.881.84,7.108.733,1.192,1.074,1.2,2.082.239.22-.21.378-.49.612-.678.72-.578,1.3-.38,1.355.592a10.18,10.18,0,0,0,1.314,3.859,56.054,56.054,0,0,0,4.867,8.026,21.822,21.822,0,0,0,12.852,8.624c3.307.836,3.714.639,3.5,4.8-.054,1.062-.255,2.116-.368,3.176-.061.577-.166,1.076-.922,1.006-.667-.062-1.207-.254-1.181-1.073.039-1.222,0-2.453.14-3.664.146-1.3-.333-1.813-1.6-2.184a28.679,28.679,0,0,1-6.122-2.541,23.812,23.812,0,0,1-7.863-7.229,72.313,72.313,0,0,1-5.607-9.573c-2.24,1.129-3.653-.008-4.852-1.7-2.608-3.682-2.456-7.56-.811-11.542,1.821-1.283,1.323-3.13,1.176-4.883a62.384,62.384,0,0,1,.915-16.584,19.93,19.93,0,0,1,6.776-11.651,40.009,40.009,0,0,1,14.768-8.076,16.912,16.912,0,0,1,6.583-.639,48.726,48.726,0,0,1,11.684,2.142c4.282,1.523,7.386,4.256,8.73,8.7.417,1.376,1.018,2.234,2.606,2.334a4.676,4.676,0,0,1,4.272,3.59,22.8,22.8,0,0,1,1,5.163c.243,2.586.331,5.186.561,7.774.205,2.311-.624,4.509-.7,6.769.2.068.339.173.463.153,2.749-.443,3.865.31,4.247,2.993a9.264,9.264,0,0,1-1.3,6.6c-.679,1.039-1.508,2.2-2.741,2.258-1.508.068-1.832.9-2.274,2.012-2.463,6.2-5.3,12.185-10.213,16.926a31.31,31.31,0,0,1-5.173,4.5,1.618,1.618,0,0,0-.872,1.892c.248,1.273.486,2.549.739,3.821a7.131,7.131,0,0,1,.261,1.1c.017.538-.072,1.195-.606,1.38-.723.251-1.146-.366-1.339-.944-.6-1.8-1.19-3.618-1.661-5.46a2.443,2.443,0,0,1,1.347-2.845,35.362,35.362,0,0,0,15.475-21.094,4.2,4.2,0,0,0,.2-3.082c-.366-.813.357-1.02,1.061-.836a6.024,6.024,0,0,1,.811.416c1.9.836,2.507.685,3.581-1.057a7.216,7.216,0,0,0,.92-5.714c-.378-1.511-.952-1.75-2.282-.995a5.459,5.459,0,0,0-1.092.823,1.65,1.65,0,0,1-2.092.207,1.455,1.455,0,0,1-.877-1.664A6.956,6.956,0,0,0,264.56,219.033Z" transform="translate(-208.659 -184.181)"/>
            <path id="Path_1487" data-name="Path 1487" d="M275.825,333.311a5.478,5.478,0,0,1-3.472-1.954,9.674,9.674,0,0,1-2.225-4.434.65.65,0,0,1,.471-.887c.338-.084.563.173.686.456a10.671,10.671,0,0,1,.471,1.284,6.348,6.348,0,0,0,1.178,2.2,4.33,4.33,0,0,0,7.659-1.16c.2-.491.294-1.023.46-1.528.124-.38.362-.7.806-.621a.678.678,0,0,1,.521.873,6.275,6.275,0,0,1-2.832,4.72A7.249,7.249,0,0,1,275.825,333.311Z" transform="translate(-244.225 -266.299)" fill="#0e0c0c"/>
            <path id="Path_1488" data-name="Path 1488" d="M306.811,285.829a5.971,5.971,0,0,1-.662,2.768,1.507,1.507,0,0,1-2.713.35c-1.227-1.372-.99-4.714.411-5.845a1.346,1.346,0,0,1,1.483-.139C306.6,283.49,306.8,284.565,306.811,285.829Z" transform="translate(-263.07 -241.281)" fill="#060606"/>
            <path id="Path_1489" data-name="Path 1489" d="M258.974,288.68a4.942,4.942,0,0,1-.463,1.775c-.257.674-.578,1.309-1.391,1.31a1.9,1.9,0,0,1-1.877-1.41,8.083,8.083,0,0,1,.026-4.522c.222-.96,1.623-1.109,2.4-.246A5.4,5.4,0,0,1,258.974,288.68Z" transform="translate(-235.447 -242.561)" fill="#070606"/>
            <path id="Path_1490" data-name="Path 1490" d="M281.465,300.181a2.719,2.719,0,0,1-1.053,2.374c-.455.4-.979.736-1.391,1.177q-.982,1.05.518,1.341a5.779,5.779,0,0,1,1.547.349,1.31,1.31,0,0,1,.757,1.506c-.1.67-.159,1.44-.866,1.746a.558.558,0,0,1-.794-.7c.426-1.192-.118-1.329-1.135-1.543-2.041-.43-2.474-1.92-1.134-3.517a10.42,10.42,0,0,1,1.195-1.053c1.251-1.092,1.265-1.1.5-2.833-.133-.3-.256-.555-.028-.819a.706.706,0,0,1,1.02-.049A2.1,2.1,0,0,1,281.465,300.181Z" transform="translate(-248.31 -250.056)" fill="#120f0f"/>
            <path id="Path_1491" data-name="Path 1491" d="M326.111,206.687a4.77,4.77,0,0,1,1.182,3.117A5.078,5.078,0,0,1,326.111,206.687Z" transform="translate(-276.659 -197.211)" fill="#0b0b0b"/>
            <path id="Path_1492" data-name="Path 1492" d="M242.387,202.894l.153.07-.215.167c-.027-.047-.084-.106-.072-.139S242.34,202.926,242.387,202.894Z" transform="translate(-228.107 -195.015)" fill="#111818"/>
            <path id="Path_1493" data-name="Path 1493" d="M283.243,192.5c.048,0,.12-.008.14.019a.2.2,0,0,1,.036.166c-.086.175-.18.166-.233-.023C283.174,192.619,283.222,192.557,283.243,192.5Z" transform="translate(-251.806 -188.999)" fill="#181818"/>
          </g>
        </g>
      </g>
    </g>
  </g>
</svg>
