<svg xmlns="http://www.w3.org/2000/svg" width="192.969" height="133.894" viewBox="0 0 192.969 133.894"><defs><style>.a,.c{fill:#fff;}.b,.e,.f{fill:none;}.b,.c,.f,.g{stroke:#000;}.b,.c,.f{stroke-miterlimit:10;}.d{fill:#6b6b6b;}.f{stroke-width:0.5px;}.g{stroke-width:2px;}</style></defs><g transform="translate(-990.446 -586.118)"><path class="a" d="M289.456,6246.628c-2.182,2.32-5.68,3.19-10.272,3.153-9.3-.077-16.7-.153-26-.23-2.732-.022-5.541-.059-8.07-1.1-5.58-2.284-5.993-8.043-5.7-13.312.669-12.158-.616-24.288-.059-36.4.219-3.882,1.63-5.768,5.675-6.17a258.92,258.92,0,0,1,37.556-1.016c7.722.351,8.293,4.4,8.841,11.177a344.509,344.509,0,0,1,.631,35.9c-.046,3.653-.945,6.242-2.6,8" transform="translate(890.723 -5530.271)"/><path class="b" d="M289.456,6246.628c-2.182,2.32-5.68,3.19-10.272,3.153-9.3-.077-16.7-.153-26-.23-2.732-.022-5.541-.059-8.07-1.1-5.58-2.284-5.993-8.043-5.7-13.312.669-12.158-.616-24.288-.059-36.4.219-3.882,1.63-5.768,5.675-6.17a258.92,258.92,0,0,1,37.556-1.016c7.722.351,8.293,4.4,8.841,11.177a344.509,344.509,0,0,1,.631,35.9C292.006,6242.282,291.108,6244.871,289.456,6246.628Z" transform="translate(890.723 -5530.271)"/><path class="c" d="M296.068,6306.492c-1.974,2.212-5.12,3.469-10.209,3.576-18.535.392-37.072.765-55.611.64-9.267-.064-18.535-.247-27.794-.617-6.347-.254-18.229,1.282-23.24-3.686-2.575-2.552-2.884-6.55-2.947-10.174-.2-11.593.547-23.178,1.3-34.749.406-6.311,3.577-10.042,10.138-10.205,32.433-.812,65.312,1.2,97.826,1.432,6.068.043,11.115,1.692,12.684,8.048a69.786,69.786,0,0,1,1.98,18.767c-.14,4.367-.4,8.726-.617,13.1C299.276,6298.7,298.754,6303.481,296.068,6306.492Z" transform="translate(814.703 -5591.221)"/><path d="M2.653-4.157H3.2a1.825,1.825,0,0,0,1.149-.3,1.062,1.062,0,0,0,.381-.884,1.089,1.089,0,0,0-.32-.865,1.5,1.5,0,0,0-1-.279H2.653ZM6.413-5.4a2.4,2.4,0,0,1-.792,1.939,3.388,3.388,0,0,1-2.253.671H2.653V0H.988V-7.853H3.5a3.336,3.336,0,0,1,2.173.615A2.242,2.242,0,0,1,6.413-5.4Zm4.705-.714a2.642,2.642,0,0,1,.553.048l-.124,1.536a1.877,1.877,0,0,0-.483-.054,1.737,1.737,0,0,0-1.222.4A1.456,1.456,0,0,0,9.4-3.056V0H7.767V-6H9.007L9.249-5H9.33a2.257,2.257,0,0,1,.755-.814A1.861,1.861,0,0,1,11.118-6.118Zm1.574-1.439q0-.8.892-.8t.892.8a.78.78,0,0,1-.223.594.937.937,0,0,1-.669.212Q12.692-6.751,12.692-7.557ZM14.4,0H12.762V-6H14.4Zm3.147,0L15.259-6h1.713l1.16,3.421a6.105,6.105,0,0,1,.242,1.23h.032a5.349,5.349,0,0,1,.242-1.23L19.8-6h1.713L19.229,0Zm8.642,0-.317-.816H25.83a2.42,2.42,0,0,1-.851.722,2.751,2.751,0,0,1-1.141.2,1.846,1.846,0,0,1-1.362-.494,1.9,1.9,0,0,1-.5-1.407,1.585,1.585,0,0,1,.669-1.41,3.875,3.875,0,0,1,2.017-.5l1.042-.032V-4a.817.817,0,0,0-.935-.913,4.259,4.259,0,0,0-1.692.435l-.542-1.106a4.882,4.882,0,0,1,2.3-.542,2.864,2.864,0,0,1,1.853.526A1.945,1.945,0,0,1,27.333-4V0Zm-.483-2.782-.634.021a2.03,2.03,0,0,0-1.063.258.81.81,0,0,0-.349.72q0,.693.795.693a1.259,1.259,0,0,0,.91-.328,1.151,1.151,0,0,0,.341-.87ZM31.458.107q-2.8,0-2.8-3.078a3.283,3.283,0,0,1,.763-2.339A2.861,2.861,0,0,1,31.6-6.118a4.167,4.167,0,0,1,1.869.408l-.483,1.268Q32.6-4.6,32.27-4.7a2.319,2.319,0,0,0-.666-.1q-1.278,0-1.278,1.815,0,1.762,1.278,1.762a2.915,2.915,0,0,0,.875-.126,3.161,3.161,0,0,0,.806-.395v1.4a2.64,2.64,0,0,1-.8.349A4.516,4.516,0,0,1,31.458.107ZM33.816-6H35.61l1.133,3.378a4.688,4.688,0,0,1,.2,1.042h.032a4.6,4.6,0,0,1,.231-1.042L38.317-6h1.756L37.533.768a2.932,2.932,0,0,1-1,1.407,2.515,2.515,0,0,1-1.512.467,3.8,3.8,0,0,1-.833-.091v-1.3a2.8,2.8,0,0,0,.645.07,1.164,1.164,0,0,0,.76-.266,1.724,1.724,0,0,0,.508-.8l.1-.3Z" transform="translate(1038.303 681.295)"/><path d="M5.624-2.181A2.03,2.03,0,0,1,4.858-.5a3.325,3.325,0,0,1-2.13.612A5,5,0,0,1,.5-.365V-1.912a9.163,9.163,0,0,0,1.345.5,3.981,3.981,0,0,0,1.007.145A1.432,1.432,0,0,0,3.7-1.477.716.716,0,0,0,3.991-2.1a.688.688,0,0,0-.129-.411,1.442,1.442,0,0,0-.379-.346,9.739,9.739,0,0,0-1.018-.532,4.824,4.824,0,0,1-1.08-.65,2.44,2.44,0,0,1-.575-.725A2.069,2.069,0,0,1,.6-5.731,2.029,2.029,0,0,1,1.3-7.369a2.935,2.935,0,0,1,1.952-.6,4.61,4.61,0,0,1,1.168.145,8.03,8.03,0,0,1,1.163.408L5.049-6.118a7.858,7.858,0,0,0-1.039-.36,3.345,3.345,0,0,0-.808-.1,1.07,1.07,0,0,0-.725.22.726.726,0,0,0-.252.575.711.711,0,0,0,.1.384,1.122,1.122,0,0,0,.325.317,10.047,10.047,0,0,0,1.055.551A4.2,4.2,0,0,1,5.215-3.478,2.06,2.06,0,0,1,5.624-2.181ZM12.461,0H10.823V-3.507q0-1.3-.967-1.3a1.1,1.1,0,0,0-.994.467,2.854,2.854,0,0,0-.306,1.515V0H6.918V-8.357H8.556v1.7q0,.2-.038.935l-.038.483h.086a1.9,1.9,0,0,1,1.74-.881,2.128,2.128,0,0,1,1.606.569,2.262,2.262,0,0,1,.548,1.633Zm1.617-7.557q0-.8.892-.8t.892.8a.78.78,0,0,1-.223.594.937.937,0,0,1-.669.212Q14.078-6.751,14.078-7.557ZM15.786,0H14.147V-6h1.638Zm4.206-4.952a1.039,1.039,0,0,0-.816.33,1.529,1.529,0,0,0-.338.937h2.3a1.366,1.366,0,0,0-.317-.937A1.073,1.073,0,0,0,19.991-4.952Zm.231,5.06a3.1,3.1,0,0,1-2.267-.8,3.03,3.03,0,0,1-.816-2.267,3.333,3.333,0,0,1,.755-2.334,2.687,2.687,0,0,1,2.087-.824,2.645,2.645,0,0,1,1.982.725,2.743,2.743,0,0,1,.709,2v.795H18.8a1.577,1.577,0,0,0,.414,1.09,1.455,1.455,0,0,0,1.085.392,4.5,4.5,0,0,0,1.026-.113,5.133,5.133,0,0,0,1.01-.36V-.317a3.847,3.847,0,0,1-.918.32A5.791,5.791,0,0,1,20.222.107ZM25.642,0H24V-8.357h1.638Zm3.62.107A1.95,1.95,0,0,1,27.6-.714,3.778,3.778,0,0,1,27-2.992a3.782,3.782,0,0,1,.615-2.3A2,2,0,0,1,29.3-6.118a1.959,1.959,0,0,1,1.729.881h.054a6.7,6.7,0,0,1-.124-1.2V-8.357h1.644V0H31.351l-.317-.779h-.07A1.875,1.875,0,0,1,29.262.107ZM29.836-1.2a1.11,1.11,0,0,0,.921-.365,2.125,2.125,0,0,0,.32-1.241v-.177a2.455,2.455,0,0,0-.3-1.386,1.107,1.107,0,0,0-.969-.419.962.962,0,0,0-.851.465,2.479,2.479,0,0,0-.3,1.351,2.349,2.349,0,0,0,.306,1.329A1,1,0,0,0,29.836-1.2Z" transform="translate(1038.303 695.001)"/><path d="M.854-7.173H5.83v.879h-4v2.178H5.347v.854H1.826V0H.854ZM6.777-5.229h.835v.9a2,2,0,0,1,.5-.642,1.3,1.3,0,0,1,.923-.378l.083,0,.2.02v.928a1.313,1.313,0,0,0-.144-.02q-.066,0-.144,0a1.254,1.254,0,0,0-1.021.427,1.491,1.491,0,0,0-.356.984V0H6.777Zm3.979,3.838a.724.724,0,0,0,.278.6,1.032,1.032,0,0,0,.659.22,2,2,0,0,0,.9-.215,1.209,1.209,0,0,0,.732-1.167v-.708a1.5,1.5,0,0,1-.415.171,3.537,3.537,0,0,1-.5.1l-.532.068a2.036,2.036,0,0,0-.718.2A.78.78,0,0,0,10.757-1.392Zm2.129-1.777a.477.477,0,0,0,.405-.254.773.773,0,0,0,.059-.337.714.714,0,0,0-.32-.652,1.716,1.716,0,0,0-.916-.2,1.163,1.163,0,0,0-.977.371,1.221,1.221,0,0,0-.21.61h-.82a1.51,1.51,0,0,1,.627-1.345,2.576,2.576,0,0,1,1.4-.378,2.846,2.846,0,0,1,1.5.352A1.193,1.193,0,0,1,14.2-3.911V-.9a.386.386,0,0,0,.056.22A.271.271,0,0,0,14.5-.6q.059,0,.132-.007t.156-.022V.024A2.448,2.448,0,0,1,14.473.1a2.284,2.284,0,0,1-.293.015.723.723,0,0,1-.659-.322,1.244,1.244,0,0,1-.151-.483,2.236,2.236,0,0,1-.771.61,2.386,2.386,0,0,1-1.108.259A1.648,1.648,0,0,1,10.3-.266a1.468,1.468,0,0,1-.461-1.106A1.424,1.424,0,0,1,10.293-2.5a2.161,2.161,0,0,1,1.191-.493Zm2.759-2.061h.869v.742a2.921,2.921,0,0,1,.566-.562,1.7,1.7,0,0,1,.986-.3,1.552,1.552,0,0,1,1.006.308,1.608,1.608,0,0,1,.391.518,1.9,1.9,0,0,1,.688-.623,1.92,1.92,0,0,1,.889-.2,1.453,1.453,0,0,1,1.436.762,2.49,2.49,0,0,1,.205,1.1V0h-.913V-3.633a.846.846,0,0,0-.261-.718,1.034,1.034,0,0,0-.637-.2,1.265,1.265,0,0,0-.891.347A1.522,1.522,0,0,0,19.6-3.042V0h-.894V-3.413a1.773,1.773,0,0,0-.127-.776.774.774,0,0,0-.747-.366,1.289,1.289,0,0,0-.906.386,1.891,1.891,0,0,0-.408,1.4V0h-.879Zm10.508-.117a2.385,2.385,0,0,1,1.079.261,1.99,1.99,0,0,1,.8.676,2.333,2.333,0,0,1,.352.923,6.038,6.038,0,0,1,.078,1.152H24.624A2.237,2.237,0,0,0,25-1.057a1.259,1.259,0,0,0,1.089.481,1.408,1.408,0,0,0,1.1-.454,1.531,1.531,0,0,0,.332-.61h.864A1.82,1.82,0,0,1,28.157-1a2.284,2.284,0,0,1-.432.579,2.048,2.048,0,0,1-.991.527,3.011,3.011,0,0,1-.718.078,2.2,2.2,0,0,1-1.655-.71,2.764,2.764,0,0,1-.679-1.99,3.006,3.006,0,0,1,.684-2.046A2.255,2.255,0,0,1,26.152-5.347Zm1.4,2.314a2.277,2.277,0,0,0-.249-.913A1.276,1.276,0,0,0,26.1-4.58a1.337,1.337,0,0,0-1.016.437,1.651,1.651,0,0,0-.435,1.111Zm2.388-2.2,1.006,4.121,1.021-4.121h.986l1.025,4.1,1.069-4.1h.879L34.409,0H33.5L32.432-4.048,31.4,0h-.913L28.979-5.229ZM38.833-.566a1.212,1.212,0,0,0,1.2-.662A3.3,3.3,0,0,0,40.356-2.7a2.621,2.621,0,0,0-.234-1.191,1.318,1.318,0,0,0-1.279-.723A1.262,1.262,0,0,0,37.671-4,2.852,2.852,0,0,0,37.3-2.515a2.481,2.481,0,0,0,.366,1.392A1.29,1.29,0,0,0,38.833-.566Zm.034-4.814a2.368,2.368,0,0,1,1.709.674,2.631,2.631,0,0,1,.7,1.982,3.4,3.4,0,0,1-.615,2.09A2.226,2.226,0,0,1,38.75.19a2.155,2.155,0,0,1-1.714-.73A2.883,2.883,0,0,1,36.4-2.5a3.119,3.119,0,0,1,.669-2.1A2.245,2.245,0,0,1,38.867-5.381Zm3.477.151h.835v.9a2,2,0,0,1,.5-.642,1.3,1.3,0,0,1,.923-.378l.083,0,.2.02v.928a1.313,1.313,0,0,0-.144-.02q-.066,0-.144,0a1.254,1.254,0,0,0-1.021.427,1.491,1.491,0,0,0-.356.984V0h-.879ZM45.63-7.173h.845v4.165L48.73-5.229h1.123l-2,1.958L49.966,0H48.843L47.212-2.637l-.737.674V0H45.63Z" transform="translate(1038.303 707.94)"/><rect class="d" width="14.367" height="3.635" transform="translate(1014.663 672.133)"/><rect class="d" width="14.367" height="3.635" transform="translate(1014.663 679.187)"/><rect class="d" width="14.367" height="3.635" transform="translate(1014.663 686.087)"/><rect class="d" width="14.367" height="3.635" transform="translate(1014.663 692.987)"/><path class="d" d="M208.916,6292.25H198.261v-3.635h13.82s-.241.8-3.166,3.635" transform="translate(816.401 -5588.327)"/><path d="M199.753,6259.673l.4.819.9.132-.654.638.154.9-.809-.425-.809.425.154-.9-.654-.638.9-.132Z" transform="translate(816.415 -5590.559)"/><path d="M202.584,6266.282l.4.819.905.132-.654.638.153.9-.809-.425-.808.425.153-.9-.654-.638.9-.132Z" transform="translate(816.633 -5590.049)"/><path d="M199.753,6273.076l.4.819.9.132-.654.639.154.9-.809-.426-.809.426.154-.9-.654-.639.9-.132Z" transform="translate(816.415 -5589.525)"/><path class="d" d="M198.262,6299.059v-3.238h5.32s-1.266.871-5.32,3.238" transform="translate(816.401 -5587.772)"/><path d="M190.7,6271.132l.543,1.1,1.214.177-.879.856.207,1.209-1.085-.571-1.085.571.208-1.209-.879-.856,1.214-.177Z" transform="translate(815.683 -5589.675)"/><path d="M193.851,6267.729l.543,1.1,1.214.175-.879.856.207,1.208-1.085-.571-1.085.571.208-1.208L192.1,6269l1.214-.175Z" transform="translate(815.926 -5589.938)"/><path d="M189.533,6275.568l.543,1.1,1.213.175-.878.856.207,1.208-1.085-.571-1.085.571.207-1.208-.879-.856,1.214-.175Z" transform="translate(815.593 -5589.333)"/><path d="M190.7,6280.144l.543,1.1,1.214.177-.879.855.207,1.209-1.085-.57-1.085.57.208-1.209-.879-.855,1.214-.177Z" transform="translate(815.683 -5588.981)"/><path d="M194.051,6283.525l.543,1.1,1.214.177-.879.856.207,1.208-1.085-.571-1.085.571.208-1.208-.879-.856,1.214-.177Z" transform="translate(815.941 -5588.72)"/><path d="M198.512,6266.56l.543,1.1,1.214.177-.879.856.207,1.209-1.085-.571-1.085.571.208-1.209-.879-.856,1.214-.177Z" transform="translate(816.285 -5590.028)"/><rect class="e" width="2.021" height="4.148" transform="translate(1012.642 676.438)"/><path d="M198.656,6284.725l.543,1.1,1.213.177-.878.855.207,1.208-1.085-.57-1.085.57.207-1.208L196.9,6286l1.214-.177Z" transform="translate(816.296 -5588.627)"/><rect class="e" width="1.682" height="5.976" transform="translate(1012.981 695.298)"/><path d="M198.262,6301.836v-21.658H205.6v-20.364h-7.343" transform="translate(816.401 -5590.548)"/><path class="f" d="M198.262,6301.836v-21.658H205.6v-20.364h-7.343" transform="translate(816.401 -5590.548)"/><path class="a" d="M202.584,6261.7l.4.819.905.132-.654.638.153.9-.809-.425-.808.425.153-.9-.654-.638.9-.132Z" transform="translate(816.633 -5590.402)"/><path class="a" d="M199.753,6264.014l.4.82.9.131-.654.638.154.9-.809-.426-.809.426.154-.9-.654-.638.9-.131Z" transform="translate(816.415 -5590.224)"/><path class="a" d="M199.753,6268.6l.4.821.9.131-.654.639.154.9-.809-.426-.809.426.154-.9-.654-.639.9-.131Z" transform="translate(816.415 -5589.871)"/><path class="a" d="M202.584,6270.856l.4.82.905.132-.654.637.153.9-.809-.426-.808.426.153-.9-.654-.637.9-.132Z" transform="translate(816.633 -5589.696)"/><path class="a" d="M202.584,6275.192l.4.82.905.132-.654.637.153.9-.809-.426-.808.426.153-.9-.654-.637.9-.132Z" transform="translate(816.633 -5589.362)"/><path class="f" d="M184.924,6259.813v30.024s1.227,4.25,14.366,12c0,0,11.666-6.188,14.366-12v-30.024Z" transform="translate(815.373 -5590.548)"/><g transform="translate(994.14 586.951)"><path class="a" d="M163.329,6246.628c-2.182,2.32-5.68,3.19-10.273,3.153-9.3-.077-16.7-.153-26-.23-2.73-.022-5.541-.059-8.069-1.1-5.581-2.284-5.994-8.043-5.7-13.312.669-12.158-.615-24.288-.058-36.4.218-3.882,1.629-5.768,5.673-6.17a258.928,258.928,0,0,1,37.556-1.016c7.723.351,8.294,4.4,8.842,11.177a344.513,344.513,0,0,1,.632,35.9c-.047,3.653-.945,6.242-2.6,8" transform="translate(-113.079 -6191.288)"/><path class="b" d="M163.329,6246.628c-2.182,2.32-5.68,3.19-10.273,3.153-9.3-.077-16.7-.153-26-.23-2.73-.022-5.541-.059-8.069-1.1-5.581-2.284-5.994-8.043-5.7-13.312.669-12.158-.615-24.288-.058-36.4.218-3.882,1.629-5.768,5.673-6.17a258.928,258.928,0,0,1,37.556-1.016c7.723.351,8.294,4.4,8.842,11.177a344.513,344.513,0,0,1,.632,35.9C165.879,6242.282,164.982,6244.871,163.329,6246.628Z" transform="translate(-113.079 -6191.288)"/><path d="M1.977,0V-15.705h3.33V0ZM18.53-4.361A4.06,4.06,0,0,1,17-1.01,6.65,6.65,0,0,1,12.74.215,10,10,0,0,1,8.293-.73V-3.824a18.327,18.327,0,0,0,2.691,1A7.963,7.963,0,0,0,13-2.535a2.864,2.864,0,0,0,1.681-.419A1.433,1.433,0,0,0,15.265-4.2a1.376,1.376,0,0,0-.258-.822,2.885,2.885,0,0,0-.757-.693,19.478,19.478,0,0,0-2.036-1.063,9.649,9.649,0,0,1-2.159-1.3,4.88,4.88,0,0,1-1.149-1.45,4.138,4.138,0,0,1-.43-1.934,4.059,4.059,0,0,1,1.413-3.276,5.87,5.87,0,0,1,3.9-1.192,9.221,9.221,0,0,1,2.336.29,16.06,16.06,0,0,1,2.326.816l-1.074,2.589a15.717,15.717,0,0,0-2.079-.72,6.691,6.691,0,0,0-1.617-.2,2.141,2.141,0,0,0-1.45.44,1.453,1.453,0,0,0-.5,1.149,1.423,1.423,0,0,0,.2.768,2.244,2.244,0,0,0,.65.634,20.1,20.1,0,0,0,2.111,1.1,8.4,8.4,0,0,1,3.019,2.111A4.12,4.12,0,0,1,18.53-4.361Zm17.1-3.513A8.522,8.522,0,0,1,33.7-1.88,7.168,7.168,0,0,1,28.155.215,7.168,7.168,0,0,1,22.612-1.88,8.555,8.555,0,0,1,20.679-7.9a8.439,8.439,0,0,1,1.939-5.989,7.251,7.251,0,0,1,5.559-2.068,7.15,7.15,0,0,1,5.538,2.084A8.544,8.544,0,0,1,35.632-7.874Zm-11.462,0a6.56,6.56,0,0,0,1,3.964,3.5,3.5,0,0,0,2.986,1.332q3.985,0,3.985-5.3t-3.964-5.307a3.519,3.519,0,0,0-3,1.337A6.533,6.533,0,0,0,24.17-7.874Z" transform="translate(8.458 37.828)"/><path class="b" d="M156.3,6210.239s-5.4-9.723-17.06-10.058h.143c-11.66.335-17.058,10.058-17.058,10.058" transform="translate(-112.366 -6190.603)"/><path class="b" d="M156.3,6228.64s-5.4,9.723-17.06,10.058h.143c-11.66-.335-17.058-10.058-17.058-10.058" transform="translate(-112.366 -6188.408)"/></g><g transform="translate(1062.133 586.951)"><path class="a" d="M289.456,6246.628c-2.182,2.32-5.68,3.19-10.272,3.153-9.3-.077-16.7-.153-26-.23-2.732-.022-5.541-.059-8.07-1.1-5.58-2.284-5.993-8.043-5.7-13.312.669-12.158-.616-24.288-.059-36.4.219-3.882,1.63-5.768,5.675-6.17a258.92,258.92,0,0,1,37.556-1.016c7.722.351,8.293,4.4,8.841,11.177a344.509,344.509,0,0,1,.631,35.9c-.046,3.653-.945,6.242-2.6,8" transform="translate(-239.205 -6191.288)"/><path class="b" d="M289.456,6246.628c-2.182,2.32-5.68,3.19-10.272,3.153-9.3-.077-16.7-.153-26-.23-2.732-.022-5.541-.059-8.07-1.1-5.58-2.284-5.993-8.043-5.7-13.312.669-12.158-.616-24.288-.059-36.4.219-3.882,1.63-5.768,5.675-6.17a258.92,258.92,0,0,1,37.556-1.016c7.722.351,8.293,4.4,8.841,11.177a344.509,344.509,0,0,1,.631,35.9C292.006,6242.282,291.108,6244.871,289.456,6246.628Z" transform="translate(-239.205 -6191.288)"/><path d="M2.895-4.535h.6a1.99,1.99,0,0,0,1.254-.331,1.159,1.159,0,0,0,.416-.964,1.188,1.188,0,0,0-.349-.943,1.634,1.634,0,0,0-1.093-.3H2.895ZM7-5.895a2.618,2.618,0,0,1-.864,2.115,3.7,3.7,0,0,1-2.458.732H2.895V0H1.078V-8.566H3.814a3.64,3.64,0,0,1,2.37.671A2.446,2.446,0,0,1,7-5.895Zm5.256-1.283a1.851,1.851,0,0,0-1.588.771A3.585,3.585,0,0,0,10.1-4.26q0,2.865,2.15,2.865a6.8,6.8,0,0,0,2.186-.451V-.322a6.069,6.069,0,0,1-2.355.439A3.592,3.592,0,0,1,9.223-1.017a4.8,4.8,0,0,1-.99-3.255,5.315,5.315,0,0,1,.486-2.341,3.515,3.515,0,0,1,1.4-1.541,4.134,4.134,0,0,1,2.136-.536,5.764,5.764,0,0,1,2.508.6l-.586,1.477a9.7,9.7,0,0,0-.967-.4A2.884,2.884,0,0,0,12.252-7.178ZM16.26,0V-8.566h1.816V0Z" transform="translate(16.397 23.818)"/><path d="M8.186-4.365a4.218,4.218,0,0,1-1.2,3.24A4.91,4.91,0,0,1,3.5,0H1.078V-8.566H3.768A4.529,4.529,0,0,1,7.025-7.459,4.074,4.074,0,0,1,8.186-4.365ZM6.3-4.318q0-2.76-2.437-2.76H2.895V-1.5h.779Q6.3-1.5,6.3-4.318Zm8.719,1.939a2.214,2.214,0,0,1-.835,1.828,3.627,3.627,0,0,1-2.323.668A5.456,5.456,0,0,1,9.434-.4V-2.086a10,10,0,0,0,1.468.545,4.343,4.343,0,0,0,1.1.158,1.562,1.562,0,0,0,.917-.229.782.782,0,0,0,.319-.68.75.75,0,0,0-.141-.448,1.574,1.574,0,0,0-.413-.378,10.624,10.624,0,0,0-1.11-.58,5.263,5.263,0,0,1-1.178-.709A2.662,2.662,0,0,1,9.768-5.2a2.257,2.257,0,0,1-.234-1.055A2.214,2.214,0,0,1,10.3-8.039a3.2,3.2,0,0,1,2.13-.65,5.03,5.03,0,0,1,1.274.158,8.76,8.76,0,0,1,1.269.445l-.586,1.412a8.573,8.573,0,0,0-1.134-.393,3.649,3.649,0,0,0-.882-.111,1.168,1.168,0,0,0-.791.24.792.792,0,0,0-.275.627.776.776,0,0,0,.111.419,1.224,1.224,0,0,0,.354.346,10.961,10.961,0,0,0,1.151.6,4.581,4.581,0,0,1,1.646,1.151A2.247,2.247,0,0,1,15.018-2.379Zm6.609,0a2.214,2.214,0,0,1-.835,1.828,3.627,3.627,0,0,1-2.323.668A5.456,5.456,0,0,1,16.043-.4V-2.086a10,10,0,0,0,1.468.545,4.343,4.343,0,0,0,1.1.158,1.562,1.562,0,0,0,.917-.229.782.782,0,0,0,.319-.68.75.75,0,0,0-.141-.448,1.574,1.574,0,0,0-.413-.378,10.624,10.624,0,0,0-1.11-.58A5.263,5.263,0,0,1,17-4.406a2.662,2.662,0,0,1-.627-.791,2.257,2.257,0,0,1-.234-1.055,2.214,2.214,0,0,1,.771-1.787,3.2,3.2,0,0,1,2.13-.65,5.03,5.03,0,0,1,1.274.158,8.76,8.76,0,0,1,1.269.445L21-6.674a8.573,8.573,0,0,0-1.134-.393,3.649,3.649,0,0,0-.882-.111,1.168,1.168,0,0,0-.791.24.792.792,0,0,0-.275.627.776.776,0,0,0,.111.419,1.224,1.224,0,0,0,.354.346,10.961,10.961,0,0,0,1.151.6,4.581,4.581,0,0,1,1.646,1.151A2.247,2.247,0,0,1,21.627-2.379Z" transform="translate(15.096 43.427)"/><line class="b" x2="35.711" transform="translate(9.314 29.937)"/></g><g transform="translate(1129.929 586.622)"><path class="a" d="M163.329,6307.191c-2.182,2.319-5.68,3.189-10.273,3.151-9.3-.076-16.7-.153-26-.229-2.73-.022-5.541-.059-8.069-1.1-5.581-2.284-5.994-8.043-5.7-13.312.669-12.158-.615-24.288-.058-36.4.218-3.882,1.629-5.767,5.673-6.17a258.928,258.928,0,0,1,37.556-1.016c7.723.351,8.294,4.4,8.842,11.177a344.506,344.506,0,0,1,.632,35.9c-.047,3.654-.945,6.243-2.6,8" transform="translate(-113.079 -6251.85)"/><path class="b" d="M163.329,6307.191c-2.182,2.319-5.68,3.189-10.273,3.151-9.3-.076-16.7-.153-26-.229-2.73-.022-5.541-.059-8.069-1.1-5.581-2.284-5.994-8.043-5.7-13.312.669-12.158-.615-24.288-.058-36.4.218-3.882,1.629-5.767,5.673-6.17a258.928,258.928,0,0,1,37.556-1.016c7.723.351,8.294,4.4,8.842,11.177a344.506,344.506,0,0,1,.632,35.9C165.879,6302.844,164.982,6305.434,163.329,6307.191Z" transform="translate(-113.079 -6251.85)"/><path d="M9.128,0H7.616V-4.564H2.842V0H1.33V-10H2.842v4.144H7.616V-10H9.128Zm5.754,0H11V-.868l1.19-.35V-8.764L11-9.128V-10h3.878v.868l-1.176.364v7.546l1.176.35Zm4.676-10a4.253,4.253,0,0,1,2.856.791,2.787,2.787,0,0,1,.9,2.2,3.4,3.4,0,0,1-.371,1.568A2.775,2.775,0,0,1,21.7-4.249a5.1,5.1,0,0,1-2.352.455H18.27V0H16.758V-10Zm-.112,1.274H18.27v3.654h.91A3.534,3.534,0,0,0,21.1-5.5a1.6,1.6,0,0,0,.651-1.449,1.6,1.6,0,0,0-.56-1.337A2.821,2.821,0,0,0,19.446-8.722ZM30.856,0,29.792-2.884H25.928L24.864,0H23.3L27.09-10.038h1.568L32.438,0ZM29.372-4.2,28.364-7.014q-.056-.154-.154-.462t-.2-.644q-.1-.336-.154-.546-.112.434-.252.924t-.224.728L26.376-4.2ZM40.012,0,38.948-2.884H35.084L34.02,0H32.452l3.794-10.038h1.568L41.594,0ZM38.528-4.2,37.52-7.014q-.056-.154-.154-.462t-.2-.644q-.1-.336-.154-.546-.112.434-.252.924t-.224.728L35.532-4.2Z" transform="translate(4.925 30.85)"/><path d="M2.8-4.417A1.428,1.428,0,0,0,1.635-3.9a2.155,2.155,0,0,0-.424,1.411,2.248,2.248,0,0,0,.392,1.4,1.405,1.405,0,0,0,1.19.511,3.152,3.152,0,0,0,.62-.06A5.657,5.657,0,0,0,4.018-.8v.651a3.2,3.2,0,0,1-.6.164A4.293,4.293,0,0,1,2.7.07,2.363,2.363,0,0,1,1.424-.249a1.928,1.928,0,0,1-.756-.9A3.406,3.406,0,0,1,.42-2.5,3.054,3.054,0,0,1,.7-3.832,2.116,2.116,0,0,1,1.5-4.739a2.43,2.43,0,0,1,1.3-.329,3.378,3.378,0,0,1,.739.081,2.984,2.984,0,0,1,.662.227l-.28.63a4.466,4.466,0,0,0-.525-.2A2.008,2.008,0,0,0,2.8-4.417ZM8.337-1.89A2.028,2.028,0,0,1,7.854-.441a1.706,1.706,0,0,1-1.3.511,1.785,1.785,0,0,1-.906-.227,1.592,1.592,0,0,1-.623-.665A2.292,2.292,0,0,1,4.8-1.89a2.034,2.034,0,0,1,.476-1.445,1.7,1.7,0,0,1,1.3-.508,1.8,1.8,0,0,1,.914.228,1.6,1.6,0,0,1,.623.661A2.27,2.27,0,0,1,8.337-1.89Zm-2.779,0A1.759,1.759,0,0,0,5.8-.9a.859.859,0,0,0,.766.357A.859.859,0,0,0,7.333-.9a1.759,1.759,0,0,0,.241-.994,1.721,1.721,0,0,0-.241-.99.876.876,0,0,0-.774-.346.859.859,0,0,0-.763.346A1.74,1.74,0,0,0,5.558-1.89ZM13.5-3.843a1.285,1.285,0,0,1,.959.329,1.469,1.469,0,0,1,.322,1.057V0h-.742V-2.359q0-.875-.707-.875a.816.816,0,0,0-.721.312,1.552,1.552,0,0,0-.217.892V0h-.735V-2.359q0-.875-.714-.875a.773.773,0,0,0-.731.343,1.988,1.988,0,0,0-.2.987V0H9.275V-3.773h.588l.105.5h.042a1.073,1.073,0,0,1,.472-.434,1.469,1.469,0,0,1,.634-.14,1.133,1.133,0,0,1,1.148.609h.056a1.128,1.128,0,0,1,.5-.458A1.585,1.585,0,0,1,13.5-3.843Zm4.3,0a1.365,1.365,0,0,1,1.1.49,2.224,2.224,0,0,1,.413,1.463,2.217,2.217,0,0,1-.42,1.46,1.366,1.366,0,0,1-1.1.5,1.388,1.388,0,0,1-.7-.157,1.4,1.4,0,0,1-.434-.375h-.049q.014.126.031.3a3.037,3.037,0,0,1,.017.3V1.68h-.742V-3.773h.6l.1.5h.035a1.411,1.411,0,0,1,.431-.406A1.329,1.329,0,0,1,17.8-3.843Zm-.175.609a.853.853,0,0,0-.742.3,1.62,1.62,0,0,0-.224.924V-1.9a1.978,1.978,0,0,0,.21,1.008.823.823,0,0,0,.77.35.743.743,0,0,0,.686-.378A1.92,1.92,0,0,0,18.55-1.9a1.8,1.8,0,0,0-.227-.973A.769.769,0,0,0,17.626-3.234ZM21,0h-.742V-5.32H21Zm1.54-5.208a.465.465,0,0,1,.294.1.392.392,0,0,1,.126.329.394.394,0,0,1-.126.326.455.455,0,0,1-.294.1.465.465,0,0,1-.3-.1.394.394,0,0,1-.126-.326.392.392,0,0,1,.126-.329A.476.476,0,0,1,22.54-5.208ZM22.9-3.773V0h-.742V-3.773Zm2.625-.07a1.564,1.564,0,0,1,1.06.312,1.236,1.236,0,0,1,.354.976V0h-.525l-.147-.525h-.028a1.686,1.686,0,0,1-.514.452,1.6,1.6,0,0,1-.746.144,1.289,1.289,0,0,1-.847-.276,1.055,1.055,0,0,1-.336-.864.994.994,0,0,1,.438-.878,2.541,2.541,0,0,1,1.333-.325l.644-.021v-.21a.761.761,0,0,0-.189-.585.764.764,0,0,0-.532-.171,1.825,1.825,0,0,0-.553.084,3.758,3.758,0,0,0-.511.2l-.238-.539a3.02,3.02,0,0,1,.612-.234A2.742,2.742,0,0,1,25.529-3.843Zm.679,2.03-.5.014a1.662,1.662,0,0,0-.892.217.615.615,0,0,0-.249.518.5.5,0,0,0,.175.427.732.732,0,0,0,.455.133,1.085,1.085,0,0,0,.724-.245.907.907,0,0,0,.291-.735ZM30-3.843A1.417,1.417,0,0,1,31-3.514a1.393,1.393,0,0,1,.35,1.057V0h-.735V-2.352q0-.882-.777-.882a.871.871,0,0,0-.794.343,1.83,1.83,0,0,0-.221.987V0h-.742V-3.773h.588l.1.5h.042a1.092,1.092,0,0,1,.5-.434A1.66,1.66,0,0,1,30-3.843ZM33.852-.532a1.661,1.661,0,0,0,.567-.091v.56A1.38,1.38,0,0,1,34.1.031a2.174,2.174,0,0,1-.406.039,1.469,1.469,0,0,1-.564-.105.845.845,0,0,1-.41-.364,1.415,1.415,0,0,1-.154-.721V-3.206h-.525v-.336l.553-.28.259-.8h.455v.847h1.078v.567H33.306v2.072a.611.611,0,0,0,.151.455A.542.542,0,0,0,33.852-.532Z" transform="translate(6.34 39.121)"/></g><path class="g" d="M399.381,579.863a5.412,5.412,0,0,0,.062-.575,7.43,7.43,0,0,1,2.548-5.536,8.952,8.952,0,0,1,5.493-2.352,7.255,7.255,0,0,1,6.863,4.638,16.8,16.8,0,0,1,.542,2.211c.081.448.252.68.719.7a3.576,3.576,0,0,1,3.139,2.265,11.217,11.217,0,0,1,1.057,4.406,60.235,60.235,0,0,1-.146,10.631,7.971,7.971,0,0,1-.4,1.948,3,3,0,0,1-.93,1.376,7.931,7.931,0,0,1-2.278,1.1,38.333,38.333,0,0,1-7.149.916,39.542,39.542,0,0,1-9.283-.387,7.8,7.8,0,0,1-1.2-.272,2.575,2.575,0,0,1-1.967-2.2,26.533,26.533,0,0,1-.332-3.3c-.055-4.15-.141-8.3-.027-12.451.051-1.879.637-2.675,2.436-2.945C398.8,579.989,399.078,579.923,399.381,579.863Zm-2.4,9.709h.044c0,1.426-.048,2.855.013,4.278.066,1.548.215,3.094.362,4.638a1.74,1.74,0,0,0,1.449,1.562,6.51,6.51,0,0,0,.836.181,39.143,39.143,0,0,0,8.052.448c1.8-.131,3.6-.267,5.4-.424a12.408,12.408,0,0,0,4.1-1.12,1.836,1.836,0,0,0,1.152-1.405c.1-.592.265-1.177.326-1.773a62.029,62.029,0,0,0,.133-10.066,12.03,12.03,0,0,0-.808-3.891,3.04,3.04,0,0,0-3.128-2.136c-1.741.057-3.487.044-5.224.156-2.908.189-5.813.444-8.717.691-.914.078-1.823.209-2.732.339a1.035,1.035,0,0,0-.947.693,7.957,7.957,0,0,0-.3,1.841C396.957,585.579,396.98,587.576,396.98,589.573Zm4.954-9.965,10.812-.775c-.21-.58-.361-1.09-.576-1.571a5.89,5.89,0,0,0-5.569-3.035,3.391,3.391,0,0,0-.9.292,6.5,6.5,0,0,0-3.135,3.181A5.021,5.021,0,0,0,401.933,579.608Zm11.843-.964.225-.076c-.217-.82-.378-1.659-.661-2.455-.762-2.143-4.07-4.37-6.64-3.6a15.28,15.28,0,0,0-2.818,1.086,6.752,6.752,0,0,0-3.321,4.208,3.1,3.1,0,0,0-.153,1.929c.488-.152.494-.15.616-.567a9.044,9.044,0,0,1,2.679-4.5,5.125,5.125,0,0,1,3.41-1.456,6.739,6.739,0,0,1,6.228,4.308C413.483,577.893,413.63,578.268,413.776,578.644Z" transform="translate(747.997 103.4)"/><path class="a" d="M401.427,629.675c0-2-.023-3.994.014-5.99a7.953,7.953,0,0,1,.3-1.841,1.035,1.035,0,0,1,.947-.693c.908-.13,1.818-.261,2.732-.339,2.9-.247,5.809-.5,8.717-.691,1.737-.113,3.483-.1,5.224-.156a3.04,3.04,0,0,1,3.128,2.136,12.03,12.03,0,0,1,.808,3.891,62.026,62.026,0,0,1-.133,10.066c-.061.6-.223,1.181-.326,1.773a1.836,1.836,0,0,1-1.152,1.405,12.408,12.408,0,0,1-4.1,1.12c-1.8.157-3.6.293-5.4.424a39.148,39.148,0,0,1-8.052-.448,6.534,6.534,0,0,1-.836-.181,1.74,1.74,0,0,1-1.449-1.562c-.146-1.544-.3-3.089-.362-4.638-.061-1.424-.013-2.852-.013-4.278Zm14.873-4.961c.861.194,1.457.354,2.062.454.31.051.614-.116.56-.463-.028-.18-.292-.376-.494-.463a8.171,8.171,0,0,1-1.057-.326,1.507,1.507,0,0,0-1.847.089c-.3.216-.6.428-.9.643a2.539,2.539,0,0,0-1.5-.561,4.909,4.909,0,0,0-1.452.7,1.617,1.617,0,0,0-2.307.051.867.867,0,0,1-1.125.084,1.3,1.3,0,0,0-1.587.13c-.167.128-.35.235-.571.382-.118-.175-.205-.3-.286-.424-.159-.25-.331-.511-.672-.3-.308.187-.243.47-.125.755a1.131,1.131,0,0,0,1.878.6c.285-.19.555-.526.923-.291a1.811,1.811,0,0,0,2.271-.233.6.6,0,0,1,.781-.086,1.456,1.456,0,0,0,1.981-.159,3.808,3.808,0,0,1,.5-.29c.521.292.982.846,1.633.544A10.971,10.971,0,0,0,416.3,624.714Zm-9.7,3.868a3.565,3.565,0,0,0-.534-.725,1.776,1.776,0,0,0-.647-.184,1.569,1.569,0,0,0-.087.607,1.364,1.364,0,0,0,2.142.868c.165-.094.325-.2.484-.3a.762.762,0,0,1,.962,0,1.511,1.511,0,0,0,2-.1,4.405,4.405,0,0,1,.557-.3,1.626,1.626,0,0,0,2.369.013.616.616,0,0,1,.787-.023,1.294,1.294,0,0,0,1.357.045,2.362,2.362,0,0,1,2.09-.263.566.566,0,0,0,.505-.243.651.651,0,0,0-.164-.572,1.459,1.459,0,0,0-.687-.279,2.742,2.742,0,0,0-1.837.312.857.857,0,0,1-.972.044,1.325,1.325,0,0,0-1.591.132c-.205.141-.429.255-.685.405a1.641,1.641,0,0,0-2.388,0,.629.629,0,0,1-.864.011,1.625,1.625,0,0,0-2.025.084C407.17,628.252,406.949,628.374,406.6,628.582Zm10.859,2.47a1.48,1.48,0,0,0-2.025-.128.936.936,0,0,1-1.345-.043,1.319,1.319,0,0,0-1.818.036,4.421,4.421,0,0,0-.444.356.915.915,0,0,1-1.272.167,1.761,1.761,0,0,0-1.97.1c-.314.2-.646.367-1.109.628-.123-.2-.19-.415-.335-.5a1.539,1.539,0,0,0-.584-.078c-.022.229-.132.5-.049.68a1.176,1.176,0,0,0,1.6.6,2.908,2.908,0,0,0,.666-.362,1.354,1.354,0,0,1,1.668-.087,1.4,1.4,0,0,0,1.681-.15c.2-.154.4-.307.6-.47a.658.658,0,0,1,.94-.029,1.567,1.567,0,0,0,2.16.062.817.817,0,0,1,1.036-.026,1.221,1.221,0,0,0,1.736-.4c.107-.15.167-.518.09-.576a.981.981,0,0,0-.654-.134C417.863,630.724,417.712,630.892,417.464,631.052Zm-3.555,4.449a1.2,1.2,0,0,0-1.181-1.305,1.439,1.439,0,0,0-1.525,1.25.745.745,0,0,0,.179.514c.393.308.309.723.346,1.124.057.623.116,1.248.234,1.861a.658.658,0,0,0,.432.411.906.906,0,0,0,1.083-.969c0-.284-.025-.568-.037-.852-.025-.586-.178-1.192.361-1.668C413.9,635.779,413.89,635.572,413.909,635.5Z" transform="translate(743.549 63.298)"/><path class="a" d="M429.843,592.87a5.019,5.019,0,0,1,.635-1.908,6.5,6.5,0,0,1,3.135-3.181,3.4,3.4,0,0,1,.9-.292,5.89,5.89,0,0,1,5.569,3.035c.215.481.365.991.576,1.571Z" transform="translate(720.087 90.138)"/><path class="a" d="M433.987,583.25c-.146-.376-.293-.751-.436-1.128a6.739,6.739,0,0,0-6.228-4.308,5.124,5.124,0,0,0-3.41,1.456,9.043,9.043,0,0,0-2.679,4.5c-.122.418-.128.416-.616.567a3.1,3.1,0,0,1,.153-1.929,6.752,6.752,0,0,1,3.321-4.208,15.274,15.274,0,0,1,2.818-1.086c2.57-.768,5.878,1.458,6.64,3.6.283.8.444,1.636.661,2.455Z" transform="translate(727.786 98.794)"/><path d="M432.744,642.112a10.979,10.979,0,0,1-1.338.828c-.651.3-1.112-.252-1.633-.544a3.809,3.809,0,0,0-.5.29,1.455,1.455,0,0,1-1.981.159.6.6,0,0,0-.781.086,1.811,1.811,0,0,1-2.271.233c-.368-.235-.638.1-.923.291a1.131,1.131,0,0,1-1.878-.6c-.117-.285-.182-.568.125-.755.341-.207.513.054.672.3.081.127.168.249.286.424.22-.146.4-.253.571-.382a1.3,1.3,0,0,1,1.587-.13.867.867,0,0,0,1.125-.084,1.617,1.617,0,0,1,2.307-.051,4.909,4.909,0,0,1,1.452-.7,2.539,2.539,0,0,1,1.5.561c.3-.214.6-.426.9-.643a1.507,1.507,0,0,1,1.847-.089,8.186,8.186,0,0,0,1.057.326c.2.087.465.283.494.463.054.347-.25.515-.56.463C434.2,642.466,433.6,642.306,432.744,642.112Z" transform="translate(727.105 45.9)"/><path d="M425.063,662.243c.344-.208.565-.33.775-.47a1.625,1.625,0,0,1,2.025-.084.629.629,0,0,0,.864-.011,1.641,1.641,0,0,1,2.388,0c.256-.15.48-.264.685-.405a1.325,1.325,0,0,1,1.591-.132.857.857,0,0,0,.972-.044,2.742,2.742,0,0,1,1.837-.312,1.458,1.458,0,0,1,.687.279.651.651,0,0,1,.164.572.566.566,0,0,1-.505.243,2.362,2.362,0,0,0-2.09.263,1.3,1.3,0,0,1-1.357-.045.616.616,0,0,0-.787.023,1.626,1.626,0,0,1-2.369-.013,4.4,4.4,0,0,0-.557.3,1.511,1.511,0,0,1-2,.1.762.762,0,0,0-.962,0c-.159.1-.319.207-.484.3a1.364,1.364,0,0,1-2.142-.868,1.569,1.569,0,0,1,.087-.607,1.774,1.774,0,0,1,.647.184A3.565,3.565,0,0,1,425.063,662.243Z" transform="translate(725.091 29.637)"/><path d="M441.4,681.05c.249-.16.4-.327.568-.347a.982.982,0,0,1,.654.134c.076.057.017.426-.09.576a1.221,1.221,0,0,1-1.736.4.817.817,0,0,0-1.036.026,1.567,1.567,0,0,1-2.16-.062.658.658,0,0,0-.94.029c-.194.163-.4.316-.6.47a1.4,1.4,0,0,1-1.681.149,1.354,1.354,0,0,0-1.668.087,2.914,2.914,0,0,1-.666.362,1.176,1.176,0,0,1-1.6-.6c-.083-.181.027-.451.049-.68a1.542,1.542,0,0,1,.584.078c.145.085.212.3.335.5.464-.261.8-.43,1.109-.628a1.761,1.761,0,0,1,1.97-.1.915.915,0,0,0,1.272-.167,4.429,4.429,0,0,1,.444-.356,1.319,1.319,0,0,1,1.818-.036.936.936,0,0,0,1.345.043A1.48,1.48,0,0,1,441.4,681.05Z" transform="translate(719.613 13.299)"/><path d="M460.176,702.807c-.019.072-.011.279-.109.365-.538.476-.386,1.082-.361,1.668.012.284.037.568.037.852a.906.906,0,0,1-1.083.968.657.657,0,0,1-.432-.412c-.118-.613-.177-1.238-.234-1.861-.037-.4.047-.815-.346-1.124a.746.746,0,0,1-.179-.514A1.439,1.439,0,0,1,459,701.5,1.2,1.2,0,0,1,460.176,702.807Z" transform="translate(697.282 -4.009)"/></g></svg>