<svg xmlns="http://www.w3.org/2000/svg" id="Layer_1" data-name="Layer 1" viewBox="0 0 250 250"><defs><style>      .cls-1 {        fill: #fff;      }      .cls-2 {        fill: #04c4d9;        stroke: #000;        stroke-miterlimit: 10;      }      .cls-2, .cls-3 {        stroke-width: 3px;      }      .cls-3 {        fill: #ffc729;        stroke: #0e0f10;        stroke-linecap: round;        stroke-linejoin: round;      }    </style></defs><path class="cls-3" d="m148.13,40.2c15.55,9.88,9.68,97.13,0,100.07-41.39,12.53-102.45,0-102.45,0l-.15.92c-17.16,16.77-33.5,7.87-33.5,7.87,9.78-2.06,10.97-20.89,10.97-20.89l.18-.09s-10.3-82.08,0-87.87c20.67-11.61,117.02-5.05,124.96,0Z"></path><path class="cls-1" d="m141.21,51.05c-5.03-5.95-103.04-9.16-107.96,1.04-4.68,9.7-.76,70.13,4.56,73.72,8.9,6.02,97.39,8.36,103.41,2.15,5.2-5.37,7.71-67.8,0-76.91Z"></path><g><path d="m70.3,111.71c-1.21,0-2.13-.64-2.54-1.77-.6-1.66.12-3.04,1.96-3.78,5.18-2.09,8.96-4.95,11.54-8.76,2.68-3.94,2.05-7.82-1.74-10.63-.48-.36-1.14-.77-1.88-.77-1,0-1.75.65-2.22,1.94-2.11,5.76-5.91,10.78-11.97,15.79-3.87,3.2-8.25,5.06-13.39,5.69-.5.06-1,.09-1.48.09-3.07,0-5.78-1.28-7.43-3.51-1.72-2.33-2.16-5.49-1.19-8.68,1.64-5.37,5.72-8.68,9.5-11.2.08-.06.17-.11.26-.16.24-.14.47-.28.69-.46.31-.25.76-.45,1.25-.67,1.06-.47,2.5-1.11,3-2.75.69-2.29.58-4.62.48-6.87-.02-.46-.04-.92-.06-1.38-.03-.84-.43-2.26-2.82-2.27h-3.84c-.06,0-.12,0-.18.01-.32,0-1.72.02-2.1.02-.43,0-.85,0-1.28-.03-1.89-.11-3.02-1.16-3.03-2.81-.01-2.17,1.61-2.71,2.97-2.79,2.19-.12,4.78-.25,7.38-.26.76,0,1.85-.09,2.62-.89.56-.58.82-1.39.79-2.46-.03-.87.15-1.79.34-2.66.31-1.39,1.38-2.33,2.67-2.33.13,0,.26,0,.39.03,1.58.22,2.6,1.49,2.54,3.15-.09,2.21-.14,3.41.69,4.27.65.68,1.55.77,2.35.77.5,0,1.14-.04,1.94-.1l.37-.02c4.68-.32,9.31-.45,14.44-.58h.14c2,0,3.31,1.04,3.44,2.73.05.73-.16,1.39-.62,1.92-.57.65-1.49,1.04-2.59,1.1-4.52.25-9.14.37-13.61.48l-3.28.09c-3.43.1-4.01.69-4.02,3.98,0,2.02-.01,3.12.76,3.9.65.65,1.51.65,1.79.65.59,0,1.31-.12,2.3-.28l.18-.03c2.4-.39,4.36-.57,6.17-.57,3.95,0,7.13.88,10.01,2.76,3.5,2.29,5.72,5.28,6.42,8.63.69,3.31-.14,6.87-2.4,10.28-3.3,4.99-8.1,8.67-14.29,10.93-.48.18-.96.27-1.4.27Zm-16.98-20.85c-.4,0-.8.13-1.21.4-2.85,1.84-5.91,4.29-6.92,8.53-.39,1.64.25,2.99,1.61,3.46.83.28,1.7.42,2.59.42,1.3,0,2.62-.29,4.05-.89,1.94-.81,1.78-2.59,1.7-3.45-.02-.25-.05-.5-.03-.65.07-.52.05-1.02.04-1.46,0-.17-.01-.35-.01-.52,0-.05,0-.11,0-.16v-.93c0-.85,0-1.7,0-2.55-.02-2.15-1.62-2.21-1.8-2.21Zm13.65-5.99c-.81,0-1.61.31-2.37.61-.41.16-.79.31-1.1.38-1.82.41-2.73,1.42-2.72,2.99.02,1.38.01,2.75,0,4.28v2.11c0,.51.29.98.75,1.21.19.09.39.14.59.14.29,0,.59-.1.83-.28,1.92-1.49,3.33-3.11,4.56-5.25.16-.28.39-.56.62-.86.8-1.03,2.14-2.75.8-4.41-.33-.41-.95-.91-1.97-.91Z"></path><path d="m108.96,70.81h-7.61c-1.38,0-2.22-.47-2.74-1.53-.52-1.07-.43-2.04.26-2.99.58-.78,1.42-1.12,2.82-1.12,4.78,0,16.77,0,16.77,0h2.47c5.36,0,10.72,0,16.08.01,2.12,0,3.34,1.03,3.36,2.81,0,.79-.22,1.43-.69,1.9-.57.58-1.48.89-2.62.9-2.42.01-4.85.01-7.27.01h-20.84Z"></path><path d="m110.04,90.1c-2.76,0-5.51-.02-8.27-.06-1.3-.02-3.46-.43-3.44-2.95.02-2.31,1.94-2.83,3.54-2.86,1.05-.02,2.11-.02,3.16-.02h5.07s5.07,0,5.07,0c1.06,0,2.11,0,3.17.02,2.29.04,3.75,1.19,3.73,2.94-.02,1.73-1.41,2.83-3.63,2.87-2.8.04-5.6.06-8.4.06Z"></path></g><path class="cls-2" d="m101.87,106.21c-15.55,9.88-9.68,97.13,0,100.07,41.39,12.53,102.45,0,102.45,0l.15.92c17.16,16.77,33.5,7.87,33.5,7.87-9.78-2.06-10.97-20.89-10.97-20.89l-.18-.09s10.3-82.08,0-87.87c-20.67-11.61-117.02-5.05-124.96,0Z"></path><path class="cls-1" d="m110.2,116.94c5.03-6.16,103.04-9.49,107.96,1.08,4.68,10.05.76,72.65-4.56,76.37-8.9,6.23-97.39,8.66-103.41,2.23-5.2-5.56-7.71-70.24,0-79.68Z"></path><g><path d="m179.74,149.68h-7.61c-1.38,0-2.22-.47-2.74-1.53-.52-1.07-.43-2.04.26-2.99.58-.78,1.42-1.12,2.82-1.12,4.78,0,16.77,0,16.77,0h2.47c5.36,0,10.72,0,16.08.01,2.12,0,3.34,1.03,3.36,2.81,0,.79-.22,1.43-.69,1.9-.57.58-1.48.89-2.62.9-2.42.01-4.85.01-7.27.01h-20.84Z"></path><path d="m180.81,168.98c-2.76,0-5.51-.02-8.27-.06-1.3-.02-3.46-.43-3.44-2.95.02-2.31,1.94-2.83,3.54-2.86,1.05-.02,2.11-.02,3.16-.02h5.07s5.07,0,5.07,0c1.06,0,2.11,0,3.17.02,2.29.04,3.75,1.19,3.73,2.94-.02,1.73-1.41,2.83-3.63,2.87-2.8.04-5.6.06-8.4.06Z"></path><path d="m116.2,160.66c.03-10.04,5.8-19.13,14.46-22.64,5.68-2.3,11.12-1.88,16.19,1.74.83.6,1.47,1.29,1.85-.48.42-1.93,2.29-3,4.05-2.66,1.99.38,3.32,2.06,3.09,4.14-.45,4.12-.98,8.23-1.49,12.35-.52,4.23-1.09,8.46-1.58,12.69-.21,1.8.28,3.52.96,5.19.58,1.42,1.62,2.01,3.14,2.19,3,.37,4.44,3.19,2.98,5.6-.75,1.24-1.89,1.76-3.3,1.73-3.55-.09-6.5-1.49-8.44-4.48-.93-1.43-1.48-1.22-2.65-.36-9.09,6.68-21.22,4.25-26.82-5.29-1.58-2.7-2.44-6.13-2.44-9.71Zm17.85,11.35c.56-.08,1.44-.19,2.31-.34,4.76-.86,8.89-4.98,9.36-9.27.29-2.65.51-5.31,1.04-7.92.53-2.58-.08-4.57-1.84-6.55-3.95-4.44-8.37-5.23-13.46-2.11-5.75,3.53-8.99,11.26-7.5,17.9.99,4.42,5.49,8.24,10.08,8.28Z"></path></g></svg>