<svg xmlns="http://www.w3.org/2000/svg" xmlns:xlink="http://www.w3.org/1999/xlink" width="119" height="119" viewBox="0 0 119 119">
  <defs>
    <filter id="Path_856" x="0" y="0" width="119" height="119" filterUnits="userSpaceOnUse">
      <feOffset dx="2" dy="2" input="SourceAlpha"/>
      <feGaussianBlur stdDeviation="1.5" result="blur"/>
      <feFlood flood-opacity="0.161"/>
      <feComposite operator="in" in2="blur"/>
      <feComposite in="SourceGraphic"/>
    </filter>
  </defs>
  <g id="Group_967" data-name="Group 967" transform="translate(-754.5 -3483.5)">
    <g id="Group_597" data-name="Group 597" transform="translate(-426.089 -930.585)">
      <g id="Group_580" data-name="Group 580" transform="translate(1183.089 4416.585)">
        <g id="Group_579" data-name="Group 579">
          <g transform="matrix(1, 0, 0, 1, -2.5, -2.5)" filter="url(#Path_856)">
            <path id="Path_856-2" data-name="Path 856" d="M1293.089,4471.585a55,55,0,1,1-55-55,55,55,0,0,1,55,55" transform="translate(-1180.59 -4414.08)" fill="#fff"/>
          </g>
        </g>
      </g>
      <g id="Group_581" data-name="Group 581" transform="translate(1188.328 4421.265)">
        <path id="Path_857" data-name="Path 857" d="M1288.7,4471.449a50.184,50.184,0,1,1-50.183-50.184,50.185,50.185,0,0,1,50.183,50.184" transform="translate(-1188.328 -4421.265)" fill="#ffc714"/>
      </g>
      <g id="Group_582" data-name="Group 582" transform="translate(1215.522 4446.169)">
        <path id="Path_858" data-name="Path 858" d="M1216.5,4488.756h-.037a5.317,5.317,0,0,1-3.52-1.818,5.479,5.479,0,0,1-1.434-3.609c.117-2.044,1.874-3.229,4.1-4.729.361-.239.736-.469,1.125-.764a73,73,0,0,0,8.68-7.434,17.87,17.87,0,0,0,1.246-1.406c.764-.9,2.156-2.554,4.912-5.774.5-.586.966-1.129,1.406-1.64a24.516,24.516,0,0,1-2.015-2.442c-.937-1.317-1.481-2.306-1.406-3.469a2.9,2.9,0,0,1,.576-1.537,2.734,2.734,0,0,1-.389-.689c-.121-.276-.154-.328-.239-.365-.225-.089-.567.089-1.059.37a2.8,2.8,0,0,1-2.306.515,2.968,2.968,0,0,1-1.748-2.484c-.145-1.19.408-2.1,2.967-4.855,3.281-3.562,4.391-4.148,5.718-4.181,1.186,0,1.978.286,2.343.937a2.116,2.116,0,0,1,0,1.8,2.114,2.114,0,0,0-.117,1.406,1.406,1.406,0,0,0,.577.736.588.588,0,0,0,.14.061l.178.061a2.823,2.823,0,0,1,1.209-.469c.985-.15,1.805.188,3.281.8a18.826,18.826,0,0,1,5.034,3.192,19.437,19.437,0,0,1,3.792,3.712c1.11,1.495,2.067,2.779,2.053,4.556a4.692,4.692,0,0,1-.4,1.874l.1.042c.764.31,1.045.418,1.359.375a2.222,2.222,0,0,0,.849-.295,2.012,2.012,0,0,1,1.331-.3,2.42,2.42,0,0,1,1.64,1.139h0c1.022,1.767-1.064,4.317-3.477,7.265-1.561,1.907-2.962,3.281-4.748,3.66a2.906,2.906,0,0,1-2.606-.384,2.39,2.39,0,0,1-.755-1.453,2.026,2.026,0,0,1,.216-1.209,2.91,2.91,0,0,0,.215-.647,2.45,2.45,0,0,0-.3-1.7c-.4.244-.816.469-1.238.689a.689.689,0,0,1-.553.038c-.642-.225-1.293-.469-1.926-.764a24.054,24.054,0,0,1-4.064-2.344c-1.739,1.777-4.19,4.317-6.763,7.467-4.532,5.554-6.791,8.324-7.7,9.791-.229.36-.468.726-.675,1.082C1220.418,4486.235,1218.866,4488.756,1216.5,4488.756Z" transform="translate(-1211.507 -4442.445)"/>
      </g>
      <g id="Group_583" data-name="Group 583" transform="translate(1248.727 4468.684)">
        <path id="Path_859" data-name="Path 859" d="M1244.494,4467.853a.7.7,0,0,1-.586-.31.708.708,0,0,1,.193-.979,11.383,11.383,0,0,0,1.954-1.631.7.7,0,0,1,1.027.937,12.826,12.826,0,0,1-2.2,1.875A.665.665,0,0,1,1244.494,4467.853Z" transform="translate(-1243.789 -4464.777)"/>
      </g>
      <g id="Group_584" data-name="Group 584" transform="translate(1233.867 4453.771)">
        <path id="Path_860" data-name="Path 860" d="M1230.729,4455.559a.7.7,0,0,1-.587-1.086h0a23.07,23.07,0,0,1,2.643-3.323.7.7,0,0,1,.988-.006l.006.006a.706.706,0,0,1,0,.993,21.52,21.52,0,0,0-2.479,3.117A.708.708,0,0,1,1230.729,4455.559Z" transform="translate(-1230.027 -4450.941)"/>
      </g>
      <g id="Group_585" data-name="Group 585" transform="translate(1237.198 4464.744)">
        <path id="Path_861" data-name="Path 861" d="M1236.963,4464.867a.67.67,0,0,1-.427-.15l-2.751-2.128h0a.7.7,0,0,1-.7-.7.776.776,0,0,1,.422-.7.937.937,0,0,1,.937.122l2.953,2.3a.7.7,0,0,1-.436,1.256Z" transform="translate(-1233.082 -4461.109)"/>
      </g>
      <g id="Group_586" data-name="Group 586" transform="translate(1235.933 4483.7)">
        <path id="Path_862" data-name="Path 862" d="M1234.891,4488.8c-1.491,0-3.122-.276-3.8-2.067a4.514,4.514,0,0,1,.525-3.782,2.647,2.647,0,0,1,2.09-1.294h0a.586.586,0,0,0,.375-.112c.183-.127.225-.375.277-.877a3.049,3.049,0,0,1,.206-1.007c.656-1.5,2.92-1.43,6.336-1.327.821.028,1.707.057,2.653.061,1.135,0,2.217,0,3.173-.028,3.614-.07,5.8-.108,6.412,1.406a1.959,1.959,0,0,1,.127.75.839.839,0,0,0,.093.469c.174.323.5.468,1.027.661a3.359,3.359,0,0,1,1.406.81,4.859,4.859,0,0,1,1.036,2.578,2.746,2.746,0,0,1-.572,2.161,2.779,2.779,0,0,1-2.011,1.031c-5.554.309-11.408.469-17.4.53a8.417,8.417,0,0,0-.885.032C1235.655,4488.831,1235.252,4488.8,1234.891,4488.8Z" transform="translate(-1230.89 -4478.291)"/>
      </g>
      <g id="Group_587" data-name="Group 587" transform="translate(1237.721 4487.534)">
        <path id="Path_863" data-name="Path 863" d="M1233.738,4482.363" transform="translate(-1233.738 -4482.363)"/>
      </g>
      <g id="Group_588" data-name="Group 588" transform="translate(1238 4486.61)">
        <path id="Path_864" data-name="Path 864" d="M1234.432,4483.043a.7.7,0,1,1-.029-1.406l5.85-.206a.688.688,0,0,1,.725.65v.025a.7.7,0,0,1-.675.726l-5.826.211Z" transform="translate(-1233.714 -4481.43)"/>
      </g>
      <g id="Group_589" data-name="Group 589" transform="translate(1252.593 4486.357)">
        <path id="Path_865" data-name="Path 865" d="M1247.93,4482.691a.7.7,0,1,1,0-1.406l4.724-.084h0a.7.7,0,1,1,0,1.406l-4.729.084Z" transform="translate(-1247.227 -4481.201)"/>
      </g>
      <g id="Group_590" data-name="Group 590" transform="translate(1237.307 4485.063)">
        <path id="Path_866" data-name="Path 866" d="M1238.669,4479.7c-1.463,0-2.63.1-2.813.53a2.169,2.169,0,0,0-.1.572,2.344,2.344,0,0,1-.876,1.9,1.986,1.986,0,0,1-1.107.361h0a1.264,1.264,0,0,0-.984.661,3.179,3.179,0,0,0-.384,2.508c.469,1.185,1.612,1.218,3.468,1.134.324,0,.638-.028.938-.033,5.966-.042,11.8-.22,17.341-.525a1.372,1.372,0,0,0,.994-.511,1.322,1.322,0,0,0,.281-1.054,3.78,3.78,0,0,0-.68-1.875,2.323,2.323,0,0,0-.848-.469,2.965,2.965,0,0,1-1.776-1.326,2.257,2.257,0,0,1-.253-1.092.7.7,0,0,0,0-.234c-.249-.614-2.71-.568-5.081-.521-.966,0-2.058.038-3.215.028-.938,0-1.875-.032-2.686-.061C1240.1,4479.72,1239.358,4479.7,1238.669,4479.7Z" transform="translate(-1232.301 -4479.696)" fill="#fff"/>
      </g>
      <g id="Group_591" data-name="Group 591" transform="translate(1216.929 4447.577)">
        <path id="Path_867" data-name="Path 867" d="M1229.393,4451.641a1.748,1.748,0,0,1,.67.131,1.872,1.872,0,0,1,.989,1.106c.118.272.174.375.31.469l.065.023a.708.708,0,0,1,.347.939.692.692,0,0,1-.108.167,2.014,2.014,0,0,0-.7,1.289c-.042.572.122,1.144,1.13,2.541a23.643,23.643,0,0,0,2.343,2.751.7.7,0,0,1,0,.937q-.834.961-1.819,2.114c-2.755,3.22-4.143,4.86-4.907,5.769a17.636,17.636,0,0,1-1.331,1.5,72.753,72.753,0,0,1-8.839,7.611l-1.139.774c-1.978,1.331-3.408,2.3-3.487,3.642a4.207,4.207,0,0,0,1.073,2.615,4.12,4.12,0,0,0,2.493,1.35h0c1.58,0,2.934-2.2,4.364-4.523.225-.366.469-.731.684-1.1.97-1.542,3.248-4.331,7.785-9.889,2.85-3.487,5.526-6.215,7.293-8.02a.707.707,0,0,1,.937-.075,23.552,23.552,0,0,0,4.294,2.536c.506.22,1.026.431,1.542.619a14.361,14.361,0,0,0,1.335-.788.7.7,0,0,1,.8,0,2.458,2.458,0,0,1,.609.638,3.836,3.836,0,0,1,.544,2.812,4.224,4.224,0,0,1-.309.937.759.759,0,0,0-.108.469,1.052,1.052,0,0,0,.286.576c.347.31,1.04.15,1.373.075,1.406-.314,2.6-1.5,3.97-3.177,1.64-2,3.881-4.743,3.346-5.671a1.009,1.009,0,0,0-.637-.469.811.811,0,0,0-.469.145,3.521,3.521,0,0,1-1.336.469,3.943,3.943,0,0,1-2.066-.469l-.179-.07c-.271-.113-.468-.211-.67-.3a.715.715,0,0,1-.356-.426.73.73,0,0,1,.066-.553,3.6,3.6,0,0,0,.557-1.875c0-1.3-.74-2.311-1.771-3.7a18.179,18.179,0,0,0-3.553-3.463,17.611,17.611,0,0,0-4.649-2.972,5.3,5.3,0,0,0-2.55-.7,1.6,1.6,0,0,0-.937.492.687.687,0,0,1-.6.183.712.712,0,0,1-.469-.342,1.962,1.962,0,0,1-.407-.188,2.723,2.723,0,0,1-1.186-1.523,3.421,3.421,0,0,1,.1-2.278c.08-.253.178-.571.127-.661,0,0-.16-.281-1.125-.243-.75,0-1.533.3-4.72,3.749-2.31,2.494-2.671,3.164-2.606,3.75a1.618,1.618,0,0,0,.788,1.317c.29.089.637-.089,1.176-.4A3.375,3.375,0,0,1,1229.393,4451.641Z" transform="translate(-1212.915 -4443.838)" fill="#fff"/>
      </g>
      <g id="Group_592" data-name="Group 592" transform="translate(1234.396 4468.333)">
        <path id="Path_868" data-name="Path 868" d="M1233.916,4468.214a.71.71,0,0,1-.469-.174l-2.7-2.381a.705.705,0,1,1,.937-1.054l2.7,2.381a.7.7,0,0,1,.073.985l-.008.008A.714.714,0,0,1,1233.916,4468.214Z" transform="translate(-1230.511 -4464.427)"/>
      </g>
      <g id="Group_593" data-name="Group 593" transform="translate(1217.553 4484.316)">
        <path id="Path_869" data-name="Path 869" d="M1219.9,4484.885a.665.665,0,0,1-.361-.1,12.647,12.647,0,0,1-3.121-2.98c-.441-.535-.858-1.041-1.317-1.505a.7.7,0,0,1,1.008-.984c.5.511.937,1.059,1.406,1.593a11.515,11.515,0,0,0,2.76,2.686.7.7,0,0,1-.361,1.3Z" transform="translate(-1214.902 -4479.105)"/>
      </g>
      <g id="Group_594" data-name="Group 594" transform="translate(1235.167 4451.303)">
        <path id="Path_870" data-name="Path 870" d="M1231.666,4459.477a.7.7,0,0,1-.468-1.214,106.865,106.865,0,0,0,8.816-9.472.7.7,0,1,1,1.151.807.711.711,0,0,1-.069.084,107.342,107.342,0,0,1-8.938,9.626A.719.719,0,0,1,1231.666,4459.477Z" transform="translate(-1230.978 -4448.491)"/>
      </g>
      <g id="Group_595" data-name="Group 595" transform="translate(1244.368 4459.129)">
        <path id="Path_871" data-name="Path 871" d="M1240.128,4466.67a.7.7,0,0,1-.469-1.214,106.719,106.719,0,0,0,8.816-9.473.7.7,0,1,1,1.083.891,107.6,107.6,0,0,1-8.938,9.627A.728.728,0,0,1,1240.128,4466.67Z" transform="translate(-1239.439 -4455.684)"/>
      </g>
      <g id="Group_596" data-name="Group 596" transform="translate(1239.136 4486.557)">
        <path id="Path_872" data-name="Path 872" d="M1234.377,4482.653a.685.685,0,0,1,.138-1.106,1.136,1.136,0,0,1,.672-.173c4.651.164,9.375.208,14.025.136h.235q1.749-.058,3.5.052a.811.811,0,1,1-.029,1.583,1.117,1.117,0,0,1-.146-.011c-1.087-.063-2.178-.078-3.266-.045l-.24,0c-4.693.08-9.45.036-14.147-.133A1.08,1.08,0,0,1,1234.377,4482.653Z" transform="translate(-1234.155 -4481.373)"/>
      </g>
    </g>
  </g>
</svg>
