<svg xmlns="http://www.w3.org/2000/svg" xmlns:xlink="http://www.w3.org/1999/xlink" width="119" height="119.001" viewBox="0 0 119 119.001"><defs><style>.a{fill:#fff;}.b{fill:#e4e4e4;}.c{fill:#ffc729;stroke:#000;stroke-linecap:round;stroke-linejoin:round;stroke-width:2px;}.d{filter:url(#a);}</style><filter id="a" x="0" y="0" width="119" height="119.001" filterUnits="userSpaceOnUse"><feOffset dx="2" dy="2" input="SourceAlpha"/><feGaussianBlur stdDeviation="1.5" result="b"/><feFlood flood-opacity="0.22"/><feComposite operator="in" in2="b"/><feComposite in="SourceGraphic"/></filter></defs><g transform="translate(-305.5 -860.5)"><g transform="translate(4327.589 -3378.06)"><g class="d" transform="matrix(1, 0, 0, 1, -4022.09, 4238.56)"><path class="a" d="M-3909.589,4296.061a55,55,0,0,1-55,55,55,55,0,0,1-55-55,55,55,0,0,1,55-55,55,55,0,0,1,55,55" transform="translate(4022.09 -4238.56)"/></g><path class="b" d="M-3915.448,4296.827c.084.165.288.07.223-.379l-.347-.314Z"/><path class="b" d="M-3914.989,4293.781c-.187-.524-.5-1.11-.785-.745.343.5.217.632.624,1.175.061.451-.066.792-.192.721.093.156-.037.7.183.937a3.213,3.213,0,0,0-.052-2.108C-3915.146,4293.59-3915.052,4293.746-3914.989,4293.781Z"/><path class="b" d="M-3935.469,4255.9l.209.2A1.48,1.48,0,0,0-3935.469,4255.9Z"/><path class="b" d="M-3961.246,4246.544c.212,0,.3-.025.316-.055C-3961.128,4246.5-3961.291,4246.513-3961.246,4246.544Z"/><path class="b" d="M-3966,4246.082l.282.008A.518.518,0,0,0-3966,4246.082Z"/><path class="b" d="M-3935.469,4255.9l-.534-.529C-3936.106,4255.429-3935.744,4255.665-3935.469,4255.9Z"/><path class="b" d="M-3916.491,4287.864a1.666,1.666,0,0,0,.145.372l-.09-.358A.217.217,0,0,1-3916.491,4287.864Z"/><path class="b" d="M-3926.256,4263.948l.152.167a1.174,1.174,0,0,0,.23.053Z"/><path class="b" d="M-3920.774,4271.613c-.1-.189-.382-.111-.53-.118a.776.776,0,0,1,.407.3A.293.293,0,0,0-3920.774,4271.613Z"/><path class="b" d="M-3915.8,4285.607l.1.247Z"/><path class="b" d="M-3930.953,4259.1a.218.218,0,0,0,0-.133C-3930.974,4258.993-3930.971,4259.041-3930.953,4259.1Z"/><path class="b" d="M-3917.253,4307.24c.018.011.033,0,.049.01C-3917.218,4307.192-3917.234,4307.173-3917.253,4307.24Z"/><path class="b" d="M-3914.71,4296.827l.007.15a.543.543,0,0,0,.156.032Z"/><path class="b" d="M-3974.776,4246.672h.04C-3974.513,4246.6-3974.642,4246.63-3974.776,4246.672Z"/><path class="b" d="M-4014.39,4307.609c.02-.933.682,1.363.615-.021C-4013.85,4307.738-4014.513,4306.474-4014.39,4307.609Z"/><path class="b" d="M-3916.49,4287.623l-.059-.371A2.082,2.082,0,0,0-3916.49,4287.623Z"/><path class="b" d="M-4013.775,4307.588h0l-.01-.141Z"/><path class="b" d="M-3993.3,4254.673a.572.572,0,0,0,.235-.022C-3993.083,4254.631-3993.14,4254.63-3993.3,4254.673Z"/><path class="b" d="M-3979.633,4248.5l-.36.09A2.664,2.664,0,0,0-3979.633,4248.5Z"/><path class="b" d="M-3999.111,4259.89a1.6,1.6,0,0,0-.419.351.492.492,0,0,0,.086-.032A.8.8,0,0,1-3999.111,4259.89Z"/><path class="b" d="M-4004.557,4265.86a1.4,1.4,0,0,0,.134-.085l.142-.214Z"/><path class="b" d="M-3927.509,4328.236a1.252,1.252,0,0,1,.436-.1C-3927.307,4328.092-3926.592,4327.2-3927.509,4328.236Z"/><path class="b" d="M-3916.336,4287.831a.277.277,0,0,1-.154-.208c.018.088.036.172.054.255C-3916.392,4287.893-3916.352,4287.891-3916.336,4287.831Z"/><path class="b" d="M-3997.829,4261.721l-.941.8C-3998.5,4262.307-3998.154,4262.017-3997.829,4261.721Z"/><path class="b" d="M-3978.032,4343.564l.284.038A.63.63,0,0,0-3978.032,4343.564Z"/><path class="b" d="M-4001.2,4265.244a2.764,2.764,0,0,0-.616.388.459.459,0,0,0-.04.152Z"/><path class="b" d="M-3927.069,4328.132h0Z"/><path class="b" d="M-3922.978,4321.087c-.614.994.025.656.077.978-.643,1.261-.569.414-.977.72a8.219,8.219,0,0,0-.4,1.15,3.4,3.4,0,0,1-.468.916c-.079,0-.173.092-.146-.071-.325.912-1.625,2.221-2.011,3.306a.333.333,0,0,1-.166.046.558.558,0,0,1,.5.2c-.356.4-.493.889-.812.88a.7.7,0,0,0,.217-.485l-.3.483c-.6.144.424-.644.228-.81a18.28,18.28,0,0,1-1.924,2.565c-.361-.107,1.229-1.522.261-.906l.961-.864c-1.06.369.551-.551-.482-.266a10.165,10.165,0,0,0-1.167,1.34,5.757,5.757,0,0,1-1.212,1.293c-.148.39.288.116.138.507-1.555,1.871-1.966.633-2.963,2.152a1.905,1.905,0,0,1-1.237,1.471l.108-.559c-1.326.943-.417,1-1.943,1.82.158-.307.956-.874.731-.763-1.062.416-.5.646-1.187,1.16l-.336-.182c-.726.471-1.465,1.007-2.228,1.56a16.123,16.123,0,0,1-2.406,1.568c.05-.137.3-.374-.156-.271a32.919,32.919,0,0,1-3.408,1.659c-1.228.387-2.458.727-3.581,1.032l-.747.586c-.2.069-.411-.026-.209-.131-.913.119.009.19-.382.409-.5.149-.712.008-.418-.158-.742.319-1.82.734-2.932,1.086-.278.086-.556.178-.835.244-.282.049-.561.092-.832.126a9.746,9.746,0,0,1-1.481.091l.314-.136c-1.318.081-1.4.821-2.65.737l.228-.088-4.382.227c-.357.015-.709.038-1.053.036l-1-.092a13.21,13.21,0,0,1-1.8-.307c-.22.2-.929.117-1.608.057-.682-.029-1.318-.2-1.447.1a20.056,20.056,0,0,0-3.347-1.111c-.6-.1-.968.175-1.725.053l.051-.3-1.078.057-.44-.494-.711-.1c.27.088.549.284.484.358a6.587,6.587,0,0,1-1.709-.515c-.492-.25-.828-.529-.818-.6l-2.561-.66c.1-.1.53.017.885.062-1.432-.188-.122-.39-1.433-.562.135.124-.157.138-.208.186a16.73,16.73,0,0,0-2.845-1.443l.28-.1a56.485,56.485,0,0,1-5.524-2.991c.616.489.266.708-.309.4l-.041-.4c-.468-.049.51.452-.36.213-.652-.511-.238-.63.2-.437l-.863-.5c.009-.115.226-.017.345-.082-.446-.081-1.174-1.288-1.855-1.358l.014-.11-1.165-.85c-.338-.261-.62-.522-.907-.756-.568-.477-1.1-.919-1.767-1.511-.219.18-.693-.334-1.249-.532-.826-1.042-1.641-2.27-2.723-3.422-.821-.762-.391-.1-.832-.385.149-.229-.816-1.48-.18-.936-.584-.747-.957-1.225-1.386-1.742l-.718-.842-.883-1.22c.047.28.162.558.009.474-.264-.354-.428-.912-.29-.922l.082.084a11.762,11.762,0,0,1-2.005-3.913c-.247-.708-.49-1.394-.759-2.009a9.467,9.467,0,0,0-.429-.866,4.895,4.895,0,0,0-.415-.762l.066.1-1.026-2c-.311-.978.393.515.282-.251a11.707,11.707,0,0,1-.73-1.48c-.143-.478-.245-.929-.341-1.367a14.2,14.2,0,0,0-.736-2.63,2.693,2.693,0,0,0,.042-.7,6.9,6.9,0,0,0-.028-.857c-.054-.61-.173-1.291-.3-1.989s-.282-1.411-.362-2.083a8.578,8.578,0,0,1,.073-1.83l-.171.13c-.2-.522.069-.65.09-1.042-.135.061-.131.585-.244.259a30.062,30.062,0,0,1,.178-6.925c.148-1.162.455-2.306.674-3.451l.351-1.709q.252-.834.5-1.661c.464-1.609-.651-1.164.291-3.121l.165.682a29.934,29.934,0,0,1,1.55-4.943c.749-1.567,1.5-3.119,2.117-4.686-.035.208.037.253-.1.549.532-.511,1.351-2.226,1.182-2.347.29-.435.214-.012.465-.233.495-.518.642-1.7,1.081-1.86.072-.028-.059.2-.113.319.172-.439,1.308-1.7.817-1.511.871-.915,1.314-2.027,2.1-2.679.207-.687,1.559-1.492,1.375-1.941.283.38,1.708-1.41,2.206-2.047-.1.277.609-.362.508-.015.664-.611,1.221-1.231.951-1.3,1.534-.763,2.342-2.462,3.5-2.493q.759-.673,1.49-1.325l1.568-1.116,1.548-1.075.768-.522.807-.436c.073.237-.556.482-1.091.85-.546.35-1.07.687-.9.864.466-.337.875-.656,1.258-.96.4-.277.784-.518,1.167-.765a17.237,17.237,0,0,1,2.614-1.4c.559-.2-.225.326-.372.482a16.116,16.116,0,0,1,3.069-1.312c.508-.184,1.008-.368,1.5-.564l.724-.306.728-.264c.006.041-.2.14-.388.225.388-.114.928-.169.827-.355l-.366.151c-.716-.123,1.394-1,1.432-1.172-.524.742,2.017-.366,1.125.63.248-.1.55-.282.461-.4.393-.06.53-.012.176.24a10.484,10.484,0,0,0,1.1-.454,3,3,0,0,1,1.042-.278c.012.1-.244.176-.357.311a6.086,6.086,0,0,1,2.371-.668c-.058.07.079.127-.249.175a20.679,20.679,0,0,1,5.318-.764c-.608.463.718.106.833.473a7.239,7.239,0,0,1,1.122-.1l-.45-.205a22.86,22.86,0,0,1,2.718,0l-.743.117,1.856.022-1.04-.194c1.017-.141-.078-.477,1.243-.306-.274.031,1,.026,1.488.367h0a4.334,4.334,0,0,1,1.738.113c.172.147-.213.385-.1.482.523-.22,2.312.229,2.973.065-.215.025-.265.215-.208.271l.447-.147c.43.195.485.25.378.383,1.328.39-.318-.57,1.228.038-.13-.012-.079.04-.349.01a20.746,20.746,0,0,0,2.335.574,9.648,9.648,0,0,1,2.183.731c.295.508-1.271-.368-.893.108,1.029.341,2.124.622,3.212.921a16.876,16.876,0,0,1,3.035,1.27l-.337-.209c.5-.338,1.316.9,2.369,1.18-.241-.106-.438.09-.347.068,1.185.832,2.6,1.386,4.541,2.449l-.295-.05c.614.611,1.757,1.4,2.456,2,.3.056.712.39.578.043a9.3,9.3,0,0,0,.711.8,9.393,9.393,0,0,0,.72.745,19.917,19.917,0,0,0,1.556,1.267,12.7,12.7,0,0,1,1.513,1.238,7.223,7.223,0,0,1,1.138,1.549c-.2-.222-.57-.45-.409-.272l1.535,1.5c.061-.277-.083-.3-.252-.753a3.9,3.9,0,0,1,1.141.894c-.783-.615-.257.228-.119.652.013-.1.159-.036.194-.11.353,1.159.476-.138,1.184,1.271l-.145.008a10.087,10.087,0,0,1,1.189,1.277c-.063.361-.47-.42-.671-.323.523.69,1.478,1.074,1.639,1.92a9.708,9.708,0,0,0-.825-.982,5.547,5.547,0,0,0,.629,1.494l-.026-.057.641,1.329-.122-.363a2.96,2.96,0,0,1,1.212,1.258c.156.259.318.528.5.8a4.427,4.427,0,0,0,.619.857c-1-1.091-.324-.1-.64-.057.087.376.248.928.1.821.519.513.323,1.115,1.069,1.84-.07.079.312.668.02.626.459.773.064-.258.208-.24a5.5,5.5,0,0,1,.866,2.227,8.73,8.73,0,0,0,1.048,2.651c.655,1.593,1.017,1.827,1.59,3.349-.017.563-.457-.347-.457-.347a9.732,9.732,0,0,0,.541,2.289c-.109-.149-.153.035-.223.3.123.644.415.372.405,1.256a2.229,2.229,0,0,1-.485-.583c.2.746.5,1.474.708,2.259-.136.232-.329-.446-.481-.707a11.368,11.368,0,0,0,.759,2.539l.064-.589c.03.328-.21.19-.29-.045-.326-.739-.075-1.111.015-1.169l.149.56c.478-.655-.441-2.274-.58-3.412l.482.4-.519-1.113c.056-.267.26-.488.417.066.046-.862-.314-.687-.257-1.435.015-.085.043-.054.078.013l-.324-.764c.125.135.251-.2.318.3-.135-1.491-.892-2.216-.727-2.839l.055.112c-.733-1.907-.332-.108-1.172-1.431l.358-1.212-.356-.085c-.062-.2-.183-.6-.043-.57-.464-.661-.078.172-.418-.183a6.121,6.121,0,0,0-.542-1.719c-.266-.536-.465-.994-.293-1.2-.369-.23.256.944-.359.04.341-.5-.621-1.083-.8-2.019.363.132.618.991.429.044a1.579,1.579,0,0,1-.643-1.031,4.778,4.778,0,0,0-.574-1.259c-.334.15-1.014-1.379-1.8-2.435.206-.036-1.254-2.128-1.892-3.187l.07-.008c-.453.049-1.089-1.052-1.783-1.666.188-.112.377-.055.773.265-.179-.226-.385-.431-.577-.648a2.454,2.454,0,0,1-.863-.621l.352-.02a36.242,36.242,0,0,1-2.7-2.687c-.236.13.361,1.291-.9.375.054-.138.175-.348.516-.115a2.1,2.1,0,0,1-.589-.46l.621.25c-.426-.525-.394-.095-.775-.471.143-.137-.2-.37-.035-.433.115.078.292.375.5.457a4.735,4.735,0,0,1-.971-1.29c-.035.119-.177.2-.523-.082-.861-.762-.136-.444-.57-.975-.281-.1-.784-.648-.986-.428a.7.7,0,0,1-.288-.489c-.56-.256-2.258-1.642-1.9-.985l.11.108-.085-.048,0,0,0,0a9.9,9.9,0,0,1-1.244-.805l-1.247-.845a23.814,23.814,0,0,0-2.505-1.618l.051-.085a19.052,19.052,0,0,0-3.155-1.268c-.306-.147-.649-.512-.469-.556a12.705,12.705,0,0,1-2.078-.878c.9.146-.231-.249.9.2a6.634,6.634,0,0,0-2.494-.886c.484-.092-.71-.6-1.25-.716l.7.449a16.731,16.731,0,0,1-1.6-.59l.379-.216a9.125,9.125,0,0,0-3.169-.735,7.3,7.3,0,0,1-2.733-.722c-.661.134,1.239.355.632.537a20.913,20.913,0,0,1-2.44-.9c-1.46-.388-1.437.227-2.967-.041.189.128.34.453-.817.506-1.067-.1-1.294-.564-.6-.625.261,0,.384.048.37.087.353-.025.818-.052.4-.2l-.15.111c-.53-.148-2.029-.211-1.669-.388-.83.072-.359.177.246.269a19.99,19.99,0,0,0-3.616-.189c.23.054.442.183.215.193-2.107-.041-.918.272-2.331.4-.818-.139.26-.446-1.162-.221-.887-.078-.216-.305.129-.419a5.378,5.378,0,0,1-.944.123,7.157,7.157,0,0,1-.865.063c-.547.011-1.032-.021-1.409.015l.677-.2a7.63,7.63,0,0,1-1.087.221l.428.175c-.409.02-.751.071-.759-.027-.39.217.378.341-.4.676-.553-.025-1.6.349-1.838.121,1.692-.205-.254-.3,1.165-.577a4.9,4.9,0,0,1-1.019.155c-.067-.019.042-.081.15-.111-1.655.108-.658.528-2.3.936.165-.226-.464-.229-.724-.123.665-.167.39.206-.177.492a6.471,6.471,0,0,0-1.66.518l.643-.1c-.163.218-.69.326-1.37.656-.1-.109.61-.324.34-.29-.68.581-1.875.342-2.9.941-.551.074-.17-.293-.648-.2-1.154.642-1.407.331-2.588,1.085.461.043.5-.038-.277.592l1.968-1.133-1.165.945a15.939,15.939,0,0,1,1.626-.872c-.567.426-.509.377-.145.407-.979.075-1.566.985-2.629,1.229l-.232-.544a6.784,6.784,0,0,0-2.059,1.063,13.725,13.725,0,0,1-2.229,1.493l.631-.263c-.118.346-1.091.7-1.62,1.134-.054-.2-.459-.039-.774.016.111.1-1.248.915-1.169,1.348l-.906.353c-1.426.946-1.234,1.563-2.455,2.62.222-.492-.419-.1.292-.951-.406.365-.793.668-.71.777-.319.123-.938,1.212-1.435,1.411-.11.217-.022.416-.483.813-.077.017-.066-.07-.066-.07.05.055-.576.768-.057.537a9.251,9.251,0,0,0-2.307,2.128c-.373.43-.745.852-1.1,1.221a4.572,4.572,0,0,1-.967.937l-2.075,3.052c-.014-.092-.08-.058.043-.221-.927,1.17,0,1.088-1.042,2.411-.72.57.316-.854-.065-.458-.659-.122-1.029,1.761-1.856,2.6l.086-.267c-.577.687-.707,2.032-1.363,3.288,0,0-.022-.086-.086-.048-.184.987-.639,2.772-1.035,4.069-.095-.481.086-.626-.247-.47-.175.586.452-.026.1,1.136-.26.327-.7,1.106-.967,1.148.085-.376.243-.729.361-1.1a1.585,1.585,0,0,0-.477.946,5.831,5.831,0,0,1-.183,1.051l-.13-.119c-.4,1.737-.019,1.853-.517,3.68l.164-.165c.147,1.08-.368.81-.257,1.878l-.436.243c.006.7-.021,2.421-.056,3.637a14.29,14.29,0,0,1-.194-3.063,10.435,10.435,0,0,0-.179,2.665,2.662,2.662,0,0,1,.06-.887,14.385,14.385,0,0,1,.2,3.3c-.376-.142-.468.736-.547,1.771a11.323,11.323,0,0,1-.291,2.723,25.934,25.934,0,0,1,.255,3.636c.127,1.236.234,2.534.47,3.922.435-1.091.141.807.715.519a4.394,4.394,0,0,1,.2.931l.135,1.993c-.056.5-.286-.568-.4-.477.313,1.4-.1.648-.019,1.618.162-.248.427.4.552,1.219l-.018-1.2a4.824,4.824,0,0,1,.434,1.822,3.587,3.587,0,0,0,.556,1.8l-.4-.538c.233.471.563,1.375.936,2.258l.287.65c.118.2.237.4.356.573a3.77,3.77,0,0,0,.694.827c.016.194-.03.485-.269.091.253.567.559,1.149.884,1.73a13.964,13.964,0,0,0,1.054,1.692,16.481,16.481,0,0,1,1.843,2.987l-.223-.078a4.389,4.389,0,0,1,.863,1.085c-.069.011-.234-.065-.113.112a6.556,6.556,0,0,1,1.244,1.373l-.449-.319a11.851,11.851,0,0,0,1.921,2.325c.685.572,1.382,1.059,2.092,1.77-.313.273.809,1.838,1.482,2.516l-.069.023a29.679,29.679,0,0,0,2.926,2.411c.949.691,2,1.2,3.076,1.925a7.838,7.838,0,0,0,1.126,1.137,18.945,18.945,0,0,0,1.734,1.172c1.274.781,2.618,1.687,3.764,2.317-.322-.245.216-.277.649-.117.512.346,1.643.453,1.388.777l-.193-.1c.254.545,1.412,1.056,2.349,1.359l.347-.435a8.244,8.244,0,0,0,1.913,1.01,11.812,11.812,0,0,0,2.233.687,9.334,9.334,0,0,1,3.463,1.069,14.163,14.163,0,0,0,2.009.12l-.083.274c.842.165,1.475.289,2.161.4l1.1.167.641.084.743.017-.452.179c1.2.081,1.574-.736,2.661-.7l.312.438a20.164,20.164,0,0,0,6.234-.137c-.029.063-.08.188-.416.223.987.054,3.814-.167,3.379-.675.075.36,2.138-.265,3.2-.644l-.113.316a5.693,5.693,0,0,1,2.1-1.108c.31-.042.32.148-.1.182,1.044-.118.715-.456,1.971-.626l-.4.287a2.213,2.213,0,0,0,1.428-.7,3.71,3.71,0,0,1,2.155-.446,1.951,1.951,0,0,1,1.173-.734c.115.059-.078.193-.176.259a7.517,7.517,0,0,0,1.129-.378,8.49,8.49,0,0,0,.837-.493,4.868,4.868,0,0,1,1.563-.745.263.263,0,0,0,.26.059c-1.285.612-2.324,1.094-2.235,1.029.1.237,1.163-.225.475.5a13.612,13.612,0,0,1,3.072-2.028.554.554,0,0,1,.176.014l-.092.076a2.166,2.166,0,0,0,.619-.349,7.851,7.851,0,0,0,.835-.416c.219.116,1.193-.59,1.691-.881-.187-.215.478-.566-.246-.4.088-.03-.075.085-.394.293a1.648,1.648,0,0,0-.194.151l.021-.041-1.209.755a2.692,2.692,0,0,1,1.278-.9c.158-.307.335-.631.442-.8a8.258,8.258,0,0,0,1.507-.355,4.261,4.261,0,0,1,1.057-.295c.66-.591,1.473-1.231,2.19-1.859a11.7,11.7,0,0,0,.969-.924,4.144,4.144,0,0,0,.569-.921c.321-.383.52-.268.713-.331a4.838,4.838,0,0,0-.5.618c.647-.77,2.146-2.022,2.062-2.445,1.028-.732-.255.741.921-.509l-.077.251a12.974,12.974,0,0,0,2.9-3.425,13.454,13.454,0,0,1,2.839-3.813c-.194.181-.289.273-.371.28a8.083,8.083,0,0,0,.964-1.289c.293-.452.578-.914.859-1.381a24.033,24.033,0,0,0,1.568-2.877c.451-1,.905-1.989,1.391-2.955a15.494,15.494,0,0,0,.677-1.463c.215-.49.442-.971.685-1.443a4.007,4.007,0,0,0,.415-2.029l.376-.153c.017-.431-.007-.872-.011-1.3a7.2,7.2,0,0,1,.823-2.338,9.193,9.193,0,0,0,.492-1.228,5.377,5.377,0,0,0,.115-1.532l-.244.249c.159-.788.264-2.526.476-2.363a.615.615,0,0,1-.018-.584l.161,0c0-.332.018-.661,0-.992l-.085-1c.192-1.517.614.29.758-1.956-.018-.843-.341-2.381-.462-2.067-.025.334-.142.852-.3.873l-.045-.752c-.459-.143-.907-.7-1.324,1.1l.221,1.267-.246.392.039-1.056a1.931,1.931,0,0,0,.034,1.41.853.853,0,0,0-.275.508l.378,1.272c-.2.129-.295-.583-.5.224.118.594.491-.507.48.459-.3.573-.446.374-.374,1.1-.134.081-.187-.077-.2-.36.048.64-.19,1.649.005,2.012a4.062,4.062,0,0,0-.311,1.254c-.095.434-.227.772-.43.7a5.732,5.732,0,0,1-.065,1.713c-.249-1.152-.568,2.087-1.041,1.658a3.329,3.329,0,0,1-.284,1.863,16.336,16.336,0,0,0-.651,2.237.651.651,0,0,1,.037-.363,7.527,7.527,0,0,1-.766,1.306c.32.241-.126,1.369-.193,2.065-.757.7-.164-.719-.624-.6.309.089-.43,1.623-.053,1.45-.526.552-.375.516-.825.7.371.34-.2.66-.267,1.311-.759.783-.539,0-1.011,1.066C-3923.36,4322.049-3922.978,4321.087-3922.978,4321.087Zm-19.1,19.295,0,0,.508-.263Zm-2.1,1.015c.26-.113.58-.265.916-.429.116.052.08.18-.135.278C-3943.308,4341.132-3943.829,4341.321-3944.176,4341.4Zm5.355-.6c-.308.234-.446.253-.519.23l.556-.377.021-.053A.4.4,0,0,1-3938.821,4340.8Z"/><path class="b" d="M-3938.422,4340.124a1.406,1.406,0,0,1,.123-.1c-.079.02-.153.04-.227.064l-.069.146Z"/><path class="b" d="M-3935.224,4256.141l-.036-.036a.351.351,0,0,1,.061.1A.384.384,0,0,1-3935.224,4256.141Z"/><path class="b" d="M-3975.506,4344.07l-.013.07.209-.01Z"/><path class="b" d="M-3926.41,4265.719a.357.357,0,0,0,.045.18A.463.463,0,0,0-3926.41,4265.719Z"/><path class="b" d="M-3923.216,4270.274l.323.726C-3923.021,4270.679-3923.127,4270.453-3923.216,4270.274Z"/><path class="b" d="M-3921.173,4274.025a.269.269,0,0,0,.143.019l0-.008Z"/><path class="b" d="M-3978.792,4250.218a1.236,1.236,0,0,0-.154.053C-3979.3,4250.43-3979.057,4250.33-3978.792,4250.218Z"/><path class="b" d="M-3958.886,4247.8c-.219.018-.434.036-.659.034C-3959.191,4247.909-3958.915,4247.957-3958.886,4247.8Z"/><path class="b" d="M-3997.726,4261.634v-.005l-.1.092Z"/><path class="b" d="M-3960.486,4247.78a3.194,3.194,0,0,0,.941.053A4.613,4.613,0,0,0-3960.486,4247.78Z"/><path class="b" d="M-3915.944,4291.619l.02.2a.047.047,0,0,1,.046.02Z"/><path class="b" d="M-3915.878,4291.842l.045.224C-3915.839,4291.962-3915.845,4291.871-3915.878,4291.842Z"/><path class="b" d="M-3915.739,4292.54l-.094-.474A.889.889,0,0,0-3915.739,4292.54Z"/><path class="b" d="M-3916.758,4286.041l-.115-.04A.14.14,0,0,0-3916.758,4286.041Z"/><path class="b" d="M-3917.214,4284.387a8.347,8.347,0,0,0,.248,1.58l.093.034C-3917.088,4285.778-3916.95,4284.722-3917.214,4284.387Z"/><path class="b" d="M-3918.319,4277.111c.172.46.3.94.445,1.408.013-.281.031-.655.287-.033C-3917.935,4276.616-3917.667,4278.931-3918.319,4277.111Z"/><path class="b" d="M-3920.164,4272.918c.39.692.135-.083.207-.074C-3920.281,4272.444-3920.37,4272.355-3920.164,4272.918Z"/><path class="b" d="M-3944.027,4250.789l.177-.2C-3944.42,4250.357-3943.9,4250.678-3944.027,4250.789Z"/><path class="b" d="M-3950.331,4249.82a4.47,4.47,0,0,1,.508.316l.33-.128A5.712,5.712,0,0,0-3950.331,4249.82Z"/><path class="b" d="M-3953.463,4247.134l.27.031-1.019-.165Z"/><path class="b" d="M-4003.886,4264.549l.361.058C-4003.287,4264.266-4003.507,4263.965-4003.886,4264.549Z"/><path class="b" d="M-4013.992,4286.232a1.688,1.688,0,0,0-.349,1.313C-4014.241,4287.012-4014.039,4286.5-4013.992,4286.232Z"/><path class="b" d="M-3982.241,4344.677l-.5-.069.9.235Z"/></g><g transform="matrix(0.875, 0.485, -0.485, 0.875, 376.16, 900.816)"><path class="c" d="M14.432,18.6c-4.576,1.94-9.06,3.191-13.841,2.6a17.165,17.165,0,0,1-.553-3.319A16.742,16.742,0,1,1,17.892,33.686a16.624,16.624,0,0,1-13.8-5.855A21.809,21.809,0,0,0,14.432,18.6" transform="translate(0 0)"/><path d="M.1,2.378A3.133,3.133,0,1,1,6.17,3.939,3.133,3.133,0,1,1,.1,2.378" transform="translate(3.858 8.81)"/></g><g transform="matrix(0.998, -0.07, 0.07, 0.998, 326.108, 892.614)"><path class="c" d="M19.692,16.716c4.769-1.393,9.038-3.258,12.365-6.745A17.647,17.647,0,0,0,30.388,7.05a16.744,16.744,0,1,0-3.835,23.537,16.613,16.613,0,0,0,6.988-13.263,21.8,21.8,0,0,1-13.849-.608" transform="translate(0 -2.323)"/><path d="M5.693,1.341A3.188,3.188,0,0,1,5.072,5.8,3.188,3.188,0,0,1,.637,5.044,3.178,3.178,0,0,1,1.261.593a3.177,3.177,0,0,1,4.432.749" transform="translate(16.803 3.918)"/></g></g></svg>