<?xml version="1.0" encoding="UTF-8"?>
<svg id="Layer_1" data-name="Layer 1" xmlns="http://www.w3.org/2000/svg" viewBox="0 0 796.42 113.44">
  <defs>
    <style>
      .cls-1 {
        fill: #060606;
      }

      .cls-1, .cls-2, .cls-3, .cls-4, .cls-5, .cls-6, .cls-7, .cls-8 {
        stroke-width: 0px;
      }

      .cls-2 {
        fill: #040404;
      }

      .cls-3 {
        fill: #0d0d0d;
      }

      .cls-4 {
        fill: #3de83d;
      }

      .cls-5 {
        fill: #070707;
      }

      .cls-6 {
        fill: #080808;
      }

      .cls-7 {
        fill: #38e738;
      }

      .cls-8 {
        fill: #f9f9f9;
      }
    </style>
  </defs>
  <path class="cls-1" d="M262,55.35c0-16.48.08-32.97-.07-49.45-.03-3.14.62-4.39,4.05-4.3,8.82.23,17.66.28,26.48-.02,3.55-.12,4.47,1.67,5.37,4.4,4.05,12.31,8.19,24.58,12.36,36.85,3.07,9.02,6.22,18.02,9.41,27,.35.98,1.17,1.79,1.78,2.68.46-.85,1.05-1.66,1.34-2.57,2.83-8.72,5.54-17.48,8.43-26.18,3.59-10.82,7.3-21.59,10.99-32.38,1.06-3.1,1.4-7.45,3.61-8.91,2.49-1.64,6.71-.75,10.17-.79,6.16-.07,12.34.19,18.49-.1,3.46-.16,4.12,1.12,4.09,4.27-.14,17.15-.07,34.3-.07,51.45,0,15.98-.09,31.97.08,47.95.04,3.3-.87,4.3-4.16,4.11-4.98-.28-10.01-.35-14.98.02-3.52.26-3.63-1.34-3.61-4.04.11-13.15.05-26.31.05-39.46,0-8.82.02-17.65-.04-26.47,0-.67-.56-1.33-.85-1.99-.36.43-.89.81-1.06,1.31-3.32,10.16-6.53,20.36-9.92,30.49-3.81,11.38-7.82,22.68-11.65,34.05-2.02,5.99-1.94,6.02-8.58,6.02-3,0-6.01-.15-8.99.05-2.37.16-3.54-.66-4.32-2.95-3.83-11.23-7.79-22.42-11.76-33.61-4.13-11.63-8.34-23.24-12.51-34.86-.21-.57-.42-1.14-.64-1.72-.17.64-.5,1.28-.5,1.92-.03,20.65,0,41.29-.05,61.94,0,2.94.79,7-.76,8.49-1.61,1.54-5.62.65-8.58.71-3.33.07-6.69-.23-9.99.08-3.42.32-3.68-1.31-3.66-4.08.12-14.32.05-28.64.05-42.96,0-2.33,0-4.66,0-6.99Z"/>
  <path class="cls-7" d="M140.88,56.88c-.67-12.27,2.36-23.59,9.01-33.88,8.52-13.18,20.79-20.55,36.26-22.51,13.48-1.71,26.05.88,37.27,8.86,8.81,6.26,13.96,14.87,16.19,25.33.52,2.43.28,4.14-3.03,4.03-5.82-.2-11.65-.06-17.48-.06-1.57,0-2.47-.24-3.05-2.24-2.8-9.69-9.72-14.87-19.52-15.93-10.08-1.08-18.71,1.91-24.72,10.58-7.12,10.29-7.96,21.89-6.5,33.78.76,6.2,2.5,12.24,6.39,17.37,5.06,6.67,11.35,10.93,20.18,10.21,2.25-.18,4.59.29,6.77-.14,9.78-1.91,15.13-8.4,17.37-17.7,1.33-5.53,1.16-5.57,6.81-5.57,4.66,0,9.32-.04,13.98.01,3.59.04,4.56.95,3.81,4.47-3.89,18.32-12.21,32.94-33.12,37.91-20.12,4.78-38.71,1.51-53.24-14.61-9.11-10.11-13.07-22.42-13.4-35.94-.03-1.33,0-2.66,0-3.99Z"/>
  <path class="cls-1" d="M521.94,55.31c0-16.47.07-32.95-.07-49.42-.03-3.11.56-4.52,4.04-4.28,4.47.31,9,.29,13.48,0,3.25-.21,3.84,1.04,3.82,3.98-.13,15.14-.06,30.28-.06,45.43,0,1-.06,2,.02,2.99.09,1.12.3,2.23.46,3.35,1.03-.71,2.21-1.27,3.07-2.14,7.25-7.32,14.38-14.74,21.69-21.99,1.18-1.17,3.06-2.22,4.66-2.28,6.65-.25,13.32-.12,19.98-.09.6,0,1.2.27,1.8.42-.31.71-.45,1.58-.96,2.1-4.67,4.74-9.39,9.43-14.13,14.11-3.55,3.51-7.06,7.05-10.73,10.43-1.78,1.63-1.89,2.9-.52,4.94,9.02,13.44,17.9,26.96,26.82,40.46.46.69,1,1.33,1.4,2.05.63,1.13,1.17,2.31,1.74,3.46-1.25.16-2.49.45-3.74.46-5.99.05-12-.19-17.98.11-2.8.14-4.2-1-5.49-3.13-5.59-9.18-11.25-18.3-16.89-27.45-2.5-4.06-2.2-3.65-6.08-.78-4.44,3.29-5.55,7.29-5.21,12.46.35,5.3,0,10.65.11,15.97.04,2.08-.49,2.96-2.76,2.89-4.99-.15-10-.21-14.98.01-2.89.13-3.59-.88-3.57-3.65.12-16.81.06-33.61.06-50.42Z"/>
  <path class="cls-6" d="M460.39,80.01c0,8.82-.08,17.65.05,26.47.04,2.7-.6,3.89-3.58,3.74-4.82-.24-9.66-.15-14.49-.03-2.45.06-3.8-.53-3.44-3.32.47-3.68-1.7-2.23-3.07-1.32-5.16,3.45-10.73,5.77-16.93,6.33-7.7.7-15.12.01-21.97-4.21-7.92-4.89-11.07-12.42-10.48-21.02.68-9.89,6.21-17.17,16.14-19.63,9.03-2.24,18.31-3.47,27.48-5.15,1.12-.21,2.28-.36,3.35-.75,5.29-1.93,5.5-2.32,5.49-8.91,0-3.88-1.23-5.33-5.6-7.05-4.69-1.85-9.41-1.71-14.19-.53-4.24,1.05-7.12,3.66-7.95,7.94-.44,2.27-1.35,3.12-3.57,3.09-5-.07-10-.06-14.99,0-1.95.02-2.49-.46-2.19-2.62,1.63-11.6,9.04-19.76,22.38-22.37,9.08-1.78,18.12-1.8,27.2-.03,11.9,2.31,20.3,9.7,20.35,23.9.03,8.49,0,16.98,0,25.47ZM420.73,97.99c8.09-.35,16.42-4.64,17.83-12.19.7-3.77.23-7.77.11-11.66,0-.28-1.5-.86-2.2-.73-6.22,1.14-12.45,2.27-18.6,3.71-3.43.8-6.53,2.36-8.14,5.92-3.34,7.43,2.11,14.88,11,14.95Z"/>
  <path class="cls-6" d="M641.72,75.93c-8.16,0-16.31.11-24.47-.06-3.06-.06-3.62.94-3.1,3.79,1.06,5.78,2.69,11.18,8.2,14.27,6.36,3.57,20.28,3.71,23.78-6.06.79-2.22,2.29-3.29,4.92-3.15,4.65.25,9.32.12,13.98.05,2.75-.04,3.48.64,2.28,3.49-5.92,14.03-16.17,22.01-31.5,23.13-13.93,1.02-26.2-2.34-35.3-13.74-7.31-9.16-9.41-19.83-8.48-31.17.92-11.27,5.26-21.02,14.02-28.55,17.13-14.73,43.55-11.18,55.39,5.91,6.13,8.86,7.86,19.04,8.35,29.55.12,2.54-1.28,2.57-3.11,2.56-8.32-.04-16.64-.02-24.97-.02ZM646.45,61.91c.31-.09.61-.18.92-.27-.17-.13-.33-.27-.5-.4-.14.25-.27.5-.41.75.29-.16.84-.35.83-.49-.57-8.17-4.89-15.5-13.95-16.46-10.01-1.07-16.63,4.62-19.28,14.33-.66,2.4.91,1.97,2.14,1.97,7.48.03,14.97-.03,22.45.04,2.61.03,5.21.35,7.81.54Z"/>
  <path class="cls-5" d="M734.57,83.32c1.17,0,2.33,0,3.5,0,5.92,0,5.78.06,7.93,5.4.76,1.9,2.12,3.78,3.69,5.09,4.47,3.7,16.73,3.59,21.58.25,2.69-1.85,4.27-4.25,4.01-7.45-.29-3.56-2.82-5.8-5.95-6.66-7.09-1.95-14.32-3.36-21.46-5.16-6.23-1.58-12.12-3.7-17.03-8.33-7.94-7.46-6.54-25.45,4.16-31.43,15.3-8.55,31.07-8.66,46.7-1.39,7.07,3.29,11.09,9.57,11.92,17.6.21,2.05-.14,3.07-2.53,3-4.99-.14-9.99-.06-14.98-.04-1.91,0-2.54-.56-2.98-2.76-1-4.96-4.67-7.27-9.79-7.29-2.64,0-5.27-.18-7.91-.22-3.52-.05-7.56,2.66-8.1,5.38-.81,4.1.48,6.44,5.37,7.92,5.95,1.8,12.05,3.13,18.12,4.53,7.37,1.71,14.55,3.74,20.2,9.23,8.61,8.36,6.27,25.32-2.61,32.41-5.81,4.64-12.39,7.27-19.83,7.76-9.27.61-18.46.87-27.33-2.73-10.18-4.14-15.92-11.49-17-22.49-.2-2.02.34-2.72,2.33-2.65,2.66.1,5.33.02,7.99.02Z"/>
  <path class="cls-5" d="M674.9,42.79c0-12.49.08-24.98-.06-37.47-.03-2.8.75-3.81,3.62-3.7,4.99.19,10,.2,14.99,0,2.68-.11,3.41.8,3.36,3.38-.15,7.66.07,15.32-.12,22.98-.06,2.52.73,3.08,3.06,3.02,5.66-.14,11.33.09,16.99-.1,2.92-.1,3.71,1,3.6,3.76-.19,4.82-.16,9.66-.01,14.48.08,2.46-.89,3.16-3.22,3.11-5.83-.12-11.66.04-17.49-.08-2.07-.04-2.91.44-2.9,2.72.05,8.32-.2,16.64-.15,24.96.03,4.76,3.97,8.51,8.99,8.72,3.83.16,7.67.13,11.49,0,2.27-.08,3.35.51,3.28,3.04-.16,5.16-.09,10.32-.02,15.48.03,1.87-.63,2.83-2.57,2.74-6.14-.25-12.41.19-18.41-.87-14.05-2.49-24.01-14.98-24.36-29.71-.29-12.15-.06-24.31-.06-36.47Z"/>
  <path class="cls-4" d="M131.84,56.4c0,16.3,0,32.59,0,48.89,0,4.86-.03,4.87-4.88,4.89-4.99.02-9.98.04-14.97,0-4.49-.04-4.71-.25-4.72-4.86-.03-14.8-.01-29.6-.01-44.4,0-18.13-.01-36.25,0-54.38,0-4.96.18-5.12,4.95-5.15,5.16-.03,10.33.19,15.47-.08,3.33-.17,4.25.96,4.23,4.21-.14,16.96-.06,33.92-.06,50.88Z"/>
  <path class="cls-2" d="M468.04,82.62c0-8.81-.63-17.68.16-26.41,1.01-11.11,7.97-18.42,17.78-23.17,4.09-1.98,8.42-2.36,12.94-2.14,5.32.25,10.65.13,15.98.03,2.18-.04,2.87.75,2.81,2.9-.13,5.16-.17,10.32.01,15.47.09,2.64-1.12,2.99-3.3,2.94-4.99-.11-9.99-.07-14.98-.03-7.6.06-10.73,3.2-10.75,10.92-.04,14.31-.11,28.62.06,42.93.04,3.26-.81,4.37-4.14,4.17-4.64-.28-9.32-.2-13.98-.02-2.44.09-3.16-.73-3.13-3.12.12-8.15.04-16.31.04-24.46.16,0,.32,0,.48,0Z"/>
  <path class="cls-3" d="M59.75,71.86c0,11.48-.1,22.96.07,34.44.04,3.07-.85,4.07-3.95,3.93-5.48-.24-10.99-.18-16.48-.02-3.03.08-4.09-1.05-4.08-4.08.08-23.29.08-46.59,0-69.88,0-2.44.88-3.26,3.15-3.24,5.99.05,11.99.12,17.98-.04,2.66-.07,3.41.83,3.38,3.45-.13,11.81-.06,23.63-.06,35.44Z"/>
  <path class="cls-1" d="M71.6,83.33c0-7.99.09-15.98-.05-23.96-.04-2.39.61-3.16,3.06-3.09,5.99.17,11.99.13,17.98.02,2.15-.04,2.88.63,2.87,2.82-.07,15.97-.07,31.95,0,47.93.01,2.35-.66,3.23-3.12,3.16-5.82-.16-11.66-.2-17.48.02-2.77.1-3.33-.95-3.3-3.42.12-7.82.04-15.64.04-23.46Z"/>
  <path class="cls-5" d="M.06,92.32c0-4.82.14-9.64-.05-14.45-.12-3.12.76-4.58,4.18-4.44,5.64.22,11.3.14,16.95.03,2.77-.05,3.84,1,3.81,3.81-.11,9.97-.07,19.94-.02,29.91.01,1.91-.21,3.08-2.63,3.03-6.48-.14-12.97-.12-19.45,0-2.22.04-2.88-.8-2.84-2.92.11-4.98.03-9.97.03-14.95Z"/>
  <path class="cls-8" d="M420.73,97.99c-8.88-.07-14.34-7.52-11-14.95,1.6-3.56,4.71-5.12,8.14-5.92,6.15-1.44,12.38-2.56,18.6-3.71.7-.13,2.19.45,2.2.73.12,3.89.59,7.89-.11,11.66-1.41,7.55-9.74,11.84-17.83,12.19Z"/>
  <path class="cls-8" d="M646.45,61.91c-2.6-.19-5.21-.52-7.81-.54-7.48-.07-14.96-.01-22.45-.04-1.23,0-2.79.43-2.14-1.97,2.65-9.71,9.27-15.4,19.28-14.33,9.06.97,13.38,8.3,13.95,16.46.01.14-.54.33-.83.49,0,0,0-.08,0-.08Z"/>
  <path class="cls-8" d="M646.45,61.98c.14-.25.27-.5.41-.75.17.13.33.27.5.4-.31.09-.61.18-.92.27v.08Z"/>
</svg>