<svg xmlns="http://www.w3.org/2000/svg" xmlns:xlink="http://www.w3.org/1999/xlink" width="119" height="119" viewBox="0 0 119 119">
  <defs>
    <filter id="Path_849" x="0" y="0" width="119" height="119" filterUnits="userSpaceOnUse">
      <feOffset dx="2" dy="2" input="SourceAlpha"/>
      <feGaussianBlur stdDeviation="1.5" result="blur"/>
      <feFlood flood-opacity="0.161"/>
      <feComposite operator="in" in2="blur"/>
      <feComposite in="SourceGraphic"/>
    </filter>
  </defs>
  <g id="Group_966" data-name="Group 966" transform="translate(-498.5 -3483.5)">
    <g id="Group_578" data-name="Group 578" transform="translate(-442.33 161.042)">
      <g id="Group_573" data-name="Group 573" transform="translate(943.33 3324.958)">
        <g id="Group_572" data-name="Group 572">
          <g transform="matrix(1, 0, 0, 1, -2.5, -2.5)" filter="url(#Path_849)">
            <path id="Path_849-2" data-name="Path 849" d="M1053.33,3379.958a55,55,0,1,1-55-55,55,55,0,0,1,55,55" transform="translate(-940.83 -3322.46)" fill="#fff"/>
          </g>
        </g>
      </g>
      <g id="Group_574" data-name="Group 574" transform="translate(948.147 3330.908)">
        <path id="Path_850" data-name="Path 850" d="M1048.514,3381.092a50.184,50.184,0,1,1-50.184-50.184,50.184,50.184,0,0,1,50.184,50.184" transform="translate(-948.147 -3330.908)" fill="#04c4d9"/>
      </g>
      <g id="Group_575" data-name="Group 575" transform="translate(972.363 3354.857)">
        <path id="Path_851" data-name="Path 851" d="M1019,3367.571a2.661,2.661,0,0,0-.441-.337c-2.66-1.621-9.683-.23-12.761-.2-2.3.022-1.2-6.863-1.2-8.6,0-2.7.968-5.348-1.828-6.131-3.9-1.091-8.019-.818-12-.456-3.336.3-5.875-.319-6.43,3.331-.586,3.866.57,7.928.066,11.832-.132,1.03-14.511-3.051-14.912,2.424a89.9,89.9,0,0,0-.063,14.576c.329,3.591.882,3.455,4.422,2.818,3.221-.58,7.545-1.5,10.256.949,3.185,2.881-2.391,12.484,1.084,14.346a2.567,2.567,0,0,0,1.22.2c4.329.017,8.657.017,12.986.029,3.911.011,5.169.849,5.184-3.06.008-2.219-.15-4.436-.11-6.657.049-2.771-.427-4.465,2.315-4.847,2.795-.389,12.381,2.464,12.75-2.579.266-3.632.2-7.275.127-10.913C1019.627,3372.327,1020.623,3369.114,1019,3367.571Z" transform="translate(-968.317 -3350.68)" fill="#fff"/>
        <path id="Path_852" data-name="Path 852" d="M1002.255,3403.284c-.352,0-.733-.016-1.144-.034-.5-.021-1.075-.046-1.711-.048q-2.7-.007-5.41-.011-3.789,0-7.578-.017a3.355,3.355,0,0,1-1.616-.305c-2.3-1.23-1.673-4.545-1.072-7.752.493-2.624,1.051-5.6-.18-6.713-2.281-2.064-6.064-1.375-9.1-.822l-.538.1c-2.084.375-3.231.582-4.12-.095-.787-.6-1.026-1.691-1.191-3.5a89.063,89.063,0,0,1,.061-14.716,3.266,3.266,0,0,1,1.21-2.362c2.366-1.957,7.576-1.349,11.38-.9.874.1,1.836.214,2.388.233a30.673,30.673,0,0,0-.119-5.055,27.58,27.58,0,0,1-.006-6.233c.565-3.718,3.128-3.835,5.607-3.949.51-.023,1.037-.048,1.583-.1,4.206-.382,8.312-.634,12.306.484,2.874.8,2.683,3.309,2.529,5.322-.04.534-.082,1.086-.082,1.624,0,.373-.042.909-.1,1.589-.124,1.59-.417,5.315.326,6.11a.121.121,0,0,0,.114.054c.808-.007,1.961-.119,3.182-.238,3.5-.338,7.856-.761,10.028.563a3.446,3.446,0,0,1,.583.446c1.482,1.411,1.24,3.738,1.046,5.608a15.029,15.029,0,0,0-.118,1.716c.067,3.2.151,7.171-.129,10.993a3.565,3.565,0,0,1-1.264,2.576c-2.009,1.681-5.9,1.278-9.02.954a17.694,17.694,0,0,0-3.193-.175c-1.558.217-1.608.688-1.586,2.877,0,.36.007.742,0,1.148-.022,1.187.016,2.4.052,3.579.03,1,.062,2.038.058,3.065-.006,1.755-.265,2.714-.893,3.314A3.081,3.081,0,0,1,1002.255,3403.284Zm-23.114-17.96a7.967,7.967,0,0,1,5.539,1.825c1.933,1.749,1.31,5.07.708,8.281-.489,2.607-.995,5.3.207,5.947a2.03,2.03,0,0,0,.824.1q3.786.015,7.573.018,2.707,0,5.413.011c.67,0,1.259.027,1.779.049,1.074.046,1.921.083,2.187-.171.24-.229.364-.934.369-2.095,0-1-.028-2.02-.058-3.008-.037-1.2-.075-2.433-.053-3.661.007-.388,0-.755,0-1.1-.02-2.129-.04-4.14,3.046-4.57a17.645,17.645,0,0,1,3.6.167c2.658.276,6.3.654,7.759-.568a1.88,1.88,0,0,0,.662-1.4c.274-3.742.192-7.674.125-10.833a16.083,16.083,0,0,1,.127-1.927c.164-1.579.35-3.37-.529-4.207h0a1.738,1.738,0,0,0-.3-.227c-1.69-1.03-5.907-.621-8.985-.323-1.313.127-2.447.237-3.329.245a1.828,1.828,0,0,1-1.368-.591c-1.155-1.237-1.025-4.205-.775-7.4.049-.616.09-1.149.09-1.456,0-.6.045-1.187.088-1.752.177-2.322.113-3.17-1.3-3.565-3.717-1.039-7.654-.8-11.7-.427-.584.053-1.131.078-1.659.1-2.716.125-3.672.282-4.011,2.513a25.847,25.847,0,0,0,.02,5.849,29.191,29.191,0,0,1,.049,5.964c-.147,1.142-1.251,1.013-4.2.668-3.1-.362-8.3-.968-10.106.529a1.591,1.591,0,0,0-.6,1.181,87.611,87.611,0,0,0-.065,14.437c.052.559.188,2.043.532,2.3.3.224,1.454.017,2.8-.224l.535-.1A28.252,28.252,0,0,1,979.141,3385.324Z" transform="translate(-968.317 -3350.68)"/>
      </g>
      <g id="Group_576" data-name="Group 576" transform="translate(988.524 3374.944)">
        <path id="Path_853" data-name="Path 853" d="M1004.7,3376.438c0-.043,0-.085,0-.128s-.01-.1-.013-.143a6.465,6.465,0,0,0-.6-2.365,5.312,5.312,0,0,0-3.293-2.97l0,0a5.975,5.975,0,0,0-1.518-.2,6.163,6.163,0,0,0-3.187.9c-.008.006-.4.307-.828.692a7.843,7.843,0,0,0-.667.656,8.279,8.279,0,0,0-.727-.71c-.407-.361-.769-.638-.784-.648a6.152,6.152,0,0,0-3.172-.893,5.949,5.949,0,0,0-1.522.2,5.314,5.314,0,0,0-3.293,2.97,6.507,6.507,0,0,0-.6,2.371c0,.046-.009.091-.011.136s0,.091,0,.137a5.333,5.333,0,0,0,.437,2.248,7.671,7.671,0,0,0,.824,1.389l.106.163.006-.011a5.485,5.485,0,0,0,1.278,1.245,43.692,43.692,0,0,1,5.891,4.559l-.005.01.2.2c.872.892.939,1.274.939,1.37h.853c0-.1.068-.478.94-1.37l.2-.2,0-.01a43.651,43.651,0,0,1,5.888-4.557,5.525,5.525,0,0,0,1.281-1.247l.006.011.106-.164a7.609,7.609,0,0,0,.822-1.386A5.331,5.331,0,0,0,1004.7,3376.438Z" transform="translate(-984.489 -3370.635)"/>
      </g>
      <g id="Group_577" data-name="Group 577" transform="translate(989.791 3376.173)">
        <path id="Path_854" data-name="Path 854" d="M997.526,3382.929c-.58.452-1.088.871-1.535,1.263v-.031l-.506.487q-.516.482-.89.9-.375-.422-.887-.9l-.509-.49v.031c-.447-.392-.956-.811-1.536-1.263-1.639-1.278-3.41-2.48-3.725-2.672a4.523,4.523,0,0,1-1.117-1.188l.028-.019-.234-.353a3.714,3.714,0,0,1-.331-.608,4.515,4.515,0,0,1,.164-3.67,3.873,3.873,0,0,1,2.344-2.164,4.673,4.673,0,0,1,.55-.11c.037-.005.074-.008.111-.011.121-.014.241-.022.359-.025.079,0,.157,0,.234,0,.112,0,.223.012.333.023.13.013.259.031.386.055.1.019.206.039.307.065.123.032.243.071.362.113l.1.036a4.275,4.275,0,0,1,.763.377,10.325,10.325,0,0,1,1.3,1.2,1.04,1.04,0,0,0,.988.686h.024a1.04,1.04,0,0,0,.988-.686,10.277,10.277,0,0,1,1.3-1.2,4.376,4.376,0,0,1,.759-.374l.109-.039c.119-.041.239-.081.363-.113.049-.013.1-.02.15-.031a4.307,4.307,0,0,1,.557-.089c.1-.01.205-.019.308-.022.082,0,.163,0,.245,0,.117,0,.234.011.353.024.037,0,.074.007.111.012a4.865,4.865,0,0,1,.545.108,3.869,3.869,0,0,1,2.349,2.164,4.522,4.522,0,0,1,.162,3.682,3.823,3.823,0,0,1-.327.6l-.235.353.029.019a4.555,4.555,0,0,1-1.117,1.188C1000.936,3380.449,999.167,3381.65,997.526,3382.929Z" transform="translate(-985.756 -3371.896)" fill="#fff"/>
        <path id="Path_855" data-name="Path 855" d="M994.595,3385.871l-.159-.179c-.24-.272-.534-.57-.873-.886l-.326-.316-.177-.138c-.451-.4-.965-.818-1.527-1.256-1.631-1.271-3.394-2.469-3.705-2.657a4.869,4.869,0,0,1-1.181-1.25l-.123-.179.031-.02-.116-.175a3.978,3.978,0,0,1-.35-.643,4.725,4.725,0,0,1,.167-3.842,4.082,4.082,0,0,1,2.48-2.279,5.033,5.033,0,0,1,.577-.116l.083-.008c.16-.018.285-.026.411-.029q.123,0,.246,0c.115,0,.232.013.348.025.136.013.27.032.4.057.107.02.215.04.321.068.13.034.255.074.379.118l.1.037a4.616,4.616,0,0,1,.8.4,10.331,10.331,0,0,1,1.35,1.246l.032.058a.827.827,0,0,0,.789.545l.051,0a.823.823,0,0,0,.762-.548l.032-.057a10.3,10.3,0,0,1,1.351-1.247,4.484,4.484,0,0,1,.8-.392l.113-.041c.126-.044.252-.085.381-.119.035-.009.071-.016.107-.023l.051-.01a4.864,4.864,0,0,1,.581-.093c.108-.01.216-.019.324-.022.083,0,.169,0,.254,0,.125,0,.248.011.373.025l.115.012a4.7,4.7,0,0,1,.57.114,4.079,4.079,0,0,1,2.488,2.277,4.744,4.744,0,0,1,.162,3.861,3.931,3.931,0,0,1-.343.628l-.116.175h0l-.095.2a4.874,4.874,0,0,1-1.176,1.246c-.316.192-2.08,1.39-3.71,2.661h0c-.566.441-1.08.863-1.527,1.255l-.351.308h0l-.147.142c-.342.319-.637.619-.879.892Zm-1.607-2.176.358.313.509.491c.275.258.524.5.74.738.217-.234.467-.483.745-.744l.862-.83v.068c.365-.31.765-.634,1.194-.969h0c1.644-1.281,3.43-2.493,3.746-2.685a4.075,4.075,0,0,0,.947-.979l.075-.165.235-.353a3.518,3.518,0,0,0,.308-.565,4.313,4.313,0,0,0-.158-3.509,3.662,3.662,0,0,0-2.215-2.049,4.66,4.66,0,0,0-.517-.1l-.105-.01c-.114-.014-.226-.02-.337-.023-.075,0-.153,0-.231,0-.1,0-.2.011-.295.02a4.521,4.521,0,0,0-.531.085l-.062.013c-.027.005-.054.01-.081.017-.118.03-.233.068-.347.108l-.1.038a4.069,4.069,0,0,0-.722.355,10.719,10.719,0,0,0-1.222,1.124,1.285,1.285,0,0,1-2.372,0,10.719,10.719,0,0,0-1.222-1.124,4.081,4.081,0,0,0-.726-.358l-.1-.035c-.113-.039-.228-.077-.345-.108-.1-.024-.194-.043-.292-.061-.123-.023-.245-.04-.369-.053-.1-.01-.211-.019-.317-.022-.076,0-.149,0-.223,0-.113,0-.226.009-.341.023l-.108.011a4.831,4.831,0,0,0-.523.1,3.663,3.663,0,0,0-2.207,2.051,4.3,4.3,0,0,0-.163,3.491,3.564,3.564,0,0,0,.315.579l.353.53-.023.015a4.008,4.008,0,0,0,.932.955c.31.188,2.1,1.4,3.74,2.682.428.334.828.658,1.195.969Z" transform="translate(-985.756 -3371.896)"/>
      </g>
    </g>
  </g>
</svg>
