<svg xmlns="http://www.w3.org/2000/svg" viewBox="0 0 234 156" width="234" height="156"><title>Promotional-video-svg</title><defs><clipPath clipPathUnits="userSpaceOnUse" id="cp1"><path d="m-19-58h272v272h-272z"></path></clipPath></defs><style>		.s0 { fill: #010100 } 		.s1 { fill: #ffc729 } 		.s2 { fill: #010101 } 		.s3 { fill: #020101 } 		.s4 { fill: #fefefe } 		.s5 { fill: #eaebeb } 		.s6 { fill: #5f7878 } 		.s7 { fill: #fdfefe } 		.s8 { fill: #fcfdfd } 	</style><g id="Clip-Path: Promotional_video" clip-path="url(#cp1)"><g id="Promotional_video"><g id="Group_80"><g id="Group_79"><g id="Group_74"><path id="Path_659" class="s0" d="m118.3 1.7q33.7 0 67.3 0 3.1 0 6.1 0.1 3.1 0.2 6.2 0.5 3.1 0.3 6.1 0.7 3.1 0.4 6.1 1.1c10.9 2.2 17.3 9 20.1 19.5 2.5 9.4 3.1 19 3 28.7-0.1 20.4-0.7 40.8-1.1 61.2-0.1 1.1-0.2 2.3-0.3 3.4-1.6 20.5-10.4 29.8-30.7 33.6-11.5 2.1-23.1 2.4-34.7 2.6-39.1 0.9-78.2 3.2-117.4 1.2-10.6-0.6-20.8-2.5-30.4-7.1-8.5-4.1-13.8-10.5-15.3-20q-0.9-5.2-1.4-10.4-0.6-5.1-0.8-10.3-0.3-5.2-0.3-10.4 0.1-5.2 0.4-10.4c1.4-18.4 3.4-36.7 2.7-55.2-0.6-13.5 5.7-22 18.7-26q3-0.9 6.1-1.6 3.1-0.7 6.3-1.1 3.2-0.5 6.3-0.7 3.2-0.2 6.4-0.2c23.6 0.1 47.1 0 70.6 0 0 0 0 0.8 0 0.8z"></path><path id="Path_660" class="s1" d="m117.1 9.7c22.6 0 45.3 0.1 68-0.1q2.6 0 5.1 0.1 2.6 0.1 5.1 0.3 2.5 0.2 5.1 0.6 2.5 0.3 5 0.7c11 1.8 15.9 6.6 17.9 17.5q0.4 2.3 0.8 4.6 0.3 2.4 0.5 4.7 0.2 2.3 0.4 4.6 0.1 2.4 0.1 4.7c0 23.3 0.5 46.5-1.4 69.7q-0.1 1.2-0.3 2.4-0.1 1.1-0.4 2.3-0.2 1.1-0.5 2.2-0.2 1.2-0.6 2.3c-1.9 7.2-6.4 11.8-13.4 14.1q-3.4 1-6.8 1.8-3.4 0.8-6.9 1.4-3.4 0.5-6.9 0.8-3.5 0.4-7 0.4c-41.7 1.2-83.4 3.4-125.1 2-10.4-0.3-20.8-1.3-30.8-5.3-8.7-3.6-13.3-9.5-14.6-19-2.1-16.2-1.5-32.2-0.6-48.4 0.9-15 2.5-29.9 2.2-45-0.2-8.2 3.3-13.3 11.1-16.2 8.3-3.1 17-3.9 25.9-3.9 22.7 0.1 45.4 0.1 68 0.1 0 0 0 0.6 0.1 0.6z"></path><path id="Path_661" class="s2" d="m176.7 66.6c3.1-2.5 3.5-6.4 5.3-9.6 1.4-2.5 2.5-5.9 6.1-4.1 3.3 1.7 1.8 4.9 0.6 7.5q-0.5 1.3-1 2.6-0.6 1.2-1.2 2.5-0.6 1.2-1.3 2.4-0.6 1.3-1.3 2.4c-2.1 3.3-0.3 5.4 1.4 7.6 2 2.8 4 0.5 5.9-0.3 4.7-2 9.3-4.1 14-6.1 2.4-1 4.7-0.7 5.8 1.8 1.2 2.8-1 4.2-3.1 5.2-4.1 1.9-8.4 3.5-12.4 5.4-2.1 1-5.6 1.1-4.8 4.8 0.8 3.3 1.5 6.6 5.8 7.5 3.6 0.8 7 2.2 10.6 3.3 1.3 0.4 2.7 0.8 4 1.3 1.7 0.8 2.7 2.1 2.3 4q-0.1 0.8-0.5 1.4-0.4 0.7-1 1.1-0.7 0.4-1.4 0.5-0.8 0.1-1.5-0.1c-4.4-1.1-8.7-2.5-13.2-3.8-1.7 4.6-5.2 7.3-9.4 9.1-17.5 7.5-35.7 12.9-54.1 17.6-0.6 0.2-1.1 0.2-1.7 0.4-1.4 0.4-3.6 0.6-4-0.4-3.3-7.4-12.9-3-16.8-9.1-2.6-3.9-2.4-8.1-0.4-12.1 1.6-3.1 2.6-5.9 0.6-9.5-1.8-3.2 0.8-5.2 3.2-6.9 13.4-9.5 26.7-19.2 40.3-28.5 9.4-6.5 11.8-6.2 21.1 0.8 0.6 0.5 1.4 0.8 2.1 1.3z"></path><path id="Path_662" class="s3" d="m69.3 81.6c-4.9 3.4-9.2 6.6-13.8 9.4-6.3 3.8-10.9 2.1-13.1-4.9q-0.5-1.8-0.9-3.5-0.4-1.8-0.7-3.5-0.4-1.8-0.6-3.6-0.2-1.8-0.3-3.6c-0.6-8.8-0.7-17.5-0.8-26.3q-0.1-0.9 0-1.7 0-0.9 0.1-1.7 0.1-0.9 0.2-1.7 0.2-0.8 0.4-1.7c1.7-6.2 6.1-8.6 12.3-6.5 5.9 1.9 10.8 5.8 16.1 8.8 2.1-1.8 1.2-4.1 2.1-5.8 2.4-4.8 6.1-6.9 11.2-4.9q4.8 1.8 9.6 4 4.7 2.2 9.2 4.8 4.5 2.6 8.7 5.6 4.3 3 8.3 6.4c6.4 5.5 6.2 11.8-0.9 17.1-9.3 6.9-19 13.5-28.8 19.6-9.1 5.6-13 4.1-18.3-6.3z"></path><path id="Path_663" class="s4" d="m116.4 117.5q-0.3-1-0.4-2.1-0.1-1.1 0-2.2 0.2-1.1 0.7-2.1 0.5-0.9 1.2-1.8c1.3-1.9 2.6-4.1 1.5-6.3-2-3.8 0-5.3 2.8-7.2 12.5-8.3 24.1-17.8 37.8-26.1 3 14.4 8.3 27.1 19.9 37.1-15.8 6.6-31.2 11-46.6 15.3-1.7 0.5-3.7 1.2-4.4-0.8-2.3-6.8-6.8-6.6-12.5-3.8z"></path><path id="Path_664" class="s5" d="m170.7 72.4q2.8 2.7 5.1 5.9 2.3 3.1 4.1 6.5 1.8 3.4 3 7.1 1.3 3.7 1.9 7.5c-8.9-6.1-13.4-15.1-16.1-25.2-0.2-1.7 0.2-2.5 2-1.8z"></path><path id="Path_665" class="s6" d="m170.7 72.4c-1.1 0.1-1.5 1-2 1.8-0.8-1.1-1.9-2.3-0.2-3.2 0.9-0.6 1.9 0.2 2.2 1.4z"></path><path id="Path_666" class="s7" d="m78.8 83.7c-1.8-15-1.5-28.6-2-42.1-0.1-3.2 1.8-4 4.4-2.8q4 1.6 7.9 3.6 3.9 1.9 7.7 4.1 3.7 2.2 7.3 4.6 3.6 2.5 7 5.1c2.6 2.1 2.7 4.2-0.1 6.1-10.2 7-20.1 14.4-32.2 21.4z"></path><path id="Path_667" class="s8" d="m50.5 84.5c-3.3-9.9-2.7-19.6-3.7-29q-0.1-1.6-0.2-3.2-0.1-1.5-0.1-3.1 0-1.6 0.1-3.2 0-1.6 0.2-3.2c0.1-2.8 1.7-4.1 4.5-2.8q2.2 1 4.2 2.1 2.1 1.1 4 2.3 2 1.3 3.9 2.7 1.8 1.4 3.6 2.9 0.7 0.6 1.3 1.4 0.6 0.7 0.9 1.6 0.4 0.9 0.6 1.8 0.2 1 0.1 1.9-0.1 1-0.1 1.9 0 1 0.1 1.9 0 1 0.1 1.9 0 1 0.2 1.9c0.6 4.8-0.9 8.1-5.2 10.5-4.9 2.8-9.4 6.2-14.5 9.7z"></path></g></g></g></g></g></svg>