<svg xmlns="http://www.w3.org/2000/svg" xmlns:xlink="http://www.w3.org/1999/xlink" width="190" height="190" viewBox="0 0 190 190"><defs><clipPath id="clip-path"><rect id="Rectangle_24" data-name="Rectangle 24" width="190" height="190"></rect></clipPath></defs><g id="Group_7" data-name="Group 7" transform="translate(-4160 -1376)"><g id="Tick_1" data-name="Tick 1" transform="translate(4160 1376)" clip-path="url(#clip-path)"><rect id="Rectangle_23" data-name="Rectangle 23" width="190" height="190" fill="rgba(255,255,255,0)"></rect><g id="Group_2" data-name="Group 2" transform="translate(-3202.307 -3745.307)"><path id="Path_1" data-name="Path 1" d="M91.676,0C88.721-.008,86.32,1.378,83.6,3.068a98.868,98.868,0,0,0-8.452,6.1C72.3,11.4,69.51,13.668,67.1,15.511A35.112,35.112,0,0,1,61.711,19.1a34.712,34.712,0,0,1-6.371,1.251c-3,.382-6.6.739-10.189,1.144a99.1,99.1,0,0,0-10.291,1.6c-3.121.7-5.806,1.4-7.9,3.489s-2.808,4.764-3.535,7.881a99.444,99.444,0,0,0-1.658,10.282c-.429,3.587-.811,7.182-1.208,10.182a35.653,35.653,0,0,1-1.288,6.364,34.971,34.971,0,0,1-3.618,5.373c-1.852,2.4-4.145,5.177-6.39,8.006a99.283,99.283,0,0,0-6.146,8.416C1.409,85.787.008,88.177,0,91.135s1.378,5.356,3.068,8.075a98.726,98.726,0,0,0,6.1,8.452c2.231,2.843,4.5,5.638,6.343,8.044A34.941,34.941,0,0,1,19.1,121.1a34.734,34.734,0,0,1,1.251,6.371c.382,3,.739,6.6,1.144,10.187a98.943,98.943,0,0,0,1.6,10.291c.715,3.123,1.4,5.806,3.489,7.9s4.764,2.808,7.881,3.534a99.521,99.521,0,0,0,10.282,1.658c3.587.429,7.182.811,10.182,1.207a35.829,35.829,0,0,1,6.364,1.286,34.95,34.95,0,0,1,5.373,3.62c2.4,1.852,5.177,4.145,8.006,6.389a99.062,99.062,0,0,0,8.416,6.147c2.708,1.706,5.1,3.106,8.057,3.114s5.356-1.378,8.075-3.067a98.958,98.958,0,0,0,8.452-6.1c2.843-2.23,5.638-4.506,8.044-6.344a34.924,34.924,0,0,1,5.394-3.586,34.487,34.487,0,0,1,6.37-1.251c3-.381,6.6-.739,10.189-1.144a101.8,101.8,0,0,0,10.291-1.6c3.123-.715,5.806-1.4,7.9-3.487s2.808-4.765,3.534-7.882a99.461,99.461,0,0,0,1.658-10.282c.429-3.586.811-7.18,1.208-10.181a35.653,35.653,0,0,1,1.288-6.364,34.867,34.867,0,0,1,3.62-5.373c1.852-2.4,4.145-5.177,6.389-8.006a99.721,99.721,0,0,0,6.147-8.416c1.706-2.709,3.106-5.1,3.115-8.058s-1.378-5.356-3.068-8.075a99.1,99.1,0,0,0-6.1-8.452c-2.229-2.841-4.5-5.636-6.343-8.043a34.994,34.994,0,0,1-3.587-5.394,34.629,34.629,0,0,1-1.25-6.371c-.381-3-.739-6.6-1.144-10.187a101.748,101.748,0,0,0-1.6-10.293c-.715-3.121-1.4-5.806-3.487-7.9s-4.765-2.808-7.882-3.534a99.427,99.427,0,0,0-10.282-1.658c-3.586-.429-7.18-.811-10.182-1.207a35.617,35.617,0,0,1-6.362-1.288,34.825,34.825,0,0,1-5.373-3.618c-2.4-1.852-5.177-4.145-8.006-6.39a99.55,99.55,0,0,0-8.417-6.146C97.025,1.41,94.633.011,91.676,0Z" transform="translate(3206.307 3749.307)" fill="#ffc729" stroke="#000" stroke-width="4"></path><path id="Path_2" data-name="Path 2" d="M109.309,32.677a14.084,14.084,0,0,1,4.229,1.913,85.628,85.628,0,0,1,7.037,5.163c2.48,1.968,4.986,4.03,7.247,5.78a28.948,28.948,0,0,0,6.113,4,29.115,29.115,0,0,0,7.14,1.545c2.834.374,6.046.706,9.189,1.084a84.507,84.507,0,0,1,8.63,1.384,14.22,14.22,0,0,1,4.338,1.657,14.294,14.294,0,0,1,1.631,4.348,86.64,86.64,0,0,1,1.335,8.636c.364,3.146.663,6.36,1.027,9.2a28.787,28.787,0,0,0,1.5,7.15,28.862,28.862,0,0,0,3.958,6.136c1.736,2.272,3.783,4.79,5.737,7.28a85.356,85.356,0,0,1,5.122,7.069,13.936,13.936,0,0,1,1.889,4.24,14.114,14.114,0,0,1-1.913,4.227,85.847,85.847,0,0,1-5.164,7.038c-1.969,2.479-4.031,4.986-5.779,7.247a28.875,28.875,0,0,0-3.995,6.114,29.09,29.09,0,0,0-1.545,7.14c-.374,2.833-.706,6.045-1.084,9.189a85.535,85.535,0,0,1-1.384,8.629,14.241,14.241,0,0,1-1.657,4.338,14.282,14.282,0,0,1-4.348,1.631,86.747,86.747,0,0,1-8.637,1.335c-3.146.364-6.36.663-9.2,1.027a28.819,28.819,0,0,0-7.149,1.5,28.818,28.818,0,0,0-6.136,3.958c-2.272,1.736-4.791,3.783-7.281,5.737a85.527,85.527,0,0,1-7.068,5.122,13.95,13.95,0,0,1-4.24,1.889,14.121,14.121,0,0,1-4.229-1.913A85.63,85.63,0,0,1,97.6,178.3c-2.478-1.968-4.985-4.03-7.247-5.779a28.915,28.915,0,0,0-6.113-4,29.125,29.125,0,0,0-7.14-1.545c-2.835-.374-6.045-.706-9.189-1.083a84.421,84.421,0,0,1-8.629-1.384,14.212,14.212,0,0,1-4.338-1.656,14.285,14.285,0,0,1-1.631-4.348,86.709,86.709,0,0,1-1.335-8.638c-.364-3.146-.663-6.36-1.027-9.2a28.77,28.77,0,0,0-1.5-7.149,28.812,28.812,0,0,0-3.958-6.136c-1.736-2.273-3.781-4.792-5.737-7.281a85.423,85.423,0,0,1-5.122-7.068,13.925,13.925,0,0,1-1.888-4.24,13.787,13.787,0,0,1,1.913-4.227,85.513,85.513,0,0,1,5.163-7.038c1.968-2.48,4.03-4.986,5.78-7.247A29.028,29.028,0,0,0,49.6,84.171a29.048,29.048,0,0,0,1.544-7.14c.374-2.833.706-6.045,1.083-9.189A84.412,84.412,0,0,1,53.6,59.217a14.257,14.257,0,0,1,1.655-4.338,13.977,13.977,0,0,1,4.35-1.631,86.747,86.747,0,0,1,8.636-1.335c3.146-.363,6.36-.663,9.2-1.026a28.76,28.76,0,0,0,7.149-1.5,28.849,28.849,0,0,0,6.137-3.958c2.272-1.736,4.79-3.782,7.28-5.737a85.2,85.2,0,0,1,7.069-5.122,13.928,13.928,0,0,1,4.233-1.893Z" transform="translate(3188.649 3731.687)" fill="#fff" stroke="#000" stroke-width="4"></path></g></g><path id="Path_162" data-name="Path 162" d="M301.287,172.167V155.2a8.986,8.986,0,0,1,5.786,6.852l12.294-1.631a18.154,18.154,0,0,0-5.786-10.441c-2.892-2.61-7.232-4.242-12.295-4.568v-4.242h-6.871v4.242c-19.165,1.631-22.419,19.9-13.74,29.367,2.892,3.263,7.594,5.873,13.74,7.5v18.273a14.4,14.4,0,0,1-7.594-9.789l-12.656,1.306c1.808,11.747,9.4,17.62,20.249,18.926v7.831h6.872V210.67c21.7-2.937,23.5-23.167,15.91-31.325-2.892-2.936-8.316-5.547-15.91-7.178Zm-6.871-2.285a9.625,9.625,0,0,1-4.7-3.263c-3.254-4.242-1.085-10.116,4.7-11.747Zm6.871,31.325V184.239a11.39,11.39,0,0,1,6.147,3.263C311.773,192.071,308.881,199.9,301.287,201.207Z" transform="translate(3959.282 1293.002)"></path></g></svg>