<svg xmlns="http://www.w3.org/2000/svg" xmlns:xlink="http://www.w3.org/1999/xlink" width="303" height="303" viewBox="0 0 303 303"><defs><clipPath id="clip-path"><rect id="Rectangle_7671" data-name="Rectangle 7671" width="213.986" height="254.898" fill="none"></rect></clipPath><clipPath id="clip-Project_manager"><rect width="303" height="303"></rect></clipPath></defs><g id="Project_manager" data-name="Project manager" clip-path="url(#clip-Project_manager)"><rect width="303" height="303" fill="rgba(255,255,255,0)"></rect><g id="Group_26670" data-name="Group 26670" transform="translate(16244.338 -15001.43)"><g id="Group_26669" data-name="Group 26669" transform="translate(-16199.83 15025.481)"><g id="Group_26668" data-name="Group 26668" clip-path="url(#clip-path)"><path id="Path_48470" data-name="Path 48470" d="M25.369,259.038H197.512S180.288-5.309,37.533,137.446Z" transform="translate(-1.725 -6.47)" fill="#fff"></path><path id="Path_48471" data-name="Path 48471" d="M25.369,259.038H197.512S180.288-5.309,37.533,137.446Z" transform="translate(-1.725 -6.47)" fill="none" stroke="#000" stroke-linecap="round" stroke-linejoin="round" stroke-width="5"></path><path id="Path_48472" data-name="Path 48472" d="M193.131,209.3c13.644-22.7,20.856-49.646,20.856-77.945C213.987,58.93,165.993,0,107,0S0,58.924,0,131.357c0,31.694,9.313,62.246,26.195,86.152l-4.582,32.364a2.387,2.387,0,0,0,2.031,2.694,2.276,2.276,0,0,0,.338,0,2.394,2.394,0,0,0,2.329-2.05l7.806-55.168v0a20.829,20.829,0,0,1,12.642-16.3l9.506-3.877L57.4,196.8a2.395,2.395,0,0,0,2.556,2.254l24.972-2.393,7.628,10.227,2.289,3.569c-.391,1,11.627,32.229,12.488,32.87l.959,8.767c.058.042.123.059.181.1a1.666,1.666,0,0,0,.174.123c.065.035.081,0,.117.035v0a2.218,2.218,0,0,0,.327.112,2.474,2.474,0,0,0,.3.069,2.289,2.289,0,0,0,.339,0,2.81,2.81,0,0,0,.308,0,2.845,2.845,0,0,0,.326-.075,2.484,2.484,0,0,0,.3-.1l.123-.041v0a1.948,1.948,0,0,0,.174-.129,1.444,1.444,0,0,0,.181-.094l2.813-23.487c.86-.64,3.329-6.309,2.94-7.307l17.365-25.145,25.219,2.888a2.382,2.382,0,0,0,1.746-.582,2.423,2.423,0,0,0,.805-1.665l1.139-21.619,9.465,3.894a20.834,20.834,0,0,1,12.65,16.3l7.806,55.168h0a2.386,2.386,0,0,0,2.357,2.048,1.719,1.719,0,0,0,.339,0,2.384,2.384,0,0,0,2.031-2.693l-5.617-39.7a2.318,2.318,0,0,0,.931-.88Z"></path><path id="Path_48473" data-name="Path 48473" d="M112.622,191.307c-38.564,0-69.931-29.105-69.931-64.917A62.072,62.072,0,0,1,61.836,81.766c64.555,37.183,98.686,25.711,111.6,21.369a40.169,40.169,0,0,1,3.983-1.21,60.43,60.43,0,0,1,5.133,24.448c0,35.809-31.34,64.933-69.931,64.933Z" transform="translate(-2.903 -5.561)" fill="#fff"></path><path id="Path_48474" data-name="Path 48474" d="M112.622,191.307c-38.564,0-69.931-29.105-69.931-64.917A62.072,62.072,0,0,1,61.836,81.766c64.555,37.183,98.686,25.711,111.6,21.369a40.169,40.169,0,0,1,3.983-1.21,60.43,60.43,0,0,1,5.133,24.448c0,35.809-31.34,64.933-69.931,64.933Z" transform="translate(-2.903 -5.561)" fill="none" stroke="#000" stroke-miterlimit="10" stroke-width="1"></path><path id="Path_48475" data-name="Path 48475" d="M66.49,206.839l-1.042-19.693a15.107,15.107,0,0,1,2.875,1.38q1.659,1.2,3.389,2.328c4.279,3.353,9.2,8.511,14.268,14.552Z" transform="translate(-4.451 -12.727)" fill="#fff"></path><path id="Path_48476" data-name="Path 48476" d="M92.693,214.071c7.492,9.663,14.844,20.454,20.315,29.285v16.619L83.454,237.921Z" transform="translate(-5.675 -14.558)" fill="#fff"></path><path id="Path_48477" data-name="Path 48477" d="M116.761,238.535c-2.69-4.227-7.463-11.519-13.207-19.436h26.427c-5.746,7.916-10.525,15.216-13.219,19.436" transform="translate(-7.042 -14.9)" fill="#e526d6"></path><path id="Path_48478" data-name="Path 48478" d="M149.84,237.918l-29.554,22.057V243.356A352.349,352.349,0,0,1,140.6,214.071Z" transform="translate(-8.18 -14.558)" fill="#fff"></path><path id="Path_48479" data-name="Path 48479" d="M132.416,212.952l-33.5,0c-3.661-4.848-7.567-9.733-11.538-14.115h0a79.522,79.522,0,0,0,56.567,0c-3.946,4.411-7.871,9.265-11.538,14.115Z" transform="translate(-5.943 -13.522)" fill="#e526d6"></path><path id="Path_48480" data-name="Path 48480" d="M167.461,206.839l-19.5-1.409c5.064-6.054,9.989-11.212,14.261-14.553,1.164-.744,2.286-1.529,3.4-2.328v0a15.021,15.021,0,0,1,2.869-1.38Z" transform="translate(-10.062 -12.729)" fill="#fff"></path><path id="Path_48481" data-name="Path 48481" d="M174.8,175l-11.688-4.808c13.387-12.6,21.66-29.92,21.66-49.013h0A65.216,65.216,0,0,0,178.877,94c-1.5-3.289-5.036-2.1-9.511-.582-12.457,4.186-45.542,15.31-109.233-21.87v0a2.39,2.39,0,0,0-2.829.313c-14.145,13.168-21.94,30.689-21.94,49.332,0,19.093,8.28,36.41,21.661,49.013L45.33,175.012h0a25.608,25.608,0,0,0-15.552,20.024L27.548,210.8c-14.514-22.41-22.424-50.253-22.424-79.1,0-69.8,45.85-126.583,102.209-126.583S209.541,61.906,209.541,131.7c0,25.881-6.212,50.577-17.993,71.719l-1.164-8.4v0A25.614,25.614,0,0,0,174.8,175Z" transform="translate(-0.348 -0.348)" fill="#ffc729"></path><path id="Path_48482" data-name="Path 48482" d="M174.8,175l-11.688-4.808c13.387-12.6,21.66-29.92,21.66-49.013h0A65.216,65.216,0,0,0,178.877,94c-1.5-3.289-5.036-2.1-9.511-.582-12.457,4.186-45.542,15.31-109.233-21.87v0a2.39,2.39,0,0,0-2.829.313c-14.145,13.168-21.94,30.689-21.94,49.332,0,19.093,8.28,36.41,21.661,49.013L45.33,175.012h0a25.608,25.608,0,0,0-15.552,20.024L27.548,210.8c-14.514-22.41-22.424-50.253-22.424-79.1,0-69.8,45.85-126.583,102.209-126.583S209.541,61.906,209.541,131.7c0,25.881-6.212,50.577-17.993,71.719l-1.164-8.4v0A25.614,25.614,0,0,0,174.8,175Z" transform="translate(-0.348 -0.348)" fill="none" stroke="#000" stroke-miterlimit="10" stroke-width="2"></path><path id="Path_48483" data-name="Path 48483" d="M133.54,170.178c-.035.052-3.771,5.077-17.4,5.077-13.528,0-17.4-5.07-17.4-5.077a2.387,2.387,0,0,0-3.958,2.649c.488.74,5.274,7.2,21.375,7.2s20.88-6.461,21.375-7.2h0a2.386,2.386,0,0,0-3.969-2.649Z" transform="translate(-6.423 -11.503)"></path></g></g><g id="Ellipse_879" data-name="Ellipse 879" transform="translate(-16123.355 15140.532)" stroke="#707070" stroke-width="1"><ellipse cx="4.467" cy="7.817" rx="4.467" ry="7.817" stroke="none"></ellipse><ellipse cx="4.467" cy="7.817" rx="3.967" ry="7.317" fill="none"></ellipse></g><g id="Ellipse_880" data-name="Ellipse 880" transform="translate(-16068.639 15140.532)" stroke="#707070" stroke-width="1"><ellipse cx="4.467" cy="7.817" rx="4.467" ry="7.817" stroke="none"></ellipse><ellipse cx="4.467" cy="7.817" rx="3.967" ry="7.317" fill="none"></ellipse></g><path id="Path_48469" data-name="Path 48469" d="M-15354.537,15243.52s-4.842,9.313,0,16.2-2.359,8.649-2.359,8.649-2.094,1.663,0,3.192" transform="translate(-733.646 -92.206)" fill="none" stroke="#000" stroke-linecap="round" stroke-linejoin="round" stroke-width="4"></path></g></g></svg>