<svg xmlns="http://www.w3.org/2000/svg" xmlns:xlink="http://www.w3.org/1999/xlink" width="190" height="190" viewBox="0 0 190 190"><defs><clipPath id="clip-Tick_3"><rect width="190" height="190"></rect></clipPath></defs><g id="Tick_3" data-name="Tick 3" clip-path="url(#clip-Tick_3)"><rect width="190" height="190" fill="rgba(255,255,255,0)"></rect><g id="Group_3" data-name="Group 3"><path id="Path_1" data-name="Path 1" d="M91.676,0C88.721-.008,86.32,1.378,83.6,3.068a98.874,98.874,0,0,0-8.452,6.1c-2.843,2.231-5.638,4.5-8.043,6.343a35.112,35.112,0,0,1-5.394,3.587,34.712,34.712,0,0,1-6.371,1.251c-3,.382-6.6.739-10.189,1.144a99.1,99.1,0,0,0-10.291,1.6c-3.121.7-5.806,1.4-7.9,3.489s-2.808,4.764-3.535,7.881a99.443,99.443,0,0,0-1.658,10.282c-.429,3.587-.811,7.182-1.208,10.182a35.653,35.653,0,0,1-1.288,6.364,34.971,34.971,0,0,1-3.618,5.373c-1.852,2.4-4.145,5.177-6.39,8.006a99.281,99.281,0,0,0-6.146,8.416C1.409,85.787.008,88.177,0,91.135s1.378,5.356,3.068,8.075a98.724,98.724,0,0,0,6.1,8.452c2.231,2.843,4.5,5.638,6.343,8.044a34.941,34.941,0,0,1,3.587,5.394,34.734,34.734,0,0,1,1.251,6.371c.382,3,.739,6.6,1.144,10.187a98.945,98.945,0,0,0,1.6,10.291c.715,3.123,1.4,5.806,3.489,7.9s4.764,2.808,7.881,3.534a99.524,99.524,0,0,0,10.282,1.658c3.587.429,7.182.811,10.182,1.207a35.83,35.83,0,0,1,6.364,1.286,34.949,34.949,0,0,1,5.373,3.62c2.4,1.852,5.177,4.145,8.006,6.389a99.07,99.07,0,0,0,8.416,6.147c2.708,1.706,5.1,3.106,8.057,3.114s5.356-1.378,8.075-3.067a98.962,98.962,0,0,0,8.452-6.1c2.843-2.23,5.638-4.506,8.044-6.344a34.925,34.925,0,0,1,5.394-3.586,34.487,34.487,0,0,1,6.37-1.251c3-.381,6.6-.739,10.189-1.144a101.805,101.805,0,0,0,10.291-1.6c3.123-.715,5.806-1.4,7.9-3.487s2.808-4.765,3.534-7.882a99.459,99.459,0,0,0,1.658-10.282c.429-3.586.811-7.18,1.208-10.181a35.652,35.652,0,0,1,1.288-6.364,34.869,34.869,0,0,1,3.62-5.373c1.852-2.4,4.145-5.177,6.389-8.006a99.719,99.719,0,0,0,6.147-8.416c1.706-2.709,3.106-5.1,3.115-8.058s-1.378-5.356-3.068-8.075a99.1,99.1,0,0,0-6.1-8.452c-2.229-2.841-4.5-5.636-6.343-8.043a34.995,34.995,0,0,1-3.587-5.394,34.631,34.631,0,0,1-1.25-6.371c-.381-3-.739-6.6-1.144-10.187a101.752,101.752,0,0,0-1.6-10.293c-.715-3.121-1.4-5.806-3.487-7.9s-4.765-2.808-7.882-3.534a99.427,99.427,0,0,0-10.282-1.658c-3.586-.429-7.18-.811-10.182-1.207a35.617,35.617,0,0,1-6.362-1.288,34.824,34.824,0,0,1-5.373-3.618c-2.4-1.852-5.177-4.145-8.006-6.39a99.555,99.555,0,0,0-8.417-6.146C97.025,1.41,94.633.011,91.676,0Z" transform="translate(4 4)" fill="#e645ff" stroke="#000" stroke-width="4"></path><path id="Path_2" data-name="Path 2" d="M109.309,32.677a14.084,14.084,0,0,1,4.229,1.913,85.626,85.626,0,0,1,7.037,5.163c2.48,1.968,4.986,4.03,7.247,5.78a28.948,28.948,0,0,0,6.113,3.995,29.115,29.115,0,0,0,7.14,1.545c2.834.374,6.046.706,9.189,1.084a84.508,84.508,0,0,1,8.63,1.384,14.22,14.22,0,0,1,4.338,1.657,14.294,14.294,0,0,1,1.631,4.348,86.641,86.641,0,0,1,1.335,8.636c.364,3.146.663,6.36,1.027,9.2a28.787,28.787,0,0,0,1.5,7.15,28.861,28.861,0,0,0,3.958,6.136c1.736,2.272,3.783,4.79,5.737,7.28a85.358,85.358,0,0,1,5.122,7.069,13.936,13.936,0,0,1,1.889,4.24,14.115,14.115,0,0,1-1.913,4.227,85.843,85.843,0,0,1-5.164,7.038c-1.969,2.479-4.031,4.986-5.779,7.247a28.875,28.875,0,0,0-3.995,6.114,29.091,29.091,0,0,0-1.545,7.14c-.374,2.833-.706,6.045-1.084,9.189s-.823,6.218-1.384,8.629a14.241,14.241,0,0,1-1.657,4.338,14.281,14.281,0,0,1-4.348,1.631,86.747,86.747,0,0,1-8.637,1.335c-3.146.364-6.36.663-9.2,1.027a28.82,28.82,0,0,0-7.149,1.5,28.819,28.819,0,0,0-6.136,3.958c-2.272,1.736-4.791,3.783-7.281,5.737a85.529,85.529,0,0,1-7.068,5.122,13.95,13.95,0,0,1-4.24,1.889,14.121,14.121,0,0,1-4.229-1.913A85.634,85.634,0,0,1,97.6,178.3c-2.478-1.968-4.985-4.03-7.247-5.779a28.916,28.916,0,0,0-6.113-3.995,29.124,29.124,0,0,0-7.14-1.545c-2.835-.374-6.045-.706-9.189-1.083a84.42,84.42,0,0,1-8.629-1.384,14.212,14.212,0,0,1-4.338-1.656,14.285,14.285,0,0,1-1.631-4.348,86.713,86.713,0,0,1-1.335-8.638c-.364-3.146-.663-6.36-1.027-9.2a28.77,28.77,0,0,0-1.5-7.149,28.812,28.812,0,0,0-3.958-6.136c-1.736-2.273-3.781-4.792-5.737-7.281a85.427,85.427,0,0,1-5.122-7.068,13.925,13.925,0,0,1-1.888-4.24,13.787,13.787,0,0,1,1.913-4.227,85.514,85.514,0,0,1,5.163-7.038c1.968-2.48,4.03-4.986,5.78-7.247a29.028,29.028,0,0,0,3.995-6.115,29.048,29.048,0,0,0,1.544-7.14c.374-2.833.706-6.045,1.083-9.189A84.413,84.413,0,0,1,53.6,59.217a14.257,14.257,0,0,1,1.655-4.338,13.977,13.977,0,0,1,4.35-1.631,86.746,86.746,0,0,1,8.636-1.335c3.146-.363,6.36-.663,9.2-1.026a28.76,28.76,0,0,0,7.149-1.5,28.849,28.849,0,0,0,6.137-3.958c2.272-1.736,4.79-3.782,7.28-5.737a85.2,85.2,0,0,1,7.069-5.122A13.928,13.928,0,0,1,109.309,32.677Z" transform="translate(-13.658 -13.62)" fill="#fff" stroke="#000" stroke-width="4"></path><path id="Path_3" data-name="Path 3" d="M226.224,167.607a5.163,5.163,0,0,0-3.714-1.3,1.947,1.947,0,0,0-.2.022,5.082,5.082,0,0,0-3.326,1.692l-40.994,46.01-19.072-16.277a5.133,5.133,0,1,0-6.673,7.8l22.849,19.5.044.039a5.164,5.164,0,0,0,7.168-.484l44.34-49.763a5.138,5.138,0,0,0-.42-7.242" transform="translate(-92.245 -102.386)"></path></g></g></svg>