<svg xmlns="http://www.w3.org/2000/svg" width="250" height="250" viewBox="0 0 250 250" fill="none"><path d="M53.933 135.512C47.5977 135.079 36.971 135.808 26.3188 135.172C22.8467 135.03 19.3845 134.704 15.9466 134.197C10.8071 133.349 8.81408 131.551 8.08471 126.31C6.73373 115.857 6.22041 105.312 6.54965 94.7774C6.74472 86.2964 7.8218 77.8155 8.24585 69.3345C8.24356 68.2005 8.5852 67.0925 9.22569 66.1568C9.86618 65.221 10.7754 64.5015 11.8333 64.0932C13.6126 63.307 15.5217 62.8557 17.4647 62.7617C29.2278 62.2528 40.9909 62.1256 52.7541 62.1935C67.0785 62.2783 81.3944 61.7185 95.7188 62.1935C97.457 62.2567 99.1871 62.4609 100.892 62.8041C107.194 64.0169 110.069 67.1803 110.815 73.5071C111.604 80.1223 111.612 86.7799 111.807 93.4205C112.036 101.503 111.629 109.585 111.434 117.659C111.346 120.727 110.937 123.777 110.213 126.759C109.908 128.054 109.447 129.307 108.839 130.491C108.387 131.531 107.66 132.428 106.737 133.085C105.813 133.743 104.728 134.136 103.598 134.223C98.509 134.587 93.4204 135.071 88.3318 135.215C78.2649 135.435 68.2574 136.249 53.933 135.512ZM49.6925 132.823C53.7803 132.823 57.8681 132.755 61.9644 132.823C71.3783 132.993 80.7753 132.246 90.1892 132.145C93.7682 132.102 97.3472 131.78 100.918 131.543C104.972 131.28 106.006 130.465 107.143 126.454C107.755 124.394 108.133 122.272 108.271 120.127C109.017 108.364 108.873 96.5924 108.669 84.8292C108.598 81.3515 108.334 77.8803 107.881 74.4315C107.032 68.0623 104.836 66.0014 98.4242 65.3229C97.9153 65.2636 97.4065 65.2636 96.8892 65.2212C90.5539 64.6954 84.1677 64.9413 77.8663 65.0007C60.9806 65.1533 44.095 65.2297 27.2008 65.3314C23.8085 65.3314 20.4161 65.4162 17.083 65.747C15.8596 65.8479 14.6586 66.1339 13.521 66.5951C12.2404 67.1464 10.9767 67.7316 11.9266 69.521C12.0913 69.7945 12.1486 70.1194 12.0875 70.4328C12.0264 70.7461 11.8512 71.0257 11.5959 71.2172C10.7478 71.8957 10.8241 72.8286 10.7478 73.7615C10.6375 75.4577 10.5951 77.2387 10.434 78.9689C9.22842 92.123 9.14611 105.356 10.188 118.524C10.3313 121.387 10.6828 124.236 11.2396 127.048C11.3951 128.068 11.8822 129.009 12.6256 129.724C13.369 130.44 14.3275 130.891 15.3529 131.008C17.0491 131.297 18.7877 131.543 20.5178 131.712C30.2286 132.603 39.9563 132.425 49.684 132.806L49.6925 132.823Z" fill="#090E0F"></path><path d="M186.763 193.818L154.866 193.055C152.303 193.018 149.748 192.748 147.233 192.249C142.806 191.325 140.728 189.052 140.228 184.532C139.872 181.385 139.66 178.213 139.541 175.05C139.176 165.246 138.795 155.433 138.6 145.621C138.454 140.611 138.738 135.597 139.448 130.635C140.143 126.047 142.764 123.401 147.25 122.315C152.344 121.188 157.545 120.619 162.762 120.619C183.964 120.178 205.099 120.534 226.268 120.78C228.51 120.689 230.756 120.837 232.968 121.221C234.328 121.472 235.6 122.073 236.658 122.965C237.715 123.858 238.522 125.01 238.998 126.31C239.873 128.82 240.468 131.42 240.77 134.061C242.21 143.054 242.662 152.177 242.119 161.268C241.669 167.994 240.914 174.702 240.253 181.419C240.124 182.535 239.905 183.638 239.6 184.718C238.302 189.612 235.605 191.8 230.534 192.487C223.324 193.346 216.065 193.714 208.805 193.589H186.755L186.763 193.818ZM187.501 190.918V190.57C197.933 190.57 208.364 190.57 218.787 190.57C222.879 190.447 226.96 190.082 231.009 189.476C232.293 189.372 233.511 188.866 234.492 188.031C235.472 187.195 236.164 186.072 236.47 184.82C236.833 183.756 237.091 182.66 237.242 181.546C238.59 170.377 239.786 159.19 239.201 147.902C238.99 141.566 238.158 135.265 236.716 129.091C235.758 125.3 234.325 124.206 230.474 123.952C227.625 123.757 224.766 123.638 221.908 123.63C211.273 123.57 200.638 123.63 189.994 123.553C180.182 123.502 170.361 123.477 160.548 123.774C156.264 123.857 152 124.392 147.827 125.368C144.825 126.106 142.984 127.853 142.526 130.966C142.399 131.873 142.204 132.781 142.128 133.688C141.674 138.48 141.521 143.295 141.67 148.106C142.043 158.848 142.436 169.591 142.849 180.334C142.92 181.755 143.076 183.171 143.315 184.574C143.807 187.644 144.935 188.815 148.014 189.391C149.615 189.721 151.24 189.926 152.873 190.002C164.356 190.316 175.907 190.604 187.459 190.918H187.501Z" fill="#130F09"></path><mask id="path-3-outside-1_565_143" maskUnits="userSpaceOnUse" x="122.691" y="61.3676" width="75" height="46" fill="black"><rect fill="white" x="122.691" y="61.3676" width="75" height="46"></rect><path d="M132.479 73.278C135.872 72.6759 139.264 71.7938 142.657 71.3189C150.714 70.245 158.912 71.4191 166.344 74.7113C176.801 79.2317 186.045 85.5161 192.406 95.3286C193.854 97.557 195.094 99.9132 196.112 102.368C196.5 103.09 196.703 103.897 196.706 104.717C196.647 105.641 196.282 106.328 195.307 106.413C194.458 106.498 194.051 105.904 193.772 105.183C187.165 87.8653 173.358 79.2232 156.396 74.8724C147.915 72.6928 139.332 74.0243 131.08 76.9927C129.667 77.3689 128.4 78.1608 127.442 79.2656C128.442 79.5031 129.138 79.7066 129.893 79.8338C134.277 80.5971 138.213 82.5901 142.233 84.3372C142.79 84.5894 143.297 84.9431 143.725 85.3804C144.505 86.1691 144.93 87.1275 144.064 88.0858C143.199 89.0442 142.563 88.2724 141.732 87.7636C137.576 85.1639 132.947 83.4114 128.112 82.6071C127.093 82.545 126.094 82.2919 125.169 81.8608C123.71 81.0127 123.244 79.5455 124.168 78.2479C127.654 73.3459 130.597 68.0283 134.905 63.7284C135.041 63.5927 135.125 63.3807 135.261 63.2365C136.041 62.3884 136.957 61.9644 137.907 62.8888C138.857 63.8132 138.204 64.585 137.483 65.2465C135.693 66.9301 134.092 68.8042 132.708 70.8355C132.352 71.3274 132.072 71.8702 131.759 72.396C131.547 72.6674 131.19 72.9218 131.504 73.3204C131.818 73.719 132.132 73.4391 132.479 73.278Z"></path></mask><path d="M132.479 73.278C135.872 72.6759 139.264 71.7938 142.657 71.3189C150.714 70.245 158.912 71.4191 166.344 74.7113C176.801 79.2317 186.045 85.5161 192.406 95.3286C193.854 97.557 195.094 99.9132 196.112 102.368C196.5 103.09 196.703 103.897 196.706 104.717C196.647 105.641 196.282 106.328 195.307 106.413C194.458 106.498 194.051 105.904 193.772 105.183C187.165 87.8653 173.358 79.2232 156.396 74.8724C147.915 72.6928 139.332 74.0243 131.08 76.9927C129.667 77.3689 128.4 78.1608 127.442 79.2656C128.442 79.5031 129.138 79.7066 129.893 79.8338C134.277 80.5971 138.213 82.5901 142.233 84.3372C142.79 84.5894 143.297 84.9431 143.725 85.3804C144.505 86.1691 144.93 87.1275 144.064 88.0858C143.199 89.0442 142.563 88.2724 141.732 87.7636C137.576 85.1639 132.947 83.4114 128.112 82.6071C127.093 82.545 126.094 82.2919 125.169 81.8608C123.71 81.0127 123.244 79.5455 124.168 78.2479C127.654 73.3459 130.597 68.0283 134.905 63.7284C135.041 63.5927 135.125 63.3807 135.261 63.2365C136.041 62.3884 136.957 61.9644 137.907 62.8888C138.857 63.8132 138.204 64.585 137.483 65.2465C135.693 66.9301 134.092 68.8042 132.708 70.8355C132.352 71.3274 132.072 71.8702 131.759 72.396C131.547 72.6674 131.19 72.9218 131.504 73.3204C131.818 73.719 132.132 73.4391 132.479 73.278Z" fill="black"></path><path d="M132.479 73.278C135.872 72.6759 139.264 71.7938 142.657 71.3189C150.714 70.245 158.912 71.4191 166.344 74.7113C176.801 79.2317 186.045 85.5161 192.406 95.3286C193.854 97.557 195.094 99.9132 196.112 102.368C196.5 103.09 196.703 103.897 196.706 104.717C196.647 105.641 196.282 106.328 195.307 106.413C194.458 106.498 194.051 105.904 193.772 105.183C187.165 87.8653 173.358 79.2232 156.396 74.8724C147.915 72.6928 139.332 74.0243 131.08 76.9927C129.667 77.3689 128.4 78.1608 127.442 79.2656C128.442 79.5031 129.138 79.7066 129.893 79.8338C134.277 80.5971 138.213 82.5901 142.233 84.3372C142.79 84.5894 143.297 84.9431 143.725 85.3804C144.505 86.1691 144.93 87.1275 144.064 88.0858C143.199 89.0442 142.563 88.2724 141.732 87.7636C137.576 85.1639 132.947 83.4114 128.112 82.6071C127.093 82.545 126.094 82.2919 125.169 81.8608C123.71 81.0127 123.244 79.5455 124.168 78.2479C127.654 73.3459 130.597 68.0283 134.905 63.7284C135.041 63.5927 135.125 63.3807 135.261 63.2365C136.041 62.3884 136.957 61.9644 137.907 62.8888C138.857 63.8132 138.204 64.585 137.483 65.2465C135.693 66.9301 134.092 68.8042 132.708 70.8355C132.352 71.3274 132.072 71.8702 131.759 72.396C131.547 72.6674 131.19 72.9218 131.504 73.3204C131.818 73.719 132.132 73.4391 132.479 73.278Z" stroke="black" mask="url(#path-3-outside-1_565_143)"></path><mask id="path-4-outside-2_565_143" maskUnits="userSpaceOnUse" x="52.9961" y="146.781" width="70" height="49" fill="black"><rect fill="white" x="52.9961" y="146.781" width="70" height="49"></rect><path d="M114.156 183.294C100.323 187.161 87.144 185.549 75.0502 177.823C66.5692 172.37 59.954 165 56.2562 155.357C55.7813 154.119 55.1877 152.923 54.6958 151.693C54.4013 151.046 54.1876 150.366 54.0597 149.666C53.9989 149.467 53.9814 149.257 54.0085 149.051C54.0355 148.844 54.1065 148.646 54.2165 148.469C54.3266 148.293 54.4733 148.142 54.6466 148.026C54.8199 147.911 55.016 147.834 55.2216 147.801C56.0697 147.665 56.4174 148.267 56.7058 149.022C57.3927 150.828 58.2408 152.584 58.9532 154.382C62.5831 163.609 69.1304 170.402 77.2552 175.678C85.2104 180.851 94.1747 182.573 103.614 182.174C108.439 182.106 113.145 180.668 117.184 178.027C117.511 177.793 117.82 177.535 118.108 177.255C118.176 177.196 118.159 177.068 118.184 176.967C118.278 176.721 118.184 176.594 117.922 176.517C111.908 174.719 106.455 171.7 101.027 168.638C100.179 168.189 99.5517 167.79 99.9418 166.832C100.008 166.632 100.117 166.449 100.261 166.294C100.404 166.14 100.579 166.019 100.774 165.938C100.969 165.858 101.178 165.82 101.389 165.828C101.6 165.836 101.806 165.889 101.994 165.984C102.848 166.315 103.669 166.727 104.445 167.214C108.904 169.918 113.693 172.036 118.693 173.515C121.942 174.439 122.425 175.627 120.983 178.722C118.77 183.446 116.463 188.119 114.198 192.809C113.981 193.27 113.723 193.71 113.427 194.124C113.309 194.326 113.153 194.503 112.966 194.644C112.78 194.786 112.567 194.888 112.34 194.946C112.113 195.003 111.877 195.015 111.646 194.98C111.414 194.946 111.192 194.865 110.993 194.743C109.975 194.107 110.39 193.267 110.908 192.368C112.42 189.708 113.749 186.948 114.885 184.108C115.063 183.811 115.42 183.531 115.089 183.149C114.758 182.768 114.444 183.056 114.156 183.294Z"></path></mask><path d="M114.156 183.294C100.323 187.161 87.144 185.549 75.0502 177.823C66.5692 172.37 59.954 165 56.2562 155.357C55.7813 154.119 55.1877 152.923 54.6958 151.693C54.4013 151.046 54.1876 150.366 54.0597 149.666C53.9989 149.467 53.9814 149.257 54.0085 149.051C54.0355 148.844 54.1065 148.646 54.2165 148.469C54.3266 148.293 54.4733 148.142 54.6466 148.026C54.8199 147.911 55.016 147.834 55.2216 147.801C56.0697 147.665 56.4174 148.267 56.7058 149.022C57.3927 150.828 58.2408 152.584 58.9532 154.382C62.5831 163.609 69.1304 170.402 77.2552 175.678C85.2104 180.851 94.1747 182.573 103.614 182.174C108.439 182.106 113.145 180.668 117.184 178.027C117.511 177.793 117.82 177.535 118.108 177.255C118.176 177.196 118.159 177.068 118.184 176.967C118.278 176.721 118.184 176.594 117.922 176.517C111.908 174.719 106.455 171.7 101.027 168.638C100.179 168.189 99.5517 167.79 99.9418 166.832C100.008 166.632 100.117 166.449 100.261 166.294C100.404 166.14 100.579 166.019 100.774 165.938C100.969 165.858 101.178 165.82 101.389 165.828C101.6 165.836 101.806 165.889 101.994 165.984C102.848 166.315 103.669 166.727 104.445 167.214C108.904 169.918 113.693 172.036 118.693 173.515C121.942 174.439 122.425 175.627 120.983 178.722C118.77 183.446 116.463 188.119 114.198 192.809C113.981 193.27 113.723 193.71 113.427 194.124C113.309 194.326 113.153 194.503 112.966 194.644C112.78 194.786 112.567 194.888 112.34 194.946C112.113 195.003 111.877 195.015 111.646 194.98C111.414 194.946 111.192 194.865 110.993 194.743C109.975 194.107 110.39 193.267 110.908 192.368C112.42 189.708 113.749 186.948 114.885 184.108C115.063 183.811 115.42 183.531 115.089 183.149C114.758 182.768 114.444 183.056 114.156 183.294Z" fill="black"></path><path d="M114.156 183.294C100.323 187.161 87.144 185.549 75.0502 177.823C66.5692 172.37 59.954 165 56.2562 155.357C55.7813 154.119 55.1877 152.923 54.6958 151.693C54.4013 151.046 54.1876 150.366 54.0597 149.666C53.9989 149.467 53.9814 149.257 54.0085 149.051C54.0355 148.844 54.1065 148.646 54.2165 148.469C54.3266 148.293 54.4733 148.142 54.6466 148.026C54.8199 147.911 55.016 147.834 55.2216 147.801C56.0697 147.665 56.4174 148.267 56.7058 149.022C57.3927 150.828 58.2408 152.584 58.9532 154.382C62.5831 163.609 69.1304 170.402 77.2552 175.678C85.2104 180.851 94.1747 182.573 103.614 182.174C108.439 182.106 113.145 180.668 117.184 178.027C117.511 177.793 117.82 177.535 118.108 177.255C118.176 177.196 118.159 177.068 118.184 176.967C118.278 176.721 118.184 176.594 117.922 176.517C111.908 174.719 106.455 171.7 101.027 168.638C100.179 168.189 99.5517 167.79 99.9418 166.832C100.008 166.632 100.117 166.449 100.261 166.294C100.404 166.14 100.579 166.019 100.774 165.938C100.969 165.858 101.178 165.82 101.389 165.828C101.6 165.836 101.806 165.889 101.994 165.984C102.848 166.315 103.669 166.727 104.445 167.214C108.904 169.918 113.693 172.036 118.693 173.515C121.942 174.439 122.425 175.627 120.983 178.722C118.77 183.446 116.463 188.119 114.198 192.809C113.981 193.27 113.723 193.71 113.427 194.124C113.309 194.326 113.153 194.503 112.966 194.644C112.78 194.786 112.567 194.888 112.34 194.946C112.113 195.003 111.877 195.015 111.646 194.98C111.414 194.946 111.192 194.865 110.993 194.743C109.975 194.107 110.39 193.267 110.908 192.368C112.42 189.708 113.749 186.948 114.885 184.108C115.063 183.811 115.42 183.531 115.089 183.149C114.758 182.768 114.444 183.056 114.156 183.294Z" stroke="black" mask="url(#path-4-outside-2_565_143)"></path><path d="M49.6838 132.806C39.9561 132.408 30.2284 132.586 20.5346 131.67C18.8384 131.5 17.0828 131.254 15.3697 130.966C14.3442 130.849 13.3858 130.398 12.6423 129.682C11.8989 128.966 11.4119 128.026 11.2564 127.005C10.6996 124.193 10.3481 121.345 10.2048 118.482C9.1629 105.314 9.24517 92.0807 10.4507 78.9265C10.6118 77.2303 10.6542 75.4577 10.7645 73.7191C10.8154 72.8202 10.7136 71.8872 11.6126 71.1748C11.868 70.9833 12.0432 70.7037 12.1043 70.3904C12.1654 70.077 12.1081 69.7521 11.9434 69.4786C11.002 67.6892 12.2572 67.104 13.5378 66.5527C14.6754 66.0915 15.8764 65.8056 17.0998 65.7046C20.4922 65.3739 23.8846 65.3145 27.2176 65.2891C44.1118 65.1873 60.9974 65.1109 77.8831 64.9583C84.2269 64.8989 90.6046 64.653 96.906 65.1788C97.4233 65.2212 97.9321 65.2212 98.441 65.2806C104.853 65.9591 107.092 68.0199 107.897 74.3891C108.351 77.8379 108.614 81.3091 108.686 84.7869C108.89 96.55 109.034 108.322 108.287 120.085C108.15 122.229 107.772 124.352 107.159 126.412C105.989 130.389 104.988 131.203 100.934 131.5C97.364 131.738 93.785 132.06 90.206 132.102C80.7921 132.204 71.3951 132.95 61.9812 132.781C57.851 132.755 53.7716 132.806 49.6838 132.806ZM32.4589 110.662C28.2862 110.662 22.1375 116.26 21.8322 120.568C21.7829 120.873 21.8403 121.186 21.9949 121.453C22.1494 121.72 22.3916 121.926 22.6803 122.035C22.9684 122.15 23.2893 122.152 23.5787 122.04C23.8681 121.929 24.1046 121.712 24.2408 121.433C24.6011 120.819 24.9268 120.184 25.2161 119.533C26.1014 117.679 27.4225 116.067 29.0665 114.835C31.3648 113.181 33.307 113.139 35.546 114.793C36.6994 115.641 37.7086 116.658 38.7772 117.6C45.1549 123.248 48.7679 121.764 53.1186 117.456C54.2304 116.254 55.5033 115.212 56.9011 114.36C58.9874 113.198 60.1323 113.351 61.7352 115.089C62.8037 116.327 64.0298 117.419 65.3821 118.338C69.2918 120.78 71.9549 120.534 75.2879 117.354C76.4302 116.183 77.7152 115.16 79.1128 114.309C81.3094 113.096 82.166 113.207 83.9385 115.064C85.2785 116.463 86.4828 118.007 88.179 119.008C90.3841 120.314 92.6739 120.526 94.8366 119.092C97.5166 117.32 99.4248 114.759 101.274 112.18C101.436 112.011 101.561 111.809 101.637 111.587C101.713 111.365 101.74 111.129 101.716 110.896C101.692 110.662 101.617 110.437 101.497 110.236C101.376 110.034 101.213 109.861 101.019 109.729C99.9676 109.051 99.1025 109.517 98.5258 110.578C97.3968 112.526 95.9459 114.27 94.2345 115.734C92.428 117.43 90.9523 117.43 89.0611 115.895C87.8822 114.928 86.9068 113.724 85.8213 112.647C83.2176 110.043 81.072 109.738 77.8322 111.519C76.0718 112.562 74.4552 113.831 73.0235 115.293C70.9796 117.244 69.7074 117.337 67.2818 115.938C65.8867 115.074 64.6644 113.958 63.6774 112.647C61.8625 110.408 59.5387 110.179 57.0199 110.951C55.565 111.455 54.2348 112.265 53.1186 113.325C52.05 114.275 51.0238 115.276 49.9383 116.209C46.9105 118.83 45.3415 118.88 42.1102 116.396C40.8211 115.395 39.6677 114.224 38.3871 113.207C36.7079 111.892 34.9523 110.62 32.4589 110.679V110.662ZM68.9272 101.011C71.4037 101.13 72.8962 99.5607 74.3465 97.9324C76.4158 95.6171 78.4768 95.1082 80.8769 97.5083C82.58 99.159 84.7191 100.289 87.0426 100.765C89.1883 101.257 91.2831 101.24 93.1998 99.8152C95.1165 98.3904 96.4565 96.1598 97.7371 94.0735C97.8668 93.9107 97.9595 93.7217 98.0088 93.5194C98.058 93.3172 98.0626 93.1066 98.0222 92.9024C97.9819 92.6982 97.8976 92.5053 97.7751 92.3369C97.6526 92.1686 97.495 92.029 97.3131 91.9278C96.465 91.4275 95.7356 91.8685 95.2013 92.5978C94.4804 93.5901 93.8359 94.6333 93.0895 95.6086C91.1644 98.1529 89.6971 98.5515 86.6948 97.5168C84.9851 96.826 83.4094 95.8415 82.0388 94.6078C79.045 92.1907 76.1021 92.284 73.2016 94.8199C72.5824 95.3542 72.0651 95.9987 71.5054 96.5754C69.7413 98.2716 68.3674 98.5091 66.315 97.1776C65.3233 96.4596 64.3773 95.6807 63.4824 94.8453C60.3783 92.2247 57.5456 92.1144 54.3144 94.5485C53.5163 95.1836 52.7546 95.8631 52.033 96.5839C49.0392 99.4505 47.6229 99.7558 43.8064 97.9748C41.6862 96.974 39.6847 95.7188 37.6408 94.5824C36.1081 93.6473 34.3475 93.1526 32.5522 93.1526C30.7568 93.1526 28.9962 93.6473 27.4636 94.5824C24.0813 96.55 21.3867 99.5111 19.7459 103.063C19.3558 103.852 19.0335 104.666 19.9579 105.218C20.8823 105.769 21.6541 105.158 22.2053 104.31C22.5191 103.784 22.7905 103.233 23.1128 102.707C24.334 100.682 25.9805 98.9454 27.9385 97.6186C30.7372 95.7273 33.5953 95.4729 36.5467 97.3557C38.1836 98.3989 39.8628 99.3911 41.5844 100.282C47.131 103.123 49.9975 102.682 54.5179 98.3988C54.7384 98.1868 54.9589 97.9663 55.1879 97.7628C58.063 95.2185 59.3267 95.2185 62.295 97.8052C62.9712 98.4297 63.6819 99.0158 64.4237 99.5607C65.6983 100.541 67.2686 101.059 68.8763 101.028L68.9272 101.011ZM27.3703 74.7199C22.3411 74.7199 19.3982 77.0013 17.2695 80.5803C16.7606 81.4284 15.8446 82.3698 17.0574 83.2264C18.2702 84.0829 18.9063 83.0822 19.5254 82.2256C19.6441 82.056 19.7629 81.8864 19.8646 81.7083C22.4089 77.3321 27.2431 76.2889 31.738 79.4014C33.1417 80.426 34.6414 81.3121 36.216 82.0475C37.6428 82.7643 39.2471 83.0514 40.834 82.8737C42.4208 82.6961 43.922 82.0614 45.155 81.0467C46.1303 80.3004 47.0971 79.5286 48.1318 78.8841C52.5334 76.1447 55.0862 76.3398 58.8348 79.8509C60.0381 81.1108 61.4283 82.1778 62.9566 83.0143C65.1701 84.0575 66.8154 83.7606 68.5032 81.9881C69.1392 81.3266 69.6481 80.5379 70.2757 79.8764C73.1592 76.8402 75.8646 76.7045 79.0535 79.4354C80.5352 80.8483 82.2365 82.0113 84.0911 82.8786C85.923 83.6334 87.8652 84.2101 89.7225 83.167C91.4858 82.1216 93.185 80.9718 94.8111 79.7237C94.9688 79.6321 95.1053 79.5081 95.2115 79.3599C95.3178 79.2117 95.3913 79.0427 95.4274 78.8639C95.4635 78.6852 95.4612 78.5008 95.4208 78.323C95.3803 78.1452 95.3026 77.978 95.1928 77.8324C95.1079 77.6722 94.9906 77.5315 94.8483 77.4191C94.706 77.3067 94.5419 77.2252 94.3663 77.1797C94.1908 77.1343 94.0078 77.1259 93.8288 77.155C93.6499 77.1841 93.4789 77.2502 93.3269 77.349C92.1664 77.9898 91.0603 78.7245 90.0194 79.5456C89.3696 80.1314 88.5509 80.4961 87.6808 80.5876C86.8108 80.679 85.9341 80.4923 85.1767 80.0544C83.3556 79.112 81.6954 77.8868 80.2578 76.4246C77.5693 73.8803 74.6095 73.8803 71.463 75.3475C69.6355 76.2837 68.0569 77.6413 66.8578 79.3081C65.6026 80.8686 65.1616 80.928 63.5332 79.817C62.4749 79.029 61.464 78.1794 60.5055 77.2727C56.3329 73.5326 52.8726 73.0831 47.8943 75.5765C46.3024 76.3918 44.8062 77.3817 43.4333 78.5279C42.6464 79.2727 41.6474 79.7544 40.5747 79.9063C39.5019 80.0583 38.4085 79.8729 37.4457 79.376C35.8992 78.5872 34.3933 77.721 32.9338 76.7808C31.2664 75.6307 29.3349 74.9217 27.3194 74.7199H27.3703Z" fill="#04C4D9" stroke="black" stroke-miterlimit="10"></path><path d="M187.455 190.918C175.904 190.604 164.353 190.316 152.801 189.96C151.168 189.883 149.543 189.679 147.942 189.349C144.863 188.772 143.701 187.602 143.243 184.532C143.004 183.129 142.848 181.713 142.777 180.291C142.364 169.549 141.971 158.806 141.598 148.064C141.449 143.253 141.602 138.438 142.056 133.646C142.132 132.738 142.327 131.831 142.455 130.924C142.913 127.811 144.753 126.064 147.755 125.326C151.928 124.35 156.192 123.815 160.477 123.732C170.289 123.435 180.11 123.46 189.923 123.511C200.566 123.562 211.202 123.511 221.837 123.587C224.695 123.587 227.553 123.715 230.402 123.91C234.253 124.164 235.686 125.258 236.644 129.049C238.086 135.223 238.919 141.524 239.129 147.86C239.698 159.148 238.519 170.335 237.17 181.504C237.02 182.618 236.761 183.714 236.399 184.778C236.093 186.029 235.4 187.153 234.42 187.988C233.44 188.824 232.221 189.33 230.937 189.434C226.888 190.04 222.807 190.405 218.716 190.528C208.293 190.579 197.861 190.528 187.429 190.528L187.455 190.918ZM186.895 155.561C176.192 155.4 164.251 156.316 152.301 156.553C151.173 156.553 150.054 156.646 148.909 156.723C148.01 156.782 147.212 157.113 147.34 158.173C147.467 159.233 148.264 159.394 149.146 159.394C150.028 159.394 150.987 159.394 151.902 159.394C169.373 158.953 186.844 158.518 204.315 158.088C210.752 157.935 217.189 157.859 223.626 157.715C224.442 157.725 225.255 157.622 226.043 157.41C226.246 157.368 226.438 157.284 226.607 157.164C226.776 157.044 226.918 156.89 227.024 156.712C227.13 156.534 227.198 156.336 227.223 156.131C227.248 155.925 227.231 155.717 227.171 155.518C226.968 154.721 226.323 154.475 225.475 154.526C223.847 154.636 222.218 154.738 220.582 154.781C209.819 155.052 198.98 154.925 186.895 155.561ZM189.21 170.029V170.123L152.742 170.682C152.335 170.657 151.927 170.657 151.521 170.682C151.264 170.705 151.021 170.807 150.825 170.974C150.628 171.141 150.489 171.365 150.427 171.615C150.354 171.916 150.389 172.232 150.528 172.508C150.666 172.785 150.898 173.003 151.182 173.125C151.842 173.417 152.57 173.52 153.285 173.422L160.07 173.473C182.052 173.549 204.01 172.421 225.992 172.201C226.298 172.201 226.603 172.201 226.908 172.201C227.273 172.217 227.629 172.09 227.901 171.848C228.174 171.606 228.341 171.267 228.367 170.903C228.4 170.698 228.388 170.489 228.334 170.289C228.28 170.089 228.184 169.903 228.053 169.742C227.921 169.582 227.757 169.452 227.572 169.359C227.386 169.267 227.183 169.215 226.976 169.207C226.165 169.12 225.348 169.098 224.534 169.139L189.21 170.029ZM188.065 142.135C177.948 142.135 167.838 142.135 157.72 142.135C155.885 142.174 154.054 142.31 152.233 142.543C152.025 142.541 151.819 142.582 151.627 142.664C151.436 142.747 151.264 142.868 151.122 143.02C150.98 143.172 150.871 143.353 150.803 143.549C150.734 143.746 150.707 143.955 150.724 144.162C150.817 145.239 151.631 145.35 152.539 145.273C157.941 144.824 163.36 145.121 168.771 145.121C179.601 145.121 190.423 145.121 201.245 144.705C207.979 144.451 214.687 143.569 221.447 144.027C221.854 144.049 222.261 143.986 222.642 143.84C222.992 143.742 223.295 143.525 223.5 143.225C223.704 142.926 223.797 142.564 223.762 142.203C223.751 141.839 223.597 141.493 223.334 141.241C223.07 140.989 222.719 140.85 222.354 140.855C221.447 140.795 220.522 140.804 219.606 140.855C209.081 141.024 198.633 142.135 188.065 142.135Z" fill="#FFC729" stroke="#1D1D1B" stroke-miterlimit="10"></path><path d="M132.48 73.2781C132.166 73.4646 131.836 73.7106 131.53 73.2781C131.225 72.8455 131.573 72.625 131.785 72.3536L132.48 73.2781Z" fill="white"></path><path d="M114.156 183.294C114.445 183.056 114.758 182.81 115.098 183.192C115.437 183.573 115.098 183.853 114.894 184.15L114.156 183.294Z" fill="white"></path><path d="M32.4557 110.679C35 110.62 36.6962 111.892 38.3924 113.224C39.6731 114.241 40.8264 115.412 42.1156 116.412C45.3468 118.897 46.9159 118.846 49.9436 116.226C51.0292 115.293 52.0554 114.292 53.124 113.342C54.2402 112.282 55.5703 111.472 57.0252 110.968C59.5695 110.213 61.8678 110.442 63.6828 112.664C64.6698 113.975 65.892 115.091 67.2872 115.954C69.7127 117.354 70.9849 117.261 73.0288 115.31C74.4605 113.848 76.0771 112.579 77.8375 111.536C81.0772 109.755 83.223 110.06 85.8266 112.664C86.9122 113.741 87.8876 114.945 89.0664 115.912C90.9577 117.473 92.4588 117.413 94.2398 115.751C95.9512 114.287 97.4022 112.543 98.5311 110.594C99.1078 109.509 99.973 109.042 101.025 109.746C101.219 109.878 101.382 110.051 101.502 110.252C101.622 110.454 101.697 110.679 101.722 110.913C101.746 111.146 101.719 111.382 101.642 111.604C101.566 111.826 101.442 112.028 101.279 112.197C99.4301 114.742 97.5219 117.337 94.8419 119.109C92.6793 120.543 90.3894 120.331 88.1844 119.025C86.4882 118.024 85.2754 116.48 83.9439 115.081C82.1713 113.224 81.3147 113.113 79.1181 114.326C77.7205 115.177 76.4354 116.199 75.2932 117.371C71.9602 120.551 69.2972 120.763 65.3875 118.355C64.0351 117.436 62.809 116.344 61.7406 115.106C60.1377 113.368 58.9928 113.215 56.9065 114.377C55.5087 115.229 54.2357 116.271 53.124 117.473C48.7732 121.781 45.1603 123.265 38.7826 117.617C37.714 116.675 36.7047 115.641 35.5513 114.81C33.2784 113.156 31.3702 113.198 29.0718 114.852C27.4278 116.084 26.1067 117.696 25.2215 119.55C24.9321 120.201 24.6065 120.836 24.2461 121.45C24.1099 121.729 23.8734 121.946 23.584 122.057C23.2946 122.169 22.9737 122.167 22.6856 122.052C22.3968 121.943 22.1548 121.737 22.0002 121.47C21.8457 121.202 21.7882 120.89 21.8375 120.585C22.1344 116.277 28.2831 110.645 32.4557 110.679Z" fill="#000C0D"></path><path d="M68.8713 101.028C67.2291 101.091 65.616 100.582 64.3085 99.5861C63.5666 99.0412 62.8559 98.4551 62.1797 97.8306C59.2114 95.2863 57.9392 95.2862 55.0727 97.7881C54.8437 97.9917 54.6231 98.2122 54.4026 98.4242C49.8823 102.707 47.0157 103.148 41.4692 100.307C39.773 99.4165 38.0768 98.4242 36.4315 97.3811C33.4801 95.4983 30.622 95.7527 27.8232 97.644C25.8652 98.9708 24.2187 100.707 22.9976 102.733C22.6753 103.258 22.4039 103.81 22.0901 104.335C21.5643 105.184 20.8773 105.854 19.8427 105.243C18.808 104.632 19.2405 103.877 19.6306 103.089C21.2715 99.5365 23.966 96.5754 27.3483 94.6078C28.8809 93.6727 30.6416 93.178 32.4369 93.178C34.2323 93.178 35.9929 93.6727 37.5255 94.6078C39.5694 95.7612 41.571 97.0164 43.6912 98.0002C47.5077 99.7812 48.924 99.4759 51.9178 96.6093C52.6394 95.8885 53.401 95.2089 54.1991 94.5739C57.4134 92.1398 60.2631 92.25 63.3671 94.8707C64.2621 95.7061 65.2081 96.485 66.1997 97.2029C68.2521 98.5345 69.5921 98.3224 71.3901 96.6008C71.9753 96.0241 72.4926 95.3795 73.0863 94.8452C76.0038 92.3009 78.9297 92.2161 81.9235 94.6332C83.2941 95.8669 84.8698 96.8514 86.5796 97.5422C89.5479 98.5769 91.0491 98.1528 92.9743 95.634C93.7206 94.6587 94.3652 93.6155 95.086 92.6232C95.6203 91.8938 96.3243 91.4528 97.1978 91.9532C97.3797 92.0544 97.5374 92.194 97.6598 92.3623C97.7823 92.5307 97.8666 92.7236 97.907 92.9278C97.9473 93.132 97.9427 93.3425 97.8935 93.5448C97.8443 93.747 97.7516 93.9361 97.6218 94.0989C96.3412 96.1852 95.0776 98.3394 93.0845 99.8405C91.0915 101.342 89.073 101.282 86.9273 100.79C84.6039 100.314 82.4647 99.1844 80.7616 97.5337C78.3615 95.1336 76.3006 95.6425 74.2312 97.9578C72.8573 99.5776 71.3647 101.147 68.8713 101.028Z" fill="#000C0D"></path><path d="M27.3171 74.7198C29.3419 74.8968 31.2884 75.5856 32.9739 76.7213C34.4334 77.6615 35.9393 78.5277 37.4858 79.3165C38.4486 79.8135 39.542 79.9988 40.6148 79.8469C41.6875 79.6949 42.6866 79.2132 43.4734 78.4684C44.8028 77.3428 46.2501 76.3647 47.7902 75.5509C52.7855 73.0066 56.2712 73.4731 60.4015 77.2471C61.3599 78.1539 62.3709 79.0035 63.4291 79.7914C65.032 80.9025 65.4985 80.8431 66.7537 79.2826C67.9529 77.6158 69.5314 76.2582 71.3589 75.322C74.5054 73.8717 77.4653 73.8802 80.1537 76.399C81.5913 77.8613 83.2515 79.0865 85.0726 80.0289C85.83 80.4668 86.7067 80.6534 87.5768 80.562C88.4468 80.4706 89.2656 80.1058 89.9154 79.5201C90.9562 78.699 92.0623 77.9643 93.2229 77.3235C93.3749 77.2247 93.5458 77.1586 93.7248 77.1295C93.9037 77.1003 94.0868 77.1087 94.2623 77.1542C94.4378 77.1997 94.6019 77.2812 94.7442 77.3936C94.8865 77.5059 95.0038 77.6467 95.0887 77.8069C95.1986 77.9524 95.2763 78.1197 95.3167 78.2975C95.3572 78.4753 95.3594 78.6596 95.3233 78.8384C95.2873 79.0171 95.2137 79.1862 95.1075 79.3344C95.0013 79.4826 94.8647 79.6066 94.707 79.6982C93.081 80.9463 91.3817 82.0961 89.6184 83.1414C87.7611 84.1846 85.8189 83.6079 83.9871 82.8531C82.1324 81.9857 80.4311 80.8228 78.9494 79.4098C75.7605 76.6789 73.0127 76.8146 70.1716 79.8508C69.544 80.5123 69.0351 81.3011 68.399 81.9626C66.7028 83.7351 65.066 84.032 62.8525 82.9888C61.3243 82.1523 59.934 81.0853 58.7307 79.8254C54.9821 76.3482 52.4294 76.1192 48.0277 78.8586C46.993 79.5031 46.0262 80.2749 45.0509 81.0212C43.8179 82.0358 42.3168 82.6705 40.7299 82.8482C39.143 83.0258 37.5387 82.7388 36.1119 82.0219C34.5373 81.2866 33.0377 80.4004 31.634 79.3759C27.1475 76.2634 22.3049 77.3065 19.7606 81.6827C19.6588 81.8608 19.54 82.0304 19.4213 82.2C18.8022 83.0481 18.0983 84.015 16.9534 83.2008C15.8084 82.3866 16.6565 81.4113 17.1654 80.5548C19.3196 77.0012 22.2285 74.7453 27.3171 74.7198Z" fill="#000C0D"></path><path d="M186.897 155.561C198.983 154.925 209.796 155.052 220.643 154.713C222.28 154.713 223.908 154.568 225.536 154.458C226.385 154.407 226.995 154.653 227.233 155.45C227.292 155.649 227.31 155.857 227.285 156.063C227.259 156.269 227.191 156.467 227.085 156.644C226.979 156.822 226.837 156.976 226.668 157.096C226.499 157.216 226.308 157.3 226.105 157.342C225.317 157.554 224.504 157.657 223.688 157.647C217.251 157.791 210.813 157.867 204.376 158.02C186.906 158.444 169.435 158.88 151.964 159.326C151.048 159.326 150.123 159.326 149.208 159.326C148.292 159.326 147.511 159.157 147.401 158.105C147.291 157.053 148.071 156.714 148.97 156.655C150.09 156.578 151.209 156.502 152.362 156.485C164.253 156.315 176.194 155.4 186.897 155.561Z" fill="#130F09"></path><path d="M189.212 170.029L224.476 169.13C225.291 169.089 226.107 169.112 226.919 169.198C227.126 169.206 227.329 169.258 227.514 169.351C227.7 169.443 227.864 169.574 227.995 169.734C228.126 169.894 228.222 170.08 228.277 170.28C228.331 170.48 228.342 170.69 228.309 170.894C228.283 171.258 228.116 171.597 227.844 171.84C227.571 172.082 227.215 172.208 226.851 172.192C226.545 172.192 226.24 172.192 225.935 172.192C203.952 172.412 181.995 173.54 160.012 173.464L153.227 173.413C152.512 173.512 151.784 173.409 151.124 173.116C150.84 172.995 150.608 172.776 150.47 172.5C150.332 172.224 150.296 171.907 150.369 171.607C150.432 171.357 150.571 171.132 150.767 170.965C150.963 170.798 151.206 170.696 151.463 170.674C151.87 170.648 152.278 170.648 152.684 170.674L189.153 170.114L189.212 170.029Z" fill="#130F09"></path><path d="M188.065 142.135C198.599 142.135 209.081 141.058 219.606 140.846C220.522 140.846 221.446 140.846 222.354 140.846C222.718 140.842 223.07 140.98 223.334 141.232C223.597 141.485 223.751 141.83 223.762 142.195C223.797 142.556 223.704 142.917 223.5 143.217C223.295 143.516 222.991 143.734 222.642 143.831C222.261 143.977 221.854 144.041 221.446 144.018C214.662 143.56 207.979 144.442 201.245 144.697C190.423 145.112 179.601 145.121 168.771 145.112C163.36 145.112 157.941 144.815 152.538 145.265C151.631 145.341 150.842 145.265 150.723 144.154C150.707 143.946 150.734 143.737 150.802 143.541C150.871 143.344 150.98 143.164 151.122 143.012C151.264 142.859 151.436 142.738 151.627 142.656C151.818 142.574 152.025 142.532 152.233 142.534C154.054 142.301 155.885 142.165 157.72 142.127C167.838 142.084 177.947 142.135 188.065 142.135Z" fill="#130F09"></path></svg>