<svg xmlns="http://www.w3.org/2000/svg" width="250" height="250" viewBox="0 0 250 250" fill="none"><path d="M126.067 192.336C112.234 192.617 101.136 192.824 90.0376 193.064C85.6083 193.163 84.4679 192.386 84.1787 187.824C83.7007 180.703 85.9356 173.665 90.4343 168.124C96.4254 160.497 104.648 156.357 113.688 153.572C114.514 153.307 115.423 153.101 116.291 152.878C116.513 152.859 116.729 152.795 116.925 152.688C117.121 152.582 117.292 152.435 117.428 152.259C117.564 152.082 117.662 151.879 117.715 151.663C117.768 151.446 117.776 151.221 117.737 151.002C117.655 149.969 117.927 148.828 116.746 148.242C115.812 147.779 114.787 147.473 113.87 146.986C103.177 141.317 101.169 127.822 109.738 119.228C112.854 116.153 116.838 114.107 121.153 113.368C125.468 112.629 129.906 113.233 133.868 115.096C145.866 120.939 147.238 136.582 136.446 144.796C135.119 145.762 133.699 146.592 132.207 147.275C130.347 148.167 130.959 149.754 130.868 151.184C130.777 152.613 132.058 152.779 132.984 153.002C136.041 153.765 139.002 154.874 141.809 156.307C154.733 162.769 162.253 173.033 163.542 187.593C163.856 191.122 163.336 191.898 159.807 192.138C156.279 192.378 152.915 192.254 149.461 192.262L126.067 192.336ZM158.716 187.998C158.979 186.018 158.807 184.004 158.212 182.098C155.461 172.727 149.949 165.571 141.214 161.05C137.922 159.254 134.391 157.935 130.728 157.133C128.315 156.662 127.232 155.249 126.968 152.82C126.48 148.242 126.439 144.077 132.033 142.399C133.231 142.036 134.273 140.904 135.215 139.92C142.156 132.995 139.95 122.195 130.818 118.642C125.034 116.402 119.58 117.245 114.647 120.873C105.986 127.236 107.118 139.16 116.985 143.317C120.82 144.969 122.224 146.903 121.836 151.01C121.365 156.043 121.646 156.051 116.795 157.299C110.363 158.867 104.322 161.738 99.0449 165.736C92.6985 170.644 88.7568 176.95 88.3849 185.155C88.2114 188.973 88.2775 188.981 91.9052 188.923C92.3597 188.923 92.8059 188.874 93.2521 188.866C112.258 188.386 131.314 187.593 150.354 188.039C153.039 188.048 155.717 187.998 158.716 187.998Z" fill="#130F0B"></path><path d="M62.9748 77.3985C72.5688 77.3985 82.1711 77.3985 91.7734 77.3985C97.1613 77.3985 98.5909 78.6546 99.2106 84.1251C99.95 90.8381 100.347 97.5845 100.401 104.338C100.475 111.692 100.351 119.047 100.533 126.402C100.706 133.93 98.2107 136.178 90.8809 135.987C82.6173 135.781 74.3537 136.301 66.0901 136.144C65.6439 136.144 65.1894 136.194 64.7432 136.144C58.9587 135.442 54.7855 136.764 51.6867 142.598C48.4639 148.647 42.1174 151.424 35.4818 152.977C34.9052 153.136 34.3112 153.222 33.7134 153.234C32.4408 153.234 31.3087 152.812 30.8376 151.507C30.6178 150.94 30.5919 150.316 30.7638 149.733C30.9357 149.15 31.2958 148.641 31.7879 148.284C32.6143 147.606 33.4407 147.019 34.267 146.358C36.2913 144.772 37.7656 142.589 38.4815 140.119C39.093 137.971 38.5971 137.367 36.3742 137.533C32.4903 137.805 28.6065 138.161 24.7143 138.425C23.3726 138.541 22.0234 138.541 20.6817 138.425C15.9797 137.954 14.1369 136.376 13.922 131.666C13.2692 116.973 12.352 102.289 12.8643 87.571C12.9563 86.228 13.1637 84.8954 13.4841 83.588C13.6546 82.3868 14.2472 81.2857 15.1557 80.4816C16.0642 79.6776 17.2293 79.2233 18.4422 79.2C21.4336 78.9438 24.4251 78.7042 27.4165 78.4397C39.2748 77.3903 51.0917 76.4896 62.9748 77.3985ZM41.3572 145.747C46.5054 143.342 48.9349 139.549 51.0834 135.599C51.6518 134.373 52.5822 133.35 53.7494 132.669C54.9167 131.988 56.2646 131.681 57.6117 131.79C60.7601 131.839 63.9086 131.69 67.057 131.707C75.0066 131.707 82.9314 130.881 90.8975 131.484C95.2276 131.79 95.8556 130.988 96.0953 126.765C96.1449 125.873 96.1944 124.972 96.1779 124.071C96.0209 113.271 95.8804 102.479 95.6656 91.678C95.6089 89.4307 95.4074 87.1894 95.0623 84.968C94.5665 81.5634 94.5004 81.5221 91.1784 81.4725C87.1293 81.4229 83.0801 81.5882 79.0309 81.4725C60.0063 80.8016 40.9581 81.3952 22.0121 83.2492C17.8803 83.6706 17.5911 83.8028 17.3432 88.1082C17.3432 88.5627 17.3432 89.0089 17.3432 89.4634C17.1448 102.966 17.7233 116.452 18.3513 129.955C18.5249 133.616 18.9959 134.087 22.7062 134.021C27.3525 133.939 31.9916 133.622 36.6056 133.07C41.7456 132.442 44.2412 135.318 43.1256 140.367C42.6959 141.888 42.0926 143.425 41.3572 145.747V145.747Z" fill="#090E0E"></path><path d="M238.042 96.5528C238.042 106.742 236.794 116.89 237.058 127.128C237.158 130.855 235.935 132.028 232.216 133.012C228.72 133.937 225.117 134.078 221.548 134.458C218.242 134.813 214.995 135.284 211.714 135.35C208.169 135.4 205.863 137.408 203.789 139.771C201.566 142.3 201.632 145.242 203.706 147.961C204.161 148.547 204.781 149.01 205.235 149.613C205.465 149.915 205.605 150.275 205.637 150.653C205.669 151.031 205.593 151.41 205.417 151.745C204.979 152.737 204.054 152.853 203.145 152.795C196.831 152.398 189.435 145.622 188.27 138.937C187.543 134.739 187.816 135.293 183.791 135.301C177.494 135.301 171.197 135.4 164.901 135.375C162.964 135.359 161.031 135.207 159.116 134.921C154.042 134.16 152.836 132.838 152.555 127.583C152.241 121.749 152.051 115.898 151.852 110.064C151.522 100.635 152.208 91.1815 151.026 81.7858C150.803 80.0173 151.852 79.3067 153.34 79.1414C155.576 78.8978 157.825 78.782 160.075 78.7943C168.925 78.9679 177.759 78.3646 186.568 77.6705C201.707 76.4723 216.829 77.1747 231.96 77.53C236.174 77.6292 237.744 78.9596 238 83.1327C238.273 87.5537 238.042 92.0657 238.042 96.5528ZM197.368 145.44C197.691 140.697 199.889 137.466 202.764 134.177C204.954 131.698 206.979 131.029 209.97 130.872C216.399 130.516 222.82 129.855 229.216 129.144C232.522 128.773 232.613 128.549 232.654 125.186C232.703 120.385 232.852 115.609 233.084 110.808C233.48 102.742 234.447 94.6687 233.827 86.5621C233.488 82.1907 233.439 82.1328 229.249 81.9758C215.175 81.312 201.076 81.3589 187.006 82.1163C177.742 82.703 168.462 83.2649 159.157 83.1162C155.315 83.0583 155.323 83.1823 155.596 86.777C155.736 88.7189 155.926 90.6609 155.959 92.6028C156.183 103.544 156.183 114.485 156.868 125.418C157.174 130.376 157.298 130.607 162.322 130.905C163.215 130.962 164.116 130.962 165.016 130.954C172.514 130.905 180.009 130.849 187.502 130.789C191.675 130.789 192.104 131.103 192.03 135.342C191.956 139.581 193.542 142.804 197.368 145.44Z" fill="#130F0B"></path><path d="M158.717 187.998C155.717 187.998 153.04 188.047 150.354 187.998C131.348 187.585 112.284 188.378 93.2527 188.824C92.8064 188.824 92.3602 188.874 91.9057 188.882C88.278 188.94 88.2119 188.932 88.3854 185.114C88.7573 176.908 92.699 170.603 99.0454 165.694C104.327 161.717 110.368 158.866 116.796 157.315C121.646 156.067 121.365 156.059 121.836 151.027C122.225 146.895 120.82 144.953 116.986 143.333C107.119 139.201 105.987 127.252 114.647 120.889C119.605 117.261 125.076 116.419 130.819 118.658C139.909 122.211 142.157 133.012 135.215 139.937C134.273 140.879 133.232 142.011 132.034 142.416C126.439 144.069 126.481 148.258 126.968 152.836C127.233 155.266 128.315 156.679 130.728 157.15C134.392 157.951 137.923 159.27 141.215 161.067C149.933 165.57 155.461 172.727 158.196 182.098C158.797 184.003 158.974 186.017 158.717 187.998Z" fill="#FBFCFC"></path><path d="M41.3588 145.746C42.0943 143.399 42.6975 141.887 43.0115 140.325C44.1271 135.276 41.6315 132.4 36.4915 133.028C31.8775 133.58 27.2384 133.897 22.5922 133.979C18.8818 134.045 18.4108 133.574 18.2373 129.913C17.6092 116.435 17.0308 102.949 17.2291 89.4214C17.2291 88.9669 17.2291 88.5207 17.2291 88.0662C17.477 83.7608 17.7414 83.6286 21.898 83.2072C40.844 81.3531 59.8922 80.7596 78.9169 81.4305C82.966 81.5627 87.0152 81.4305 91.0643 81.4305C94.3698 81.4801 94.4524 81.5214 94.9483 84.926C95.2933 87.1474 95.4948 89.3887 95.5515 91.636C95.7663 102.437 95.9068 113.229 96.0638 124.029C96.0638 124.93 96.0638 125.831 95.9812 126.723C95.7085 130.946 95.1548 131.748 90.7834 131.442C82.8173 130.872 74.8925 131.698 66.9429 131.665C63.7945 131.665 60.646 131.797 57.4976 131.748C56.1505 131.639 54.8026 131.946 53.6354 132.627C52.4681 133.308 51.5377 134.331 50.9694 135.557C48.9365 139.548 46.507 143.341 41.3588 145.746ZM53.2501 96.057H32.5911C31.1037 96.057 29.5666 95.9331 28.2114 96.7347C27.9083 96.8865 27.655 97.1219 27.4814 97.413C27.3078 97.7042 27.221 98.0389 27.2315 98.3778C27.2419 98.7166 27.349 99.0453 27.5402 99.3253C27.7315 99.6052 27.9987 99.8245 28.3106 99.9575C29.0067 100.208 29.7445 100.323 30.4839 100.296C44.846 100.536 59.2082 100.8 73.5621 100.139C74.3085 100.159 75.0552 100.112 75.7932 99.9988C77.0658 99.7178 78.0079 99.0237 77.8509 97.5197C77.7186 96.2306 76.8014 95.8009 75.661 95.7348C74.7685 95.6852 73.8678 95.7348 72.9753 95.7348C66.3892 95.743 59.8114 95.9744 53.2501 96.057ZM42.4248 117.377C46.4079 117.551 49.862 117.732 53.2914 117.848C54.335 117.902 55.3814 117.852 56.4151 117.699C56.867 117.64 57.2798 117.412 57.5709 117.061C57.8619 116.71 58.0099 116.262 57.9852 115.807C58.017 115.353 57.8804 114.903 57.6014 114.543C57.3225 114.183 56.9207 113.939 56.4729 113.857C55.8909 113.716 55.295 113.641 54.6963 113.634C47.2094 113.369 39.7309 112.923 32.2275 113.179C31.1789 113.13 30.1337 113.331 29.1783 113.766C28.8433 113.935 28.5675 114.201 28.3875 114.53C28.2074 114.86 28.1316 115.236 28.1701 115.609C28.1761 115.987 28.3114 116.351 28.5535 116.641C28.7956 116.931 29.1298 117.13 29.5005 117.204C30.3822 117.35 31.2767 117.406 32.1697 117.369C35.7561 117.385 39.359 117.377 42.4165 117.377H42.4248Z" fill="#04C4D9"></path><path d="M197.364 145.44C193.538 142.804 191.96 139.54 192.026 135.326C192.092 131.111 191.671 130.739 187.498 130.772C180.005 130.839 172.51 130.894 165.012 130.938C164.112 130.938 163.211 130.938 162.318 130.888C157.294 130.591 157.17 130.343 156.864 125.401C156.179 114.468 156.179 103.527 155.955 92.5863C155.955 90.6444 155.732 88.7024 155.592 86.7605C155.319 83.1658 155.311 83.0418 159.154 83.0997C168.458 83.2484 177.738 82.6865 187.002 82.0998C201.072 81.3424 215.171 81.2955 229.245 81.9593C233.435 82.1163 233.485 82.1742 233.823 86.5456C234.443 94.6522 233.476 102.726 233.08 110.791C232.848 115.592 232.7 120.369 232.65 125.17C232.609 128.533 232.543 128.756 229.212 129.128C222.816 129.839 216.395 130.5 209.966 130.855C206.975 131.029 204.95 131.681 202.761 134.16C199.885 137.466 197.687 140.697 197.364 145.44ZM174.069 92.2888C171.111 92.4458 168.516 93.3465 166.533 95.6934C165.865 96.4025 165.366 97.2527 165.071 98.1811C164.776 99.1094 164.694 100.092 164.831 101.057C164.857 101.511 165.048 101.941 165.367 102.266C165.686 102.591 166.112 102.79 166.566 102.825C166.943 102.849 167.317 102.752 167.635 102.548C167.953 102.344 168.198 102.045 168.334 101.693C168.524 101.296 168.533 100.817 168.706 100.412C170.144 97.1065 172.417 95.9 175.854 96.8669C177.271 97.3386 178.64 97.9417 179.945 98.6683C184.275 100.842 188.564 101.147 192.72 98.346C196.521 95.8091 200.157 95.6934 203.843 98.6105C204.698 99.2164 205.64 99.69 206.636 100.015C209.089 101.004 211.792 101.19 214.357 100.547C216.923 99.904 219.218 98.4653 220.916 96.4372C221.816 95.4125 222.188 94.3299 221.288 93.2309C220.387 92.1318 219.205 92.2475 218.089 93.0243C217.707 93.2665 217.347 93.5431 217.015 93.8506C213.197 97.5527 209.19 97.0073 205.231 94.2308C200.612 90.9914 195.968 91.0906 191.406 94.0738C187.861 96.3958 184.49 96.3297 180.862 94.3878C178.809 93.1318 176.473 92.4102 174.069 92.2888ZM208.892 119.046C212.198 118.914 214.239 117.03 215.957 114.667C216.718 113.625 216.916 112.353 215.759 111.452C214.602 110.551 213.503 110.948 212.553 111.907C212.131 112.328 211.727 112.783 211.338 113.229C209.867 114.881 208.157 114.716 206.454 113.758C205.431 113.141 204.475 112.418 203.603 111.601C200.868 109.18 197.984 109.122 194.943 110.948C193.786 111.634 192.638 112.328 191.53 113.097C190.72 113.648 189.776 113.969 188.798 114.026C187.82 114.082 186.845 113.873 185.977 113.419C184.895 112.94 183.911 112.212 182.87 111.634C176.714 108.205 169.805 109.981 166.087 115.956C165.211 117.361 164.112 119.063 165.897 120.327C168.029 121.839 168.574 119.567 169.475 118.327C172.896 113.65 176.598 112.7 181.407 115.848C186.407 119.112 191.092 119.426 195.852 115.609C197.885 113.956 199.802 113.882 201.752 115.898C203.675 117.774 206.21 118.892 208.892 119.046Z" fill="#FFC729"></path><path d="M53.2491 96.0569C59.8186 95.9743 66.3965 95.7429 72.9908 95.7347C73.8833 95.7347 74.784 95.6934 75.6765 95.7347C76.8169 95.8008 77.7341 96.2305 77.8663 97.5196C78.0233 99.0153 77.0813 99.7095 75.8087 99.9987C75.0707 100.112 74.324 100.159 73.5775 100.139C59.2237 100.8 44.8615 100.536 30.4994 100.296C29.7599 100.323 29.0221 100.208 28.326 99.9574C28.0142 99.8244 27.7469 99.6051 27.5557 99.3252C27.3645 99.0453 27.2574 98.7165 27.2469 98.3777C27.2365 98.0388 27.3232 97.7041 27.4969 97.4129C27.6705 97.1218 27.9238 96.8864 28.2269 96.7346C29.5821 95.9082 31.1191 96.0652 32.6066 96.0569H53.2491Z" fill="#090E0E"></path><path d="M42.4149 117.377C39.3573 117.377 35.7544 117.377 32.1597 117.377C31.2667 117.414 30.3723 117.358 29.4906 117.212C29.1199 117.138 28.7856 116.94 28.5435 116.65C28.3015 116.359 28.1661 115.995 28.1602 115.617C28.1217 115.244 28.1975 114.868 28.3775 114.539C28.5576 114.21 28.8333 113.943 29.1683 113.774C30.1237 113.339 31.169 113.138 32.2176 113.187C39.7209 112.931 47.1995 113.378 54.6863 113.642C55.285 113.649 55.881 113.724 56.463 113.865C56.9108 113.947 57.3125 114.192 57.5915 114.551C57.8705 114.911 58.0071 115.361 57.9752 115.815C58 116.271 57.852 116.718 57.5609 117.069C57.2698 117.42 56.8571 117.648 56.4051 117.708C55.3714 117.861 54.3251 117.91 53.2815 117.856C49.8356 117.732 46.3979 117.551 42.4149 117.377Z" fill="#090E0E"></path><path d="M174.072 92.2888C176.475 92.4052 178.81 93.1211 180.865 94.3712C184.493 96.3132 187.864 96.3793 191.409 94.0572C195.971 91.0741 200.615 90.9749 205.234 94.2142C209.193 96.9908 213.2 97.5197 217.018 93.8341C217.35 93.5265 217.71 93.2499 218.093 93.0077C219.208 92.231 220.373 92.0905 221.291 93.2143C222.208 94.3382 221.819 95.3959 220.919 96.4206C219.222 98.4488 216.926 99.8874 214.36 100.53C211.795 101.173 209.092 100.987 206.639 99.9988C205.643 99.6735 204.701 99.1999 203.846 98.5939C200.177 95.6769 196.525 95.7926 192.723 98.3295C188.592 101.098 184.278 100.809 179.948 98.6518C178.643 97.9252 177.274 97.3221 175.857 96.8503C172.42 95.8835 170.147 97.0734 168.709 100.395C168.536 100.8 168.527 101.28 168.337 101.676C168.201 102.028 167.956 102.328 167.638 102.531C167.32 102.735 166.946 102.832 166.569 102.808C166.115 102.773 165.689 102.575 165.37 102.25C165.051 101.924 164.86 101.495 164.834 101.04C164.697 100.076 164.779 99.0929 165.074 98.1645C165.369 97.2362 165.868 96.386 166.536 95.6769C168.519 93.3465 171.114 92.4458 174.072 92.2888Z" fill="#130F0B"></path><path d="M208.89 119.046C206.207 118.89 203.671 117.769 201.75 115.89C199.8 113.873 197.883 113.972 195.85 115.6C191.09 119.418 186.404 119.104 181.405 115.84C176.596 112.7 172.894 113.65 169.472 118.319C168.572 119.559 168.026 121.831 165.894 120.319C164.109 119.055 165.208 117.352 166.084 115.948C169.803 109.973 176.711 108.196 182.868 111.626C183.909 112.204 184.892 112.931 185.975 113.411C186.843 113.864 187.818 114.074 188.796 114.017C189.774 113.961 190.718 113.64 191.528 113.088C192.635 112.32 193.784 111.626 194.941 110.94C197.982 109.122 200.866 109.171 203.601 111.593C204.473 112.41 205.429 113.133 206.452 113.749C208.154 114.708 209.865 114.848 211.336 113.221C211.732 112.774 212.162 112.32 212.551 111.898C213.501 110.94 214.649 110.593 215.757 111.444C216.864 112.295 216.715 113.617 215.955 114.658C214.236 117.03 212.162 118.914 208.89 119.046Z" fill="#130F0B"></path></svg>