<svg xmlns="http://www.w3.org/2000/svg" width="250" height="250" viewBox="0 0 250 250" fill="none"><path d="M111.851 190.587C111.173 196.922 112.596 202.614 113.545 208.373C114.002 211.185 114.73 213.955 115.425 216.716C115.778 218.222 116.349 219.668 117.119 221.01C118.525 223.348 118.034 224.644 115.535 225.491C115.424 225.534 115.311 225.571 115.196 225.601C98.155 229.573 80.9951 231.445 63.5304 228.701C63.0561 228.625 62.5818 228.591 62.1159 228.497C55.7551 227.244 54.2559 225.516 53.7562 218.994C52.5638 204.252 48.1487 189.951 40.8228 177.103C35.7917 168.057 31.0656 158.91 27.7624 149.042C22.0368 131.925 23.3581 115.349 30.9131 99.1211C32.7724 95.1276 35.1164 91.3783 37.8922 87.9579C46.7347 77.0827 57.2627 68.4773 70.3316 62.9804C88.7873 55.2136 107.133 55.7133 125.487 63.0312C133.347 66.1651 139.699 71.645 142.605 79.361C145.34 86.6366 149.38 93.3955 151.074 101.078C152.345 106.761 153.615 112.436 154.649 118.17C155.067 120.385 155.604 122.576 156.258 124.734C157.546 129.226 160.241 133.187 163.948 136.033C164.907 136.737 165.818 137.504 166.676 138.328C169.581 141.25 169.589 144.519 166.718 147.433C164.193 149.99 161.033 151.829 157.562 152.76C155.775 153.252 155.335 154.006 155.436 155.725C155.699 160.239 156.19 164.728 156.114 169.277C156.093 172.01 155.881 174.738 155.479 177.441C154.632 183.006 151.481 186.699 146.331 188.808C142.449 190.333 138.337 191.193 134.169 191.349C128.348 191.764 122.501 191.637 116.704 190.968C115.179 190.731 113.638 190.714 111.851 190.587ZM140.411 86.7213C138.074 90.3292 135.375 93.6894 132.356 96.7496C124.454 104.415 115.925 111.224 105.786 115.756C104.313 116.408 103.94 117.187 104.092 118.746C104.728 124.209 103.093 129.07 99.8574 133.424C96.19 138.302 87.5169 142.681 79.3689 138.506C79.1082 138.282 78.7903 138.135 78.4508 138.081C78.1113 138.027 77.7635 138.069 77.4463 138.201C75.0663 145.561 68.8325 149.212 62.243 152.532C60.9969 153.217 59.6897 153.784 58.3384 154.226C56.331 154.793 55.8737 155.92 56.06 157.919C56.7969 165.618 56.7037 173.359 56.7545 181.083C56.8166 188.582 56.8844 196.075 56.9578 203.562C56.9578 205.349 57.4067 207.213 57.0086 208.898C56.06 212.981 57.1103 216.919 57.3474 220.925C57.35 221.768 57.6509 222.582 58.1966 223.224C58.7423 223.866 59.4977 224.294 60.3288 224.432C61.1334 224.635 61.9296 224.864 62.7512 225.025C71.221 226.719 79.8009 226.312 88.3723 226.355C96.9438 226.397 104.965 223.814 113.418 221.976C111.865 217.457 110.709 212.813 109.962 208.094C109.013 202.36 107.709 196.643 108.268 190.756C108.539 187.715 109.318 187.021 112.291 187.114C113.24 187.114 114.197 187.207 115.137 187.334C121.763 188.099 128.446 188.255 135.1 187.8C138.315 187.611 141.482 186.934 144.493 185.793C148.728 184.226 151.379 181.338 152.116 176.747C152.379 175.053 152.658 173.96 150.346 173.427C147.61 172.792 146.45 170.691 146.577 168.099C146.704 165.507 147.737 164.169 150.634 163.466C152.158 163.094 152.557 162.433 152.413 161.027C152.218 159.02 152.057 157.004 151.972 154.98C151.854 152.091 152.59 150.236 155.885 149.618C158.452 149.05 160.851 147.89 162.89 146.23C166.091 143.782 166.125 142.376 163.11 139.802L161.153 138.235C157.359 135.12 154.559 130.962 153.099 126.275C151.693 122.04 151.201 117.704 150.236 113.418C148.169 104.186 147.534 94.3865 140.411 86.7213ZM91.9635 103.525C92.0983 103.257 92.1979 102.972 92.26 102.678C91.9551 89.3978 92.0482 76.1002 91.1674 62.8703C91.0657 61.3373 90.3204 61.1763 89.0838 61.3373C86.5992 61.5451 84.1402 61.9903 81.7405 62.667C74.5496 64.8099 76.1673 63.4463 76.0826 70.0866C76.0826 70.4423 76.0826 70.7981 76.125 71.1538C76.5231 81.8257 78.1323 92.4045 78.8014 103.051C78.8639 103.504 78.9631 103.952 79.0979 104.389C85.3401 102.441 86.1617 102.39 91.9635 103.525V103.525ZM95.2922 122.286C95.2297 120.778 94.8706 119.297 94.2355 117.928C93.6004 116.559 92.7017 115.329 91.5909 114.307C90.77 113.521 89.7721 112.944 88.6813 112.624C87.5905 112.304 86.4387 112.251 85.3232 112.47C78.632 113.621 75.0239 123.684 79.3943 128.952C79.8419 129.506 80.3601 129.998 80.9358 130.417C83.6547 132.374 86.5852 132.958 89.6343 131.323C93.1154 129.477 95.2413 126.665 95.2922 122.286V122.286ZM152.294 170.437C152.683 169.556 152.789 168.577 152.599 167.633C152.605 167.402 152.543 167.174 152.42 166.978C152.298 166.782 152.12 166.627 151.91 166.531C151.699 166.435 151.465 166.404 151.237 166.44C151.008 166.476 150.796 166.579 150.625 166.736C150.322 166.919 150.079 167.188 149.929 167.509C149.778 167.83 149.726 168.189 149.778 168.54C149.999 169.954 150.99 170.428 152.294 170.437V170.437Z" fill="#040403"></path><path d="M215.547 101.62C215.361 106.846 215.547 112.088 214.776 117.28C214.573 118.686 214.302 120.084 213.98 121.473C213.133 125.115 210.66 127.182 207.111 127.902C200.189 129.229 193.058 128.989 186.241 127.199C180.745 125.852 178.195 122.447 177.551 116.789C176.628 108.397 176.543 99.9331 177.297 91.5237C177.47 90.8284 177.502 90.1056 177.39 89.3978C176.679 87.5599 177.653 86.1962 178.144 84.5361C179.881 78.7682 183.904 76.3289 189.477 75.8715C191.298 75.7191 191.815 75.1855 191.789 73.3306C191.569 57.636 191.484 41.9414 191.366 26.2469C191.366 26.0097 191.366 25.7726 191.366 25.5354C191.366 21.3767 191.798 20.9532 196.075 20.8516C198.76 20.7839 199.149 21.0633 199.7 23.6466C200.733 28.4575 200.42 33.3615 200.547 38.2232C200.793 49.5134 201.352 60.7952 202.029 72.1024C202.029 72.6953 202.131 73.2797 202.156 73.8811C202.224 75.0753 202.834 75.448 204.028 75.4057C209.635 75.2363 212.76 78.5056 214.607 83.3249C216.216 87.5598 216.233 91.9303 215.97 96.3515C215.826 98.0624 215.683 99.8411 215.547 101.62ZM196.82 100.62V100.459C199.073 100.459 201.335 100.51 203.596 100.459C204.902 100.401 206.201 100.245 207.484 99.9936C212.337 99.1466 212.337 99.0957 212.472 94.2849C212.472 93.692 212.532 93.0991 212.532 92.5062C212.532 89.9653 212.532 89.889 209.991 89.9653C204.536 90.194 199.082 90.3125 193.61 90.1686C190.053 90.0619 186.504 89.7593 182.981 89.2623C181.397 89.0421 180.804 89.635 180.728 91.0833C180.707 92.8607 180.597 94.636 180.397 96.4023C180.118 98.2742 180.914 99.0026 182.633 99.1635C187.41 99.6632 192.094 100.146 196.82 100.62ZM180.321 102.153C180.321 104.084 180.321 105.609 180.321 107.142C180.363 111.826 180.321 111.928 184.827 112.588C191.662 113.605 198.514 114.197 205.324 112.419C207.475 111.851 210.406 111.961 211.473 110.259C212.54 108.557 211.896 105.905 211.99 103.669C211.99 103.458 211.82 103.246 211.6 102.729C201.335 105.16 191.027 103.398 180.321 102.153ZM181.236 115.315C181.236 120.778 183.379 123.328 188.715 124.26C192.923 125.024 197.206 125.309 201.479 125.107C209.33 124.675 210.618 123.514 211.524 115.739C211.506 115.288 211.443 114.84 211.337 114.401C201.428 117.822 191.467 116.992 181.236 115.324V115.315ZM181.744 85.8913C191.615 87.1917 201.605 87.3225 211.507 86.2809C210.66 81.4362 208.746 79.1917 204.731 78.7851C199.045 78.1442 193.293 78.41 187.69 79.5728C184.48 80.2758 182.328 82.0714 181.744 85.8998V85.8913ZM194.627 49.0646H194.838C194.838 53.9432 194.787 58.8133 194.838 63.6919C194.889 66.8935 195.109 70.1036 195.236 73.3052C195.304 74.9314 196.295 75.2702 197.659 75.1008C199.022 74.9314 198.785 73.8049 198.709 72.9156C197.566 60.1177 197.337 47.2859 197.269 34.4457C197.269 31.8369 197.057 29.2283 196.888 26.6196C196.837 25.7726 197.091 24.4597 195.702 24.4428C194.313 24.4259 194.61 25.7302 194.584 26.6026C194.542 28.1441 194.584 29.6941 194.584 31.2356C194.612 37.187 194.627 43.1328 194.627 49.073V49.0646Z" fill="#0E0D0D"></path><path d="M181.565 178.28C182.988 172.986 183.556 167.676 184.581 162.458C185.268 158.604 186.247 154.806 187.511 151.1C187.839 150.209 188.233 149.342 188.688 148.509C188.91 148.015 189.288 147.608 189.764 147.353C190.241 147.097 190.789 147.006 191.323 147.094C191.796 147.174 192.234 147.395 192.58 147.727C192.926 148.059 193.163 148.488 193.262 148.958C194.035 151.826 194.487 154.772 194.609 157.741C195.049 163.06 195.38 168.387 196.201 173.656C197.548 173.757 197.37 172.665 197.633 171.962C198.48 169.751 199.267 167.506 200.174 165.313C200.566 164.321 201.109 163.395 201.783 162.569C203.341 160.714 205.171 160.985 206.297 163.128C207.059 164.55 206.907 166.346 207.991 167.625C208.296 167.54 208.618 167.549 208.686 167.413C211.117 163.043 215.013 162.06 219.62 162.518C221.153 162.67 222.712 162.518 224.253 162.518C225.151 162.518 225.947 162.89 226.057 163.89C226.086 164.129 226.064 164.371 225.992 164.601C225.92 164.83 225.799 165.042 225.639 165.221C225.479 165.401 225.282 165.544 225.062 165.642C224.842 165.739 224.604 165.789 224.363 165.787C222.47 165.988 220.562 166.017 218.663 165.872C215.216 165.448 212.946 166.854 211.396 169.785C211.163 170.198 210.906 170.597 210.625 170.979C209.778 172.199 208.821 173.224 207.127 172.919C205.433 172.614 205.289 171.225 204.815 170.039C204.425 169.056 204.298 167.964 203.494 166.998C201.8 169.285 201.427 172.021 200.495 174.528C199.877 176.222 199.454 177.916 198.801 179.61C198.31 180.838 197.573 182.092 196.023 182.007C194.279 181.905 193.652 180.44 193.432 179.025C192.805 174.918 192.297 170.793 191.839 166.668C191.475 163.356 191.272 160.036 190.992 156.724C190.992 156.292 190.992 155.75 190.103 155.581C189.307 156.352 189.18 157.512 188.968 158.605C187.537 165.948 186.148 173.291 184.691 180.626C184.369 182.252 183.844 183.836 183.369 185.429C183.039 186.53 182.429 187.36 181.116 187.3C180.574 187.266 180.061 187.044 179.664 186.674C179.267 186.303 179.011 185.806 178.94 185.268C178.152 182.286 177.483 179.279 176.678 176.298C176.229 174.604 176.272 172.8 175.298 171.267C174.264 171.648 174.154 172.538 173.824 173.274C173.494 174.011 173.053 174.968 172.655 175.875C172.045 177.213 171.291 178.56 169.623 178.475C167.777 178.39 167.15 176.866 166.701 175.333C166.464 174.536 166.269 173.723 166.032 172.927C165.574 171.453 165.125 169.98 164.634 168.523C164.143 167.066 163.448 165.906 161.543 166.592C160.696 166.888 159.849 166.871 159.442 165.863C159.036 164.855 159.722 164.11 160.611 163.593C161.528 163.008 162.637 162.803 163.702 163.021C164.768 163.239 165.707 163.864 166.32 164.762C167.192 166.034 167.866 167.43 168.319 168.904C168.793 170.081 168.759 171.445 169.674 172.41C169.92 172.398 170.156 172.31 170.35 172.159C170.544 172.007 170.687 171.799 170.758 171.564C171.215 170.598 171.605 169.599 172.13 168.667C172.977 167.117 173.739 165.126 175.857 165.279C178.245 165.508 178.398 167.82 178.855 169.624C179.465 171.919 179.854 174.265 180.354 176.586C180.347 176.961 180.461 177.328 180.679 177.634C180.898 177.939 181.208 178.165 181.565 178.28V178.28Z" fill="#0E0D0D"></path><path d="M140.411 86.7212C147.534 94.3864 148.169 104.186 150.253 113.418C151.219 117.704 151.71 122.083 153.116 126.275C154.572 130.96 157.365 135.117 161.154 138.235L163.076 139.827C166.092 142.368 166.058 143.808 162.856 146.256C160.817 147.915 158.419 149.076 155.852 149.643C152.557 150.262 151.82 152.117 151.938 155.005C152.023 157.029 152.184 159.045 152.379 161.052C152.523 162.458 152.125 163.119 150.6 163.492C147.704 164.195 146.67 165.592 146.543 168.125C146.416 170.657 147.577 172.817 150.312 173.452C152.625 173.986 152.345 175.087 152.082 176.772C151.363 181.363 148.745 184.251 144.46 185.818C141.448 186.959 138.281 187.636 135.067 187.825C128.412 188.28 121.73 188.124 115.103 187.359C114.163 187.232 113.206 187.173 112.257 187.139C109.285 187.046 108.505 187.741 108.234 190.781C107.701 196.71 109.005 202.385 109.928 208.119C110.675 212.838 111.831 217.483 113.384 222.001C104.914 223.814 96.9017 226.431 88.3387 226.38C79.7757 226.329 71.1958 226.719 62.7175 225.05C61.8705 224.889 61.0998 224.661 60.2951 224.457C59.464 224.319 58.7086 223.891 58.1629 223.249C57.6172 222.608 57.3164 221.793 57.3137 220.951C57.0766 216.945 56.0263 213.006 56.975 208.924C57.373 207.23 56.975 205.375 56.9241 203.588C56.8507 196.1 56.783 188.607 56.7209 181.109C56.6701 173.384 56.7632 165.643 56.0263 157.944C55.84 155.962 56.2974 154.818 58.3047 154.251C59.6561 153.809 60.9633 153.242 62.2093 152.557C68.7988 149.262 75.0326 145.586 77.4126 138.226C77.7299 138.094 78.0776 138.052 78.4171 138.106C78.7566 138.16 79.0745 138.307 79.3353 138.531C87.4832 142.69 96.1563 138.311 99.8237 133.449C103.102 129.096 104.736 124.234 104.059 118.771C103.872 117.213 104.245 116.433 105.753 115.781C115.916 111.25 124.386 104.44 132.322 96.7749C135.354 93.7083 138.065 90.3395 140.411 86.7212V86.7212ZM123.717 124.463C123.626 126.216 123.979 127.964 124.742 129.545C126.961 133.627 131.374 133.779 133.779 129.858C135.222 127.505 135.789 124.719 135.38 121.99C135.291 121.04 135.004 120.119 134.539 119.287C134.074 118.454 133.44 117.727 132.678 117.153C132.069 116.691 131.362 116.376 130.612 116.231C129.861 116.086 129.088 116.116 128.351 116.319C127.614 116.521 126.933 116.89 126.362 117.398C125.79 117.905 125.343 118.537 125.055 119.245C124.293 121.032 123.607 122.803 123.717 124.463Z" fill="#FFC729"></path><path d="M91.963 103.525C86.1612 102.39 85.3396 102.441 79.0973 104.372C78.9625 103.935 78.8634 103.487 78.8009 103.034C78.1318 92.3876 76.5225 81.8088 76.1244 71.1368C76.1244 70.7811 76.0821 70.4253 76.0821 70.0696C76.1668 63.4292 74.5491 64.7929 81.7399 62.65C84.1396 61.9733 86.5986 61.5281 89.0833 61.3203C90.3537 61.1932 91.0652 61.3203 91.1668 62.8533C92.0138 76.117 91.9545 89.4146 92.2594 102.661C92.1988 102.961 92.0991 103.252 91.963 103.525V103.525Z" fill="#F4F3FB"></path><path d="M95.2932 122.286C95.2424 126.665 93.1165 129.477 89.61 131.323C86.5608 132.933 83.6303 132.374 80.9115 130.417C80.3358 129.998 79.8175 129.505 79.37 128.952C75.025 123.684 78.6331 113.621 85.2988 112.469C86.4144 112.251 87.5661 112.304 88.6569 112.624C89.7478 112.943 90.7457 113.521 91.5665 114.307C92.682 115.327 93.5854 116.556 94.2249 117.925C94.8644 119.294 95.2274 120.776 95.2932 122.286V122.286Z" fill="#F4F3FB"></path><path d="M152.295 170.437C150.974 170.437 150 169.954 149.754 168.54C149.702 168.189 149.754 167.83 149.905 167.509C150.055 167.188 150.298 166.919 150.601 166.736C150.772 166.579 150.984 166.476 151.213 166.44C151.441 166.404 151.675 166.435 151.885 166.531C152.096 166.627 152.274 166.782 152.396 166.978C152.519 167.174 152.581 167.402 152.575 167.633C152.773 168.574 152.676 169.554 152.295 170.437Z" fill="#F6F8F8"></path><path d="M196.819 100.62C192.093 100.146 187.375 99.6632 182.649 99.2058C180.955 99.0449 180.108 98.3589 180.413 96.4447C180.612 94.6784 180.723 92.9031 180.743 91.1257C180.819 89.6773 181.412 89.0844 182.996 89.3046C186.52 89.8017 190.069 90.1042 193.626 90.2109C199.097 90.3549 204.552 90.2109 210.006 90.0076C212.547 89.906 212.547 89.9568 212.547 92.5486C212.547 93.1415 212.547 93.7344 212.488 94.3273C212.352 99.1381 212.352 99.155 207.499 100.036C206.217 100.288 204.917 100.443 203.612 100.502C201.359 100.569 199.097 100.502 196.836 100.502L196.819 100.62Z" fill="#F6F8F8"></path><path d="M180.32 102.153C191.026 103.39 201.334 105.152 211.599 102.729C211.819 103.246 211.997 103.458 211.989 103.669C211.896 105.905 212.505 108.599 211.472 110.259C210.439 111.919 207.474 111.851 205.323 112.419C198.547 114.197 191.661 113.605 184.826 112.588C180.354 111.927 180.363 111.826 180.32 107.142C180.312 105.617 180.32 104.093 180.32 102.153Z" fill="#F6F8F8"></path><path d="M181.236 115.324C191.468 117.018 201.428 117.822 211.338 114.401C211.444 114.839 211.506 115.288 211.524 115.739C210.618 123.514 209.331 124.675 201.479 125.106C197.206 125.309 192.924 125.024 188.715 124.26C183.379 123.328 181.228 120.787 181.236 115.324Z" fill="#F6F8F8"></path><path d="M181.742 85.8997C182.31 82.0714 184.478 80.2758 187.671 79.5813C193.274 78.4185 199.026 78.1526 204.712 78.7936C208.769 79.2001 210.692 81.4446 211.488 86.2894C201.592 87.3296 191.608 87.1988 181.742 85.8997V85.8997Z" fill="#F6F8F8"></path><path d="M194.626 49.0729C194.626 43.1271 194.626 37.1842 194.626 31.244C194.626 29.7025 194.567 28.1525 194.626 26.611C194.626 25.764 194.287 24.4427 195.744 24.4512C197.201 24.4597 196.879 25.7471 196.93 26.6279C197.099 29.2366 197.294 31.8454 197.311 34.4541C197.379 47.2943 197.607 60.126 198.751 72.9239C198.827 73.8133 199.183 74.9398 197.7 75.1092C196.218 75.2786 195.346 74.9398 195.278 73.3136C195.151 70.112 194.931 66.9019 194.88 63.7003C194.812 58.8217 194.88 53.9516 194.88 49.0729H194.626Z" fill="#04ACBF"></path><path d="M123.717 124.463C123.607 122.769 124.293 121.075 125.03 119.279C125.318 118.571 125.765 117.939 126.337 117.432C126.908 116.924 127.589 116.555 128.326 116.353C129.063 116.15 129.836 116.12 130.587 116.265C131.337 116.41 132.044 116.725 132.653 117.187C133.415 117.761 134.049 118.488 134.514 119.32C134.979 120.153 135.266 121.074 135.355 122.023C135.764 124.753 135.197 127.539 133.754 129.892C131.349 133.839 126.936 133.661 124.717 129.579C123.957 127.985 123.613 126.225 123.717 124.463V124.463ZM129.883 119.677C129.662 119.727 129.444 119.792 129.231 119.872C126.538 121.134 126.089 127.088 128.545 128.943C128.649 129.048 128.775 129.129 128.913 129.182C129.051 129.234 129.198 129.257 129.345 129.248C129.493 129.239 129.637 129.199 129.767 129.131C129.898 129.062 130.013 128.966 130.104 128.85C130.519 128.384 130.104 128.079 129.9 127.656C128.342 124.81 128.376 124.522 130.841 122.362C131.306 121.956 131.84 121.786 131.45 121.041C131.293 120.721 131.073 120.436 130.804 120.201C130.535 119.967 130.222 119.789 129.883 119.677Z" fill="#0E0D0D"></path><path d="M129.881 119.677C130.22 119.789 130.533 119.967 130.802 120.202C131.071 120.436 131.291 120.721 131.448 121.041C131.838 121.786 131.304 121.956 130.838 122.362C128.374 124.522 128.34 124.81 129.898 127.656C130.127 128.079 130.517 128.384 130.102 128.85C130.011 128.966 129.896 129.062 129.765 129.131C129.634 129.199 129.491 129.239 129.343 129.248C129.196 129.257 129.048 129.234 128.91 129.182C128.772 129.129 128.647 129.048 128.543 128.943C126.087 127.088 126.536 121.134 129.229 119.872C129.442 119.792 129.66 119.727 129.881 119.677Z" fill="#F6F8F8"></path></svg>