<svg xmlns="http://www.w3.org/2000/svg" width="250" height="250" viewBox="0 0 250 250" fill="none"><path d="M67.2565 176.261C67.7437 172.619 68.008 168.639 68.8421 164.782C70.3616 157.795 70.5928 150.652 71.6169 143.608C71.8227 141.515 72.5434 139.507 73.7145 137.761C84.5082 122.607 95.1863 107.362 106.112 92.2983C115.105 79.9107 124.38 67.7214 133.505 55.4247C135.562 52.8741 137.332 50.1046 138.782 47.1663C140.946 42.3764 144.472 38.3133 147.866 34.2172C149.857 31.7892 152.186 31.5497 154.944 32.5655C159.461 34.2585 163.318 37.0167 167.092 39.9072C169.569 41.8396 171.692 44.2593 173.946 46.5139C175.92 48.4546 176.3 50.5275 174.913 52.9306C171.948 58.0674 169.19 63.3362 165.994 68.3325C155.538 84.6758 144.002 100.292 132.96 116.231C123.29 130.27 113.47 144.153 103.767 158.142C102.07 160.659 99.9424 162.856 97.4821 164.633C90.8093 169.365 84.3926 174.469 77.0179 178.136C75.4155 179.04 73.7282 179.784 71.9802 180.357C68.7925 181.258 67.1326 179.796 67.2565 176.261ZM75.8369 141.254C83.352 146.358 90.7763 151.379 98.1758 156.425C99.4228 157.25 100.075 156.573 100.728 155.599C102.836 152.554 104.945 149.526 107.054 146.515L155.109 77.6232C157.042 74.8566 157.025 74.8649 154.358 72.8829C152.978 71.8588 151.632 70.7852 150.311 69.6869C145.752 65.9045 141.227 62.0974 136.387 58.0756C115.717 85.4438 95.7726 113.151 75.8369 141.254ZM162.55 66.7056C165.539 61.4533 168.331 56.5313 171.147 51.6588C171.448 51.2284 171.574 50.6991 171.499 50.1789C171.424 49.6586 171.153 49.1867 170.742 48.8592C166.263 43.8017 160.833 39.6741 154.762 36.7112C151.979 35.3981 151.723 35.489 149.733 37.8343C147.121 40.9962 144.691 44.305 142.457 47.7444C141.458 49.2392 141.474 50.1476 143.002 51.3285C148.015 55.21 152.912 59.2731 157.867 63.2371C159.263 64.3437 160.766 65.3843 162.55 66.7056ZM83.2694 170.158L96.9205 160.248L75.2093 145.705C73.8549 151.189 74.3339 156.276 73.3429 161.19C73.2748 161.376 73.2507 161.576 73.2725 161.773C73.2943 161.97 73.3614 162.16 73.4685 162.327C73.5756 162.494 73.7199 162.634 73.89 162.736C74.0602 162.838 74.2517 162.9 74.4495 162.916C78.5621 163.675 81.0149 166.558 83.2364 170.158H83.2694ZM160.072 70.0337C159.998 69.2905 159.246 69.117 158.759 68.7619C153.053 64.5419 147.594 60.0081 142.119 55.5485C141.633 55.1049 141.108 54.7068 140.55 54.3593C140.385 54.2796 140.204 54.2382 140.021 54.2382C139.838 54.2382 139.657 54.2796 139.492 54.3593C139.388 54.4368 139.301 54.5357 139.238 54.6494C139.174 54.7631 139.136 54.889 139.125 55.0187C139.114 55.1484 139.131 55.2789 139.174 55.4016C139.218 55.5243 139.287 55.6363 139.377 55.7302C139.623 56.033 139.9 56.3097 140.203 56.5561C145.513 61.2716 151.029 65.7229 156.719 69.9759C157.345 70.4532 158.034 70.8397 158.768 71.1238C159.618 71.3964 159.94 70.8348 160.081 70.0337H160.072Z" fill="#0B0D0E"></path><path d="M166.886 218.346C164.189 218.292 161.6 217.275 159.586 215.48C158.207 214.258 156.984 212.862 155.704 211.524C153.351 209.047 151.575 208.758 148.759 210.699C146.996 211.865 145.358 213.21 143.87 214.712C139.006 219.667 131.995 218.594 127.659 214.052C126.478 212.821 125.586 211.318 124.479 210.013C122.869 208.114 121.944 207.965 119.64 208.997C118.228 209.72 116.933 210.653 115.8 211.764C114.561 212.947 113.248 214.051 111.869 215.067C110.207 216.298 108.193 216.962 106.125 216.962C104.057 216.962 102.044 216.298 100.382 215.067C97.8132 213.366 95.8395 211.062 93.8327 208.774C91.4047 206 90.4137 205.983 87.6472 208.51C86.0863 209.931 84.7072 211.566 83.0968 212.92C77.1838 217.875 70.7918 216.983 66.5057 210.566C65.3395 208.656 64.2754 206.685 63.318 204.662C62.8472 203.745 62.8225 202.828 63.7722 202.184C63.9848 202.021 64.2304 201.907 64.4919 201.85C64.7533 201.792 65.0243 201.792 65.2856 201.85C65.5469 201.909 65.7923 202.023 66.0045 202.187C66.2167 202.35 66.3906 202.558 66.514 202.795C66.9517 203.439 67.2077 204.208 67.5875 204.901C68.2657 206.334 69.0496 207.714 69.9329 209.03C72.8069 212.846 76.5396 213.3 80.1981 210.31C81.5194 209.229 82.6261 207.882 83.8813 206.718C84.8941 205.68 85.9998 204.738 87.1847 203.902C90.2568 201.953 92.8086 202.209 95.4431 204.728C97.2351 206.47 98.7464 208.518 100.596 210.211C104.725 213.969 107.484 213.919 111.654 210.211C113.332 208.524 115.196 207.033 117.212 205.768C121.614 203.349 124.925 204.059 127.948 208.023C128.841 209.329 129.838 210.561 130.929 211.706C133.861 214.407 137.726 215.175 141.17 211.83C142.78 210.263 144.514 208.83 146.356 207.544C151.047 204.315 154.821 204.802 158.628 208.94C158.983 209.336 159.322 209.765 159.668 210.137C163.723 214.787 167.332 216.232 174.236 211.632C176.822 209.785 179.179 207.637 181.256 205.232C181.861 204.542 182.546 203.927 183.296 203.398C183.639 203.188 184.043 203.1 184.443 203.149C184.843 203.199 185.213 203.383 185.495 203.671C185.776 203.959 185.951 204.334 185.991 204.735C186.031 205.135 185.934 205.538 185.715 205.876C185.527 206.225 185.3 206.552 185.038 206.85C182.169 210.32 178.802 213.345 175.045 215.827C172.578 217.334 169.773 218.199 166.886 218.346V218.346Z" fill="#121010"></path><path d="M165.87 198.055C164.063 197.892 162.328 197.266 160.833 196.238C159.579 195.501 158.462 194.554 157.53 193.439C153.4 188.484 150.056 187.41 143.812 192.91C142.524 194.041 141.335 195.338 140.022 196.403C135.893 199.657 132.465 199.451 128.815 195.726C127.808 194.694 126.974 193.488 126.04 192.373C123.703 189.59 121.622 189.161 118.393 190.903C116.561 191.963 114.869 193.248 113.355 194.727C112.412 195.651 111.407 196.512 110.349 197.304C106.988 199.665 103.255 199.533 100.192 196.783C98.54 195.288 97.2021 193.439 95.6495 191.828C93.6675 189.772 92.2223 189.549 89.5961 190.689C87.8129 191.56 86.2037 192.749 84.8476 194.198C83.2372 195.767 81.7424 197.502 80.0329 198.914C78.599 200.231 76.7148 200.947 74.7683 200.917C72.8218 200.886 70.9612 200.11 69.5696 198.749C66.9585 196.253 65.4363 192.829 65.333 189.219C65.2422 187.963 65.4817 186.741 67.1168 186.675C68.5703 186.625 68.7685 187.716 68.8346 188.83C68.994 190.816 69.6438 192.732 70.7257 194.405C72.7325 197.593 75.5238 197.964 78.2821 195.396C79.7356 194.05 81.057 192.563 82.4113 191.135C83.6835 189.787 85.1405 188.628 86.7387 187.691C91.5451 184.949 95.4596 185.634 99.1263 189.797C99.9026 190.697 100.605 191.671 101.406 192.538C104.346 195.726 106.253 195.842 109.499 193.009C110.894 191.795 112.216 190.532 113.686 189.375C114.94 188.404 116.297 187.573 117.732 186.898C122.076 184.974 125.636 185.833 128.749 189.442C129.691 190.548 130.475 191.787 131.474 192.836C133.696 195.173 135.125 195.272 137.643 193.306C138.657 192.461 139.624 191.563 140.542 190.614C141.754 189.399 143.104 188.329 144.564 187.427C149.99 184.181 154.375 184.701 158.892 189.136C159.955 190.305 161.089 191.408 162.286 192.439C165.35 194.776 167.407 194.71 170.545 192.439C172.518 191.052 173.914 189.136 175.5 187.344C176.507 186.229 177.35 184.453 179.332 185.535C180.645 186.254 180.347 187.575 178.448 189.871C176.859 191.99 175.005 193.897 172.931 195.544C170.875 197.089 168.678 198.278 165.87 198.055Z" fill="#121010"></path><path d="M75.8359 141.254C95.7717 113.175 115.716 85.4437 136.386 58.0837C141.201 62.1056 145.751 65.9127 150.31 69.695C151.631 70.7934 152.977 71.867 154.357 72.891C157.024 74.873 157.041 74.8648 155.108 77.6313L107.086 146.523C104.972 149.551 102.863 152.579 100.76 155.607C100.107 156.548 99.4549 157.259 98.2079 156.433C90.7754 151.379 83.3511 146.357 75.8359 141.254Z" fill="#04C4D9"></path><path d="M162.55 66.7056C160.758 65.3842 159.247 64.3437 157.843 63.2123C152.888 59.2483 148.016 55.1852 142.978 51.3037C141.45 50.1228 141.434 49.2143 142.433 47.7196C144.667 44.2802 147.096 40.9714 149.709 37.8095C151.699 35.4642 151.955 35.3733 154.738 36.6864C160.809 39.6493 166.239 43.7769 170.718 48.8344C171.129 49.1619 171.4 49.6338 171.475 50.1541C171.55 50.6743 171.424 51.2036 171.123 51.634C168.315 56.5313 165.54 61.4533 162.55 66.7056Z" fill="#FAFAFA"></path><path d="M83.2334 170.158C81.0119 166.558 78.5591 163.676 74.4465 162.916C74.2486 162.9 74.0572 162.838 73.887 162.736C73.7169 162.634 73.5726 162.494 73.4655 162.327C73.3584 162.16 73.2913 161.97 73.2695 161.773C73.2477 161.576 73.2718 161.376 73.3399 161.19C74.3309 156.235 73.8519 151.189 75.2063 145.705L96.8845 160.29L83.2334 170.158Z" fill="#F6F7F7"></path><path d="M160.079 70.0338C159.963 70.8597 159.616 71.3965 158.79 71.0909C158.057 70.8067 157.367 70.4203 156.742 69.943C151.06 65.6899 145.544 61.2387 140.225 56.5232C139.923 56.2768 139.646 56.0001 139.4 55.6973C139.31 55.6034 139.24 55.4913 139.197 55.3686C139.154 55.246 139.137 55.1154 139.148 54.9857C139.159 54.8561 139.197 54.7302 139.261 54.6165C139.324 54.5028 139.411 54.4039 139.515 54.3264C139.68 54.2467 139.861 54.2053 140.044 54.2053C140.227 54.2053 140.408 54.2467 140.572 54.3264C141.131 54.6739 141.656 55.072 142.141 55.5156C147.617 60.0164 153.075 64.5503 158.782 68.729C159.253 69.1172 160.004 69.2906 160.079 70.0338Z" fill="#F6F7F7"></path></svg>