<svg xmlns="http://www.w3.org/2000/svg" width="250" height="250" viewBox="0 0 250 250" fill="none"><path d="M185.98 124.924C187.257 144.218 187.127 163.521 186.582 182.815C186.537 184.828 186.386 186.838 186.128 188.836C185.379 194.515 183.215 196.772 177.508 197.567C174.027 198.107 170.514 198.416 166.992 198.492C151.379 198.64 135.776 198.168 120.173 198.751C111.284 199.084 102.414 199.722 93.5074 199.574C87.9731 199.522 82.4484 199.101 76.9699 198.316C68.137 196.984 66.4907 195.134 66.1854 186.246C65.723 172.16 65.1773 158.064 65.1958 143.968C65.1958 116.276 65.6305 88.5935 65.8987 60.9016C65.945 56.055 67.7485 54.0017 72.7246 53.3543C76.3787 52.8337 80.0598 52.5249 83.7495 52.4294C112.107 52.0779 140.447 50.6813 168.842 51.3935C171.191 51.4582 173.54 51.4397 175.88 51.5877C180.412 51.8652 183.335 54.2607 184.732 58.5523C185.332 60.4723 185.68 62.4621 185.768 64.4717C186.424 76.0517 185.888 87.5946 185.98 99.2115C186.027 107.804 185.98 116.359 185.98 124.924ZM180.681 100.09C180.866 94.0598 181.208 88.0663 181.208 82.0081C181.208 75.9499 181.05 69.9288 180.653 63.9076C180.255 57.8864 178.803 56.6285 172.884 56.5637C161.146 56.4435 149.4 56.4435 137.663 56.2123C123.41 55.9255 109.212 57.7939 94.9502 57.2944C92.4437 57.2112 89.9187 57.2944 87.403 57.3962C83.0559 57.5904 78.6995 57.5072 74.3524 58.0991C71.6794 58.4598 70.6527 59.5235 70.6527 62.289C70.6527 74.3683 70.5418 86.4477 70.4955 98.5271C70.4955 99.452 70.0885 100.571 71.2817 101.172C69.7556 102.504 70.4122 104.299 70.3568 105.88C70.2088 117.355 70.1225 128.833 70.0978 140.315C70.0978 143.792 69.7186 147.289 70.4308 150.748C69.8018 153.412 70.2828 156.085 70.3568 158.758C70.5695 167.637 70.958 176.525 70.921 185.404C70.921 191.74 71.4205 192.683 77.6359 193.553C85.9605 194.628 94.3661 194.937 102.747 194.478C121.523 193.645 140.29 193.081 159.084 193.553C163.95 193.718 168.821 193.536 173.66 193.007C180.773 192.193 181.226 191.749 181.467 184.683C181.67 178.652 181.827 172.659 181.837 166.573C181.837 161.024 182.632 155.53 181.837 150.008C181.67 137.669 181.531 125.34 181.3 113.011C181.18 108.71 181.374 104.363 180.681 100.09Z" fill="#0D0E0F"></path><path d="M198.19 56.7672C195.869 56.943 193.566 57.1742 191.226 57.2852C189.718 57.3684 188.543 56.6747 188.451 55.0746C188.415 54.7383 188.452 54.3981 188.559 54.0772C188.666 53.7562 188.84 53.4621 189.071 53.2147C189.302 52.9673 189.583 52.7724 189.896 52.6433C190.209 52.5142 190.545 52.4539 190.883 52.4664C196.359 52.0872 201.825 51.7265 207.301 51.4212C208.808 51.338 209.927 51.9854 210.075 53.6503C210.114 53.9861 210.08 54.3263 209.975 54.6477C209.871 54.9691 209.698 55.2641 209.469 55.5126C209.239 55.7611 208.959 55.9572 208.647 56.0875C208.336 56.2178 207.999 56.2793 207.661 56.2678C204.526 56.5638 201.363 56.6655 198.209 56.8505L198.19 56.7672Z" fill="#0D0E0F"></path><path d="M184.751 36.1416C184.538 39.1291 184.418 41.4691 184.214 43.7906C184.038 45.6405 183.16 47.2776 181.171 47.0649C179.183 46.8521 178.905 45.215 179.21 43.2542C179.487 40.7692 179.638 38.2718 179.664 35.7716C179.683 34.2722 179.782 32.7748 179.959 31.2858C180.209 29.6672 180.376 27.6509 182.734 27.9006C185.093 28.1504 184.76 30.1297 184.751 31.7945C184.741 33.4594 184.751 35.1334 184.751 36.1416Z" fill="#191616"></path><path d="M186.111 212.144C186.231 214.474 186.481 216.768 186.435 219.117C186.435 220.699 185.759 222.105 183.752 221.994C182.023 221.892 181.634 220.653 181.542 219.219C181.264 214.733 180.978 210.257 180.719 205.78C180.663 205.28 180.707 204.774 180.848 204.291C181.338 202.95 182.189 201.886 183.771 202.145C185.084 202.358 185.621 203.357 185.713 204.67C185.815 207.168 185.963 209.656 186.083 212.144H186.111Z" fill="#191616"></path><path d="M200.003 197.558C197.839 197.558 195.666 197.613 193.529 197.558C192.142 197.511 190.754 197.16 190.671 195.421C190.633 195.084 190.669 194.743 190.776 194.421C190.883 194.099 191.059 193.804 191.291 193.557C191.523 193.31 191.806 193.116 192.121 192.989C192.436 192.862 192.774 192.805 193.113 192.822C198.107 192.619 203.102 192.572 208.106 192.526C208.441 192.482 208.783 192.513 209.106 192.616C209.428 192.719 209.724 192.892 209.973 193.122C210.221 193.353 210.415 193.635 210.542 193.949C210.668 194.264 210.724 194.602 210.705 194.94C210.693 195.278 210.614 195.611 210.472 195.918C210.33 196.225 210.128 196.501 209.878 196.729C209.629 196.957 209.336 197.134 209.017 197.247C208.698 197.361 208.36 197.41 208.022 197.391C205.368 197.511 202.695 197.391 200.031 197.391L200.003 197.558Z" fill="#191616"></path><path d="M49.4996 57.5441C47.1503 57.5441 44.8011 57.5441 42.461 57.5441C42.1211 57.5759 41.7784 57.532 41.4575 57.4156C41.1366 57.2992 40.8454 57.1132 40.6049 56.8709C40.3644 56.6286 40.1805 56.3361 40.0664 56.0143C39.9524 55.6925 39.911 55.3495 39.9453 55.0099C40.0104 54.4107 40.3007 53.8586 40.7575 53.4654C41.2143 53.0722 41.8033 52.8672 42.4055 52.8918C47.0949 52.8455 51.7842 52.8456 56.4642 52.9843C56.8062 52.9588 57.1494 53.0112 57.4681 53.1376C57.7869 53.2639 58.0728 53.461 58.3043 53.7139C58.5358 53.9668 58.7069 54.2689 58.8048 54.5975C58.9026 54.9261 58.9245 55.2727 58.869 55.611C58.721 57.3499 57.4631 57.7661 56.0295 57.8031C53.856 57.8586 51.6732 57.8031 49.4996 57.8031V57.5441Z" fill="#191616"></path><path d="M55.9553 193.747C56.612 193.747 57.2779 193.654 57.9438 193.664C59.4514 193.664 60.5798 194.348 60.7648 195.902C60.9498 197.456 59.7751 198.372 58.3415 198.483C53.8649 198.843 49.3791 199.065 44.8933 199.343C43.3302 199.435 42.1185 198.705 42.0353 197.206C42.0078 196.869 42.0518 196.53 42.1644 196.211C42.277 195.891 42.4557 195.6 42.6888 195.354C42.9219 195.109 43.2041 194.916 43.517 194.787C43.83 194.658 44.1666 194.597 44.5048 194.607C48.3154 194.311 52.1354 194.108 55.9553 193.867V193.747Z" fill="#191616"></path><path d="M63.7617 38.3151C63.7617 36.1508 63.7617 33.9958 63.7617 31.8407C63.7617 30.5366 64.1224 29.5284 65.519 29.2417C67.0914 28.9272 68.3678 29.6949 68.525 31.1378C69.063 35.7596 69.1156 40.425 68.6822 45.0578C68.6624 45.396 68.5702 45.726 68.4119 46.0256C68.2536 46.3251 68.0328 46.5872 67.7645 46.7941C67.4962 47.001 67.1867 47.148 66.8567 47.225C66.5268 47.302 66.1841 47.3073 65.852 47.2405C64.2981 47.0001 63.7617 45.8347 63.8172 44.3086C63.8727 42.3108 63.8172 40.3222 63.8172 38.3244L63.7617 38.3151Z" fill="#191616"></path><path d="M66.7031 212.439C66.7031 210.099 66.6291 207.75 66.7031 205.41C66.6957 205.111 66.7557 204.814 66.8789 204.542C67.0021 204.269 67.1852 204.028 67.4145 203.836C67.6439 203.644 67.9136 203.506 68.2036 203.433C68.4935 203.359 68.7963 203.352 69.0893 203.412C70.301 203.533 70.5878 204.504 70.6433 205.604C70.856 209.452 71.1335 213.3 71.3369 217.147C71.377 217.981 71.3149 218.817 71.1519 219.635C70.9022 220.875 70.227 221.855 68.7934 221.753C68.1947 221.741 67.6244 221.496 67.2045 221.069C66.7845 220.642 66.5481 220.068 66.5458 219.469C66.4163 217.129 66.5458 214.78 66.5458 212.439H66.7031Z" fill="#191616"></path><path d="M70.4182 150.729C69.706 147.27 70.0852 143.774 70.0852 140.296C70.0852 128.815 70.1716 117.337 70.3442 105.862C70.3442 104.28 69.7061 102.486 71.2692 101.163C75.7365 100.765 80.2778 101.357 84.6434 99.9606C86.9187 101.348 86.5765 104.021 87.5754 106.037C91.7005 114.408 99.7565 116.859 107.628 111.901C109.255 110.884 111.716 109.894 110.273 107.397C108.756 104.752 106.832 106.722 105.158 107.6C97.8604 111.457 92.3202 108.479 91.2288 100.109C98.3969 99.9699 105.574 99.8589 112.742 99.7016C114.592 99.6554 116.442 99.8866 118.061 98.7767C121.224 98.7027 124.378 98.5548 127.532 98.564C132.276 98.564 132.276 98.638 132.341 103.263C132.341 106.093 132.341 108.923 132.452 111.753C132.438 112.048 132.485 112.343 132.591 112.618C132.698 112.894 132.861 113.144 133.07 113.352C133.28 113.561 133.53 113.723 133.806 113.828C134.082 113.934 134.377 113.98 134.672 113.964C136.189 113.964 136.522 112.863 136.661 111.615C136.725 110.782 136.661 109.95 136.661 109.117C136.855 105.973 137.077 102.819 137.28 99.6739L140.887 99.6184C141.729 101.237 142.552 102.874 143.412 104.483C145.262 107.878 147.612 108.183 149.887 105.159C151.191 103.448 152.273 101.57 153.448 99.7664L157.101 99.8496C157.804 102.819 157.656 105.843 157.767 108.858C157.75 110.193 157.821 111.528 157.98 112.854C158.003 113.149 158.085 113.437 158.222 113.7C158.359 113.963 158.547 114.196 158.776 114.384C159.005 114.572 159.27 114.712 159.554 114.796C159.838 114.879 160.137 114.905 160.431 114.87C160.941 114.848 161.426 114.645 161.801 114.297C162.175 113.95 162.414 113.481 162.475 112.974C162.662 111.819 162.742 110.648 162.715 109.478C162.715 106.296 162.715 103.115 162.641 99.9329L180.677 100.09C181.417 104.382 181.223 108.729 181.306 113.039C181.537 125.377 181.676 137.706 181.843 150.035C171.021 150.128 160.218 148.944 149.387 149.333C147.815 147.834 149.323 146.983 150.118 146.04C152.726 142.96 155.418 139.963 157.961 136.837C158.886 135.727 159.127 134.275 157.693 133.322C156.574 132.582 155.436 133.017 154.558 134.007C153.892 134.756 153.281 135.561 152.597 136.31L142.164 147.631C140.924 146.761 141.239 145.864 141.239 145.096C141.035 141.748 140.897 138.391 140.73 135.033C140.656 133.618 140.406 132.185 138.584 132.259C136.957 132.351 136.411 133.646 136.355 135.107C136.309 136.282 136.355 137.457 136.355 138.631C136.309 142.155 136.244 145.679 136.189 149.194H105.389C106.092 145.735 108.034 142.719 109.2 139.464C109.81 137.734 111.975 135.644 109.154 134.414C106.684 133.35 105.824 135.894 105.001 137.679C103.419 141.11 101.921 144.588 100.237 148.408C96.3991 145.402 94.688 141.406 92.3572 137.827C91.7281 136.656 91.0365 135.52 90.2854 134.423C89.9804 134.014 89.53 133.738 89.0274 133.652C88.5247 133.566 88.0082 133.677 87.5846 133.96C87.2051 134.157 86.9057 134.48 86.737 134.873C86.5684 135.266 86.5411 135.705 86.6597 136.116C86.9454 137.24 87.3711 138.325 87.9268 139.343C89.8229 142.655 91.8207 145.92 93.7723 149.203L70.4182 150.729Z" fill="#E144FB"></path><path d="M105.392 149.212H136.192C136.275 152.912 136.34 156.612 136.46 160.311C136.457 161.648 136.572 162.981 136.802 164.298C136.858 164.895 137.149 165.445 137.61 165.828C138.071 166.211 138.665 166.396 139.262 166.342C139.558 166.331 139.848 166.259 140.115 166.131C140.382 166.003 140.619 165.821 140.813 165.598C141.006 165.374 141.152 165.112 141.24 164.83C141.328 164.547 141.357 164.25 141.325 163.956C141.465 162.108 141.446 160.251 141.269 158.406C140.844 155.243 142.278 153.513 145.173 152.357C148.197 157.74 151.897 162.226 157.418 164.825C159.111 165.62 160.905 167.489 162.755 165.167C163.911 163.715 163.023 162.392 159.546 160.543C154.782 158.027 151.111 154.577 149.372 149.36C160.202 148.972 171.005 150.156 181.827 150.063C182.65 155.613 181.827 161.107 181.827 166.629C181.827 172.668 181.66 178.708 181.457 184.738C181.217 191.777 180.763 192.221 173.651 193.063C168.811 193.591 163.94 193.773 159.074 193.608C140.28 193.09 121.513 193.655 102.738 194.533C94.3564 194.993 85.9507 194.683 77.6261 193.608C71.4107 192.739 70.8927 191.758 70.9112 185.46C70.9112 176.581 70.5598 167.692 70.347 158.813C70.2731 156.14 69.7921 153.467 70.421 150.803L93.8214 149.296C97.78 152.07 99.0101 155.4 96.3094 159.83C95.3708 161.592 94.6325 163.454 94.1081 165.38C93.5162 167.23 92.0455 169.487 94.8388 170.495C97.632 171.503 98.0759 168.83 98.7604 167.054C101.026 161.135 103.191 155.15 105.392 149.212Z" fill="#FFC729"></path><path d="M180.681 100.09L162.729 99.9237C161.804 96.668 161.804 93.3013 161.304 89.9808C160.981 87.6223 161.415 84.3574 158.113 83.8671C155.135 83.4232 154.599 86.4477 153.489 88.4177C151.454 92.0249 150.002 95.9835 147.264 99.2855C145.59 97.9536 145.137 96.1223 144.175 94.6146C142.455 91.9324 140.845 89.1762 139.023 86.5679C137.987 85.0695 136.692 83.4324 134.51 84.2741C132.66 84.9863 132.438 86.7436 132.41 88.4917C132.41 90.0086 132.336 91.5162 132.317 93.0238C132.207 100.738 133.659 100.358 125.103 100.349C122.587 100.349 119.998 100.562 117.584 100.035C116.141 99.7109 117.269 98.9895 118.074 98.7675C116.446 99.9052 114.568 99.6924 112.756 99.6924C105.587 99.8497 98.4101 99.9607 91.2513 100.09C90.4891 98.9656 90.1786 97.595 90.3818 96.2518C90.7611 91.9324 91.723 87.8628 96.2643 85.9575C100.806 84.0521 104.773 84.5886 107.816 88.8432C108.741 90.0733 109.907 90.693 111.257 89.6479C112.608 88.6027 112.127 87.3078 111.396 86.0777C110.611 84.7834 109.576 83.6579 108.353 82.7665C101.712 77.8182 90.9368 80.6577 87.3019 88.316C86.0101 91.2436 85.4271 94.4346 85.6001 97.6299C85.6001 98.7583 85.9978 100.081 84.6751 100.747C84.2774 100.941 83.815 100.627 84.2034 100.035C84.2682 99.9514 84.5179 99.9884 84.6844 99.9699C80.3188 101.367 75.7775 100.775 71.3101 101.172C70.117 100.562 70.524 99.4335 70.524 98.5178C70.524 86.4384 70.7274 74.359 70.6812 62.2797C70.6812 59.5049 71.7078 58.4505 74.3808 58.0898C78.7279 57.4978 83.0843 57.5811 87.4314 57.3868C89.9471 57.2759 92.4722 57.2019 94.9787 57.2851C109.241 57.7846 123.438 55.9162 137.691 56.203C149.428 56.4342 161.175 56.4342 172.912 56.5544C178.822 56.6192 180.311 57.8493 180.681 63.8983C181.051 69.9472 181.236 75.9684 181.236 81.9988C181.236 88.0293 180.82 94.0412 180.681 100.09Z" fill="#04C4D9"></path><path d="M118.028 98.7491C117.223 98.971 116.095 99.674 117.538 100.016C119.952 100.543 122.542 100.331 125.057 100.331C133.613 100.331 132.161 100.719 132.272 93.0053C132.272 91.4977 132.346 89.9901 132.364 88.4733C132.364 86.7252 132.642 84.9678 134.464 84.2557C136.647 83.414 137.942 85.0511 138.977 86.5494C140.827 89.1577 142.409 91.9139 144.129 94.5962C145.054 96.1038 145.544 97.9351 147.218 99.267C149.993 95.9651 151.408 92.0064 153.443 88.3993C154.553 86.4292 155.089 83.4047 158.068 83.8487C161.37 84.3389 160.935 87.6038 161.259 89.9624C161.712 93.2828 161.777 96.6495 162.683 99.9052C162.683 103.087 162.766 106.269 162.757 109.45C162.784 110.621 162.703 111.791 162.517 112.946C162.456 113.453 162.217 113.922 161.842 114.27C161.468 114.617 160.983 114.82 160.473 114.843C160.178 114.877 159.88 114.852 159.595 114.768C159.311 114.685 159.047 114.545 158.818 114.356C158.589 114.168 158.4 113.935 158.263 113.672C158.127 113.41 158.044 113.122 158.021 112.826C157.862 111.501 157.791 110.166 157.809 108.831C157.698 105.815 157.809 102.791 157.143 99.822C157.291 98.1016 157.402 96.3998 155.903 94.6055C154.979 96.5478 153.73 97.8704 153.489 99.7387C152.315 101.542 151.233 103.438 149.928 105.131C147.625 108.137 145.248 107.85 143.454 104.456C142.594 102.846 141.771 101.209 140.929 99.5907C140.037 97.2236 138.789 95.0061 137.229 93.0146C136.97 95.7893 136.813 97.7224 137.35 99.6462C137.146 102.791 136.924 105.945 136.73 109.09C136.73 109.922 136.73 110.754 136.73 111.587C136.637 112.836 136.258 113.936 134.741 113.936C134.446 113.952 134.152 113.906 133.876 113.801C133.6 113.695 133.349 113.533 133.14 113.325C132.93 113.116 132.767 112.866 132.661 112.591C132.554 112.315 132.507 112.021 132.522 111.726C132.401 108.895 132.457 106.065 132.411 103.235C132.346 98.6103 132.346 98.5548 127.601 98.5363C124.345 98.5271 121.191 98.6751 118.028 98.7491Z" fill="#0D0E0F"></path><path d="M149.344 149.342C151.111 154.558 154.783 158.008 159.518 160.524C162.996 162.374 163.884 163.697 162.728 165.149C160.878 167.47 159.083 165.602 157.391 164.806C151.841 162.207 148.142 157.722 145.145 152.339C142.25 153.495 140.816 155.224 141.242 158.388C141.419 160.232 141.437 162.089 141.297 163.937C141.329 164.231 141.3 164.529 141.212 164.811C141.124 165.094 140.979 165.355 140.785 165.579C140.592 165.803 140.354 165.984 140.087 166.112C139.821 166.241 139.53 166.312 139.235 166.323C138.638 166.377 138.044 166.193 137.582 165.809C137.121 165.426 136.831 164.876 136.775 164.279C136.544 162.963 136.43 161.629 136.432 160.293C136.312 156.593 136.247 152.893 136.164 149.194C136.22 145.679 136.284 142.155 136.331 138.631C136.331 137.457 136.284 136.282 136.331 135.107C136.386 133.646 136.932 132.333 138.56 132.259C140.409 132.157 140.631 133.591 140.705 135.033C140.872 138.391 141.011 141.748 141.214 145.096C141.214 145.864 140.9 146.761 142.139 147.631L152.526 136.319C153.21 135.57 153.821 134.765 154.487 134.016C155.365 133.026 156.503 132.592 157.622 133.332C159.056 134.256 158.797 135.736 157.89 136.846C155.347 139.972 152.655 142.969 150.047 146.049C149.279 146.993 147.772 147.843 149.344 149.342Z" fill="#0D0E0F"></path><path d="M84.612 99.9607C84.4455 99.9607 84.1957 99.9607 84.131 100.025C83.7425 100.617 84.205 100.95 84.6027 100.738C85.9531 100.072 85.5831 98.7491 85.5276 97.6207C85.3663 94.4225 85.962 91.2314 87.2665 88.3068C90.9014 80.667 101.677 77.8276 108.318 82.7573C109.541 83.6487 110.575 84.7742 111.36 86.0685C112.091 87.2987 112.609 88.5936 111.222 89.6387C109.834 90.6839 108.66 90.0641 107.781 88.834C104.738 84.5794 100.742 84.0615 96.2289 85.9483C91.7153 87.8351 90.7256 91.9232 90.3464 96.2426C90.1432 97.5859 90.4537 98.9564 91.2159 100.081C92.298 108.461 97.8382 111.439 105.09 107.582C106.764 106.703 108.687 104.733 110.204 107.379C111.647 109.876 109.187 110.865 107.559 111.883C99.6881 116.84 91.6321 114.389 87.5069 106.019C86.545 104.021 86.8872 101.348 84.612 99.9607Z" fill="#0D0E0F"></path><path d="M105.389 149.212C103.187 155.15 101.023 161.088 98.7571 166.998C98.0726 168.774 97.5639 171.42 94.8354 170.439C92.1069 169.459 93.5128 167.128 94.1048 165.324C94.6292 163.398 95.3675 161.537 96.3061 159.775C99.0068 155.345 97.7767 152.015 93.818 149.24C91.8665 145.957 89.8687 142.692 87.9726 139.38C87.4176 138.365 86.9919 137.283 86.7055 136.162C86.5868 135.751 86.6141 135.312 86.7827 134.919C86.9514 134.526 87.2509 134.204 87.6304 134.007C88.054 133.723 88.5704 133.613 89.0731 133.699C89.5757 133.785 90.0261 134.061 90.3311 134.469C91.0822 135.566 91.7738 136.702 92.4029 137.873C94.6874 141.452 96.4448 145.448 100.283 148.454C101.967 144.634 103.465 141.156 105.046 137.725C105.87 135.94 106.73 133.396 109.199 134.46C112.067 135.69 109.856 137.78 109.246 139.51C108.034 142.766 106.092 145.753 105.389 149.212Z" fill="#0D0E0F"></path><path d="M137.292 99.6463C136.756 97.7224 136.913 95.8079 137.172 93.0146C138.732 95.0062 139.979 97.2236 140.872 99.5908L137.292 99.6463Z" fill="#1BE5FD"></path><path d="M153.488 99.7387C153.729 97.8889 154.996 96.5478 155.902 94.6055C157.401 96.3998 157.29 98.1016 157.142 99.822L153.488 99.7387Z" fill="#1BE5FD"></path></svg>