<svg xmlns="http://www.w3.org/2000/svg" xmlns:xlink="http://www.w3.org/1999/xlink" width="303" height="303" viewBox="0 0 303 303"><defs><clipPath id="clip-path"><rect id="Rectangle_7673" data-name="Rectangle 7673" width="199.79" height="250.9" fill="none"></rect></clipPath><clipPath id="clip-security"><rect width="303" height="303"></rect></clipPath></defs><g id="security" clip-path="url(#clip-security)"><rect width="303" height="303" fill="rgba(255,255,255,0)"></rect><g id="Group_26675" data-name="Group 26675" transform="translate(15738.605 -15007.95)"><g id="Group_26674" data-name="Group 26674" transform="translate(-15687 15034)"><g id="Group_26673" data-name="Group 26673" clip-path="url(#clip-path)"><path id="Path_48492" data-name="Path 48492" d="M182.476,187.714c-13.729,18.08-34.489,33.484-52.235,44.534-8.706,5.358-16.742,9.709-22.435,12.725-2.679,1.338-5.022,2.678-6.7,3.349a1.232,1.232,0,0,1-1,.334,312.529,312.529,0,0,1-50.561-30.8c-12.054-9.042-23.775-19.756-32.48-31.476S3,162.266,3,149.207L3,49.766a16.452,16.452,0,0,1,10.663-15.4L94.317,4.053a16.443,16.443,0,0,1,11.575,0l80.654,30.314a16.451,16.451,0,0,1,10.663,15.4v99.777h.337c0,13.393-5.692,26.118-15.068,38.172Z" transform="translate(-0.378 -0.378)" fill="#04c4d9"></path><path id="Path_48493" data-name="Path 48493" d="M99.729,250.9h-.587l-.53-.25a314.762,314.762,0,0,1-51.028-31.088c-13.829-10.371-24.936-21.141-33-32C4.907,174.533,0,161.5,0,148.829L0,49.388A19.164,19.164,0,0,1,12.363,31.534L93.015,1.219a19.078,19.078,0,0,1,13.422,0L187.09,31.534a19.164,19.164,0,0,1,12.363,17.854v97.154h.337v2.622c0,13.071-5.255,26.456-15.62,39.782l-.083.106C169.548,208.14,147.34,224.077,131.25,234.1c-8.855,5.45-17.135,9.924-22.594,12.816-1,.5-1.9.971-2.742,1.413-1.448.758-2.718,1.423-3.83,1.9a3.927,3.927,0,0,1-2.355.677m0-245.656a13.833,13.833,0,0,0-4.865.884L14.208,36.443A13.9,13.9,0,0,0,5.245,49.388l0,99.441c0,11.685,4.431,23.331,13.546,35.6,7.765,10.455,18.514,20.865,31.948,30.941A310.943,310.943,0,0,0,99.9,245.453c.938-.389,2.17-1.034,3.586-1.775.871-.455,1.8-.942,2.775-1.428,5.338-2.83,13.519-7.249,22.232-12.612,15.74-9.8,37.468-25.378,51.52-43.886l1.046-1.379.008,0c8.386-11.157,12.79-21.858,13.407-32.587h-.261V49.387a13.9,13.9,0,0,0-8.963-12.944L104.591,6.129a13.831,13.831,0,0,0-4.865-.884"></path><path id="Path_48494" data-name="Path 48494" d="M170.508,179.957c-11.32,14.908-28.437,27.609-43.069,36.719-7.178,4.418-13.8,8.005-18.5,10.491-2.209,1.1-4.14,2.209-5.521,2.762a1.015,1.015,0,0,1-.828.275,257.752,257.752,0,0,1-41.689-25.4c-9.939-7.455-19.6-16.289-26.78-25.952s-11.6-19.878-11.6-30.646l0-81.992a13.564,13.564,0,0,1,8.792-12.7l66.5-24.994a13.56,13.56,0,0,1,9.544,0l66.5,24.994a13.564,13.564,0,0,1,8.791,12.7v82.268h.278c0,11.042-4.693,21.535-12.423,31.474Z" transform="translate(-2.835 -3.481)" fill="#fff"></path><path id="Path_48495" data-name="Path 48495" d="M102.215,232.45h-.587l-.53-.249a260.135,260.135,0,0,1-42.156-25.682c-11.436-8.578-20.626-17.49-27.3-26.48C23.6,169.217,19.528,158.38,19.528,147.83l0-81.992A16.264,16.264,0,0,1,30.017,50.685l66.5-24.994a16.178,16.178,0,0,1,11.39,0l66.5,25A16.263,16.263,0,0,1,184.9,65.838v79.646h.277v2.622c0,10.882-4.365,22.014-12.977,33.084h0c-9.658,12.711-24.378,25.272-43.753,37.336-7.324,4.507-14.154,8.2-18.656,10.582-.831.416-1.572.8-2.266,1.167-1.18.618-2.22,1.162-3.141,1.559a3.672,3.672,0,0,1-2.17.616m0-202.549a10.949,10.949,0,0,0-3.849.7l-66.5,25a10.994,10.994,0,0,0-7.092,10.242l0,81.992c0,9.532,3.624,19.044,11.078,29.082C42.226,185.5,51.057,194.048,62.1,202.33a256.239,256.239,0,0,0,40.266,24.663c.729-.319,1.666-.809,2.73-1.365.72-.378,1.491-.781,2.3-1.184,4.382-2.322,11.112-5.958,18.295-10.379,12.942-8.059,30.808-20.866,42.355-36.072l.018-.024c7.278-9.355,11.149-18.294,11.781-27.24h-.185V65.838A11,11,0,0,0,172.563,55.6l-66.5-25a10.945,10.945,0,0,0-3.849-.7" transform="translate(-2.457 -3.103)"></path><path id="Path_48496" data-name="Path 48496" d="M156.4,96.861a6.488,6.488,0,0,0-9.266,0L90.043,153.956,66.59,130.5a6.552,6.552,0,1,0-9.264,9.267l28.087,28.087a6.479,6.479,0,0,0,9.266,0l61.727-61.727a6.482,6.482,0,0,0,0-9.269" transform="translate(-6.969 -11.946)" fill="#ffc729"></path><path id="Path_48497" data-name="Path 48497" d="M89.729,171.676a8.474,8.474,0,0,1-6.178-2.588L55.464,141a8.737,8.737,0,0,1,12.354-12.358L89.727,150.55,145.276,95a8.649,8.649,0,0,1,12.355,0l0,0a8.669,8.669,0,0,1,0,12.36L95.907,169.086a8.465,8.465,0,0,1-6.178,2.59m-28.086-41.24a4.386,4.386,0,0,0-3.088,7.474L86.641,166a4.3,4.3,0,0,0,6.175,0l61.728-61.728a4.368,4.368,0,0,0-6.178-6.177l-58.639,58.64-25-25a4.35,4.35,0,0,0-3.086-1.3" transform="translate(-6.653 -11.63)"></path></g></g></g></g></svg>