<svg xmlns="http://www.w3.org/2000/svg" xmlns:xlink="http://www.w3.org/1999/xlink" width="119" height="119" viewBox="0 0 119 119">
  <defs>
    <filter id="Path_841" x="0" y="0" width="119" height="119" filterUnits="userSpaceOnUse">
      <feOffset dx="2" dy="2" input="SourceAlpha"/>
      <feGaussianBlur stdDeviation="1.5" result="blur"/>
      <feFlood flood-opacity="0.2"/>
      <feComposite operator="in" in2="blur"/>
      <feComposite in="SourceGraphic"/>
    </filter>
  </defs>
  <g id="Group_972" data-name="Group 972" transform="translate(-1013.5 -3742.5)">
    <g id="Group_610" data-name="Group 610" transform="translate(519 260)">
      <g id="Group_571" data-name="Group 571" transform="translate(-5093.221 439.19)">
        <g id="Group_563" data-name="Group 563">
          <g transform="matrix(1, 0, 0, 1, 5587.72, 3043.31)" filter="url(#Path_841)">
            <path id="Path_841-2" data-name="Path 841" d="M5700.221,3100.811a55,55,0,1,1-55-55,55,55,0,0,1,55,55" transform="translate(-5587.72 -3043.31)" fill="#fff"/>
          </g>
        </g>
        <g id="Group_564" data-name="Group 564">
          <path id="Path_842" data-name="Path 842" d="M5695.027,3102.033a49.805,49.805,0,1,1-49.806-49.8,49.807,49.807,0,0,1,49.806,49.8" fill="#04c4d9"/>
        </g>
        <g id="Group_565" data-name="Group 565">
          <rect id="Rectangle_348" data-name="Rectangle 348" width="11.409" height="5.932" transform="translate(5640.447 3114.592)" fill="#fff"/>
          <path id="Path_843" data-name="Path 843" d="M5652.54,3121.209h-12.777v-7.3h12.777Zm-11.408-1.369h10.039v-4.563h-10.039Z"/>
        </g>
        <g id="Group_566" data-name="Group 566">
          <rect id="Rectangle_349" data-name="Rectangle 349" width="26.924" height="1.369" transform="translate(5632.689 3120.981)" fill="#fff"/>
          <rect id="Rectangle_350" data-name="Rectangle 350" width="28.75" height="3.194" transform="translate(5631.776 3120.068)"/>
        </g>
        <g id="Group_567" data-name="Group 567">
          <path id="Path_844" data-name="Path 844" d="M5617.858,3111.656a12.294,12.294,0,0,1-.644-5.364q.3-9.8.6-19.595c.253-8.315,10.285-7.127,19.023-6.986,9.575.154,19.153.144,28.729.144h1.613c6.329,0,5.707,6.471,5.81,9.475a148.324,148.324,0,0,1-.164,16.073c-.365,4.924.677,9.964-8.014,9.913-12.516-.073-24.972.737-37.477.637-3.833-.031-7.541-.865-9.139-3.632A6.836,6.836,0,0,1,5617.858,3111.656Z" fill="#fff"/>
          <path id="Path_845" data-name="Path 845" d="M5629.5,3116.874q-1.091,0-2.178-.009c-5.041-.04-8.38-1.416-9.923-4.088a7.607,7.607,0,0,1-.381-.758h0a13.085,13.085,0,0,1-.72-5.754l.6-19.595c.256-8.4,9.333-8.155,17.346-7.934.873.024,1.746.049,2.6.062,8.985.145,18.126.141,26.969.144h3.358c6.615,0,6.676,6.356,6.706,9.41,0,.342.006.661.016.947a151.267,151.267,0,0,1-.166,16.171c-.044.6-.067,1.21-.091,1.8-.161,4.2-.346,8.956-8.708,8.957h-.13c-6.149-.037-12.4.145-18.436.32C5640.844,3116.709,5635.153,3116.874,5629.5,3116.874Zm-10.808-5.582a5.9,5.9,0,0,0,.288.573c1.2,2.072,4.008,3.14,8.357,3.175,6.333.05,12.757-.136,18.975-.316,6.056-.175,12.322-.358,18.5-.32h.135c6.593,0,6.7-2.871,6.87-7.2.023-.609.048-1.238.094-1.868a149.594,149.594,0,0,0,.161-15.973c-.01-.3-.013-.634-.017-.992-.038-4.006-.44-7.6-4.88-7.6h-3.358c-8.847,0-18,0-27-.144-.867-.015-1.746-.039-2.627-.063-9.222-.256-15.284.038-15.47,6.164l-.6,19.6a11.51,11.51,0,0,0,.569,4.971Z"/>
        </g>
        <g id="Group_568" data-name="Group 568">
          <path id="Path_846" data-name="Path 846" d="M5637.455,3104.259a.908.908,0,0,1-.614-.239l-6.05-5.516a.914.914,0,0,1-.014-1.337l6.051-5.746a.912.912,0,1,1,1.256,1.323l-5.339,5.071,5.326,4.857a.913.913,0,0,1-.616,1.587Z"/>
        </g>
        <g id="Group_569" data-name="Group 569">
          <path id="Path_847" data-name="Path 847" d="M5653.341,3104.727a.913.913,0,0,1-.616-1.587l5.326-4.857-5.339-5.071a.912.912,0,1,1,1.256-1.323l6.051,5.746a.912.912,0,0,1-.014,1.336l-6.05,5.517A.908.908,0,0,1,5653.341,3104.727Z"/>
        </g>
        <g id="Group_570" data-name="Group 570">
          <path id="Path_848" data-name="Path 848" d="M5642.064,3106.379a.914.914,0,0,1-.842-1.264l6.51-15.652a.913.913,0,0,1,1.686.7l-6.511,15.652A.913.913,0,0,1,5642.064,3106.379Z"/>
        </g>
      </g>
    </g>
  </g>
</svg>
