<svg xmlns="http://www.w3.org/2000/svg" id="Layer_1" data-name="Layer 1" viewBox="0 0 300 300"><defs><style>      .cls-1, .cls-2, .cls-3, .cls-4, .cls-5, .cls-6, .cls-7, .cls-8, .cls-9, .cls-10, .cls-11 {        stroke: #000;      }      .cls-1, .cls-3, .cls-5, .cls-6, .cls-10, .cls-11 {        stroke-linecap: round;        stroke-linejoin: round;      }      .cls-1, .cls-6, .cls-11 {        fill: none;      }      .cls-12, .cls-3, .cls-4, .cls-8, .cls-10 {        fill: #fff;      }      .cls-13, .cls-7 {        fill: #ffc729;      }      .cls-2, .cls-3, .cls-6 {        stroke-width: 2px;      }      .cls-2, .cls-4, .cls-7, .cls-8, .cls-9 {        stroke-miterlimit: 10;      }      .cls-2, .cls-9 {        fill: #04c4d9;      }      .cls-4 {        stroke-width: .5px;      }      .cls-5, .cls-7, .cls-8, .cls-9, .cls-10, .cls-11 {        stroke-width: 1.5px;      }    </style></defs><g><g><path class="cls-12" d="m238.19,285.31c-7.76,0-22.55-20.42-28.35-29.42l23.69-12.46c1.13,2.41,4.18,9.18,6.53,16.64,3.77,12.01,4.04,20.31.78,24.02-.73.82-1.59,1.22-2.65,1.22Z"></path><path d="m233.06,244.8c1.34,2.93,3.96,8.96,6.03,15.55,3.62,11.5,3.97,19.69.99,23.08-.54.61-1.13.89-1.9.89-6.39,0-19.38-16.49-26.92-28.04l21.79-11.47m.92-2.74l-25.58,13.46s19.43,30.8,29.78,30.8c1.29,0,2.44-.48,3.4-1.56,8.58-9.74-7.6-42.69-7.6-42.69h0Z"></path></g><g><path class="cls-12" d="m160.26,285.31c-1.06,0-1.92-.4-2.65-1.22-3.26-3.71-2.99-12.01.78-24.02,2.34-7.46,5.4-14.23,6.53-16.64l23.69,12.46c-5.8,9-20.59,29.42-28.35,29.42h0Z"></path><path d="m165.39,244.8l21.79,11.47c-7.54,11.55-20.53,28.04-26.92,28.04-.77,0-1.36-.27-1.9-.89-2.98-3.38-2.63-11.56.98-23.03,2.07-6.59,4.7-12.65,6.05-15.59m-.92-2.74s-16.19,32.94-7.6,42.69c.95,1.08,2.11,1.56,3.4,1.56,10.35,0,29.78-30.8,29.78-30.8l-25.58-13.46h0Z"></path></g><g><path class="cls-12" d="m257.57,162.21c2.75-4.39,10.71-14.91,23.58-14.91,4.28,0,6.49,1.34,6.65,1.87,3.49,11.68-7.64,23.22-10.28,25.74l-19.95-12.7Z"></path><path d="m281.15,148.3c3.44,0,5.33.9,5.73,1.29,3,10.4-6.26,20.81-9.49,24.05l-18.44-11.74c3.01-4.63,6.66-8.16,10.86-10.5,4.58-2.56,8.7-3.1,11.34-3.1m0-2c-7.04,0-17.48,3.52-24.94,16.22l21.43,13.64s15.28-13.37,11.12-27.29c-.39-1.32-3.39-2.58-7.61-2.58h0Z"></path></g><g><path class="cls-12" d="m271.98,285.31c-4.77,0-13.3-8.1-23.42-22.23l-.47-.66-.74.33c-13.89,6.08-29.74,9.29-45.82,9.29s-33.29-3.5-47.65-10.12l-.75-.35-.48.68c-10.38,14.65-19.13,23.06-24.01,23.06,0,0,0,0,0,0-1.05,0-1.92-.4-2.65-1.22-6.11-6.93,1.61-27.45,5.21-35.95l.28-.66-.53-.48c-14.37-12.91-22.28-29.39-22.28-46.4,0-39.39,41.66-71.44,92.86-71.44s92.85,32.05,92.85,71.44c0,17.76-8.53,34.79-24.02,47.94l-.55.47.28.67c7.04,17.16,8.7,29.7,4.56,34.4-.73.82-1.59,1.22-2.65,1.22Z"></path><path d="m201.52,130.16c50.65,0,91.85,31.6,91.85,70.44,0,17.46-8.41,34.22-23.67,47.18l-1.11.94.55,1.34c6.89,16.8,8.61,28.95,4.73,33.36-.54.61-1.12.89-1.9.89-4.37,0-12.83-8.15-22.61-21.81l-.94-1.32-1.48.65c-13.77,6.03-29.47,9.21-45.42,9.21s-33.01-3.47-47.23-10.03l-1.51-.7-.96,1.36c-10.04,14.17-18.71,22.64-23.19,22.64-.77,0-1.36-.27-1.89-.88-3.98-4.52-1.97-17.56,5.38-34.89l.56-1.31-1.06-.95c-14.15-12.72-21.95-28.93-21.95-45.66,0-38.84,41.21-70.44,91.86-70.44m0-2c-51.84,0-93.86,32.43-93.86,72.44,0,18.01,8.52,34.48,22.61,47.14-4.18,9.87-11.39,29.79-5.04,37,.95,1.08,2.1,1.56,3.4,1.56,7.07,0,18.37-14.37,24.82-23.48,14.06,6.48,30.5,10.21,48.07,10.21s32.58-3.41,46.22-9.38c6.54,9.13,17.38,22.65,24.24,22.65,1.29,0,2.44-.48,3.4-1.56,6.04-6.85-.17-25.16-4.38-35.44,15.14-12.86,24.38-29.95,24.38-48.7,0-40.01-42.01-72.44-93.85-72.44h0Z"></path></g><ellipse class="cls-2" cx="256.21" cy="213.73" rx="20.03" ry="16.33"></ellipse><path class="cls-3" d="m232.54,168.79s-7.32-14.57-19.75-11.71c-2.26.52-8.8,13.85,5.05,25.56"></path><ellipse cx="264.5" cy="213.73" rx="2.2" ry="2.27"></ellipse><ellipse cx="249.47" cy="213.73" rx="2.2" ry="2.27"></ellipse><path class="cls-6" d="m139.3,156.14c-.66.15-1.33.25-2,.35-1.56.22-3.13.34-4.71.32-1.84-.02-3.71-.21-5.47-.79s-3.27-1.5-4.28-2.99c-.83-1.22-1.14-2.68-1.29-4.12-.14-1.37-.06-2.84.84-3.95.84-1.04,2.38-.76,3.4-.16.87.51,1.7,1.34,1.9,2.37.3,1.57-.8,3.05-1.91,4.02-1.24,1.08-2.79,1.55-4.4,1.75-.57.07-1.15.11-1.73.14-1.53.08-3.06.04-4.59-.05"></path><path class="cls-9" d="m161.64,148.73c.35,0,.7-.07,1.04-.23,30.06-13.75,63.85-3.13,64.19-3.02,1.32.42,2.72-.3,3.15-1.61.42-1.31-.29-2.72-1.61-3.15-1.45-.47-35.94-11.35-67.81,3.23-1.26.57-1.81,2.06-1.23,3.31.42.92,1.33,1.46,2.28,1.46Z"></path><path class="cls-6" d="m272.66,187.73s-3.13-8.24-7.73-1.2"></path><path class="cls-6" d="m248.27,187.15s-4.36-7.67-7.83,0"></path></g><g><path class="cls-5" d="m92.09,70.68s-2.04,1.43-4.09.61l-1.12-3.78-.82,4.03s-14.5,1.28-25.84-2.5l-.82-5.72-1.02,4.6s-2.25.51-3.98-1.23c-1.74-1.74-4.03-38.48,18.41-37.52,11.7.5,24.43-3.91,19.28,41.5Z"></path><polygon class="cls-8" points="80.09 60.61 80.09 77.41 65.31 75.74 66.86 57.39 80.09 60.61"></polygon><path class="cls-8" d="m90.66,43.51s3.68,24.92-13.69,22.06c-17.36-2.86-18.59-10.92-18.59-10.92l3.88-15.23,21.24-2.55s4.24,2.63,7.15,6.64Z"></path><path class="cls-5" d="m67.16,70.74l.69-15.04c-2.32,1.36-5.31-.54-4.09-5.58,1.23-5.04,4.9,0,4.9,0,7.63-2.04,10.62-11.58,10.62-11.58,3.95,4.36,13.68,7.34,13.68,7.34l-.5-3.74s-.84-14.63-16.12-12.9c-10.13-.52-16.03,1.02-20.96,14.41-4.92,13.38-.99,23.05-.99,23.05,0,0,1.68,1.9,3.98,1.23l1.02-4.6.82,5.72,6.93,1.69"></path><path class="cls-8" d="m81.16,79.32s25.21,1.97,29.85,1.25c8.67-1.33,33.97-8.76,33.97-8.76v8.76s-23.09,13.18-31.91,14.84c-7.47,1.41-31.91-1.79-31.91-1.79v-14.3Z"></path><path d="m25.61,265.01l-1.78,5s12.59,6.71,10.59,10.64c-2,3.93-22.73-4.06-24.89-10.54-1.11-3.31,4.96-10.43,4.96-10.43l11.12,5.33Z"></path><path class="cls-9" d="m60.24,130.62S8.19,255.82,10.37,260.59c2.87,6.27,16.56,9.84,19.64,8.71,6.56-2.4,52.58-97.38,52.58-97.38l-22.35-41.31Z"></path><path d="m100.44,269.51l1.61,5.06s14.08-2.29,14.87,2.05c.79,4.34-20.54,10.54-26.19,6.7-2.89-1.96-2.37-11.3-2.37-11.3l12.07-2.5Z"></path><path class="cls-9" d="m88.77,126.51s22.65,141.75,19.56,143.73c-3.85,2.46-18.65,5.63-22.76,3.93-2.55-1.05-34.8-108.33-34.8-108.33,0,0-6.79-21.45,9.47-40.76l28.53,1.43Z"></path><path class="cls-8" d="m71.15,71.81s-8.04-4.17-15.02,5.6c-6.97,9.77-4.9,55.22-3.77,56.75,2.76,3.75,39.01,3.61,41.35.99,1.83-2.06-.02-10.07-2.33-41.53l-20.23-21.81Z"></path><g><g id="Group_893" data-name="Group 893"><path id="Path_9802" data-name="Path 9802" class="cls-7" d="m157.85,49.37c19.95-8.36,42.91,1,51.32,20.93,8.37,19.95-1,42.91-20.93,51.32-19.95,8.37-42.91-1-51.33-20.93-8.37-19.95,1-42.91,20.93-51.33Z"></path><path id="Path_9803" data-name="Path 9803" class="cls-10" d="m160.83,56.46c16.04-6.72,34.49.8,41.26,16.82,6.72,16.04-.8,34.49-16.82,41.26-16.04,6.72-34.49-.8-41.26-16.82-6.73-16.04.8-34.49,16.82-41.26Z"></path></g><g><path class="cls-13" d="m180.62,109.41c-.32,0-.63-.08-.94-.24-.52-.26-.91-.68-1.14-1.24l-1.86-4.56c-1.51.36-2.92.54-4.22.54-1.53,0-2.94-.25-4.18-.76-.64-.25-.93-.67-1.06-.98-.15-.37-.2-.86-.16-1.49l.13-1.91c.04-.89.5-1.57,1.31-1.9.41-.17.89-.25,1.42-.25.29,0,.6.02.93.07.77.11,1.4.18,1.89.19.26.01.49.02.72.02,1.21,0,2.25-.17,3.1-.52,1.04-.42,1.81-.83,2.3-1.21.46-.36.83-.76,1.07-1.17.5-.87.52-1.84.07-2.96-.54-1.33-2.14-2.05-4.75-2.15-.31,0-.63-.01-.98-.01-.56,0-1.17.01-1.81.03-.18,0-.36,0-.54,0-.94,0-1.96-.08-3.04-.24-1.32-.19-2.58-.55-3.75-1.05-2.68-1.15-4.57-3.03-5.61-5.58-.94-2.31-.94-4.64.02-6.92.79-1.87,2.12-3.48,3.96-4.8l-1.93-4.74c-.23-.56-.25-1.12-.06-1.68.2-.59.6-1.02,1.16-1.25l2.26-.92c.24-.1.48-.15.73-.15.32,0,.64.08.95.25.51.27.89.69,1.11,1.24l1.91,4.68c.94-.18,1.88-.27,2.82-.27s1.87.09,2.81.26c.44.09.87.21,1.29.37.59.22.97.55,1.15.99.25.61.32,1.42.21,2.48-.18,1.88-.58,2.81-1.33,3.11-.19.08-.41.12-.67.12-.19,0-.41-.02-.66-.07-1.01-.26-1.96-.39-2.86-.39-1.25,0-2.47.24-3.64.72-1.79.73-2.71,1.7-2.81,2.97-.03.42.06.89.27,1.4.2.49.5.85.91,1.12.47.3,1.01.53,1.61.68.63.15,1.32.24,2.04.27l2.19.04c3.07,0,5.64.38,7.62,1.11,2.86,1.03,4.85,2.86,5.9,5.44,1.01,2.48,1.07,4.97.18,7.41-.75,2.04-2.05,3.78-3.86,5.16l1.94,4.75c.23.56.25,1.13.05,1.68-.2.57-.6,1-1.16,1.23l-2.26.92c-.24.1-.49.15-.73.15Z"></path><path d="m165.65,62.35c.2,0,.4.05.6.16.35.19.61.47.77.86l2.14,5.26c1.09-.25,2.18-.38,3.27-.38.89,0,1.78.08,2.67.25.4.08.79.19,1.17.33.38.14.62.33.71.57.2.49.26,1.2.16,2.12-.14,1.48-.43,2.31-.86,2.49-.1.04-.23.06-.39.06-.15,0-.32-.02-.52-.05-1.02-.27-2.02-.4-3-.4-1.35,0-2.66.26-3.92.77-2.06.84-3.15,2.04-3.28,3.6-.04.54.07,1.12.32,1.75.26.63.66,1.12,1.2,1.47.54.35,1.16.61,1.84.78.68.16,1.42.26,2.19.29l2.21.04c3.01,0,5.47.36,7.37,1.06,2.67.96,4.49,2.64,5.46,5.02.94,2.31,1,4.6.17,6.87-.77,2.09-2.12,3.81-4.08,5.16l2.16,5.3c.16.39.17.77.04,1.15-.13.38-.38.64-.74.78l-2.26.92c-.15.06-.3.09-.45.09-.2,0-.4-.05-.6-.16-.36-.18-.62-.47-.78-.86l-2.11-5.17c-1.69.45-3.25.67-4.66.67s-2.74-.23-3.9-.7c-.33-.13-.55-.32-.65-.57-.1-.25-.14-.64-.11-1.16l.14-1.91c.02-.62.31-1.04.84-1.26.32-.13.7-.2,1.14-.2.25,0,.52.02.82.07.8.12,1.46.18,1.98.19.25.01.49.02.73.02,1.32,0,2.44-.19,3.38-.58,1.11-.45,1.94-.89,2.48-1.31.54-.42.96-.88,1.26-1.39.62-1.09.66-2.29.11-3.62-.67-1.64-2.48-2.51-5.42-2.61-.32,0-.66-.01-1.01-.01-.57,0-1.18.01-1.83.03-.17,0-.34,0-.52,0-.9,0-1.88-.08-2.93-.23-1.26-.18-2.44-.52-3.56-1-2.51-1.08-4.25-2.8-5.21-5.17-.87-2.13-.86-4.25.02-6.35.8-1.91,2.2-3.51,4.19-4.81l-2.16-5.3c-.16-.39-.17-.77-.04-1.16.13-.38.37-.65.73-.8l2.26-.92c.15-.06.3-.09.44-.09m0-1.5c-.34,0-.68.07-1.01.2l-2.26.92c-.77.31-1.31.9-1.59,1.7-.25.72-.22,1.49.07,2.2l1.71,4.2c-1.71,1.33-2.97,2.93-3.74,4.76-1.04,2.47-1.05,4.99-.03,7.49,1.12,2.74,3.14,4.75,6.01,5.99,1.23.53,2.56.9,3.94,1.11,1.12.16,2.18.24,3.15.24.19,0,.38,0,.57,0,.63-.02,1.22-.03,1.78-.03.34,0,.66,0,.97.01,2.27.08,3.65.65,4.07,1.68.48,1.18.21,1.89-.03,2.31-.19.32-.49.64-.88.94-.3.23-.91.61-2.12,1.11-.76.31-1.7.46-2.82.46-.21,0-.43,0-.66-.02-.5-.01-1.11-.07-1.84-.18-.36-.05-.71-.08-1.04-.08-.63,0-1.2.1-1.7.31-1.08.44-1.73,1.39-1.78,2.59l-.13,1.86c-.05.77.02,1.35.21,1.82.19.46.6,1.06,1.5,1.41,1.31.53,2.81.8,4.44.8,1.17,0,2.43-.14,3.76-.42l1.62,3.98c.29.72.81,1.28,1.5,1.63.41.21.84.32,1.28.32.35,0,.69-.07,1.02-.2l2.26-.92c.76-.31,1.31-.89,1.58-1.68.26-.72.23-1.48-.06-2.21l-1.73-4.23c1.69-1.41,2.92-3.13,3.66-5.14.96-2.62.9-5.3-.19-7.95-1.14-2.78-3.27-4.76-6.34-5.87-2.05-.76-4.7-1.15-7.88-1.15l-2.18-.04c-.64-.03-1.28-.11-1.87-.25-.51-.12-.98-.32-1.37-.58-.29-.18-.48-.43-.63-.78-.16-.4-.24-.76-.21-1.06.03-.35.12-1.42,2.35-2.33,1.08-.44,2.2-.66,3.35-.66.84,0,1.72.12,2.62.35.04,0,.07.02.11.02.29.05.55.08.79.08.36,0,.67-.06.96-.17,1.31-.53,1.64-2.19,1.79-3.73.12-1.18.03-2.1-.27-2.83-.18-.44-.59-1.04-1.58-1.41-.46-.17-.92-.3-1.39-.4-1.01-.19-2-.28-2.97-.28-.78,0-1.57.06-2.35.18l-1.68-4.12c-.29-.71-.79-1.27-1.46-1.62-.42-.22-.86-.33-1.3-.33h0Z"></path></g></g><path class="cls-8" d="m60.12,74.63c-4.31,3.44-6.1,14.99,2.95,21.98,11.61,8.96,20.52-8.9,20.52-8.9,0,0,1.27-12.97-6.92-15.9-6.71-2.4-13.32.24-16.56,2.82Z"></path><path class="cls-10" d="m66.01,92.39c7.72,9.41,22.09,16.3,29.63,18.21,11.99,3.04,49.34-3.75,49.34-3.75,0,0,15.77,5.01,17.04-8.05,0,0,3.57-12.33-11.09-1.42-2.16,1.6-1.31-1.97-.68-4.74.61-2.7-4.38-.45-5.28,5.87-1.91.71-35.93-1.81-40.75-3.28-3.57-1.09-24.86-21.83-24.86-21.83"></path><path class="cls-11" d="m160.75,93.62s-.27,4.35-6.9,5.97"></path><path class="cls-11" d="m162.17,96.7s-.27,4.35-6.9,5.97"></path><ellipse cx="87.17" cy="49.12" rx=".66" ry="1.23"></ellipse><ellipse cx="79.36" cy="49.12" rx=".66" ry="1.23"></ellipse><path d="m82.49,50.3c-.12.56-.18,1.13-.14,1.7s.13,1.11.52,1.55c.06.07.14.14.19.21,0,.01.05.11.04.06,0-.04.07-.02-.03.01.04-.01-.06.03-.07.04-.07.04-.11.05-.19.08-.5.19-.92.47-.97,1.04-.02.27.25.5.5.5.29,0,.48-.23.5-.5,0,.08,0,.04.02.02.07-.03.13-.08.18-.1.2-.08.4-.14.58-.27.47-.33.6-.9.3-1.39-.11-.18-.28-.31-.4-.48s-.14-.41-.16-.61c-.06-.53-.03-1.07.08-1.6.06-.26-.08-.54-.35-.62-.25-.07-.56.08-.62.35h0Z"></path><path class="cls-1" d="m83.6,58.29s-3.26,1.77-6.04-1.7"></path><circle class="cls-4" cx="66.39" cy="53.78" r=".38"></circle></g><g><path class="cls-13" d="m250.8,116.97c-.27,0-.52-.15-.65-.39-.11-.2-.28-.62-.52-1.94l-.05-.29c-2.05-10.54-9.19-13.66-9.26-13.69-.27-.12-.46-.38-.46-.68,0-.3.17-.57.44-.69,7.51-3.45,9.23-11.72,9.58-16.35.03-.3.03-.66.03-.97,0-.74.01-1.5.81-1.5s.79.78.79,1.25c0,.19,0,.41.02.59,0,.01,0,.1,0,.17.28,3.79,1.81,13.14,9.81,16.81.27.12.44.4.44.69,0,.3-.19.56-.46.68-.07.03-7.32,3.19-9.31,13.94,0,0,0,.03-.01.05-.24,1.31-.41,1.72-.54,1.94-.13.23-.38.38-.65.38h0Z"></path><path d="m250.71,81.22c.06,0,.02.69.06,1.15,0,.03,0,.06,0,.11.31,4.17,1.94,13.68,10.25,17.49,0,0-7.66,3.18-9.76,14.5,0,.01,0,.02,0,.03-.17.95-.32,1.5-.45,1.72-.12-.22-.27-.78-.44-1.72-.02-.1-.04-.19-.05-.28-2.16-11.12-9.71-14.26-9.71-14.26,7.98-3.66,9.68-12.58,10.02-16.97.06-.73,0-1.77.09-1.77m0-1.5c-1.54,0-1.55,1.63-1.56,2.24,0,.3,0,.65-.03.91-.8,10.4-6.08,14.32-9.15,15.73-.54.25-.88.79-.87,1.39.01.6.37,1.13.92,1.36.27.12,6.85,3.03,8.81,13.16l.02.12.02.1c.26,1.44.45,1.92.61,2.2.26.48.76.78,1.3.79,0,0,.01,0,.02,0,.54,0,1.03-.29,1.3-.75.17-.29.36-.76.62-2.16,0-.02,0-.05.01-.07h0c1.91-10.31,8.58-13.27,8.87-13.39.55-.23.91-.77.91-1.36,0-.59-.33-1.14-.87-1.38-7.61-3.49-9.09-12.45-9.38-16.19,0-.06,0-.13-.02-.22,0-.15-.01-.32-.01-.48-.02-1.65-.85-1.99-1.54-1.99h0Z"></path></g><g><path class="cls-13" d="m232.53,84.86c-.27,0-.52-.16-.65-.4-.08-.14-.18-.39-.31-1.13l.71-.28-.74.14c-1.05-5.4-4.63-6.95-4.67-6.96-.27-.11-.46-.38-.46-.68s.17-.57.44-.7c3.79-1.74,4.66-5.96,4.84-8.32.01-.16.01-.33.02-.49,0-.34,0-1.14.78-1.14.35,0,.76.18.77,1.01,0,.09,0,.2,0,.28,0,0,0,.08,0,.12.14,1.91.92,6.68,4.96,8.54.27.12.44.4.44.7,0,.3-.19.57-.46.68-.15.06-3.68,1.63-4.69,7.08,0,0,0,.03,0,.05-.13.72-.23.96-.32,1.11-.13.23-.38.38-.65.38h0Z"></path><path d="m232.49,65.67s.01.36.03.6c0,.02,0,.03,0,.06.16,2.2,1.02,7.21,5.4,9.22,0,0-4.04,1.67-5.14,7.64,0,0,0,.01,0,.02-.09.5-.17.79-.24.91-.06-.12-.14-.41-.23-.91,0-.05-.02-.1-.03-.15-1.14-5.86-5.12-7.51-5.12-7.51,4.2-1.93,5.1-6.63,5.28-8.94.03-.39,0-.93.05-.93m0-1.5c-.46,0-1.52.18-1.53,1.88,0,.14,0,.3-.01.43-.17,2.2-.97,6.12-4.41,7.7-.54.25-.88.79-.87,1.39.01.6.37,1.13.92,1.36.12.05,3.26,1.49,4.22,6.41v.07s.02.05.02.06c.15.83.28,1.14.39,1.35.26.48.76.78,1.3.79,0,0,.01,0,.02,0,.54,0,1.03-.29,1.3-.75.17-.29.28-.67.41-1.35,0-.01,0-.03,0-.04h0c.93-5.02,4.12-6.47,4.26-6.53.54-.24.9-.77.9-1.36,0-.59-.33-1.13-.87-1.38-3.65-1.68-4.38-6.06-4.53-7.92,0-.04,0-.09-.01-.14,0-.06,0-.13,0-.19-.02-1.71-1.37-1.75-1.52-1.75h0Z"></path></g></svg>