<svg xmlns="http://www.w3.org/2000/svg" id="Layer_1" data-name="Layer 1" viewBox="0 0 250 250"><defs><style>      .cls-1 {        fill: none;      }      .cls-1, .cls-2, .cls-3, .cls-4, .cls-5 {        stroke-miterlimit: 10;        stroke-width: 3px;      }      .cls-1, .cls-2, .cls-4, .cls-5 {        stroke: #000;      }      .cls-2 {        fill: #04c4d9;      }      .cls-3 {        fill: #e645ff;        stroke: #0e0f10;      }      .cls-4 {        fill: #ffc729;      }      .cls-5 {        fill: #fff;      }    </style></defs><g><path class="cls-2" d="m223.75,192.2c-6.18,3.03-190.03,7.01-196.4,0-4.75-5.22-4.69-146.73,0-153,5.01-6.7,182.53-11.27,196.4,0,5.55,4.51,6.62,149.76,0,153Z"></path><path class="cls-5" d="m213.57,181.27c-5.53,2.6-169.96,6.02-175.66,0-4.25-4.49-4.19-126.17,0-131.56,4.49-5.76,163.25-9.69,175.66,0,4.96,3.87,5.92,128.77,0,131.56Z"></path><g><path class="cls-1" d="m187.95,216.84c-22.65-.55-115.39,4.33-123.87,0-2.22-1.13-2.49-9.95,0-9.95,20.51,0,97.17-1.89,123.87,0,2.48.18,2.49,10.01,0,9.95Z"></path><g><line class="cls-1" x1="106.59" y1="196.43" x2="106.59" y2="206.55"></line><line class="cls-1" x1="145.54" y1="196.43" x2="145.54" y2="206.55"></line></g></g></g><g><path class="cls-3" d="m151.49,126.97l-18.85-18.85,20.89-20.89,1.78,1.78c.41.41.97.56,1.47.56.46,0,.91-.1,1.27-.41l11.59-8.28c.51-.41.81-.97.86-1.58.05-.66-.15-1.27-.61-1.68l-4.93-4.88-4.88-4.93c-.46-.46-1.07-.71-1.73-.66-.66.05-1.17.41-1.58.91l-8.28,11.64c-.66.81-.56,1.98.2,2.74l1.73,1.73-20.89,20.89-18.75-18.8c1.07-6-.86-12.15-5.18-16.46-5.13-5.13-12.81-6.86-19.62-4.42-.66.26-1.17.81-1.32,1.58-.15.71.05,1.47.56,1.98l11.59,11.54c-1.17,3.25-3.76,5.79-7.01,6.96l-11.54-11.54c-.56-.51-1.27-.71-2.03-.56-.71.2-1.27.71-1.52,1.42-2.44,6.76-.71,14.48,4.42,19.57,4.32,4.42,10.47,6.25,16.46,5.23l18.8,18.8-6.96,6.96-3.51-3.51c-1.93-1.93-5.13-1.93-7.06,0l-18.85,18.85c-2.18,2.18-3.35,5.03-3.35,8.13s1.17,5.9,3.35,8.03l.97,1.02c2.13,2.13,5.03,3.3,8.03,3.3s5.9-1.22,8.08-3.3l18.9-18.9c1.93-1.98,1.93-5.13,0-7.11l-3.51-3.51,6.96-6.96,18.8,18.85c-1.07,6,.86,12.15,5.18,16.46,3.66,3.66,8.49,5.49,13.26,5.49s9.6-1.88,13.26-5.49c7.32-7.27,7.32-19.16,0-26.53-4.37-4.42-10.47-6.35-16.47-5.18h0Z"></path><path class="cls-4" d="m168.1,132.21c7.34,7.39,7.34,19.33,0,26.62-3.67,3.62-8.51,5.5-13.3,5.51-4.8,0-9.64-1.83-13.32-5.51-4.33-4.33-6.27-10.5-5.2-16.52l-10.44-10.47-24.44-24.42-5.9-5.9c-6.02,1.02-12.19-.81-16.52-5.25-5.15-5.1-6.89-12.85-4.44-19.63.26-.71.82-1.22,1.53-1.43.76-.15,1.48.06,2.04.56l11.58,11.58c3.26-1.18,5.86-3.73,7.03-6.99l-11.62-11.57c-.51-.51-.72-1.27-.56-1.99.15-.76.67-1.32,1.33-1.58,6.83-2.44,14.53-.71,19.68,4.44,4.33,4.33,6.28,10.51,5.2,16.52l5.94,5.96,8.17,8.19,4.71,4.72,11.55,11.53,10.48,10.44c6.01-1.17,12.13.77,16.52,5.2Z"></path></g></svg>