<svg xmlns="http://www.w3.org/2000/svg" xmlns:xlink="http://www.w3.org/1999/xlink" width="119" height="119.001" viewBox="0 0 119 119.001">
  <defs>
    <filter id="Path_873" x="0" y="0" width="119" height="119.001" filterUnits="userSpaceOnUse">
      <feOffset dx="2" dy="2" input="SourceAlpha"/>
      <feGaussianBlur stdDeviation="1.5" result="blur"/>
      <feFlood flood-color="#7a7a7a" flood-opacity="0.502"/>
      <feComposite operator="in" in2="blur"/>
      <feComposite in="SourceGraphic"/>
    </filter>
  </defs>
  <g id="Group_968" data-name="Group 968" transform="translate(-1013.5 -3483.5)">
    <g id="Group_598" data-name="Group 598" transform="translate(-216.303 1344.885)">
      <g transform="matrix(1, 0, 0, 1, 1229.8, 2138.61)" filter="url(#Path_873)">
        <path id="Path_873-2" data-name="Path 873" d="M1342.3,2196.116a55,55,0,1,1-55-55,55,55,0,0,1,55,55" transform="translate(-1229.8 -2138.61)" fill="#fff"/>
      </g>
      <path id="Path_874" data-name="Path 874" d="M1337.109,2197.338a49.805,49.805,0,1,1-49.805-49.8,49.806,49.806,0,0,1,49.805,49.8" fill="#ff3800"/>
      <path id="Path_875" data-name="Path 875" d="M1274.3,2213.34c1.1-1.16,2.262-2.3,3.259-3.553a1.774,1.774,0,0,0,.458-1.815.561.561,0,0,0-.5-.49c-1.839-.658-3.43,1.674-4.558,2.843-1.442,1.494-3.416,3.179-4.007,5.214a.552.552,0,0,0,.141.534c1.857,1.86,4.1-1.564,5.207-2.733m-2.98,1.541c-.3.27-1.194.993-1.23.838-.137-.587,1.037-1.736,1.429-2.186.484-.555.973-1.107,1.474-1.647.563-.609,2.894-3.557,4.021-3.415-.026.924-2.847,3.413-3.3,3.893q-.778.822-1.56,1.641c-.275.289-.538.608-.834.876" fill="#0c0c0c" stroke="#000" stroke-miterlimit="10" stroke-width="0.75"/>
      <path id="Path_876" data-name="Path 876" d="M1276.725,2212.6c-1.157,1.215-2.312,2.431-3.434,3.679-.854.949-1.4,1.44-1.232,2.718v0c0,.023,0,.043.006.066a.427.427,0,0,0,.259.355c1.573,1.382,4.272-2.252,5.145-3.176.916-.97,4.4-3.845,3.5-5.522-1.054-1.963-3.614,1.22-4.241,1.878m-3.607,5.948c.1-1.288,2.438-3.123,3.223-3.952.447-.474,2.9-3.413,3.3-2.989.626.659-5.459,6.7-6.527,6.941" fill="#0c0c0c" stroke="#000" stroke-miterlimit="10" stroke-width="0.75"/>
      <path id="Path_877" data-name="Path 877" d="M1308.161,2210.778c-4.518-4.547-9.415-8.71-14.282-12.907q4.285-4.247,8.507-8.557c.637-.654,1.267-1.412,1.954-2.013.991-.868,1.5-.724,2.7-.956a2.538,2.538,0,0,0,1.062-.306c1.3-.861,2.261-3.467,2.947-4.815.67-1.316.608-1.621-.444-2.74s-1.54-1.952-2.918-1.22c-1.586.841-4.1,1.875-5.294,3.229a2.078,2.078,0,0,0-.466.916q0,.483-.012.966a3.814,3.814,0,0,1-1.339,2.133c-.542.641-1.213,1.206-1.8,1.8q-4.236,4.229-8.447,8.478c-2.275-2-4.521-4.027-6.695-6.129a8.392,8.392,0,0,0,.108-9.927c-2.372-3.145-5.615-4.081-9.332-3.327a.738.738,0,0,0-.437,1.074c.712,1.194,1.389,2.409,2.067,3.624a13.085,13.085,0,0,0,.7,1.261,1.692,1.692,0,0,1,.257.591,20.379,20.379,0,0,1-1.4,3.614l-2.095-.1a5.953,5.953,0,0,0-1.621-.08c-.023.007-.035.008-.056.014-1.1-1.714-2.1-3.507-3.137-5.26a.741.741,0,0,0-1.148-.148c-3.05,2.727-3.108,7.745-.619,10.882,2.872,3.618,7.1,4,11.182,2.818q3.275,3.386,6.556,6.763l-.738.732c-.878-.821-1.766-1.63-2.684-2.409a.75.75,0,0,0-1.035,0,8.534,8.534,0,0,0-1.747,2.095c-.582,1.146-.034,2.3-.459,3.5-.142.435-2.9.47-3.541.77a12.559,12.559,0,0,0-2.887,2.278,38.732,38.732,0,0,0-3.373,3.62,20.291,20.291,0,0,0-2.649,3.286c-.79,1.632.985,3,2.011,4.158,1.365,1.537,3.31,3.918,5.153,4.806,2.016.97,3.429-1.358,4.691-2.626a55.22,55.22,0,0,0,5.556-5.992,3.8,3.8,0,0,0,.87-2.013c.161-1.542-.526-2.189,1.5-2.474a6.336,6.336,0,0,0,4.144-2.384.747.747,0,0,0,0-1.034q-1.117-1.188-2.257-2.35c.219-.214.439-.427.658-.642q4.122,4.254,8.245,8.5,2.227,2.291,4.463,4.574c1.495,1.521,2.963,3.406,4.968,4.228a4.663,4.663,0,0,0,6.391-3.332c.777-2.87-1.959-5.131-3.78-6.965" fill="#0c0c0c" stroke="#000" stroke-miterlimit="10" stroke-width="0.75"/>
      <path id="Path_878" data-name="Path 878" d="M1298,2188.629c1.469-1.472,4.248-3.322,4.9-5.324.168-.513-.064-1.619.062-1.865.275-.538,1.68-1.11,2.155-1.4.773-.464,1.552-.915,2.329-1.369,1.036-.607,1.048-.76,1.887.08.664.665,1.059.875.854,1.749a10.081,10.081,0,0,1-1.25,2.274,8.685,8.685,0,0,1-1.306,2.1c-.61.533-1.445.421-2.211.578-2.148.441-3.64,2.9-5.118,4.411q-3.6,3.669-7.26,7.281c-.633-.546-1.262-1.1-1.892-1.648q3.423-3.438,6.847-6.876" fill="#fff" stroke="#000" stroke-miterlimit="10" stroke-width="0.75"/>
      <path id="Path_879" data-name="Path 879" d="M1271.731,2185.419c-.315.067-.194-.07,0,0" fill="#0c0c0c" stroke="#000" stroke-miterlimit="10" stroke-width="0.75"/>
      <path id="Path_880" data-name="Path 880" d="M1287.128,2208.018c-1.183.848-1.91.46-3.2.668-1.246.2-1.648.878-1.674,2.089-.024,1.027.263,1.812-.271,2.769a15.136,15.136,0,0,1-2.253,2.612c-.905.974-1.836,1.922-2.769,2.868-.6.6-1.2,1.2-1.8,1.8-.68.679-.669.9-1.674.761-1.665-.222-3.583-2.693-4.709-3.935-.7-.77-1.879-1.774-1.674-2.9.19-1.032,2.172-2.769,2.9-3.6,1.585-1.823,3.809-4.687,6.332-4.9,1.263-.107,2.6-.064,3.068-1.5.356-1-.006-1.9.236-2.864a3.758,3.758,0,0,1,1.1-1.607c2.534,2.2,4.905,4.563,7.21,7a6.244,6.244,0,0,1-.821.735" fill="#fff" stroke="#000" stroke-miterlimit="10" stroke-width="0.75"/>
      <path id="Path_881" data-name="Path 881" d="M1286.442,2203.633q-.853-.857-1.728-1.694l.706-.7,1.691,1.743c-.223.217-.446.435-.669.651" fill="#fff" stroke="#000" stroke-miterlimit="10" stroke-width="0.75"/>
      <path id="Path_882" data-name="Path 882" d="M1310.271,2217c-.188,1.96-1.423,3.451-3.641,2.92-1.627-.389-2.854-1.919-3.986-3.06-5.952-6-11.8-12.109-17.682-18.18q-3.063-3.164-6.126-6.328l-.018-.015a.631.631,0,0,0-.693-.173c-3.323,1.05-6.447,1.2-9.253-1.336a6.869,6.869,0,0,1-.945-9.106q.753,1.265,1.509,2.529c.374.625.818,1.942,1.44,2.36,1.193.8,3.788.375,5.2.444a.747.747,0,0,0,.705-.537c.479-1.281,1.818-3.4,1.738-4.769a5.5,5.5,0,0,0-.959-1.922q-.882-1.589-1.79-3.164a7,7,0,0,1,6.527,2.583c2.355,2.751,1.841,6.406-.255,9.139a.734.734,0,0,0,.115.887c6.281,6.129,12.988,11.79,19.556,17.607a71.866,71.866,0,0,1,7.623,7.335,2.745,2.745,0,0,1,.937,2.786" fill="#fff" stroke="#000" stroke-miterlimit="10" stroke-width="0.75"/>
      <path id="Path_883" data-name="Path 883" d="M1307.841,2214.307a2.145,2.145,0,0,0-2.913.654.576.576,0,0,0-.116.152.506.506,0,0,0-.094.228,2.235,2.235,0,0,0,.82,2.788,2.452,2.452,0,0,0,3.112-.778c.823-1.077.16-2.333-.809-3.044m-.23,2.566a1.327,1.327,0,0,1-1.441.356,1.144,1.144,0,0,1-.411-1.563,1.073,1.073,0,0,1,1.557-.379c.517.424.876,1.036.295,1.586" fill="#0c0c0c" stroke="#000" stroke-miterlimit="10" stroke-width="0.75"/>
    </g>
  </g>
</svg>
