<svg xmlns="http://www.w3.org/2000/svg" width="521.763" height="404.364" viewBox="0 0 521.763 404.364"><g id="Group_33" data-name="Group 33" transform="translate(-3114.244 -1936.885)"><g id="Group_32" data-name="Group 32" transform="translate(-1638 -355)"><g id="Group_30" data-name="Group 30"><g id="Group_22" data-name="Group 22"><path id="Path_301" data-name="Path 301" d="M2122.442,1168.951c-4.8-.566-11.247,2.026-13.019-5.872-2.547,1.744-4.456,3.672-6.761,4.516-8.127,2.973-15.706-2.163-17.1-11.286-2.836-18.5-2.247-37.18-2.921-55.794-.169-4.655-.029-9.322-.163-13.98-.177-6.19-.536-11.865-4.244-17.776-3.295-5.253-3.7-12.658-4.281-19.211-1.83-20.554-3.118-41.158-2.179-61.817.166-3.638.715-7.263,1.189-10.881,1.6-12.232,8.351-19.866,20.328-23.072,2.066-.554,4.613-.137,6.809-2.806-9.3-6.716-10.754-16.746-11.111-27.247-.113-3.315-.711-6.612-1.064-9.919-1.336-12.521,3.9-21.664,16.152-24.219,7.56-1.576,8.516-5.794,9.061-11.615a291.887,291.887,0,0,1,6.4-40.361c4.87-20.493,16.917-32.87,38.114-37.088,25.937-5.163,52.106-6.732,78.389-7.373,45.289-1.105,90.526,1.547,135.791,2.188,43.271.614,86.544,1.11,129.815,1.744,9.979.146,19.959.528,29.93,1a59.991,59.991,0,0,1,32.475,11.423c10.088,7.174,14.967,17.114,17.145,29.175,8.454,46.813,8.217,94.071,7.737,141.336-.3,29.994,1.774,59.867,3.553,89.764a474.133,474.133,0,0,1,.155,49.915c-.871,18.939-1.029,37.926-3.134,56.806-1.3,11.636-4.446,15.317-15.988,16.377-24.574,2.255-49.238,2.109-73.837,1.008-39.609-1.773-79.211-.992-118.815-.71-45.6.326-91.205,1.262-136.81,1.531-19.993.118-39.9,1.72-59.862,2.326-9.658.292-19.287.3-28.938-.064-22.837-.861-28.482-5.552-32.812-28.018" transform="translate(2680.789 1499.001)"></path><path id="Path_302" data-name="Path 302" d="M2147.66,1004.883c3.458,2.859,5.41,4.62,7.513,6.178,3.36,2.487,7.024,3.568,11.258,2.381,11.235-3.148,22.275-6.78,32.171-13.141,3.064-1.97,7.082-4.013,7.822-7.422,1.485-6.837,5.815-6.68,11.057-6.514,8.295.262,16.6.07,24.581.07,1.646,4.061-.949,5.838-2.286,7.906-8.676,13.417-17.221,26.913-24.921,40.919-1.824,3.317-5.654,7.55-1.013,10.506,5.341,3.4,6.378-2.727,8.133-5.787,12.755-22.253,27.518-43.2,41.7-64.526.92-1.384,1.967-2.683,2.935-4.036,2.314-3.238,4.791-3.33,7.207-.215q5.813,7.492,11.429,15.135c1.179,1.6,1.988,3.47,3.126,5.105,5.115,7.345,10.084,7.706,16.009.746a142.44,142.44,0,0,0,9.313-12.961c11.155-16.564,22.089-33.277,33.4-49.735,8.787-12.788,9.885-12.6,16.845,1.106,2.861,5.636,5.49,11.394,8.494,16.952,9.989,18.48,15.823,18.916,28.237,2.372q18.877-25.161,37.878-50.229c5.391-7.1,11-14.031,17.244-21.971,2.056,4.518,2.718,7.758,2.069,11.389-.586,3.275,1.266,5.2,4.339,5.378,3.595.207,5.843-2.064,5.6-5.51a65.007,65.007,0,0,0-5.525-23.159c-1.541-3.307-4.8-5.149-8.316-3.727-10.775,4.356-21.406,9.076-32.039,13.775a3.949,3.949,0,0,0-2.458,4.9c.861,2.918,3.318,3.062,5.664,2.465,2.559-.651,5-1.757,7.5-2.66,3.323-1.2,6.433-3.2,11.072-3.179L2387.275,951.4c-3.889-2.009-5.09-5.554-6.715-8.595-4.23-7.918-7.843-16.2-12.484-23.855-7-11.562-15.225-12.228-23.58-1.521-13.52,17.326-24.929,36.155-37.186,54.378-3.13,4.653-6.289,9.286-10.066,14.859-3.845-5.31-6.927-9.831-10.29-14.131a81.93,81.93,0,0,0-9.165-10.511c-5.367-4.86-10.865-4.634-15.871.547a50.713,50.713,0,0,0-7.815,10.315c-2.7,4.832-6.358,5.943-11.579,5.524-8.283-.666-16.625-.6-24.941-.876-5.163-.168-10.361.934-14.635-4.024-2-2.317-5.9-2.056-9.094.448-6.572,5.153-14.318,8.363-21.786,11.938-6.26,3-9.067,1.889-11.944-4.3-2.238-4.818-3.928-9.889-5.9-14.83-2.1-5.263-3.9-11.051-8.089-14.762-4.959-4.4-5.373-8.376-3.727-14.554,2.849-10.692,2.1-21.833.52-32.744-1.268-8.745-6.493-14.766-15.128-16.6-5.638-1.2-6.658-3.8-5.822-8.9,2.044-12.469,3.373-25.047,5.992-37.436,3.94-18.632,14.545-29.745,33.908-32.839,17.444-2.787,34.884-5.109,52.528-5.8,48.952-1.913,97.861.161,146.791,1.286,44.934,1.033,89.891,1.018,134.837,1.54,11.648.135,23.295.5,34.939.859,8.507.265,16.253,3.058,23.566,7.315,9.5,5.531,14.92,13.568,17.087,24.458,6.863,34.484,8.021,69.369,8.013,104.349-.008,33.293-.8,66.61,1.921,99.831,2.179,26.6,2.245,53.2,1.7,79.841a165.627,165.627,0,0,1-1.773,22.87c-1.225,7.648-2.639,8.916-10.4,8.814-19.641-.259-39.283-.43-58.919-.888-59.939-1.4-119.851-.631-179.751,1.8-7.647.31-15.319.373-22.97.184q-70.926-1.755-141.8,1.455c-8.631.405-17.321.157-25.956-.3-10.5-.555-11.917-2.37-12.309-12.487-.876-22.614-1.76-45.23-2.923-67.831-.212-4.117,1.132-5.616,4.913-5.2,11.983,1.306,15.942-7.179,16.087-16.77.155-10.316.153-20.635.2-30.953.024-5.582,0-11.163,0-18.411" transform="translate(2680.789 1499.001)" fill="#e645ff"></path><path id="Path_303" data-name="Path 303" d="M2132.765,1165.06c21.829,2.863,43.657,1.012,65.522.092,29.928-1.258,59.881-1.01,89.836-.447,48.588.912,97.114-2.736,145.7-2.411q68.877.461,137.75,1.263c2.918.032,5.912-1.049,8.7.139.271.378.6.626.6.867-.414,19.348.221,19.531-19.25,20-52.244,1.252-104.467-1.727-156.72-.907-56.9.892-113.8,1.184-170.7,2.068-19.287.3-38.561,1.562-57.837,2.477a163.747,163.747,0,0,1-26.913-.71c-14.4-1.692-18.161-6.7-16.686-22.429" transform="translate(2680.789 1499.001)" fill="#fff"></path><path id="Path_304" data-name="Path 304" d="M2118.355,1158.27c-2.265-2.565-2.465-5.805-2.866-8.968-2.428-19.149-3.487-38.4-4.215-57.67-.188-4.982-.695-9.952-.957-14.933-.2-3.839-1.636-6.624-5.929-6.249-3.939.344-3.018,3.771-3.158,6.215-1.365,23.923-1.573,47.869-1.3,71.823.03,2.658.016,5.324-.168,7.973a1.753,1.753,0,0,1-1.831,1.855,2.38,2.38,0,0,1-2.342-1.377c-1.511-3.429-1.507-7.133-1.824-10.765-1.853-21.225-2.029-42.51-2.333-63.793-.092-6.465,1.4-13.346-5.3-18.179-1.442-1.041-1.566-4.273-1.811-6.549-2.674-24.818-4.336-49.695-2.9-74.662.8-13.838,4.317-18.027,17.627-21.592,5.464-1.464,10.533-3.772,15.743-5.755,5.629-2.141,12.308-1.994,18.523-1.952,3.891.026,6.393,3.44,7.97,6.835,2.8,6.017,5.315,12.164,7.888,18.282,1.158,2.753,1.94,5.685,3.289,8.333,5.069,9.946,11.939,12.537,22.216,8.047,6.377-2.786,12.45-6.261,18.711-9.321,1.654-.809,3.761-2.633,5.273-.427,1.747,2.548-.543,4.242-2.34,5.7-5.508,4.477-11.962,7.191-18.612,9.312-18.856,6.014-11.669,7.013-26.844-5.2-3.227-2.6-5.559-7.877-10.589-5.846-5.555,2.244-2.469,7.613-2.356,11.565.5,17.6,2.415,35.186.152,52.794-1.018,7.927-1.018,7.935-9.17,8.263-1.328.053-2.668-.082-3.99.021-6.569.507-8.035,1.879-7.865,8.755.238,9.637,1.016,19.261,1.343,28.9.62,18.279,1.095,36.563,1.581,54.847.031,1.174.23,2.558-1.624,3.721" transform="translate(2680.789 1499.001)" fill="#fff"></path><path id="Path_305" data-name="Path 305" d="M2135,922.214c-.279,2.579-.637,6.885-1.229,11.157-1.1,7.93-2.733,9.7-10.378,11a40.934,40.934,0,0,1-7.943.465c-11.5-.306-15.53-3.726-17.212-15.072-.876-5.907-1.075-11.911-1.733-17.854-.638-5.763,2.188-9.485,6.83-12.211a16.877,16.877,0,0,1,2.78-1.057c19.548-7.167,28.866-.122,28.885,23.568" transform="translate(2680.789 1499.001)" fill="#fefefe"></path><path id="Path_306" data-name="Path 306" d="M2316.914,1027.644c-6.644,0-13.29.116-19.93-.046a81.987,81.987,0,0,1-10.872-1.073,3.231,3.231,0,0,1-2.332-2.939,3.585,3.585,0,0,1,2.3-4,25.486,25.486,0,0,1,6.875-.708c38.577-.544,76.97-3.936,115.368-7.29,16.548-1.446,33.112-2.709,49.669-4.055.331-.027.662-.056.993-.085,3.479-.3,7.3-.265,7.791,4.044.5,4.394-3.182,5.156-6.718,5.408-3.312.237-6.621.528-9.931.792-44.374,3.533-88.674,8.132-133.214,9.952" transform="translate(2680.789 1499.001)" fill="#000202"></path><path id="Path_307" data-name="Path 307" d="M2354.762,1078.492c33.908-1.079,67.779-2.432,101.589-5.146a34.018,34.018,0,0,1,5.969-.065c2.543.245,4.536,1.626,4.638,4.331.122,3.161-1.887,4.766-4.921,5.109-.987.112-2,.036-2.987.115-53.077,4.267-106.254,4.646-159.454,4.032a47.066,47.066,0,0,1-8.879-.747,3.558,3.558,0,0,1-2.67-3.753,3.423,3.423,0,0,1,2.932-3.475,60.715,60.715,0,0,1,7.937-.386q27.922-.042,55.846-.015" transform="translate(2680.789 1499.001)" fill="#000202"></path><path id="Path_308" data-name="Path 308" d="M2366.781,1050.222c-26.371,2.42-44.983,1.837-63.581,1.892a71.564,71.564,0,0,1-9.9-.744c-2.92-.4-5.111-2.088-4.757-5.286.368-3.328,2.905-4.207,5.873-3.665,6.611,1.207,13.259.581,19.881.45,32.872-.649,65.742-1.419,98.613-2.131,2.656-.057,5.315-.019,7.972.017,2.884.04,5.557.889,5.8,4.136.3,3.938-2.8,4.873-5.928,5.185-2.306.23-4.646.14-6.971.141-18.268.009-36.537.005-47,.005" transform="translate(2680.789 1499.001)" fill="#000404"></path></g></g></g></g></svg>