<svg xmlns="http://www.w3.org/2000/svg" id="Layer_1" data-name="Layer 1" viewBox="0 0 1080 1080"><defs><style>      .cls-1 {        fill: #f9c747;      }      .cls-2 {        fill: #0d0e0f;      }      .cls-3 {        fill: #4330bf;      }      .cls-3, .cls-4, .cls-5, .cls-6, .cls-7, .cls-8, .cls-9, .cls-10 {        stroke-width: 4px;      }      .cls-3, .cls-8, .cls-9 {        stroke: #0e0f10;      }      .cls-3, .cls-8, .cls-9, .cls-10 {        stroke-miterlimit: 10;      }      .cls-4, .cls-5 {        fill: #fff;      }      .cls-4, .cls-5, .cls-6, .cls-7 {        stroke-linecap: round;        stroke-linejoin: round;      }      .cls-4, .cls-7, .cls-10 {        stroke: #000;      }      .cls-5, .cls-6 {        stroke: #0d0e0f;      }      .cls-6, .cls-7, .cls-9, .cls-10 {        fill: none;      }    </style></defs><path class="cls-1" d="m189.43,428.84s157.79-226.35,477.8-235.4c170.26-4.81,192.66,192.3,166.31,319.71-23.95,115.82-87.98,242.03-203.65,288.54-108.79,43.75-233.84-5.54-326.59-65.81-94.86-61.63-176.84-165.91-127.02-283.05,3.58-8.41,7.91-16.48,13.14-23.99Z"></path><g><g><path class="cls-4" d="m553.85,124.17c-15.72-17.75-495.44-19.98-499.96,7.46-8.3,50.31-11.31,354.23,9.86,376.56,21.84,23.05,486.95,14.61,502.32-3.54,24.78-29.26,7.73-357.96-12.22-380.47Z"></path><g><ellipse class="cls-10" cx="73.34" cy="147.98" rx="4.59" ry="4.28" transform="translate(-82.21 92.48) rotate(-44)"></ellipse><ellipse class="cls-10" cx="96.89" cy="143.55" rx="4.59" ry="4.28" transform="translate(-72.52 107.59) rotate(-44)"></ellipse><ellipse class="cls-10" cx="120.33" cy="140.74" rx="4.59" ry="4.28" transform="translate(-63.99 123.09) rotate(-44)"></ellipse><path class="cls-4" d="m157.81,139.12s207.78-12.92,378.2,4.43"></path><path class="cls-10" d="m283.39,265.48c1.04-15.82,16.48-28.96,28.5-24.28,7.19,2.8,12.1,10.31,18.17,15.54,6.08,5.23,15.41,7.74,21.26.95,2.15-2.5,3.5-5.95,5.84-8.19,4.52-4.34,10.87-2.56,15.49.65,4.62,3.22,8.84,7.74,14.26,8.51,6.38.91,12.69-3.57,18.91-6.58,12.99-6.29,27.89-6.17,39.17,1.9,5.08,3.64,9.38,8.77,14.85,11.55s12.91,2.48,17.05-3.43c1.71-2.43,2.68-5.57,4.66-7.68,5.86-6.22,13.61,1.02,20.46,3.9,11.45,4.82,24.41-3.98,35.35-12.4"></path><path class="cls-10" d="m100.32,363.65c11.57-9.11,27.72-8.31,40.97-3.97,13.25,4.34,25.35,11.67,39.13,14.37,2.49.49,5.08.82,7.63.28,4.51-.96,8.12-4.43,11.8-7.35,17.74-14.12,43.07-17.48,62.3-8.25,4.98,2.39,10.32,5.63,15.85,3.92,4.44-1.37,7.47-5.51,10.8-8.86,11.76-11.8,31.41-14.54,44.59-6.21,5.23,3.3,9.39,8.05,14.71,11.21,5.32,3.17,12.64,4.46,18.02.64,3.55-2.52,5.49-6.7,8.36-9.98,6.22-7.12,16.56-9.44,25.44-7.86,8.88,1.58,16.59,6.47,23.71,11.7,6.43,4.72,12.86,9.94,20.83,11.57,7.97,1.63,18.01-1.69,21.18-9.51.71-1.75,1.06-3.67,2.18-5.22,1.95-2.72,5.63-3.51,8.87-3.5,12.61.01,22.99,8.15,34.52,12.5,11.53,4.35,28.35,2.69,33.21-9.26"></path><path class="cls-10" d="m103.39,446.34c15.76-9.53,34.44-16.56,51.47-12.29,10.83,2.72,19.77,9.69,29.86,14.23,13.49,6.06,30.11,7.47,43.95.23,12.87-6.74,24.07-20.74,37.98-19.14,11.35,1.31,18.11,12.75,28.6,16.82,9.51,3.68,20.81.76,30.4-4.09,9.59-4.85,18.27-11.54,27.99-16.08,17.68-8.26,38.4-8.73,55.33-1.24,13.76,6.09,27.1,17.39,42.28,13.32,9.18-2.46,16.8-10.3,26.14-11.55,8.93-1.19,16.06,5.71,24.56,7.89,7.71,1.99,8.54,4.47,19.78,7.77"></path></g><path class="cls-2" d="m189.14,208.19c4.26,0,7.59-3.45,7.44-7.71-.15-4.26-3.72-7.71-7.98-7.71h-30.84l-.27-7.71c-.15-4.26-3.72-7.71-7.98-7.71s-7.59,3.45-7.44,7.71l.27,7.71h-30.84c-4.26,0-7.59,3.45-7.44,7.71.15,4.26,3.72,7.71,7.98,7.71h7.63c.95,10.75,5.07,29.65,21.15,47.14-7.39,5.63-16.81,10.81-29.03,14.93-3.99,1.35-6.02,5.71-4.53,9.75,1.19,3.23,4.27,5.27,7.49,5.27.8,0,1.62-.13,2.43-.4,15.04-5.07,26.56-11.62,35.44-18.82,9.39,7.19,21.37,13.74,36.77,18.82.82.27,1.65.4,2.45.4,3.23,0,6.16-2.04,7.12-5.27,1.2-4.04-1.13-8.41-5.21-9.75-12.54-4.13-22.32-9.29-30.11-14.89,14.87-17.51,17.67-36.42,17.86-47.18h7.63Zm-37.31,36.87c-12.94-13.99-16.16-28.62-16.86-36.87h31.18c-.17,8.22-2.39,22.87-14.32,36.87h0Z"></path></g><g><path class="cls-4" d="m757.36,226.26c-15.72-17.75-502.85-22.38-507.37,5.06-8.3,50.31-15.4,354.57,5.76,376.9,21.84,23.05,488.06,15.44,503.44-2.71,24.78-29.26,18.13-356.73-1.82-379.25Z"></path><g><ellipse class="cls-10" cx="266.46" cy="248.85" rx="4.59" ry="4.28" transform="translate(-98.08 254.93) rotate(-44)"></ellipse><ellipse class="cls-10" cx="290.01" cy="244.42" rx="4.59" ry="4.28" transform="translate(-88.4 270.05) rotate(-44)"></ellipse><ellipse class="cls-10" cx="313.45" cy="241.61" rx="4.59" ry="4.28" transform="translate(-79.87 285.54) rotate(-44)"></ellipse><path class="cls-4" d="m350.92,239.99s207.78-12.92,378.2,4.43"></path><path d="m346.79,293.27c-1.57-3.1-4.79-5.13-8.15-5.13s-6.22,2.02-7.23,5.13l-18.21,55.65c-1.38,1.51-2.14,3.6-1.93,5.91l-12.59,38.47c-1.4,4.25,1.05,9.13,5.46,10.9,4.41,1.78,9.11-.23,10.5-4.48l11.96-36.55h37.51l18.5,36.55c1.62,3.2,4.89,5.13,8.15,5.13,1.07,0,2.14-.21,3.15-.65,4.09-1.77,5.67-6.65,3.51-10.9l-50.63-100.03Zm-14.74,53.22l9.27-28.34,14.35,28.34h-23.62Z"></path><path class="cls-10" d="m420.16,366.35c1.03-15.82,19.7-28.96,34.48-24.28,8.84,2.8,14.96,10.31,22.47,15.54,7.51,5.23,18.97,7.74,26.02.95,2.6-2.5,4.19-5.95,7.01-8.19,5.47-4.34,13.25-2.56,18.95.65s10.93,7.74,17.58,8.51c7.82.91,15.47-3.57,23.02-6.58,15.79-6.29,34.01-6.17,47.94,1.9,6.27,3.64,11.61,8.77,18.34,11.55,6.73,2.78,15.83,2.48,20.8-3.43,2.05-2.43,3.2-5.57,5.58-7.68,7.07-6.22,16.66,1.02,25.09,3.9,14.08,4.82,29.79-3.98,43.04-12.4"></path><path class="cls-10" d="m293.44,464.52c11.57-9.11,27.72-8.31,40.97-3.97,13.25,4.34,25.35,11.67,39.13,14.37,2.49.49,5.08.82,7.63.28,4.51-.96,8.12-4.43,11.8-7.35,17.74-14.12,43.07-17.48,62.3-8.25,4.98,2.39,10.32,5.63,15.85,3.92,4.44-1.37,7.47-5.51,10.8-8.86,11.76-11.8,31.41-14.54,44.59-6.21,5.23,3.3,9.39,8.05,14.71,11.21,5.32,3.17,12.64,4.46,18.02.64,3.55-2.52,5.49-6.7,8.36-9.98,6.22-7.12,16.56-9.44,25.44-7.86,8.88,1.58,16.59,6.47,23.71,11.7,6.43,4.72,12.86,9.94,20.83,11.57,7.97,1.63,18.01-1.69,21.18-9.51.71-1.75,1.06-3.67,2.18-5.22,1.95-2.72,5.63-3.51,8.87-3.5,12.61.01,22.99,8.15,34.52,12.5,11.53,4.35,28.35,2.69,33.21-9.26"></path><path class="cls-10" d="m296.51,547.21c15.76-9.53,34.44-16.56,51.47-12.29,10.83,2.72,19.77,9.69,29.86,14.23,13.49,6.06,30.11,7.47,43.95.23,12.87-6.74,24.07-20.74,37.98-19.14,11.35,1.31,18.11,12.75,28.6,16.82,9.51,3.68,20.81.76,30.4-4.09s18.27-11.54,27.99-16.08c17.68-8.26,38.4-8.73,55.33-1.24,13.76,6.09,27.1,17.39,42.28,13.32,9.18-2.46,16.8-10.3,26.14-11.55,8.93-1.19,16.06,5.71,24.56,7.89,7.71,1.99,8.54,4.47,19.78,7.77"></path></g></g><g><line class="cls-7" x1="632.28" y1="945.14" x2="381.97" y2="917.98"></line><line class="cls-7" x1="1058.68" y1="992.58" x2="995.21" y2="985.7"></line><g><polygon class="cls-3" points="988.8 913.38 995.21 985.7 775.41 963.59 756.23 865.24 988.8 913.38"></polygon><path class="cls-4" d="m801.6,639.53l7.44,54.55c7.21,2.09,19.92,4.75,35.47,2.46,20.09-2.96,33.86-12.54,40.02-17.43-2.03-19.97-4.07-39.94-6.1-59.9l-76.83,20.32Z"></path><path class="cls-3" d="m884.53,679.11s83.8,29.92,101.39,52.38c34.89,44.56,44.02,184.27,28.13,224.61-7.61,19.31-125.58,13.6-196.18,13.6-38.53-1.07-49.06-11.08-49.06-11.08l-17.4-54.38s-16.44,60.97-87.26,54.55l-57.42-9.63v-69s68.13-1.6,68.13-1.6c0,0,20.4-120.49,46.93-149.22,15.96-17.28,87.24-35.27,87.24-35.27,7.18,2.09,20.79,5.01,37.49,2.14,19.03-3.28,32.04-12.35,38-17.12Z"></path><g><path class="cls-4" d="m762.56,540.32s-32.89,117.13,51.35,120.34c84.24,3.21,87.45-76.1,87.45-76.1,0,0,17.65-62.69-40.92-72.32-58.57-9.63-97.88,28.08-97.88,28.08Z"></path><path class="cls-8" d="m787.8,531.88c-7.06,14.78-22.69,29.12-38.11,34.62-2.58.92-5.44,1.67-8.03.78-2.34-.8-4.05-2.8-5.44-4.85-8.25-12.11-8.9-28.72-2.42-41.87,6.47-13.14,19.56-22.59,33.91-25.53,2.58-.53,5.33-.92,7.37-2.58,2.17-1.77,3.08-4.6,4.18-7.16,7.13-16.58,25.03-25.74,42.35-30.81,4.52-1.32,9.23-2.47,13.91-1.88s9.35,3.29,11.07,7.68c11.88-2.75,24.31-3.11,36.33-1.07,10.83,1.84,21.93,6.06,28.56,14.82,6.64,8.76,6.93,22.88-1.67,29.72,7.85,5.51,15.97,11.3,20.62,19.68,7.8,14.04,2.76,33.76-10.81,42.34,3.28,9.76.71,21.25-6.4,28.69-7.12,7.44-18.47,10.52-28.38,7.69l-3.26-2.97c8.6-7.93,14.43-18.81,16.27-30.36.51-3.22.65-6.77-1.22-9.44-1.03-1.46-2.57-2.5-4.19-3.24-3.57-1.62-7.84-1.9-11.4-.25-3.56,1.64-6.21,5.35-6.14,9.27l-.04.24c-5.13-.43-10.38-2.13-13.91-5.87-3.53-3.74-4.84-9.84-2.08-14.19-9.96,3.9-22.57-1.6-26.49-11.55-6.11,4.89-14.5,6.17-22.27,5.16-7.77-1.01-15.1-4.06-22.32-7.08Z"></path><path class="cls-7" d="m878.43,576.95c.55-1.21,1.39-2.27,2.44-3.08.46-.35,1-.67,1.57-.65.4.01.78.19,1.08.44.69.57.99,1.5,1,2.4s-.25,1.77-.52,2.62c-.45,1.46-.97,2.97-2.05,4.05-.84.83-1.94,1.34-3.01,1.82"></path></g><path class="cls-9" d="m930.5,811.42s10.27,79.15,7.22,88.25c-2.58,7.71-114.85,19.33-114.85,19.33l7.85,50.71"></path><path class="cls-7" d="m903.84,686.48s-58.75,52.01-113.9,12.92"></path><path class="cls-9" d="m742.5,824.41s-1.41,42.64,8.92,79.84"></path><ellipse cx="826.59" cy="577.79" rx="3.43" ry="6.77" transform="translate(-31.64 48.14) rotate(-3.27)"></ellipse><ellipse cx="781.48" cy="583.14" rx="3.43" ry="6.77" transform="translate(-32.02 45.57) rotate(-3.27)"></ellipse><path class="cls-4" d="m836.72,562.69s-12.12-8.2-19.97,1.25"></path><path class="cls-4" d="m791.47,568.69s-12.12-8.2-19.97,1.25"></path><path class="cls-4" d="m804.32,588.52s3.61,7.24,0,12.45c-3.61,5.22,2.67,5.78,2.67,5.78,0,0,2.94,1.31,1.2,4.52"></path><path class="cls-4" d="m834.76,614.22s-4.06,13.37-24.41,13.37"></path></g><g><g><path class="cls-4" d="m731.88,1012.86s138.89-13.58,146.55-23.53c9.33-12.13-254.59-51.35-254.59-51.35l-95.2,41.72,203.24,33.16Z"></path><path class="cls-4" d="m691.23,822.45c-7.87-8.24-198.82-34.13-200.03-21.39-2.22,23.35,26.89,168.27,37.44,178.64,10.89,10.7,196.7,41.58,203.24,33.16,10.55-13.58-30.66-179.96-40.65-190.41Z"></path></g><path class="cls-7" d="m605.82,915.66c1.89-1.31,3.52-3.38,3.85-5.65.19-1.31-.02-2.83-1.07-3.62-.95-.72-2.41-.72-3.11-1.68-.99-1.36.37-3.16.56-4.84.25-2.15-1.65-4.1-3.77-4.54s-4.3.3-6.21,1.32c-2.17,1.16-4.32,3.07-4.29,5.53.03,2.5,2.44,4.43,4.89,4.88.92.17,2.03.29,2.44,1.13.46.94-.35,2.01-1.23,2.59-.88.57-1.94,1.02-2.37,1.98-.47,1.06.1,2.36,1.05,3.02.95.66,2.17.61,3.32.77,2.09.29,4.3.28,5.68-.69l.26-.17Z"></path></g><path class="cls-4" d="m822.7,921.56s-80.62,11.74-93.13,44.51c.67,5.99,28.25-21.72,40.07-21.53,0,0-30.09,11.3-33.48,29.22-1.4,7.24,15.12-15.52,38.25-16.77,0,0-31.74,8.62-32.69,21.2,3.52,4.33,13.46-6.23,46.62-5.23,33.16,1,41.07-9.67,41.07-9.67l-6.71-41.73Z"></path></g><g><path class="cls-6" d="m293.84,658.57s14.52,157,170.25,169.37"></path><path class="cls-6" d="m337.67,692.19s26.28,98.16,126.98,106.82"></path></g><g><path class="cls-5" d="m928.88,147.76c0,37.03-24.2,71.87-70.33,67.05-38.63-4.03-70.33-30.02-70.33-67.05s24.76-67.05,70.33-67.05c28.06,0,70.33,30.02,70.33,67.05Z"></path><path class="cls-6" d="m848.58,82.91c-1.1,6.39-1.2,13.13,1.05,19.19s7.17,11.32,13.36,12.63c3.2.68,6.73.35,9.52,2.1,4.36,2.73,4.77,8.96,4.58,14.2-.19,5.24-.1,11.38,4,14.5,2.44,1.85,6.14,2.48,7.17,5.41.49,1.37.2,2.91-.26,4.29-2.93,8.79-12.31,14.27-14.53,23.28-1.65,6.69,1.57,14.31,7.44,17.65,3.1,1.76,6.68,2.37,9.95,3.76s6.47,3.96,6.96,7.56"></path><path class="cls-6" d="m791.21,130.82c5.11.55,10.26-.25,15.4-.18s10.59,1.16,14.26,4.76c1.1,1.08,2.03,2.41,2.33,3.93.35,1.73-.13,3.52-.61,5.22-.61,2.17-1.22,4.35-1.83,6.52-.37,1.32-.75,2.71-.47,4.06.37,1.77,1.79,3.1,2.82,4.59,3.63,5.23,2.29,12.76-1.68,17.73-3.97,4.97-10,7.84-16.03,9.88"></path></g><g><line class="cls-7" x1="261.06" y1="843.94" x2="81.43" y2="843.94"></line><path class="cls-7" d="m245.57,840.3s1.19-39.73,0-44c-1.16-4.16-21.91-5.4-25.13,0-1.94,3.25,0,44,0,44"></path><path class="cls-7" d="m204.4,840.3s2.55-49.46,0-54.18c-1.07-1.98-23.02-2.51-25.13,0-2.16,2.57,0,54.18,0,54.18"></path><path class="cls-7" d="m163.23,840.3s2.55-62.43,0-67.27c-1.55-2.94-22.03-5.47-25.13,0s0,67.27,0,67.27"></path><path class="cls-7" d="m122.05,840.3s1.36-94.46,0-101.99c-1.12-6.18-21.61-5.2-25.13,0-3.51,5.19,0,101.99,0,101.99"></path></g></g></svg>