<svg xmlns="http://www.w3.org/2000/svg" xmlns:xlink="http://www.w3.org/1999/xlink" width="137.49" height="137.491" viewBox="0 0 137.49 137.491">
  <defs>
    <filter id="Path_3528" x="0" y="0" width="137.49" height="137.491" filterUnits="userSpaceOnUse">
      <feOffset dx="1" dy="1" input="SourceAlpha"/>
      <feGaussianBlur stdDeviation="3" result="blur"/>
      <feFlood flood-opacity="0.161"/>
      <feComposite operator="in" in2="blur"/>
      <feComposite in="SourceGraphic"/>
    </filter>
  </defs>
  <g id="Group_2421" data-name="Group 2421" transform="translate(-3305.123 -933.436)">
    <g transform="matrix(1, 0, 0, 1, 3305.12, 933.44)" filter="url(#Path_3528)">
      <path id="Path_3528-2" data-name="Path 3528" d="M1472.992,1971.9a59.745,59.745,0,1,1-59.745-59.746,59.745,59.745,0,0,1,59.745,59.746" transform="translate(-1345.5 -1904.15)" fill="#fff"/>
    </g>
    <path id="Path_3529" data-name="Path 3529" d="M1471.623,1978.584a53.368,53.368,0,1,1-53.368-53.368,53.369,53.369,0,0,1,53.368,53.368" transform="translate(1954.614 -976.463)" fill="#ff3800"/>
    <g id="Group_2415" data-name="Group 2415" transform="translate(-101.279 217.395)">
      <g id="Group_2412" data-name="Group 2412" transform="translate(3438.592 756.055)">
        <path id="Subtraction_1" data-name="Subtraction 1" d="M-3306.723-916.107h0a27.042,27.042,0,0,1-11.523-3.5,22.611,22.611,0,0,1-8.714-9.6,1.991,1.991,0,0,0-2-1.348c-.089,0-.184,0-.282.009-.319.02-.64.031-.955.031a12.937,12.937,0,0,1-2.548-.242,5.636,5.636,0,0,1-3.958-2.37,5.622,5.622,0,0,1-.249-4.6,14.962,14.962,0,0,1,6.013-8.113,4.622,4.622,0,0,0,2.173-3.4,35.152,35.152,0,0,1,2.451-8,25.319,25.319,0,0,1,6.506-9.493,24.725,24.725,0,0,1,10.2-5.342,36.85,36.85,0,0,1,9.582-1.374,25.272,25.272,0,0,1,13.412,3.7,22.858,22.858,0,0,1,7.823,7.709,1.941,1.941,0,0,0,1.844,1.187,4.151,4.151,0,0,0,.468-.029,12.9,12.9,0,0,1,1.442-.08,17.451,17.451,0,0,1,5.485.974,4.649,4.649,0,0,1,3.188,2.842,4.716,4.716,0,0,1-1.016,4.209,15.836,15.836,0,0,1-5.043,4.026,2.712,2.712,0,0,0-1.53,2.785c.168,8.082-2.124,14.771-6.815,19.882a28.255,28.255,0,0,1-7.483,5.732,38.179,38.179,0,0,1-8.917,3.372A40.307,40.307,0,0,1-3306.723-916.107Zm-22.845-28.591c-3.25,2.513-5.027,5-5.762,8.051-.477,1.982.179,3.174,2.064,3.751a10.983,10.983,0,0,0,3.245.593,7.154,7.154,0,0,0,1.769-.221,43.285,43.285,0,0,1-1.316-12.174Zm54.7-14.268a15.323,15.323,0,0,0-2.062.142,75.042,75.042,0,0,1,2.664,8.8l.422-.249a16.526,16.526,0,0,0,4.842-3.7,2.894,2.894,0,0,0,.763-2.606,2.645,2.645,0,0,0-1.9-1.621A15.27,15.27,0,0,0-3274.867-958.967Z" transform="translate(3337.313 973.45)" fill="#010101" stroke="rgba(0,0,0,0)" stroke-miterlimit="10" stroke-width="1"/>
        <path id="Path_3692" data-name="Path 3692" d="M5259.019,2124.126c-.232,1.016-1.011,1.409-1.584,1.938-2.86,2.635-2.888,2.636-5.772.022a27.16,27.16,0,0,0-3.973-2.8c-1.1-.685-1.546-.337-1.655,1a3.944,3.944,0,0,0,.662,2.3c.567,1.016,1.186,2,1.883,3.174a78.135,78.135,0,0,1-10.18,1.913c-1.334.207-1.764-.348-2.022-1.472a35.356,35.356,0,0,1-.483-13.176,37.436,37.436,0,0,1,2.956-9.808c3.045-6.818,7.954-11.418,15.364-13.165,6.078-1.433,12.08-1.89,18.04.584a22.036,22.036,0,0,1,11.987,11.51,38.434,38.434,0,0,1,2.528,7.969,1.673,1.673,0,0,1-1.009,2.155c-1.667.876-3.316,1.783-5.212,2.807-.386-1.249-.711-2.365-1.853-2.908a6.123,6.123,0,0,0-3.688-.521,17.555,17.555,0,0,0-7.362,2.427,3.849,3.849,0,0,1-2.562.468c-3.065-.069-6.131-.173-9.2-.195-.988-.007-1.942.111-2.281,1.417-.529,2.041-.272,2.633,1.868,3.319C5256.643,2123.453,5257.827,2123.775,5259.019,2124.126Z" transform="translate(-5225.806 -2090.926)" fill="#fff" stroke="#000" stroke-miterlimit="10" stroke-width="1"/>
        <path id="Path_3693" data-name="Path 3693" d="M5264.623,2155.989a20.74,20.74,0,0,0-.2,4.862c.089,1.372.6,1.631,1.966,1.422a3.489,3.489,0,0,0,3.325-3.286c.282-1.955.906-3.857,1.324-5.795a2,2,0,0,1,1.419-1.753c5.614-1.8,10.529-5.068,15.792-7.6a1.167,1.167,0,0,1,1.225-.138,25.244,25.244,0,0,1-4.349,16.2c-6.477,9.425-21.921,14.47-32.66,10.614-5.162-1.854-9.419-4.913-11.991-9.944-.159-.312-.273-.647-.452-1.074,1.884-.937,3.918-.68,5.788-1.181,1.387-.372,2.894-.349,4.239-.814,1.58-.545,2.336.04,2.875,1.395.165.416.439.786.644,1.188a1.472,1.472,0,0,0,2.259.669,29.142,29.142,0,0,0,2.543-1.533c1.874-1.247,3.727-2.525,5.589-3.791C5264.534,2155.2,5264.681,2155.471,5264.623,2155.989Z" transform="translate(-5228.082 -2116.423)" fill="#fff" stroke="#000" stroke-miterlimit="10" stroke-width="1"/>
        <path id="Path_3694" data-name="Path 3694" d="M5264.2,2153.157a.581.581,0,0,1-.19-.447.571.571,0,0,1,.114-.833l.457.356a.7.7,0,0,1,.46.437l.081.076a.9.9,0,0,1,.481.463l.064.062a1.074,1.074,0,0,1,.488.474c1.8,2.034,1.774,1.993,4.09.559a42.248,42.248,0,0,0,7.208-6.2c-2.63-1.112-5.408-1.064-7.74-2.3.044-.991.739-.751,1.2-.754,3.152-.023,6.3-.038,9.456.015a6.248,6.248,0,0,0,3.079-.71,16.064,16.064,0,0,1,6.935-2.007c.783-.019,1.739-.227,2.159.692.472,1.033-.377,1.679-.982,2.294a9.284,9.284,0,0,1-5.114,2.863c-4.155.568-5.118,3.588-6,6.82-.284,1.039-.462,2.109-.663,3.169a1.324,1.324,0,0,1-1.366,1.292c-.637-2.636.734-5.214.335-7.833-.844-.331-1.3.4-1.861.743-2.751,1.709-5.511,3.408-8.185,5.233-1.218.831-1.9.676-2.463-.639-.316-.738-.734-1.432-1.107-2.146a2.733,2.733,0,0,1-.387-.591.457.457,0,0,1-.189-.434Q5264.375,2153.484,5264.2,2153.157Z" transform="translate(-5240.081 -2115.786)" fill="#fdfdfd"/>
        <path id="Path_3697" data-name="Path 3697" d="M5265.754,2162.706c-.311.02-.465-.125-.46-.437A.431.431,0,0,1,5265.754,2162.706Z" transform="translate(-5240.791 -2125.823)" fill="#bfc7c7"/>
        <path id="Path_3698" data-name="Path 3698" d="M5266.861,2163.764a.42.42,0,0,1-.48-.463A.459.459,0,0,1,5266.861,2163.764Z" transform="translate(-5241.337 -2126.341)" fill="#bfc7c7"/>
        <path id="Path_3699" data-name="Path 3699" d="M5265.606,2166.31a.456.456,0,0,1,.387.591A.494.494,0,0,1,5265.606,2166.31Z" transform="translate(-5240.942 -2127.854)" fill="#bfc7c7"/>
      </g>
    </g>
  </g>
</svg>
