<svg xmlns="http://www.w3.org/2000/svg" xmlns:xlink="http://www.w3.org/1999/xlink" id="Layer_1" data-name="Layer 1" viewBox="0 0 1080 1080"><defs><style>      .cls-1 {        clip-path: url(#clippath);      }      .cls-2 {        stroke: #0d0e0f;      }      .cls-2, .cls-3, .cls-4, .cls-5, .cls-6, .cls-7, .cls-8 {        stroke-miterlimit: 10;      }      .cls-9, .cls-10 {        fill: #fff;      }      .cls-11 {        fill: #ffc729;      }      .cls-12, .cls-5, .cls-13 {        fill: #4330bf;      }      .cls-14, .cls-4, .cls-15 {        fill: #04c4d9;      }      .cls-16 {        fill: #0e0f10;      }      .cls-3, .cls-4, .cls-5, .cls-15, .cls-13, .cls-10, .cls-17, .cls-18, .cls-6, .cls-7 {        stroke-width: 4px;      }      .cls-3, .cls-4, .cls-5, .cls-13, .cls-17, .cls-7, .cls-8 {        stroke: #0e0f10;      }      .cls-3, .cls-8 {        fill: #e645ff;      }      .cls-15, .cls-13, .cls-10, .cls-17, .cls-18 {        stroke-linecap: round;        stroke-linejoin: round;      }      .cls-15, .cls-10, .cls-18, .cls-6 {        stroke: #000;      }      .cls-17, .cls-18, .cls-7 {        fill: none;      }      .cls-8 {        stroke-width: 3px;      }    </style><clipPath id="clippath"><path class="cls-5" d="m586.38,797.82c71.18,20.24,97.15-60.74,97.15-60.74l19.37,60.54s11.72,11.15,54.62,12.34c78.6,0,209.94,6.36,218.41-15.14,17.69-44.91,7.52-200.46-31.32-250.07-19.58-25.01-112.88-58.32-112.88-58.32,3.02,25.14-11.33,42.61-32.52,46.25-18.6,3.2-40.35-6.5-51.52-29.58,0,0-79.35,20.03-97.12,39.27-29.54,31.99-45.57,157.31-61.16,161.6-3.92,1.08-96.9-55.34-102.11-51.89-10.89,7.18-32.81,27.52-32.81,40.56,0,9.73,86.93,92.39,131.92,105.18Z"></path></clipPath></defs><path class="cls-11" d="m131.44,439.32S337.67,143.46,755.94,131.63c222.53-6.29,251.82,251.35,217.37,417.87-31.31,151.38-114.99,316.34-266.17,377.14-142.19,57.18-305.64-7.25-426.87-86.01-123.99-80.56-231.13-216.86-166.01-369.96,4.68-11,10.34-21.55,17.18-31.35Z"></path><g><path class="cls-10" d="m422.39,182.36c8.09,6.36,5.04,86.02,0,87.91-21.53,8.07-117.08,2.91-117.08,2.91-8.28,16.44-23.93,13.06-23.93,13.06,5.09-1.33,6.64-12.62,6.64-23.2,0-4.56-4.86-76.96.5-80.68,10.75-7.47,129.75-3.25,133.88,0Z"></path><path class="cls-18" d="m302.79,218.36c1.75-5.92,10.3-9.11,16.06-6,3.19,1.72,6.28,5.07,9.75,3.9,1.79-.6,2.84-2.25,4.12-3.55,3.76-3.8,10.55-4.69,15.31-2,4.34,2.45,7.81,7.61,12.83,6.77,3.09-.51,5.09-3.2,7.65-4.86,3.55-2.3,8.53-2.56,12.34-.65,4.08,2.05,7.64,6.49,12.15,5.4,1.92-.46,3.37-1.88,5.11-2.76,2.38-1.2,5.36-1.34,7.85-.36"></path><path class="cls-18" d="m303.29,237.7c1.8-2.37,5.12-3.52,8.27-3.4,3.15.12,6.14,1.33,8.8,2.88,2.3,1.35,4.44,2.96,6.95,3.97s5.55,1.31,7.88,0c2.95-1.66,4.43-5.65,7.89-5.88,3.9-.26,5.85,4.43,9.41,5.9,4.01,1.65,8.44-1.22,11.52-4.1,3.08-2.88,6.73-6.22,11.08-5.63,3.69.5,6.52,3.8,10.25,3.85"></path></g><g><polygon class="cls-9" points="29.39 720.62 1176.24 853.95 1142.6 1119.35 -59.8 1119.35 -120.91 910.34 -120.91 735.39 29.39 720.62"></polygon><line class="cls-18" x1="999.55" y1="833.89" x2="48.51" y2="718.65"></line></g><g><path class="cls-9" d="m482.91,653.22s-14.35-46.2-39.49-48.21c0,0-9.99-1.03,8.73,27.92,0,0-27.12-.97-44.69-36.32,0,0-7.53-4.87-5.66,14.75,0,0-14.16-15.86-14.71.42,2.07,7.91,5.1,12.88,5.1,12.88,0,0-10.18-7.12-10,6.91.18,14.03,10.14,37.16,78.01,48.77,0,0,20.98,12.69,22.71-27.1Z"></path><g><path class="cls-18" d="m482.82,661.78c-3.31-21.48-15.39-41.47-32.87-54.39-1.74-1.28-3.72-2.56-5.87-2.4-3.97.3-5.96,5.38-4.9,9.22,1.06,3.84,4.01,6.8,6.3,10.06,4.93,7.03,6.91,16.06,5.36,24.5"></path><path class="cls-18" d="m449.23,635.85c-17.3-6.68-30.24-18.96-39.29-35.14-.58-1.04-2.5-3.03-4.15-3.27s-3.54.1-4.52,1.54c-.98,1.43-1.17,3.26-1.14,5,.18,12.97,9.96,23.53,19.12,32.7"></path><path class="cls-18" d="m400.96,610.41c-2.61-2.32-8.25-7.57-13.1-4.28-1.01.68-1.67,1.75-1.99,2.92-2.17,8.04,3.71,15.83,9.22,22.08,4.97,5.64,10.13,11.39,16.81,14.84"></path><path class="cls-18" d="m388.48,622.37c-3.07-.22-4.19.69-5.77,2.73-1.58,2.04-2.14,4.71-2.19,7.29-.16,7.05,5.69,14.1,10.39,19.36,4.7,5.26,10.77,9.09,17.05,12.3,16.65,8.5,32.4,12.73,50.57,17.11"></path></g></g><g><polygon class="cls-10" points="209.69 685.38 154.58 430.55 173.37 421.69 227.82 683.02 209.69 685.38"></polygon><polygon class="cls-10" points="470.03 368.21 163.45 434.69 154.58 415.91 467.67 350.08 470.03 368.21"></polygon><circle class="cls-3" cx="163.83" cy="429.21" r="27.37"></circle><circle class="cls-10" cx="163.83" cy="429.21" r="11.11"></circle><rect class="cls-10" x="511.49" y="409.93" width="62.46" height="124.32" rx="28.05" ry="28.05" transform="translate(1085.45 944.18) rotate(-180)"></rect><rect x="500.72" y="398.22" width="42.25" height="7.08" transform="translate(1043.7 803.52) rotate(-180)"></rect><rect x="467.66" y="380.06" width="42.25" height="7.08" transform="translate(514.44 -237.21) rotate(54.24)"></rect><path class="cls-10" d="m493.38,401.34c0,5.12,4.15,9.27,9.27,9.27s9.27-4.15,9.27-9.27c0-5.12-4.15-9.27-9.27-9.27-5.12,0-9.27,4.15-9.27,9.27Z"></path><path d="m531.82,416.97c1.48,2.03,21.1,1.53,22.29,0,1.89-2.42,1.24-28.94,0-31.61-.68-1.47-20.61-2.37-22.29,0-1.66,2.34-1.34,29.77,0,31.61Z"></path><circle class="cls-3" cx="465" cy="359.15" r="21.9"></circle><circle class="cls-10" cx="465" cy="359.15" r="8.56"></circle><path class="cls-18" d="m525.5,438.56c.11,23.52-.12,47.04-.68,70.56"></path><path class="cls-18" d="m545.19,440.64c.31,20.61-.34,41.23-1.95,61.77"></path><path class="cls-18" d="m559.75,443.11c1.44,14.03,1.42,28.21-.06,42.24-.67,6.39-1.65,12.82-.89,19.2"></path><path class="cls-10" d="m506.23,462.83c-4.67,1.12-3.52,15.88,0,16.78,5.56,1.42,66.58.93,72.71,0,3.37-.51,5.46-15.52,0-16.78-5.39-1.25-68.49-1.01-72.71,0Z"></path></g><g><g><polygon class="cls-5" points="947.81 747.24 954.95 827.75 710.24 803.14 688.89 693.65 947.81 747.24"></polygon><path class="cls-10" d="m739.4,442.36l15.24,122.24c8.03,2.33,22.18,5.28,39.49,2.74,22.37-3.29,37.7-13.96,44.55-19.41-2.26-22.23-11.49-105.96-13.75-128.19l-85.54,22.63Z"></path><g><path class="cls-12" d="m586.38,797.82c71.18,20.24,97.15-60.74,97.15-60.74l19.37,60.54s11.72,11.15,54.62,12.34c78.6,0,209.94,6.36,218.41-15.14,17.69-44.91,7.52-200.46-31.32-250.07-19.58-25.01-112.88-58.32-112.88-58.32,3.02,25.14-11.33,42.61-32.52,46.25-18.6,3.2-40.35-6.5-51.52-29.58,0,0-79.35,20.03-97.12,39.27-29.54,31.99-45.57,157.31-61.16,161.6-3.92,1.08-96.9-55.34-102.11-51.89-10.89,7.18-32.81,27.52-32.81,40.56,0,9.73,86.93,92.39,131.92,105.18Z"></path><g class="cls-1"><path class="cls-10" d="m725.12,509.4c14.27,199.23,80.9,362.82,80.9,362.82h32.66s23.05-239.08,17.35-378.19c-.53-12.86,4.05-45.05,4.05-45.05h-162.8s26.65,43.84,27.84,60.43Z"></path></g><path class="cls-7" d="m586.38,797.82c71.18,20.24,97.15-60.74,97.15-60.74l19.37,60.54s11.72,11.15,54.62,12.34c78.6,0,209.94,6.36,218.41-15.14,17.69-44.91,7.52-200.46-31.32-250.07-19.58-25.01-112.88-58.32-112.88-58.32,3.02,25.14-11.33,42.61-32.52,46.25-18.6,3.2-40.35-6.5-51.52-29.58,0,0-79.35,20.03-97.12,39.27-29.54,31.99-45.57,157.31-61.16,161.6-3.92,1.08-96.9-55.34-102.11-51.89-10.89,7.18-32.81,27.52-32.81,40.56,0,9.73,86.93,92.39,131.92,105.18Z"></path></g><path class="cls-13" d="m882.9,633.73s11.44,88.11,8.04,98.25c-2.88,8.59-122.64,16.77-127.86,21.52-10.57,9.61,8.73,56.46,8.73,56.46,0,0,192.09,17.71,204.05-10.32,21.71-50.89-4.18-188.2-4.18-188.2"></path><path class="cls-7" d="m673.6,648.19s-1.57,47.47,9.93,88.89"></path><g><g><path class="cls-10" d="m695.93,346.75s-22.4,127.34,57.16,133.98c93.53,7.8,97.36-84.73,97.36-84.73,0,0,19.65-69.8-45.55-80.52-65.2-10.72-108.97,31.26-108.97,31.26Z"></path><path class="cls-6" d="m724.03,337.35c-7.86,16.45-25.26,32.42-42.43,38.55-2.88,1.03-6.05,1.86-8.94.87-2.6-.89-4.51-3.12-6.06-5.4-9.18-13.48-9.9-31.98-2.7-46.61,7.21-14.63,21.77-25.15,37.75-28.42,2.87-.59,5.93-1.02,8.2-2.88,2.41-1.97,3.43-5.12,4.65-7.97,7.94-18.46,27.87-28.66,47.15-34.3,5.04-1.47,10.28-2.75,15.49-2.09,5.21.66,10.41,3.66,12.32,8.55,13.23-3.06,27.06-3.47,40.44-1.19,12.06,2.05,24.41,6.75,31.8,16.5,7.39,9.75,7.71,25.47-1.86,33.08,8.74,6.13,17.78,12.58,22.96,21.92,8.68,15.63,3.07,37.59-12.04,47.14,3.65,10.87.79,23.66-7.13,31.95-7.92,8.29-20.57,11.72-31.59,8.56l-3.62-3.31c9.58-8.83,16.07-20.94,18.12-33.8.57-3.58.72-7.54-1.36-10.51-1.14-1.63-2.86-2.79-4.67-3.61-3.97-1.81-8.73-2.11-12.69-.28-3.96,1.83-6.92,5.95-6.83,10.32l-.04.26c-5.71-.48-11.55-2.37-15.48-6.54-3.93-4.17-47.95-21.78-56.6-22.9-8.65-1.12-16.81-4.52-24.85-7.89Z"></path></g><ellipse cx="767.22" cy="388.47" rx="7.54" ry="3.82" transform="translate(288.72 1103.02) rotate(-83.05)"></ellipse><ellipse cx="717" cy="394.43" rx="7.54" ry="3.82" transform="translate(287.41 1090.93) rotate(-87.15)"></ellipse><path class="cls-10" d="m778.5,374.2s-13.5-9.13-22.23,1.39"></path><path class="cls-10" d="m728.12,378.34s-13.5-9.13-22.23,1.39"></path><path class="cls-10" d="m742.43,394.44s4.02,8.06,0,13.87c-4.02,5.81,2.98,6.43,2.98,6.43,0,0,3.28,1.46,1.34,5.03"></path><path class="cls-10" d="m772.43,429.03s-1.38,32.05-27.17,14.89l27.17-14.89Z"></path><g><path class="cls-14" d="m709.7,290.45s46.57-13.6,78.97,5.91c36.54,22.01,39.46,60.09,39.46,60.09l9.68-1.31s-9.52-92.66-115.69-75.68c-3.71.54-8.45,2.46-8.45,2.46,0,0-3.19,6.52-3.97,8.53Z"></path><g><path class="cls-17" d="m838.68,413.96s-15.09,41.88-78.97,46.79"></path><rect class="cls-16" x="749.1" y="455.74" width="20.12" height="11.47" rx="4.76" ry="4.76" transform="translate(-66.78 134.19) rotate(-9.68)"></rect></g><ellipse class="cls-15" cx="835.59" cy="386.99" rx="28.62" ry="36.1" transform="translate(-30.78 74.94) rotate(-5.04)"></ellipse><ellipse class="cls-15" cx="835.59" cy="386.99" rx="13.63" ry="17.19" transform="translate(-30.78 74.94) rotate(-5.04)"></ellipse></g></g></g><g><g><path class="cls-10" d="m332.31,847.84s163.69-16.01,172.72-27.74c11-14.3-300.05-60.51-300.05-60.51l-112.2,49.17,239.54,39.08Z"></path><path class="cls-10" d="m284.4,623.44c-9.28-9.71-234.33-40.22-235.75-25.21-2.61,27.52,31.69,198.32,44.12,210.54,12.83,12.61,231.82,49.01,239.54,39.08,12.44-16.01-36.13-212.09-47.91-224.41Z"></path></g><path class="cls-18" d="m183.74,733.29c2.22-1.54,4.15-3.99,4.54-6.66.22-1.54-.02-3.33-1.27-4.27-1.12-.85-2.84-.85-3.67-1.99-1.16-1.61.43-3.73.66-5.7.29-2.53-1.95-4.83-4.44-5.35-2.49-.52-5.07.35-7.32,1.55-2.55,1.37-5.09,3.62-5.06,6.51.04,2.94,2.87,5.22,5.77,5.75,1.08.2,2.39.34,2.88,1.33.54,1.11-.41,2.37-1.45,3.05s-2.29,1.2-2.79,2.33c-.56,1.24.12,2.78,1.24,3.56,1.12.78,2.56.72,3.91.91,2.46.35,5.07.32,6.69-.82l.3-.2Z"></path></g><path class="cls-10" d="m762.89,756.35s-89.76,13.08-103.69,49.55c.75,6.67,31.45-24.18,44.61-23.96,0,0-33.5,12.58-37.27,32.53-1.56,8.06,16.83-17.28,42.58-18.67,0,0-35.34,9.6-36.39,23.61,3.92,4.82,14.99-6.94,51.9-5.82,36.92,1.11,45.72-10.76,45.72-10.76l-7.47-46.46Z"></path></g><g><g><path class="cls-11" d="m688.29,879.41l-.11-1.88c-1.35-23.29-1.2-36.12.44-38.16,1.41-1.74,6.61-2.62,15.47-2.62,14.27,0,15.37,2.15,15.78,2.96,2.15,4.2.71,30.01.22,37.82l-.12,1.87h-31.68Z"></path><path d="m704.09,838.75c6.69,0,13.37.65,14,1.88,2.06,4.03,0,36.78,0,36.78h-27.92s-1.99-34.32,0-36.78c1.03-1.27,7.47-1.88,13.92-1.88m0-4c-14.31,0-16.14,2.27-17.03,3.36-1.07,1.32-2.17,2.69-1.63,21.94.25,8.85.75,17.5.75,17.59l.22,3.77h35.45l.24-3.75c0-.08.52-8.35.78-17.01.55-18.41-.6-20.64-1.21-21.84-.78-1.52-2.07-4.05-17.56-4.05h0Z"></path></g><g><path class="cls-11" d="m754.56,897.53l-.11-1.88c-1.35-23.29-1.2-36.12.44-38.16,1.41-1.74,6.61-2.62,15.47-2.62,14.27,0,15.37,2.15,15.78,2.96,2.15,4.2.71,30.01.22,37.82l-.12,1.87h-31.68Z"></path><path d="m770.36,856.87c6.69,0,13.37.65,14,1.88,2.06,4.03,0,36.78,0,36.78h-27.92s-1.99-34.32,0-36.78c1.03-1.27,7.47-1.88,13.91-1.88m0-4c-14.31,0-16.14,2.27-17.02,3.36-1.07,1.32-2.17,2.69-1.63,21.94.25,8.85.75,17.5.75,17.59l.22,3.77h35.45l.24-3.75c0-.08.52-8.35.78-17.01.55-18.41-.6-20.64-1.21-21.84-.78-1.52-2.07-4.05-17.56-4.05h0Z"></path></g><g><path class="cls-11" d="m819.59,914.15l-.11-1.88c-1.35-23.29-1.2-36.12.44-38.16,1.4-1.74,6.61-2.62,15.47-2.62,14.26,0,15.37,2.15,15.78,2.96,2.15,4.2.71,30.01.22,37.82l-.12,1.87h-31.68Z"></path><path d="m835.39,873.49c6.69,0,13.37.65,14,1.88,2.06,4.03,0,36.78,0,36.78h-27.92s-1.99-34.32,0-36.78c1.03-1.27,7.47-1.88,13.91-1.88m0-4c-14.31,0-16.14,2.27-17.02,3.36-1.07,1.32-2.17,2.69-1.63,21.94.25,8.85.75,17.5.75,17.59l.22,3.77h35.45l.24-3.75c0-.08.52-8.35.78-17.01.55-18.41-.6-20.64-1.21-21.84-.78-1.52-2.07-4.05-17.56-4.05h0Z"></path></g><g><path class="cls-11" d="m885.25,934.31l-.11-1.88c-1.35-23.29-1.2-36.12.44-38.16,1.4-1.74,6.61-2.62,15.47-2.62,14.27,0,15.37,2.15,15.78,2.96,2.15,4.2.71,30.01.22,37.82l-.12,1.87h-31.68Z"></path><path d="m901.05,893.65c6.69,0,13.37.65,14,1.88,2.06,4.03,0,36.78,0,36.78h-27.92s-1.99-34.32,0-36.78c1.03-1.27,7.47-1.88,13.91-1.88m0-4c-14.31,0-16.14,2.27-17.02,3.36-1.07,1.32-2.17,2.69-1.63,21.94.25,8.85.75,17.5.75,17.59l.22,3.77h35.45l.24-3.75c0-.08.52-8.35.78-17.01.55-18.41-.6-20.64-1.21-21.84-.78-1.52-2.07-4.05-17.56-4.05h0Z"></path></g><path class="cls-10" d="m943.02,977.67c-4.48,5.7-280.79,19.94-280.79,19.94v-144.79s273.83,60.17,280.79,72.4c6.49,11.4,3.23,48.35,0,52.46Z"></path><path class="cls-10" d="m288.77,955.68c11.04,9.32,373.46,41.93,373.46,41.93,0,0,5.43-138.59,0-144.79-13.34-15.24-351.89-52.25-373.46-41.93-12.83,6.14-9.91,136.43,0,144.79Z"></path><path class="cls-8" d="m315.6,930.47c2.63,2.22,89.02,9.99,89.02,9.99,0,0,1.29-33.04,0-34.52-3.18-3.63-83.88-12.45-89.02-9.99-3.06,1.46-2.36,32.52,0,34.52Z"></path><circle cx="604.06" cy="885.32" r="11.83"></circle></g><g><path class="cls-10" d="m599.55,230.65c.37-21.1,9.91-167.42,0-185.68-9.26-17.07-184.56-16.33-196.28,0-13.11,18.26-10.31,179.63,0,185.68,17.97,10.54,107.69,12.12,160.01,7.23,0,0,11.24,37.96,57.67,30.29,0,0-21.87-11.17-21.4-37.52Z"></path><g><path class="cls-4" d="m577.12,211.82c-6.65,4.39-62.19,5.12-70.91,0-3.73-2.19-4.74-60.49,0-67.08,4.24-5.9,67.57-6.17,70.91,0,3.58,6.6,6.36,62.88,0,67.08Z"></path><path class="cls-9" d="m560.73,201.1c-.27,0-.54-.05-.81-.13-6.43-2.14-11.98-5.04-16.5-8.59l-.64-.5-.64.5c-4.52,3.56-10.07,6.45-16.5,8.59-.27.09-.54.13-.81.13-1.1,0-2.07-.7-2.42-1.75-.45-1.34.28-2.79,1.61-3.23,5.4-1.8,10.12-4.19,14.05-7.1l.9-.67-.75-.84c-7.12-8.05-8.58-16.82-8.82-21.32l-.05-.98h-4.53c-1.41,0-2.56-1.15-2.56-2.56s1.15-2.56,2.56-2.56h15.39v-4.62c0-1.41,1.15-2.56,2.56-2.56s2.56,1.15,2.56,2.56v4.62h15.39c1.41,0,2.56,1.15,2.56,2.56s-1.15,2.56-2.56,2.56h-4.54s-.05.98-.05.98c-.24,4.51-1.7,13.27-8.83,21.34l-.75.85.91.67c3.93,2.9,8.66,5.28,14.07,7.08,1.34.45,2.06,1.9,1.61,3.23-.35,1.05-1.32,1.75-2.42,1.75Zm-26.25-34.82c.18,3.71,1.4,10.95,7.51,17.81l.77.87.77-.87c6.07-6.84,7.32-14.09,7.53-17.8l.06-1.09h-16.7l.05,1.08Z"></path><path class="cls-2" d="m563.03,114.99c-.91,0-1.66-.74-1.66-1.66,0-24.11-20.62-24.39-21.5-24.39h-12.39l7.6,5.7c.36.27.59.65.65,1.09.06.44-.05.87-.32,1.23-.32.42-.8.66-1.33.66-.36,0-.7-.11-.99-.33l-11.45-8.59c-.04-.05-.1-.11-.16-.17-.12-.1-.22-.22-.33-.4-.04-.07-.09-.13-.14-.2-.1-.21-.16-.43-.16-.65s.06-.45.17-.69c.03-.03.08-.09.12-.16.11-.18.22-.31.32-.4l.13-.11.05-.07,11.45-8.58c.29-.22.63-.33.99-.33.53,0,1.01.24,1.33.66.27.35.38.79.32,1.23s-.29.82-.65,1.09l-7.6,5.7h12.39c1.01,0,24.81.48,24.81,27.7,0,.91-.74,1.66-1.66,1.66Z"></path><path class="cls-2" d="m474.73,196.03c-.53,0-1.01-.24-1.33-.66-.26-.35-.38-.79-.31-1.23.06-.44.29-.83.65-1.09l7.6-5.7h-12.39c-1.01,0-24.81-.49-24.81-27.7,0-.91.74-1.66,1.66-1.66s1.66.74,1.66,1.66c0,24.11,20.62,24.39,21.5,24.39h12.39l-7.6-5.7c-.36-.27-.59-.65-.65-1.09s.05-.87.32-1.23c.32-.42.8-.66,1.33-.66.36,0,.7.11.99.33l11.45,8.59c.05.06.11.12.18.18.1.09.2.21.31.38.05.08.1.14.14.2.1.21.15.43.15.65s-.06.45-.17.69c-.03.02-.08.09-.13.16-.11.17-.21.29-.31.38l-.13.11-.05.07-11.44,8.58c-.29.22-.63.33-.99.33Z"></path><path class="cls-4" d="m496.32,131.02c-6.65,4.39-62.19,5.12-70.91,0-3.73-2.19-4.74-60.49,0-67.08,4.24-5.9,67.57-6.17,70.91,0,3.58,6.6,6.36,62.88,0,67.08Z"></path><path class="cls-9" d="m478.36,119c-.97,0-1.84-.58-2.22-1.48l-6.55-15.71h-16.85l-6.55,15.71c-.37.9-1.24,1.48-2.22,1.48-.32,0-.63-.06-.92-.19-.59-.25-1.06-.71-1.3-1.3-.24-.59-.24-1.25,0-1.84l6.69-16.06v-.21c0-.64.25-1.25.71-1.71l.15-.15,9.64-23.14c.37-.9,1.24-1.48,2.22-1.48s1.84.58,2.22,1.48l17.19,41.26c.25.59.25,1.24,0,1.84-.24.59-.7,1.06-1.3,1.31-.3.12-.61.19-.93.19Zm-23.61-22h12.84l-6.42-15.41-6.42,15.41Z"></path></g></g></svg>